<?xml version="1.0" encoding="utf-8"?>
<!DOCTYPE svg PUBLIC "-//W3C//DTD SVG 1.1//EN" "http://www.w3.org/Graphics/SVG/1.1/DTD/svg11.dtd">
<svg version="1.1" id="Layer_1" xmlns="http://www.w3.org/2000/svg" xmlns:xlink="http://www.w3.org/1999/xlink" x="0px" y="0px"
	 width="20px" height="20px" viewBox="10 0 20 20" enable-background="new 10 0 20 20" xml:space="preserve" fill="context-fill">
<g>
	<path d="M28,3L28,3L28,3H12c-0.553,0-1,0.447-1,1c0,0.552,0.447,1,1,1h15.999l0,0H28c0.553,0,1-0.448,1-1C29,3.447,28.553,3,28,3z"
		/>
	<path d="M29,8c0,0.55-0.45,1-1,1H12c-0.55,0-1-0.45-1-1s0.45-1,1-1h16C28.55,7,29,7.45,29,8z"/>
	<path d="M20.5,12.73L20.66,13H12c-0.55,0-1-0.45-1-1s0.45-1,1-1h8.22C20.11,11.58,20.2,12.2,20.5,12.73z"/>
	<path opacity="0" d="M21.81,15l1.16,2H12c-0.55,0-1-0.45-1-1s0.45-1,1-1H21.81z"/>
</g>
<g>
	<path d="M28.95,11.7c0,0.01-0.01,0.03-0.021,0.04l-0.71,1.229L27.05,15l-1.04,1.8c-0.06,0.101-0.149,0.16-0.25,0.2
		c0,0-0.01,0-0.02,0H25.43c0,0-0.01,0-0.02,0c-0.101-0.04-0.19-0.1-0.25-0.2L24.12,15l-1.15-2l-0.729-1.26
		c-0.09-0.15-0.09-0.34,0-0.49c0.08-0.16,0.25-0.25,0.42-0.25h5.85c0.17,0,0.34,0.09,0.42,0.25C29.01,11.39,29.02,11.56,28.95,11.7z
		"/>
</g>
</svg>
