<?xml version="1.0" encoding="utf-8"?>
<!DOCTYPE svg PUBLIC "-//W3C//DTD SVG 1.1//EN" "http://www.w3.org/Graphics/SVG/1.1/DTD/svg11.dtd">
<svg version="1.1" id="Layer_1" xmlns="http://www.w3.org/2000/svg" xmlns:xlink="http://www.w3.org/1999/xlink" x="0px" y="0px"
	 width="16px" height="16px" viewBox="0 0 16 16" enable-background="new 0 0 16 16" xml:space="preserve" fill="context-fill" fill-opacity="context-fill-opacity">
<path d="M8.39,7.625c0.271,0.621,0.271,1.32,0.023,1.939c-0.395,0.973-1.32,1.592-2.358,1.592c-0.327,0-0.643-0.057-0.948-0.18
	c-0.632-0.258-1.128-0.746-1.388-1.365C3.448,8.99,3.448,8.302,3.696,7.67c0.395-0.971,1.32-1.591,2.358-1.591
	c0.327,0,0.643,0.068,0.948,0.192C7.634,6.519,8.119,7.004,8.39,7.625z"/>
<path d="M14,3H8.15L6.58,1.54C6.21,1.19,5.73,1,5.22,1H2C0.9,1,0,1.9,0,3v10c0,1.1,0.9,2,2,2h12c1.1,0,2-0.9,2-2V5
	C16,3.9,15.1,3,14,3z M13.186,11.641c-0.112,0.283-0.439,0.43-0.731,0.307L8.863,10.49c-0.631,0.949-1.692,1.512-2.809,1.512
	c-0.429,0-0.858-0.078-1.275-0.248c-1.727-0.699-2.562-2.674-1.862-4.4c0.53-1.32,1.794-2.121,3.137-2.121
	c0.417,0,0.846,0.079,1.264,0.249c1.591,0.643,2.414,2.358,1.997,3.984l3.566,1.443C13.164,11.021,13.311,11.348,13.186,11.641z"/>
</svg>
