<?xml version="1.0" encoding="utf-8"?>
<!DOCTYPE svg PUBLIC "-//W3C//DTD SVG 1.1//EN" "http://www.w3.org/Graphics/SVG/1.1/DTD/svg11.dtd">
<svg version="1.1" id="logomark" xmlns="http://www.w3.org/2000/svg" xmlns:xlink="http://www.w3.org/1999/xlink" x="0px" y="0px"
	 width="220px" height="220px" viewBox="0 0 220 220" enable-background="new 0 0 220 220" xml:space="preserve" fill="context-fill">
<g>
	<path d="M217.955,100.668l-40.27,90.48c-5.315,11.926-19.272,17.289-31.199,11.976c-4.737-2.106-8.424-5.597-10.822-9.783
		c0,0-0.698-1.26-0.869-1.616c-2.682-5.168-7.32-14.371-17.128-32.025c3.667-15.532,16.302-43.909,22.412-51.94
		c0.195-0.257,0.392-0.514,0.588-0.759c4.37,7.346,8.503,13.919,13.021,21.842l21.097-47.396
		c5.313-11.913,19.272-17.276,31.196-11.975C217.895,74.784,223.257,88.742,217.955,100.668z"/>
	<circle cx="155.418" cy="25.671" r="10.846"/>
	<path d="M112.438,22.087c-11.729,0-29.189,12.697-29.189,34.441c0,8.13,1.383,12.33,2.571,14.583c0,0.025,0.446,0.979,1.408,0.979
		s1.273-0.71,1.298-0.747c1.531-2.302,4.176-5.081,8.155-8.057c9.378-7.016,33.804-10.456,33.804-26.765
		C130.484,28.319,125.184,22.087,112.438,22.087z"/>
	<path d="M58.514,62.674c-4.657,4.452-6.54,16.36,2.108,25.407c3.232,3.382,5.451,4.604,6.818,5.09
		c0.011,0.01,0.568,0.238,0.948-0.127c0.383-0.364,0.224-0.777,0.219-0.802c-0.307-1.539-0.252-3.686,0.034-6.447
		c0.933-9.002,9.264-17.179,2.778-23.964C68.158,58.417,63.575,57.837,58.514,62.674z"/>
	<path d="M166.88,70.427c-11.462-24.636-53.973-8.508-71.682,11.741c-6.21,7.101-18.011,27.594-28.89,46.673L45.216,81.446
		c-5.308-11.92-19.273-17.28-31.193-11.973C2.102,74.78-3.259,88.746,2.048,100.667l40.268,90.485
		c5.308,11.92,19.273,17.281,31.194,11.975c4.741-2.111,8.422-5.604,10.829-9.779c0,0,0.691-1.261,0.865-1.625
		c5.316-10.231,34.325-65.664,48.496-84.295C153.457,81.446,169.705,76.5,166.88,70.427z"/>
</g>
</svg>
