<?xml version="1.0" encoding="utf-8"?>
<!DOCTYPE svg PUBLIC "-//W3C//DTD SVG 1.1//EN" "http://www.w3.org/Graphics/SVG/1.1/DTD/svg11.dtd">
<svg version="1.1" id="Layer_1" xmlns="http://www.w3.org/2000/svg" xmlns:xlink="http://www.w3.org/1999/xlink" x="0px" y="0px"
	 width="631px" height="36px" viewBox="0 0 631 36" enable-background="new 0 0 631 36" xml:space="preserve" fill="context-fill">
<path d="M412.5,7.5c5.8,0,10.5,4.7,10.5,10.5s-4.7,10.5-10.5,10.5h-291c-5.8,0-10.5-4.7-10.5-10.5s4.7-10.5,10.5-10.5H412.5
	 M412.5,6.5h-291c-6.341,0-11.5,5.159-11.5,11.5s5.159,11.5,11.5,11.5h291c6.341,0,11.5-5.159,11.5-11.5S418.841,6.5,412.5,6.5
	L412.5,6.5z"/>
<path d="M626.5,36H4.5C2.019,36,0,33.98,0,31.5v-27C0,2.019,2.019,0,4.5,0h622c2.479,0,4.5,2.019,4.5,4.5v27
	C631,33.98,628.981,36,626.5,36z M4.5,1C2.57,1,1,2.57,1,4.5v27C1,33.43,2.57,35,4.5,35h622c1.933,0,3.5-1.57,3.5-3.5v-27
	c0-1.93-1.567-3.5-3.5-3.5H4.5z"/>
<path d="M126.41,22.566l-3.093-3.084c1.166-1.64,0.891-3.896-0.64-5.208c-1.642-1.359-4.069-1.133-5.431,0.506
	c-1.192,1.44-1.186,3.529,0.025,4.957c1.324,1.5,3.563,1.772,5.21,0.646l3.08,3.088c0.237,0.246,0.632,0.256,0.879,0.021
	c0.01-0.009,0.017-0.017,0.021-0.021c0.212-0.271,0.187-0.66-0.063-0.9v-0.006h0.011L126.41,22.566L126.41,22.566z M122.75,17.233
	c-0.041,1.402-1.167,2.531-2.567,2.574v-0.004c-1.423,0-2.572-1.15-2.572-2.57c0-1.42,1.147-2.571,2.57-2.572
	c1.42,0,2.569,1.15,2.569,2.57C122.75,17.231,122.75,17.232,122.75,17.233z"/>
<path d="M95.159,17.477l-5.188-5.25c-0.137-0.145-0.323-0.227-0.521-0.226c-0.194,0.001-0.382,0.083-0.513,0.226l-5.19,5.25
	c-0.295,0.28-0.31,0.748-0.022,1.044c0.278,0.295,0.749,0.305,1.043,0.021c0.006-0.006,0.013-0.015,0.021-0.021l0.223-0.229v4.198
	c0,0.818,0.661,1.486,1.482,1.5h5.931c0.823-0.01,1.485-0.682,1.479-1.5V18.3l0.223,0.226c0.132,0.146,0.319,0.229,0.521,0.229
	c0.195,0.011,0.392-0.073,0.521-0.229c0.29-0.271,0.301-0.729,0.022-1.021C95.176,17.492,95.167,17.484,95.159,17.477z
	 M92.419,21.751c0.022,0.39-0.271,0.726-0.66,0.75c-0.024,0.002-0.054,0.002-0.077,0h-4.45c-0.386,0.024-0.718-0.271-0.743-0.653
	c-0.002-0.031-0.001-0.062,0.004-0.097v-4.95l2.961-3l2.97,3L92.419,21.751L92.419,21.751z"/>
<path d="M70.377,12.75c0,0-0.001,0-0.002,0v0.004c-0.414,0-0.75,0.334-0.75,0.748c0,0,0,0.001,0,0.002v1.808
	c-1.485-2.485-4.709-3.294-7.191-1.806c-2.482,1.488-3.294,4.708-1.809,7.195c1.485,2.482,4.709,3.293,7.191,1.805
	c0.371-0.221,0.712-0.488,1.021-0.793c0.293-0.293,0.293-0.771,0-1.062c-0.293-0.293-0.771-0.293-1.063,0
	c-1.461,1.477-3.839,1.479-5.312,0.021c-1.472-1.463-1.479-3.838-0.021-5.311c1.463-1.472,3.842-1.48,5.313-0.018
	c0.335,0.333,0.604,0.726,0.794,1.159h-1.927c-0.414,0-0.75,0.336-0.75,0.75s0.336,0.75,0.75,0.75h3.75
	c0.414,0,0.75-0.333,0.75-0.748c0-0.001,0-0.002,0-0.002V13.5C71.125,13.085,70.791,12.75,70.377,12.75z"/>
<path d="M18.5,30.5C11.608,30.5,6,24.893,6,18c0-6.893,5.606-12.5,12.5-12.5C25.392,5.5,31,11.107,31,18
	C31,24.893,25.393,30.5,18.5,30.5z M18.5,6.5C12.159,6.5,7,11.659,7,18s5.159,11.5,11.5,11.5S30,24.341,30,18S24.842,6.5,18.5,6.5z"
	/>
<path fill="rgb(3,161,236)" d="M445.407,22l-3.09-3.085c1.165-1.638,0.894-3.894-0.643-5.2c-1.645-1.359-4.066-1.133-5.429,0.506
	c-1.194,1.44-1.188,3.53,0.023,4.957c1.322,1.5,3.562,1.775,5.21,0.643l3.078,3.084c0.236,0.25,0.633,0.266,0.881,0.021
	c0.007-0.007,0.02-0.014,0.021-0.021c0.212-0.271,0.188-0.65-0.062-0.896L445.407,22L445.407,22z M439.18,19.236
	c-1.42,0-2.569-1.15-2.569-2.57c-0.001-1.42,1.147-2.571,2.567-2.572c1.42,0,2.565,1.15,2.566,2.57c0,0,0,0.001,0,0.002
	c-0.04,1.403-1.167,2.531-2.564,2.574V19.236L439.18,19.236z"/>
<path d="M20.378,22.499c-0.144,0-0.275-0.037-0.396-0.108l-6.418-3.703c-0.244-0.142-0.396-0.398-0.396-0.687
	c0-0.282,0.149-0.546,0.396-0.688l6.422-3.707c0.119-0.069,0.259-0.106,0.396-0.106c0.137,0,0.272,0.037,0.394,0.106
	c0.244,0.142,0.396,0.405,0.396,0.688v7.414c0,0.282-0.151,0.543-0.396,0.687C20.654,22.461,20.515,22.499,20.378,22.499
	L20.378,22.499z"/>
<path d="M40.274,13.5c0.144,0,0.276,0.037,0.397,0.108l6.418,3.704c0.244,0.141,0.396,0.403,0.396,0.687
	c0,0.283-0.148,0.546-0.396,0.688l-6.422,3.707c-0.119,0.063-0.256,0.104-0.396,0.104c-0.138,0-0.271-0.036-0.394-0.104
	c-0.244-0.146-0.396-0.406-0.396-0.688v-7.414c0-0.283,0.151-0.543,0.396-0.685C39.997,13.538,40.136,13.5,40.274,13.5L40.274,13.5z
	"/>
<path opacity="0.25" fill="rgb(3,161,236)" enable-background="new    " d="M524.337,7.5H441c-5.802,0-10.5,4.7-10.5,10.5s4.698,10.5,10.5,10.5h83.337
	c5.8,0,10.5-4.7,10.5-10.5S530.137,7.5,524.337,7.5z"/>
<path fill="rgb(3,161,236)" d="M524.337,7.5c5.8,0,10.5,4.7,10.5,10.5s-4.7,10.5-10.5,10.5H441c-5.802,0-10.5-4.7-10.5-10.5S435.198,7.5,441,7.5H524.337
	 M524.337,6.5H441c-6.343,0-11.5,5.159-11.5,11.5s5.157,11.5,11.5,11.5h83.337c6.341,0,11.5-5.159,11.5-11.5
	S530.678,6.5,524.337,6.5L524.337,6.5z"/>
<path d="M581.363,17.436l-3.697-3.75c-0.146-0.14-0.331-0.219-0.528-0.22c-0.414,0.006-0.744,0.346-0.739,0.761
	c0.003,0.195,0.082,0.381,0.224,0.52l3.181,3.218l-3.186,3.223c-0.294,0.289-0.296,0.762-0.006,1.055s0.769,0.297,1.061,0.012
	l3.697-3.75C581.644,18.197,581.644,17.732,581.363,17.436z"/>
<path d="M582.104,13.685c-0.143-0.141-0.332-0.22-0.524-0.221c-0.196-0.001-0.39,0.079-0.521,0.221c-0.29,0.294-0.29,0.767,0,1.061
	l3.165,3.219l-3.17,3.223c-0.29,0.293-0.29,0.768,0,1.061c0.137,0.146,0.322,0.227,0.521,0.225c0.192,0,0.39-0.076,0.524-0.225
	l3.688-3.75c0.291-0.292,0.291-0.761,0-1.055L582.104,13.685z"/>
<g>
	<path d="M558.73,17.214h1.5c0.207,0,0.375-0.168,0.375-0.375s-0.168-0.375-0.375-0.375h-1.5c-0.207,0-0.375,0.168-0.375,0.375
		S558.523,17.214,558.73,17.214z"/>
	<path d="M561.363,12.714h-9c-0.825,0-1.5,0.671-1.5,1.5v7.5c0,0.828,0.675,1.5,1.5,1.5h9c0.825,0,1.5-0.672,1.5-1.5v-7.5
		C562.863,13.385,562.188,12.714,561.363,12.714z M556.863,21.715h-4.5v-7.501h4.5V21.715z M561.363,21.715h-3.75v-7.501h3.75
		V21.715z"/>
	<path d="M558.73,15.714h1.5c0.207,0,0.375-0.168,0.375-0.375s-0.168-0.375-0.375-0.375h-1.5c-0.207,0-0.375,0.168-0.375,0.375
		S558.523,15.714,558.73,15.714z"/>
	<path d="M558.73,18.715h0.75c0.207,0,0.375-0.168,0.375-0.375c0-0.207-0.168-0.375-0.375-0.375h-0.75
		c-0.207,0-0.375,0.168-0.375,0.375C558.355,18.547,558.523,18.715,558.73,18.715z"/>
</g>
<path d="M612.502,29.436c-6.325,0-11.472-5.145-11.472-11.471c0-6.326,5.145-11.472,11.472-11.472
	c6.325,0,11.472,5.146,11.472,11.472C623.974,24.291,618.828,29.436,612.502,29.436z M612.502,7.41
	c-5.819,0-10.554,4.735-10.554,10.554c0,5.819,4.734,10.555,10.554,10.555s10.554-4.736,10.554-10.555
	C623.056,12.145,618.322,7.41,612.502,7.41z"/>
<g>
	<path d="M609.346,15.737h6.313c0.436,0,0.789-0.354,0.789-0.789c0-0.436-0.354-0.79-0.789-0.79h-6.313
		c-0.437,0-0.79,0.354-0.79,0.79S608.91,15.737,609.346,15.737z"/>
	<path d="M609.346,18.895h6.313c0.436,0,0.789-0.354,0.789-0.79c0-0.436-0.354-0.789-0.789-0.789h-6.313
		c-0.437,0-0.79,0.354-0.79,0.789C608.556,18.541,608.91,18.895,609.346,18.895z"/>
	<path d="M609.346,22.051h6.313c0.436,0,0.789-0.354,0.789-0.789c0-0.438-0.354-0.791-0.789-0.791h-6.313
		c-0.437,0-0.79,0.355-0.79,0.791S608.91,22.051,609.346,22.051z"/>
</g>
</svg>
