<!-- This Source Code Form is subject to the terms of the Mozilla Public
   - License, v. 2.0. If a copy of the MPL was not distributed with this
   - file, You can obtain one at http://mozilla.org/MPL/2.0/. -->
<svg xmlns="http://www.w3.org/2000/svg" viewBox="0 0 24 24">
<!-- Generator: Adobe Illustrator 14.0.0, SVG Export Plug-In . SVG Version: 6.00 Build 43363)  -->
<style>
	:root {
		color-scheme: light dark;
	}
	g:target {
		fill-rule: evenodd;
	}
	g.context:target {
		fill: context-fill;
		fill-opacity: context-fill-opacity;
	}
	g.theme:target {
		fill: transparent /* TO BE REPLACED WITH THEME COLOR */;
	}
	g.prefer-color-scheme.default:target {
		fill: rgb(21, 20, 26); /* https://searchfox.org/mozilla-central/rev/d6576544301cacc0e393fbc919c53e4e6b0d46ec/toolkit/themes/shared/in-content/common-shared.css#16 */
	}
	g.prefer-color-scheme.toolbar:target {
		fill: rgb(91, 91, 102); /* https://searchfox.org/mozilla-central/rev/d6576544301cacc0e393fbc919c53e4e6b0d46ec/browser/themes/shared/browser-custom-colors.css#74 */
	}
	@media (prefers-color-scheme: dark) {
		g.prefer-color-scheme.default:target,
		g.prefer-color-scheme.toolbar:target {
			fill: rgb(251, 251, 254); /* https://searchfox.org/mozilla-central/rev/d6576544301cacc0e393fbc919c53e4e6b0d46ec/browser/themes/shared/browser-custom-colors.css#74 */
		}
	}
	g.mask {
		fill: black;
	}
	g:not(.mask):not(:target),
	g:target ~ g.mask {
		display: none;
	}
</style>
<symbol id="icon">
	<path d="M20,1H4C2.346,1,1,2.346,1,4v16c0,1.654,1.346,3,3,3h16c1.654,0,3-1.346,3-3V4C23,2.346,21.654,1,20,1z
		 M9,15c-0.5,0-1-0.5-1-1v-4h13v5H9z M3,4c0-0.551,0.449-1,1-1h16c0.552,0,1,0.449,1,1v5H4C3.5,9,3,8.5,3,8V4z M20,21h-6
		c-0.5,0-1-0.5-1-1v-4h8v4C21,20.552,20.552,21,20,21z"/>
	<circle cx="6" cy="6" r="1"/>
	<circle cx="11" cy="12.375" r="1"/>
	<circle cx="16" cy="18.5" r="1"/>
</symbol>
<g id="toolbar-context" class="context toolbar">
	<use href="#icon"/>
</g>
<g id="default-context" class="context default">
	<use href="#icon"/>
</g>
<g id="toolbar-theme" class="theme toolbar">
	<use href="#icon"/>
</g>
<g id="default-theme" class="theme default">
	<use href="#icon"/>
</g>
<g id="toolbar" class="prefer-color-scheme toolbar">
	<use href="#icon"/>
</g>
<g id="default" class="prefer-color-scheme default">
	<use href="#icon"/>
</g>
<g id="mask" class="mask">
	<use href="#icon"/>
</g>
</svg>
