<?xml version="1.0" encoding="UTF-8" standalone="no"?>
<svg xmlns="http://www.w3.org/2000/svg" version="1.2" baseProfile="tiny" viewBox="0 0 1419 1419">
<path fill="#94f6fe" d="
  M 1055.00 127.46
  C 1054.46 129.15 1053.77 130.38 1052.08 131.26
  Q 1021.27 147.22 990.37 132.92
  C 982.51 129.29 963.81 115.87 964.25 108.04
  C 995.21 89.45 1034.53 97.48 1055.00 127.46
  Z"
/>
<path fill="#5cedff" d="
  M 964.25 108.04
  C 963.81 115.87 982.51 129.29 990.37 132.92
  Q 1021.27 147.22 1052.08 131.26
  C 1053.77 130.38 1054.46 129.15 1055.00 127.46
  Q 1062.85 138.45 1065.50 151.76
  C 1074.43 196.62 1037.31 238.76 990.84 232.44
  C 928.12 223.92 910.17 142.05 964.25 108.04
  Z"
/>
<path fill="#94f6fe" d="
  M 841.46 214.00
  Q 840.26 212.91 839.60 214.25
  Q 839.48 214.48 839.27 214.63
  Q 810.16 234.89 776.25 241.50
  C 773.57 242.02 771.56 242.67 768.90 242.73
  C 766.54 242.79 764.72 243.73 762.35 243.73
  C 759.69 243.73 757.17 244.63 754.77 244.71
  Q 741.58 245.17 728.40 244.70
  C 726.37 244.63 724.31 243.91 722.14 243.77
  Q 718.04 243.51 717.42 243.42
  Q 657.49 234.24 615.50 190.71
  C 665.09 145.70 741.23 117.69 802.72 158.21
  Q 832.92 178.12 841.46 214.00
  Z"
/>
<path fill="#5cedff" d="
  M 615.50 190.71
  Q 657.49 234.24 717.42 243.42
  Q 718.04 243.51 722.14 243.77
  C 724.31 243.91 726.37 244.63 728.40 244.70
  Q 741.58 245.17 754.77 244.71
  C 757.17 244.63 759.69 243.73 762.35 243.73
  C 764.72 243.73 766.54 242.79 768.90 242.73
  C 771.56 242.67 773.57 242.02 776.25 241.50
  Q 810.16 234.89 839.27 214.63
  Q 839.48 214.48 839.60 214.25
  Q 840.26 212.91 841.46 214.00
  C 854.67 283.06 786.96 329.50 733.22 352.08
  C 679.74 374.56 617.21 399.28 579.45 448.19
  Q 577.54 450.67 569.15 463.10
  C 565.95 467.84 562.36 473.13 556.72 469.16
  C 552.02 465.85 548.04 456.09 546.20 450.77
  C 531.05 406.89 531.60 355.86 542.48 311.25
  Q 559.83 240.06 615.50 190.71
  Z"
/>
<path fill="#c7fffe" d="
  M 1069.09 436.44
  Q 1064.52 439.37 1060.69 435.43
  A 1.00 0.94 -14.8 0 0 1060.17 435.15
  C 991.18 421.31 922.78 472.31 876.42 516.68
  Q 839.23 552.27 805.47 593.76
  L 802.65 596.64
  Q 794.04 603.50 785.60 610.32
  C 762.06 629.34 718.67 656.20 689.37 632.87
  C 679.74 625.20 673.06 612.59 669.98 600.50
  C 656.39 547.04 678.35 487.29 713.10 447.09
  Q 713.58 446.52 713.46 446.00
  C 774.05 405.30 847.44 376.88 921.30 373.55
  C 976.19 371.08 1038.45 386.21 1069.09 436.44
  Z"
/>
<path fill="#27f1ff" d="
  M 448.98 517.02
  Q 448.07 517.80 447.94 519.04
  A 1.00 0.98 -6.3 0 1 447.25 519.89
  Q 439.99 522.19 433.24 523.17
  C 428.43 523.87 424.23 525.00 419.70 525.29
  C 415.99 525.53 412.73 526.57 408.79 526.23
  C 406.98 526.07 405.09 526.89 403.23 526.99
  Q 390.65 527.61 378.09 527.01
  C 373.71 526.80 368.38 525.63 362.96 526.75
  Q 352.06 502.84 350.59 476.58
  C 348.60 440.99 364.21 401.93 397.99 386.78
  C 428.29 373.20 467.48 389.23 475.20 423.33
  C 478.74 438.92 475.12 454.96 467.83 469.17
  Q 456.03 492.15 448.98 517.02
  Z"
/>
<path fill="#bbf3fd" d="
  M 1069.09 436.44
  C 1086.18 461.58 1066.99 480.90 1049.15 496.39
  Q 1029.19 513.70 1009.18 530.96
  Q 969.82 564.89 934.25 602.79
  L 932.70 603.06
  Q 932.54 603.09 932.39 603.17
  C 906.13 617.78 858.48 639.05 828.78 625.65
  Q 809.40 616.90 805.47 593.76
  Q 839.23 552.27 876.42 516.68
  C 922.78 472.31 991.18 421.31 1060.17 435.15
  A 1.00 0.94 -14.8 0 1 1060.69 435.43
  Q 1064.52 439.37 1069.09 436.44
  Z"
/>
<path fill="#19dffc" d="
  M 173.50 438.54
  Q 173.95 439.11 173.93 440.07
  A 0.41 0.38 24.4 0 0 174.06 440.38
  L 174.27 440.57
  A 0.80 0.79 -54.5 0 1 174.43 441.54
  Q 174.04 442.25 174.02 443.09
  Q 173.99 444.40 173.81 444.95
  Q 169.02 459.28 163.46 473.35
  A 1.00 0.99 5.3 0 1 162.71 473.97
  L 161.64 474.17
  A 1.00 0.98 7.8 0 0 160.93 474.70
  Q 159.54 477.49 158.12 480.26
  C 156.52 483.42 155.20 488.00 152.84 491.49
  Q 150.13 495.50 149.51 496.69
  C 147.57 500.40 146.13 507.31 140.50 505.64
  Q 137.99 504.89 136.53 507.03
  Q 133.96 510.79 131.77 514.80
  Q 131.12 515.99 129.93 516.08
  A 0.99 0.99 0.0 0 0 129.00 517.07
  L 129.00 518.45
  A 1.11 1.11 0.0 0 1 128.82 519.02
  Q 120.85 530.59 111.76 541.31
  A 1.04 1.00 -69.7 0 1 111.01 541.67
  L 103.68 541.82
  A 1.03 1.01 20.5 0 0 102.96 542.14
  Q 96.81 548.82 90.00 555.45
  C 88.07 557.32 85.48 558.91 83.37 561.03
  C 78.15 566.27 71.35 571.40 65.24 575.46
  A 1.00 0.94 26.5 0 1 64.70 575.62
  C 59.74 575.65 51.91 575.02 47.47 577.37
  Q 41.05 580.75 34.84 584.46
  Q 32.36 585.95 35.25 585.95
  L 46.59 585.97
  Q 49.43 585.97 47.01 587.45
  Q 41.85 590.60 36.41 593.23
  C 34.38 594.21 32.45 595.79 30.13 596.75
  Q 25.51 598.65 25.18 598.82
  Q 15.21 603.79 4.59 607.35
  A 1.00 1.00 0.0 0 1 3.28 606.53
  Q 3.04 604.54 1.54 603.25
  C -6.54 505.34 74.76 424.82 173.50 438.54
  Z"
/>
<path fill="#6b8df1" d="
  M 1366.75 735.79
  L 1364.87 737.81
  Q 1364.51 738.20 1364.50 737.75
  L 1364.50 737.46
  A 0.32 0.32 0.0 0 0 1364.20 737.14
  Q 1361.59 736.94 1359.06 737.44
  C 1355.09 738.22 1351.62 737.78 1347.76 739.04
  Q 1346.23 739.54 1338.61 739.25
  C 1336.69 739.18 1335.15 740.20 1333.25 740.22
  C 1324.14 740.35 1311.81 741.03 1300.54 739.45
  Q 1296.45 738.87 1292.24 739.34
  Q 1291.98 739.37 1291.74 739.27
  C 1288.25 737.80 1284.57 738.42 1281.45 737.83
  Q 1273.64 736.37 1271.50 736.24
  Q 1268.94 736.08 1267.28 735.31
  A 1.02 1.00 -35.5 0 0 1266.71 735.22
  C 1264.00 735.63 1261.81 734.47 1259.85 734.07
  Q 1225.30 727.12 1193.69 711.53
  A 0.81 0.80 -77.0 0 1 1193.25 710.81
  L 1193.25 710.53
  A 1.00 1.00 0.0 0 0 1192.26 709.53
  Q 1191.44 709.52 1190.62 709.48
  Q 1189.61 709.43 1188.65 708.96
  Q 1167.05 698.51 1147.76 684.23
  C 1136.66 676.01 1130.47 670.51 1124.21 665.18
  C 1117.17 659.19 1107.99 651.03 1102.61 643.59
  C 1100.65 640.86 1097.69 638.38 1095.94 636.07
  Q 1091.88 630.73 1087.46 625.64
  A 0.98 0.96 -59.8 0 1 1087.24 624.78
  L 1087.83 621.92
  A 1.00 0.96 -54.6 0 0 1087.73 621.23
  L 1087.46 620.75
  Q 1107.05 576.02 1126.94 531.41
  C 1146.60 487.32 1178.58 457.03 1225.08 443.06
  C 1286.68 424.55 1354.80 449.41 1390.81 501.44
  C 1419.51 542.93 1426.23 595.58 1407.94 642.59
  Q 1406.90 645.27 1400.01 660.96
  Q 1383.54 698.45 1366.75 735.79
  Z"
/>
<path fill="#05c4ec" d="
  M 173.50 438.54
  Q 229.87 447.38 267.04 490.25
  Q 266.90 491.44 266.60 490.94
  Q 266.25 490.34 266.12 491.03
  Q 265.06 496.79 262.59 502.30
  A 1.02 1.01 11.3 0 1 261.70 502.89
  L 255.24 503.03
  Q 252.71 503.08 252.06 504.82
  Q 247.15 517.96 241.02 530.58
  A 0.99 0.99 0.0 0 1 240.56 531.04
  Q 237.20 532.70 233.50 531.98
  Q 230.86 531.46 229.67 533.91
  Q 225.35 542.81 219.64 552.15
  C 217.92 554.96 217.04 558.31 213.59 560.65
  A 1.02 1.00 -60.4 0 1 213.00 560.82
  C 210.76 560.77 209.36 561.15 208.03 563.15
  Q 202.91 570.78 197.83 578.45
  Q 196.80 580.00 198.66 580.00
  L 200.24 580.00
  Q 202.01 580.00 201.09 581.51
  Q 198.41 585.97 196.42 587.67
  C 194.89 588.98 191.71 588.86 189.77 590.23
  C 187.08 592.14 184.98 595.62 183.50 597.34
  Q 180.94 600.31 178.59 603.46
  C 176.14 606.73 172.83 609.43 170.27 612.84
  Q 168.36 615.37 166.73 616.10
  Q 164.63 617.05 162.23 617.01
  A 1.00 1.00 0.0 0 1 161.25 616.01
  L 161.25 613.75
  A 1.00 1.00 0.0 0 1 162.24 612.75
  L 163.36 612.74
  A 1.00 0.97 22.9 0 0 164.03 612.48
  C 168.71 608.19 172.75 603.04 176.47 598.66
  Q 179.88 594.65 183.18 590.53
  Q 184.37 589.06 182.48 588.91
  Q 179.80 588.70 177.99 590.22
  Q 175.81 592.06 171.71 597.56
  C 170.25 599.53 168.24 601.17 166.68 603.22
  C 162.94 608.13 158.33 612.28 154.03 616.57
  A 1.02 0.99 20.3 0 1 153.37 616.86
  Q 149.18 617.05 144.87 617.00
  C 139.09 616.94 136.42 621.55 132.32 624.73
  Q 130.51 626.13 128.17 628.41
  Q 123.39 633.06 106.68 644.91
  C 98.61 650.63 89.66 645.45 82.04 650.01
  Q 55.29 666.05 25.74 676.14
  C 13.04 648.11 4.48 629.57 1.54 603.25
  Q 3.04 604.54 3.28 606.53
  A 1.00 1.00 0.0 0 0 4.59 607.35
  Q 15.21 603.79 25.18 598.82
  Q 25.51 598.65 30.13 596.75
  C 32.45 595.79 34.38 594.21 36.41 593.23
  Q 41.85 590.60 47.01 587.45
  Q 49.43 585.97 46.59 585.97
  L 35.25 585.95
  Q 32.36 585.95 34.84 584.46
  Q 41.05 580.75 47.47 577.37
  C 51.91 575.02 59.74 575.65 64.70 575.62
  A 1.00 0.94 26.5 0 0 65.24 575.46
  C 71.35 571.40 78.15 566.27 83.37 561.03
  C 85.48 558.91 88.07 557.32 90.00 555.45
  Q 96.81 548.82 102.96 542.14
  A 1.03 1.01 20.5 0 1 103.68 541.82
  L 111.01 541.67
  A 1.04 1.00 -69.7 0 0 111.76 541.31
  Q 120.85 530.59 128.82 519.02
  A 1.11 1.11 0.0 0 0 129.00 518.45
  L 129.00 517.07
  A 0.99 0.99 0.0 0 1 129.93 516.08
  Q 131.12 515.99 131.77 514.80
  Q 133.96 510.79 136.53 507.03
  Q 137.99 504.89 140.50 505.64
  C 146.13 507.31 147.57 500.40 149.51 496.69
  Q 150.13 495.50 152.84 491.49
  C 155.20 488.00 156.52 483.42 158.12 480.26
  Q 159.54 477.49 160.93 474.70
  A 1.00 0.98 7.8 0 1 161.64 474.17
  L 162.71 473.97
  A 1.00 0.99 5.3 0 0 163.46 473.35
  Q 169.02 459.28 173.81 444.95
  Q 173.99 444.40 174.02 443.09
  Q 174.04 442.25 174.43 441.54
  A 0.80 0.79 -54.5 0 0 174.27 440.57
  L 174.06 440.38
  A 0.41 0.38 24.4 0 1 173.93 440.07
  Q 173.95 439.11 173.50 438.54
  Z"
/>
<path fill="#27f1ff" d="
  M 713.46 446.00
  Q 713.58 446.52 713.10 447.09
  C 678.35 487.29 656.39 547.04 669.98 600.50
  C 673.06 612.59 679.74 625.20 689.37 632.87
  C 718.67 656.20 762.06 629.34 785.60 610.32
  Q 794.04 603.50 802.65 596.64
  L 765.29 645.00
  C 721.21 704.32 680.83 766.26 642.28 829.30
  Q 597.62 902.32 542.50 1000.46
  L 524.74 1031.47
  Q 509.38 1031.06 494.09 1031.37
  C 490.84 1031.44 487.44 1030.31 484.04 1030.08
  A 0.25 0.24 -78.6 0 0 483.78 1030.26
  Q 483.68 1030.58 483.25 1030.47
  C 476.91 1028.85 470.61 1028.22 464.26 1026.88
  C 462.33 1026.47 460.33 1027.06 458.24 1025.88
  A 1.03 0.99 57.5 0 0 457.71 1025.75
  C 454.37 1025.86 450.89 1024.74 448.24 1024.39
  Q 443.75 1023.80 439.28 1023.05
  Q 436.10 1022.52 432.87 1022.38
  C 430.63 1022.28 428.60 1021.47 426.20 1021.38
  C 421.86 1021.20 418.13 1020.25 413.93 1020.43
  A 1.00 0.98 -26.3 0 1 413.29 1020.22
  Q 412.52 1019.63 412.01 1019.67
  Q 406.68 1020.03 401.48 1018.79
  C 399.01 1018.21 395.20 1018.64 391.88 1018.04
  Q 387.19 1017.21 382.40 1017.50
  C 379.75 1017.67 377.27 1016.30 374.45 1016.31
  Q 369.05 1016.33 363.65 1016.23
  A 0.96 0.93 -25.7 0 1 363.08 1016.04
  C 361.28 1014.70 345.51 1015.34 342.09 1015.50
  C 339.33 1015.63 337.41 1014.17 334.60 1014.31
  Q 329.11 1014.60 323.54 1014.48
  A 1.01 1.00 76.3 0 1 322.67 1013.94
  Q 322.23 1013.09 322.46 1012.00
  Q 329.08 1004.60 335.44 993.69
  Q 370.18 934.06 404.25 874.04
  L 426.96 834.50
  Q 535.04 646.93 554.76 613.54
  Q 607.10 524.93 689.13 462.87
  Q 700.96 453.93 713.46 446.00
  Z"
/>
<path fill="#13c0f8" d="
  M 267.04 490.25
  C 286.35 513.17 297.04 542.49 309.21 570.00
  C 307.87 569.57 308.02 570.70 308.44 571.40
  Q 309.73 573.55 308.15 572.61
  A 1.01 1.01 0.0 0 0 306.71 573.10
  Q 302.45 583.48 296.58 593.05
  Q 295.38 595.00 293.00 595.00
  L 285.25 595.02
  Q 282.89 595.02 281.70 597.12
  C 278.01 603.70 273.80 610.08 269.90 616.81
  C 267.78 620.46 263.73 620.06 260.42 620.01
  Q 258.03 619.98 256.66 621.94
  Q 249.61 632.15 242.19 641.89
  Q 241.40 642.92 240.74 644.05
  A 0.64 0.64 0.0 0 0 241.20 645.01
  L 241.48 645.05
  Q 242.04 645.12 241.47 645.21
  Q 238.75 645.62 236.97 648.23
  Q 232.86 654.30 226.22 660.70
  A 1.04 1.01 75.3 0 0 225.93 661.21
  C 225.43 663.54 216.82 670.16 215.15 671.45
  C 212.20 673.72 207.65 673.19 204.19 672.96
  A 1.03 1.03 0.0 0 0 203.38 673.28
  Q 197.58 679.59 190.79 684.79
  A 0.97 0.94 24.9 0 1 190.19 685.00
  L 175.30 685.00
  A 1.00 0.99 -63.7 0 0 174.69 685.21
  Q 168.50 689.98 162.54 695.04
  C 160.50 696.77 154.17 700.70 150.49 700.90
  C 145.00 701.19 141.88 700.57 137.04 703.79
  Q 120.45 714.84 101.08 724.59
  C 98.19 726.05 94.51 726.94 91.32 728.52
  C 84.01 732.11 72.57 728.85 64.39 730.91
  C 63.21 731.20 54.05 733.43 53.99 735.17
  A 0.86 0.83 69.4 0 1 53.76 735.70
  Q 52.81 736.68 53.17 735.66
  A 1.03 1.00 -48.1 0 0 53.14 734.92
  Q 52.67 733.84 51.54 734.25
  L 25.74 676.14
  Q 55.29 666.05 82.04 650.01
  C 89.66 645.45 98.61 650.63 106.68 644.91
  Q 123.39 633.06 128.17 628.41
  Q 130.51 626.13 132.32 624.73
  C 136.42 621.55 139.09 616.94 144.87 617.00
  Q 149.18 617.05 153.37 616.86
  A 1.02 0.99 20.3 0 0 154.03 616.57
  C 158.33 612.28 162.94 608.13 166.68 603.22
  C 168.24 601.17 170.25 599.53 171.71 597.56
  Q 175.81 592.06 177.99 590.22
  Q 179.80 588.70 182.48 588.91
  Q 184.37 589.06 183.18 590.53
  Q 179.88 594.65 176.47 598.66
  C 172.75 603.04 168.71 608.19 164.03 612.48
  A 1.00 0.97 22.9 0 1 163.36 612.74
  L 162.24 612.75
  A 1.00 1.00 0.0 0 0 161.25 613.75
  L 161.25 616.01
  A 1.00 1.00 0.0 0 0 162.23 617.01
  Q 164.63 617.05 166.73 616.10
  Q 168.36 615.37 170.27 612.84
  C 172.83 609.43 176.14 606.73 178.59 603.46
  Q 180.94 600.31 183.50 597.34
  C 184.98 595.62 187.08 592.14 189.77 590.23
  C 191.71 588.86 194.89 588.98 196.42 587.67
  Q 198.41 585.97 201.09 581.51
  Q 202.01 580.00 200.24 580.00
  L 198.66 580.00
  Q 196.80 580.00 197.83 578.45
  Q 202.91 570.78 208.03 563.15
  C 209.36 561.15 210.76 560.77 213.00 560.82
  A 1.02 1.00 -60.4 0 0 213.59 560.65
  C 217.04 558.31 217.92 554.96 219.64 552.15
  Q 225.35 542.81 229.67 533.91
  Q 230.86 531.46 233.50 531.98
  Q 237.20 532.70 240.56 531.04
  A 0.99 0.99 0.0 0 0 241.02 530.58
  Q 247.15 517.96 252.06 504.82
  Q 252.71 503.08 255.24 503.03
  L 261.70 502.89
  A 1.02 1.01 11.3 0 0 262.59 502.30
  Q 265.06 496.79 266.12 491.03
  Q 266.25 490.34 266.60 490.94
  Q 266.90 491.44 267.04 490.25
  Z"
/>
<path fill="#19dffc" d="
  M 448.98 517.02
  Q 441.63 547.02 442.04 577.83
  C 442.10 582.14 442.42 591.73 440.36 595.28
  Q 438.93 597.74 436.27 596.76
  C 402.85 584.45 377.40 559.03 362.96 526.75
  C 368.38 525.63 373.71 526.80 378.09 527.01
  Q 390.65 527.61 403.23 526.99
  C 405.09 526.89 406.98 526.07 408.79 526.23
  C 412.73 526.57 415.99 525.53 419.70 525.29
  C 424.23 525.00 428.43 523.87 433.24 523.17
  Q 439.99 522.19 447.25 519.89
  A 1.00 0.98 -6.3 0 0 447.94 519.04
  Q 448.07 517.80 448.98 517.02
  Z"
/>
<path fill="#09b1f9" d="
  M 309.21 570.00
  L 361.50 687.96
  Q 361.01 688.09 361.04 688.49
  A 0.52 0.51 -5.1 0 1 360.57 689.04
  C 356.55 689.40 351.23 698.02 349.16 701.31
  C 347.25 704.36 344.71 707.25 342.78 710.48
  C 341.49 712.65 338.84 714.24 336.23 714.12
  Q 327.36 713.72 317.13 714.50
  A 0.99 0.97 -72.1 0 0 316.44 714.86
  Q 309.06 723.71 301.06 733.05
  C 299.23 735.19 296.52 736.65 294.86 738.63
  A 1.00 0.98 -69.7 0 1 294.10 738.99
  L 275.26 739.02
  Q 272.55 739.02 270.65 740.96
  Q 266.39 745.31 261.78 749.81
  C 258.91 752.62 254.55 755.67 251.38 759.28
  C 250.45 760.32 249.27 760.55 248.07 761.12
  C 245.61 762.30 244.52 764.97 241.44 764.97
  Q 231.16 764.99 220.86 765.05
  A 0.99 0.97 -60.5 0 0 220.34 765.20
  C 210.53 771.36 201.70 779.42 191.54 785.00
  Q 187.48 787.22 183.40 789.45
  C 177.67 792.57 170.39 789.22 165.32 793.27
  Q 163.68 794.58 161.85 795.26
  Q 158.43 796.54 153.54 799.26
  C 144.25 804.42 132.69 809.38 120.67 814.76
  C 111.84 818.72 104.02 818.19 92.26 818.02
  C 90.69 818.00 89.44 818.77 89.96 820.50
  L 51.54 734.25
  Q 52.67 733.84 53.14 734.92
  A 1.03 1.00 -48.1 0 1 53.17 735.66
  Q 52.81 736.68 53.76 735.70
  A 0.86 0.83 69.4 0 0 53.99 735.17
  C 54.05 733.43 63.21 731.20 64.39 730.91
  C 72.57 728.85 84.01 732.11 91.32 728.52
  C 94.51 726.94 98.19 726.05 101.08 724.59
  Q 120.45 714.84 137.04 703.79
  C 141.88 700.57 145.00 701.19 150.49 700.90
  C 154.17 700.70 160.50 696.77 162.54 695.04
  Q 168.50 689.98 174.69 685.21
  A 1.00 0.99 -63.7 0 1 175.30 685.00
  L 190.19 685.00
  A 0.97 0.94 24.9 0 0 190.79 684.79
  Q 197.58 679.59 203.38 673.28
  A 1.03 1.03 0.0 0 1 204.19 672.96
  C 207.65 673.19 212.20 673.72 215.15 671.45
  C 216.82 670.16 225.43 663.54 225.93 661.21
  A 1.04 1.01 75.3 0 1 226.22 660.70
  Q 232.86 654.30 236.97 648.23
  Q 238.75 645.62 241.47 645.21
  Q 242.04 645.12 241.48 645.05
  L 241.20 645.01
  A 0.64 0.64 0.0 0 1 240.74 644.05
  Q 241.40 642.92 242.19 641.89
  Q 249.61 632.15 256.66 621.94
  Q 258.03 619.98 260.42 620.01
  C 263.73 620.06 267.78 620.46 269.90 616.81
  C 273.80 610.08 278.01 603.70 281.70 597.12
  Q 282.89 595.02 285.25 595.02
  L 293.00 595.00
  Q 295.38 595.00 296.58 593.05
  Q 302.45 583.48 306.71 573.10
  A 1.01 1.01 0.0 0 1 308.15 572.61
  Q 309.73 573.55 308.44 571.40
  C 308.02 570.70 307.87 569.57 309.21 570.00
  Z"
/>
<path fill="#19dffc" d="
  M 805.47 593.76
  Q 809.40 616.90 828.78 625.65
  C 858.48 639.05 906.13 617.78 932.39 603.17
  Q 932.54 603.09 932.70 603.06
  L 934.25 602.79
  C 930.38 607.07 892.54 649.83 893.04 651.00
  Q 892.59 651.15 892.06 651.81
  Q 840.78 716.11 799.04 784.25
  C 767.23 835.85 738.86 889.47 709.54 942.50
  L 617.96 1106.25
  Q 616.47 1106.51 618.40 1104.93
  A 1.00 0.99 -36.2 0 0 618.61 1103.61
  Q 617.51 1101.93 618.97 1100.46
  A 1.01 1.01 0.0 0 0 619.26 1099.86
  Q 619.53 1097.34 621.40 1095.14
  Q 623.35 1092.84 621.10 1092.37
  A 0.99 0.98 -83.8 0 1 620.31 1091.38
  C 620.42 1084.97 625.33 1084.36 626.32 1079.08
  A 0.98 0.97 -64.2 0 0 626.00 1078.15
  L 623.11 1075.58
  A 1.00 1.00 0.0 0 1 622.95 1074.26
  Q 626.61 1069.02 628.35 1062.82
  A 1.02 1.00 -55.5 0 0 628.20 1061.96
  L 626.89 1060.16
  A 1.00 1.00 0.0 0 1 626.93 1058.93
  C 627.95 1057.72 629.18 1056.55 629.65 1055.13
  C 630.81 1051.61 626.10 1054.01 626.02 1052.15
  A 0.41 0.41 0.0 0 1 626.57 1051.75
  L 630.37 1053.14
  A 0.99 0.99 0.0 0 0 631.59 1052.68
  C 632.72 1050.61 636.41 1046.95 633.69 1044.94
  C 631.36 1043.22 629.65 1041.21 633.10 1039.31
  A 1.00 0.99 79.6 0 0 633.60 1038.58
  Q 633.99 1035.82 636.48 1034.52
  A 0.98 0.98 0.0 0 0 636.93 1034.04
  C 637.59 1032.54 637.70 1031.20 638.79 1029.89
  Q 641.36 1026.79 643.58 1022.67
  A 1.00 0.98 -53.6 0 0 643.41 1021.49
  L 640.27 1018.38
  A 1.00 0.99 -54.8 0 1 640.08 1017.23
  Q 640.80 1015.75 641.64 1014.31
  C 643.97 1010.36 646.57 1011.29 646.42 1005.48
  Q 646.34 1002.56 648.24 1000.09
  Q 648.39 999.90 648.43 999.65
  Q 649.02 996.22 645.93 995.42
  A 1.01 1.00 22.8 0 1 645.32 993.93
  C 647.13 990.94 647.87 987.96 650.07 985.17
  C 652.71 981.83 653.96 978.15 656.55 974.82
  Q 659.03 971.63 657.42 967.39
  A 1.01 0.96 -45.6 0 1 657.43 966.66
  Q 658.94 962.98 661.40 959.81
  A 0.99 0.98 -72.5 0 1 662.14 959.42
  Q 665.59 959.28 664.95 955.48
  A 1.01 1.01 0.0 0 1 665.16 954.69
  L 668.23 950.88
  Q 669.53 949.25 667.45 949.25
  L 664.72 949.25
  A 1.01 1.00 -82.1 0 1 663.76 947.97
  Q 664.06 946.92 664.50 945.94
  C 665.59 943.48 669.76 942.09 665.47 939.10
  A 1.00 0.98 32.7 0 1 665.17 937.78
  L 669.98 929.61
  Q 670.11 929.39 670.12 929.13
  Q 670.16 927.61 671.60 927.12
  Q 671.83 927.04 673.96 924.51
  Q 676.48 921.52 673.84 919.44
  A 1.02 1.00 -53.7 0 1 673.64 918.08
  Q 676.22 914.34 677.75 910.05
  C 678.32 908.42 679.34 907.76 680.79 907.07
  A 1.00 0.98 -10.0 0 0 681.35 906.29
  L 681.59 904.35
  A 0.96 0.94 -22.7 0 1 681.80 903.85
  Q 685.59 899.06 687.72 893.32
  A 0.97 0.93 87.3 0 1 688.19 892.78
  Q 689.72 891.98 690.63 890.58
  A 0.98 0.98 0.0 0 0 690.54 889.37
  L 687.54 886.04
  A 1.00 1.00 0.0 0 1 687.59 884.65
  Q 688.92 883.38 689.35 881.65
  Q 690.18 878.29 690.27 878.08
  C 692.17 873.82 694.95 872.01 696.55 867.58
  Q 697.88 863.88 702.36 859.34
  Q 703.03 858.67 705.00 854.49
  A 1.00 1.00 0.0 0 0 704.19 853.07
  L 703.54 853.00
  A 1.00 0.99 5.1 0 1 702.65 851.94
  Q 702.88 848.28 705.57 845.82
  Q 705.76 845.65 705.84 845.42
  L 708.09 839.17
  A 1.01 1.01 0.0 0 1 709.02 838.51
  L 709.38 838.50
  A 1.03 1.02 -71.7 0 0 710.17 838.10
  C 711.64 836.15 712.93 831.84 715.22 831.29
  A 0.98 0.98 0.0 0 0 715.87 830.79
  L 718.17 826.49
  A 1.00 1.00 0.0 0 0 717.27 825.02
  L 710.92 825.13
  A 1.00 1.00 0.0 0 1 709.98 823.75
  L 710.99 821.29
  A 0.98 0.97 -42.4 0 0 711.02 820.64
  C 710.07 817.31 713.97 817.05 714.27 813.78
  Q 714.29 813.57 714.40 813.38
  L 717.81 807.36
  Q 717.91 807.18 718.07 807.05
  Q 721.24 804.65 722.43 800.80
  A 1.01 1.01 0.0 0 1 722.86 800.24
  Q 726.20 798.19 726.55 794.27
  Q 726.63 793.46 725.85 792.89
  A 1.00 0.99 -59.7 0 1 725.53 791.66
  L 727.81 786.68
  A 1.03 0.99 2.4 0 1 728.41 786.15
  Q 731.46 785.14 731.31 781.88
  A 1.01 1.00 -15.6 0 1 731.84 780.95
  Q 734.47 779.53 734.33 776.34
  A 1.00 0.99 84.7 0 1 735.19 775.30
  Q 738.71 774.84 738.24 771.48
  A 0.98 0.97 65.3 0 1 738.56 770.60
  Q 742.35 767.21 741.74 762.13
  A 1.00 0.99 -3.2 0 0 740.75 761.25
  L 738.81 761.25
  Q 736.96 761.25 737.97 759.71
  L 741.52 754.25
  A 1.00 0.97 -28.2 0 0 741.68 753.75
  L 741.95 747.27
  A 1.02 1.01 78.8 0 1 742.53 746.40
  C 744.99 745.28 746.08 741.32 747.76 737.12
  A 0.98 0.97 -6.6 0 1 748.12 736.67
  Q 751.13 734.61 750.70 731.10
  A 1.01 1.01 0.0 0 0 749.80 730.22
  C 744.25 729.70 750.51 726.18 749.52 722.70
  A 1.02 1.01 -41.9 0 1 749.56 722.05
  Q 750.08 720.77 751.19 719.95
  Q 753.28 718.38 752.07 716.97
  Q 750.27 714.90 752.41 713.89
  A 1.01 1.00 70.4 0 0 752.95 712.74
  L 752.51 710.99
  A 1.01 0.98 -37.0 0 1 752.63 710.23
  Q 757.37 702.45 763.16 695.41
  Q 763.63 694.83 763.82 693.05
  A 1.00 0.99 -4.2 0 1 764.57 692.19
  Q 766.07 691.80 765.79 690.14
  A 1.00 1.00 0.0 0 0 764.97 689.32
  L 760.56 688.56
  A 1.00 1.00 0.0 0 1 759.93 686.97
  L 763.03 682.85
  A 1.00 0.99 -43.9 0 0 763.06 681.68
  L 762.56 680.96
  A 0.99 0.99 0.0 0 1 762.83 679.56
  Q 765.66 677.69 767.00 674.66
  C 768.73 670.74 769.11 669.54 772.17 667.43
  Q 773.93 666.21 772.31 664.71
  Q 769.80 662.37 771.32 659.14
  A 1.01 0.96 -41.4 0 0 771.38 658.45
  L 770.82 656.43
  A 1.02 0.96 50.3 0 1 770.86 655.76
  Q 772.59 651.83 769.71 650.26
  A 1.00 1.00 0.0 0 1 769.36 648.81
  Q 772.39 644.43 765.29 645.00
  L 802.65 596.64
  L 805.47 593.76
  Z"
/>
<path fill="#5283ee" d="
  M 1087.46 620.75
  L 1087.73 621.23
  A 1.00 0.96 -54.6 0 1 1087.83 621.92
  L 1087.24 624.78
  A 0.98 0.96 -59.8 0 0 1087.46 625.64
  Q 1091.88 630.73 1095.94 636.07
  C 1097.69 638.38 1100.65 640.86 1102.61 643.59
  C 1107.99 651.03 1117.17 659.19 1124.21 665.18
  C 1130.47 670.51 1136.66 676.01 1147.76 684.23
  Q 1167.05 698.51 1188.65 708.96
  Q 1189.61 709.43 1190.62 709.48
  Q 1191.44 709.52 1192.26 709.53
  A 1.00 1.00 0.0 0 1 1193.25 710.53
  L 1193.25 710.81
  A 0.81 0.80 -77.0 0 0 1193.69 711.53
  Q 1225.30 727.12 1259.85 734.07
  C 1261.81 734.47 1264.00 735.63 1266.71 735.22
  A 1.02 1.00 -35.5 0 1 1267.28 735.31
  Q 1268.94 736.08 1271.50 736.24
  Q 1273.64 736.37 1281.45 737.83
  C 1284.57 738.42 1288.25 737.80 1291.74 739.27
  Q 1291.98 739.37 1292.24 739.34
  Q 1296.45 738.87 1300.54 739.45
  C 1311.81 741.03 1324.14 740.35 1333.25 740.22
  C 1335.15 740.20 1336.69 739.18 1338.61 739.25
  Q 1346.23 739.54 1347.76 739.04
  C 1351.62 737.78 1355.09 738.22 1359.06 737.44
  Q 1361.59 736.94 1364.20 737.14
  A 0.32 0.32 0.0 0 1 1364.50 737.46
  L 1364.50 737.75
  Q 1364.51 738.20 1364.87 737.81
  L 1366.75 735.79
  L 1304.71 876.00
  Q 1304.29 875.20 1304.17 874.17
  A 1.00 1.00 0.0 0 0 1303.20 873.29
  Q 1301.08 873.24 1299.02 872.77
  C 1294.25 871.68 1289.08 872.05 1284.20 872.11
  C 1279.46 872.17 1275.45 870.46 1270.28 871.26
  A 1.02 0.99 -37.6 0 1 1269.76 871.20
  Q 1266.29 869.82 1262.60 869.92
  C 1259.07 870.01 1256.13 868.72 1252.49 869.05
  Q 1252.23 869.07 1251.99 868.96
  Q 1250.00 868.04 1247.90 868.34
  C 1245.46 868.69 1244.09 867.37 1241.94 867.06
  Q 1226.19 864.81 1210.70 861.19
  C 1207.59 860.46 1204.10 859.15 1200.73 858.30
  C 1191.26 855.91 1181.59 853.60 1172.56 849.85
  Q 1169.87 848.73 1164.80 847.14
  C 1159.04 845.33 1153.99 842.34 1148.40 840.32
  C 1142.96 838.35 1135.78 834.66 1132.59 833.23
  Q 1121.49 828.26 1109.44 821.55
  Q 1077.43 803.73 1050.03 781.74
  C 1046.41 778.84 1043.53 776.12 1040.07 773.38
  Q 1037.45 771.30 1035.15 768.84
  C 1032.92 766.46 1030.03 764.94 1027.74 762.40
  A 1.00 0.98 60.7 0 0 1026.73 762.10
  C 1025.16 762.54 1028.06 760.31 1026.00 759.21
  L 1087.46 620.75
  Z"
/>
<path fill="#0dd1fe" d="
  M 765.29 645.00
  Q 772.39 644.43 769.36 648.81
  A 1.00 1.00 0.0 0 0 769.71 650.26
  Q 772.59 651.83 770.86 655.76
  A 1.02 0.96 50.3 0 0 770.82 656.43
  L 771.38 658.45
  A 1.01 0.96 -41.4 0 1 771.32 659.14
  Q 769.80 662.37 772.31 664.71
  Q 773.93 666.21 772.17 667.43
  C 769.11 669.54 768.73 670.74 767.00 674.66
  Q 765.66 677.69 762.83 679.56
  A 0.99 0.99 0.0 0 0 762.56 680.96
  L 763.06 681.68
  A 1.00 0.99 -43.9 0 1 763.03 682.85
  L 759.93 686.97
  A 1.00 1.00 0.0 0 0 760.56 688.56
  L 764.97 689.32
  A 1.00 1.00 0.0 0 1 765.79 690.14
  Q 766.07 691.80 764.57 692.19
  A 1.00 0.99 -4.2 0 0 763.82 693.05
  Q 763.63 694.83 763.16 695.41
  Q 757.37 702.45 752.63 710.23
  A 1.01 0.98 -37.0 0 0 752.51 710.99
  L 752.95 712.74
  A 1.01 1.00 70.4 0 1 752.41 713.89
  Q 750.27 714.90 752.07 716.97
  Q 753.28 718.38 751.19 719.95
  Q 750.08 720.77 749.56 722.05
  A 1.02 1.01 -41.9 0 0 749.52 722.70
  C 750.51 726.18 744.25 729.70 749.80 730.22
  A 1.01 1.01 0.0 0 1 750.70 731.10
  Q 751.13 734.61 748.12 736.67
  A 0.98 0.97 -6.6 0 0 747.76 737.12
  C 746.08 741.32 744.99 745.28 742.53 746.40
  A 1.02 1.01 78.8 0 0 741.95 747.27
  L 741.68 753.75
  A 1.00 0.97 -28.2 0 1 741.52 754.25
  L 737.97 759.71
  Q 736.96 761.25 738.81 761.25
  L 740.75 761.25
  A 1.00 0.99 -3.2 0 1 741.74 762.13
  Q 742.35 767.21 738.56 770.60
  A 0.98 0.97 65.3 0 0 738.24 771.48
  Q 738.71 774.84 735.19 775.30
  A 1.00 0.99 84.7 0 0 734.33 776.34
  Q 734.47 779.53 731.84 780.95
  A 1.01 1.00 -15.6 0 0 731.31 781.88
  Q 731.46 785.14 728.41 786.15
  A 1.03 0.99 2.4 0 0 727.81 786.68
  L 725.53 791.66
  A 1.00 0.99 -59.7 0 0 725.85 792.89
  Q 726.63 793.46 726.55 794.27
  Q 726.20 798.19 722.86 800.24
  A 1.01 1.01 0.0 0 0 722.43 800.80
  Q 721.24 804.65 718.07 807.05
  Q 717.91 807.18 717.81 807.36
  L 714.40 813.38
  Q 714.29 813.57 714.27 813.78
  C 713.97 817.05 710.07 817.31 711.02 820.64
  A 0.98 0.97 -42.4 0 1 710.99 821.29
  L 709.98 823.75
  A 1.00 1.00 0.0 0 0 710.92 825.13
  L 717.27 825.02
  A 1.00 1.00 0.0 0 1 718.17 826.49
  L 715.87 830.79
  A 0.98 0.98 0.0 0 1 715.22 831.29
  C 712.93 831.84 711.64 836.15 710.17 838.10
  A 1.03 1.02 -71.7 0 1 709.38 838.50
  L 709.02 838.51
  A 1.01 1.01 0.0 0 0 708.09 839.17
  L 705.84 845.42
  Q 705.76 845.65 705.57 845.82
  Q 702.88 848.28 702.65 851.94
  A 1.00 0.99 5.1 0 0 703.54 853.00
  L 704.19 853.07
  A 1.00 1.00 0.0 0 1 705.00 854.49
  Q 703.03 858.67 702.36 859.34
  Q 697.88 863.88 696.55 867.58
  C 694.95 872.01 692.17 873.82 690.27 878.08
  Q 690.18 878.29 689.35 881.65
  Q 688.92 883.38 687.59 884.65
  A 1.00 1.00 0.0 0 0 687.54 886.04
  L 690.54 889.37
  A 0.98 0.98 0.0 0 1 690.63 890.58
  Q 689.72 891.98 688.19 892.78
  A 0.97 0.93 87.3 0 0 687.72 893.32
  Q 685.59 899.06 681.80 903.85
  A 0.96 0.94 -22.7 0 0 681.59 904.35
  L 681.35 906.29
  A 1.00 0.98 -10.0 0 1 680.79 907.07
  C 679.34 907.76 678.32 908.42 677.75 910.05
  Q 676.22 914.34 673.64 918.08
  A 1.02 1.00 -53.7 0 0 673.84 919.44
  Q 676.48 921.52 673.96 924.51
  Q 671.83 927.04 671.60 927.12
  Q 670.16 927.61 670.12 929.13
  Q 670.11 929.39 669.98 929.61
  L 665.17 937.78
  A 1.00 0.98 32.7 0 0 665.47 939.10
  C 669.76 942.09 665.59 943.48 664.50 945.94
  Q 664.06 946.92 663.76 947.97
  A 1.01 1.00 -82.1 0 0 664.72 949.25
  L 667.45 949.25
  Q 669.53 949.25 668.23 950.88
  L 665.16 954.69
  A 1.01 1.01 0.0 0 0 664.95 955.48
  Q 665.59 959.28 662.14 959.42
  A 0.99 0.98 -72.5 0 0 661.40 959.81
  Q 658.94 962.98 657.43 966.66
  A 1.01 0.96 -45.6 0 0 657.42 967.39
  Q 659.03 971.63 656.55 974.82
  C 653.96 978.15 652.71 981.83 650.07 985.17
  C 647.87 987.96 647.13 990.94 645.32 993.93
  A 1.01 1.00 22.8 0 0 645.93 995.42
  Q 649.02 996.22 648.43 999.65
  Q 648.39 999.90 648.24 1000.09
  Q 646.34 1002.56 646.42 1005.48
  C 646.57 1011.29 643.97 1010.36 641.64 1014.31
  Q 640.80 1015.75 640.08 1017.23
  A 1.00 0.99 -54.8 0 0 640.27 1018.38
  L 643.41 1021.49
  A 1.00 0.98 -53.6 0 1 643.58 1022.67
  Q 641.36 1026.79 638.79 1029.89
  C 637.70 1031.20 637.59 1032.54 636.93 1034.04
  A 0.98 0.98 0.0 0 1 636.48 1034.52
  Q 633.99 1035.82 633.60 1038.58
  A 1.00 0.99 79.6 0 1 633.10 1039.31
  C 629.65 1041.21 631.36 1043.22 633.69 1044.94
  C 636.41 1046.95 632.72 1050.61 631.59 1052.68
  A 0.99 0.99 0.0 0 1 630.37 1053.14
  L 626.57 1051.75
  A 0.41 0.41 0.0 0 0 626.02 1052.15
  C 626.10 1054.01 630.81 1051.61 629.65 1055.13
  C 629.18 1056.55 627.95 1057.72 626.93 1058.93
  A 1.00 1.00 0.0 0 0 626.89 1060.16
  L 628.20 1061.96
  A 1.02 1.00 -55.5 0 1 628.35 1062.82
  Q 626.61 1069.02 622.95 1074.26
  A 1.00 1.00 0.0 0 0 623.11 1075.58
  L 626.00 1078.15
  A 0.98 0.97 -64.2 0 1 626.32 1079.08
  C 625.33 1084.36 620.42 1084.97 620.31 1091.38
  A 0.99 0.98 -83.8 0 0 621.10 1092.37
  Q 623.35 1092.84 621.40 1095.14
  Q 619.53 1097.34 619.26 1099.86
  A 1.01 1.01 0.0 0 1 618.97 1100.46
  Q 617.51 1101.93 618.61 1103.61
  A 1.00 0.99 -36.2 0 1 618.40 1104.93
  Q 616.47 1106.51 617.96 1106.25
  L 543.96 1237.75
  Q 543.27 1238.38 542.38 1238.76
  A 1.00 0.99 74.5 0 1 540.99 1237.97
  L 540.65 1235.24
  A 1.01 0.98 9.8 0 0 540.08 1234.45
  C 534.65 1231.99 543.18 1227.35 538.25 1226.46
  Q 534.61 1225.80 532.53 1225.07
  A 1.00 1.00 0.0 0 1 532.18 1223.39
  Q 533.72 1221.96 535.85 1221.38
  Q 537.29 1220.99 537.99 1217.51
  Q 538.49 1215.05 536.12 1214.73
  A 1.04 1.00 -16.4 0 1 535.49 1214.40
  C 533.60 1212.22 538.40 1210.86 538.76 1207.97
  A 0.99 0.98 69.6 0 1 538.99 1207.46
  L 539.54 1206.79
  A 0.99 0.99 0.0 0 0 539.27 1205.29
  L 536.28 1203.56
  A 1.00 0.99 -67.5 0 1 535.82 1202.44
  C 536.47 1199.98 540.42 1197.46 539.05 1195.62
  A 1.06 1.06 0.0 0 0 538.59 1195.27
  Q 535.74 1194.22 537.54 1192.36
  Q 538.63 1191.25 537.07 1191.28
  Q 535.02 1191.31 534.71 1189.21
  A 1.01 0.99 -84.7 0 0 534.06 1188.41
  L 533.34 1188.15
  Q 531.54 1187.51 533.09 1186.40
  Q 536.43 1184.01 532.55 1181.60
  A 1.01 1.00 -57.1 0 1 532.25 1180.18
  L 534.53 1176.85
  A 1.04 0.99 -31.5 0 0 534.70 1176.20
  Q 534.57 1174.77 535.47 1173.77
  A 1.00 0.99 43.5 0 0 535.43 1172.40
  L 533.96 1170.92
  A 1.01 0.99 40.7 0 1 533.85 1169.63
  C 535.47 1167.39 541.46 1162.96 535.60 1160.98
  C 534.66 1160.66 534.93 1160.03 535.81 1159.95
  Q 538.83 1159.65 540.59 1157.22
  A 1.00 0.99 -31.5 0 0 540.77 1156.49
  Q 540.45 1154.23 542.14 1152.98
  A 1.01 1.00 -25.6 0 0 542.51 1151.95
  Q 542.14 1150.36 542.99 1148.96
  A 1.01 1.00 23.2 0 0 542.39 1147.47
  L 541.58 1147.25
  A 0.99 0.99 0.0 0 1 541.09 1145.63
  Q 543.13 1143.31 541.13 1140.44
  C 540.06 1138.91 539.99 1137.85 541.60 1136.77
  A 1.02 1.02 0.0 0 0 542.01 1136.20
  Q 542.81 1133.18 545.19 1131.05
  A 1.00 0.99 60.3 0 0 545.47 1130.00
  L 544.24 1126.13
  A 1.01 1.01 0.0 0 1 544.40 1125.21
  Q 547.35 1121.40 547.11 1116.50
  A 1.01 1.00 6.1 0 0 546.37 1115.59
  L 542.36 1114.50
  A 1.00 1.00 0.0 0 1 541.78 1113.00
  L 546.41 1105.76
  Q 546.54 1105.55 546.56 1105.30
  L 546.92 1100.43
  Q 546.94 1100.17 546.84 1099.93
  Q 545.95 1098.01 547.97 1097.07
  A 1.01 1.00 -4.3 0 0 548.50 1096.46
  Q 549.45 1093.40 551.67 1091.05
  A 1.00 0.97 -25.0 0 0 551.95 1090.32
  Q 551.83 1087.60 549.04 1087.01
  A 1.00 1.00 0.0 0 1 548.25 1086.03
  L 548.24 1083.70
  A 1.01 0.99 -21.5 0 1 548.57 1082.96
  C 550.55 1081.15 552.20 1077.32 551.04 1074.54
  A 1.00 1.00 0.0 0 1 551.12 1073.62
  Q 553.72 1069.47 549.21 1069.27
  A 1.00 0.99 1.2 0 1 548.25 1068.28
  L 548.25 1065.27
  A 0.99 0.99 0.0 0 1 549.45 1064.29
  Q 551.51 1064.73 551.24 1062.53
  A 1.00 0.99 12.0 0 0 550.76 1061.80
  Q 549.34 1060.94 549.51 1059.33
  A 1.00 1.00 0.0 0 0 548.74 1058.25
  L 545.73 1057.56
  A 1.00 0.99 22.9 0 1 545.11 1056.05
  L 550.45 1047.71
  A 0.99 0.99 0.0 0 0 550.39 1046.54
  Q 548.75 1044.53 546.27 1043.69
  A 1.04 1.03 87.9 0 1 545.67 1043.13
  L 545.17 1041.94
  A 1.02 1.00 58.4 0 1 545.43 1040.80
  C 548.35 1038.22 547.29 1035.91 551.99 1034.92
  A 1.00 0.98 -88.0 0 0 552.75 1034.20
  L 553.06 1033.01
  A 1.02 1.01 6.2 0 1 554.00 1032.26
  Q 554.56 1032.24 555.07 1032.04
  Q 557.05 1031.25 554.92 1031.25
  L 548.98 1031.25
  A 1.00 0.99 -66.8 0 0 548.29 1031.53
  Q 547.72 1032.08 546.97 1032.12
  A 1.00 1.00 0.0 0 1 545.97 1030.84
  Q 546.31 1029.66 547.49 1028.75
  Q 549.61 1027.12 550.60 1026.50
  A 1.02 1.00 33.5 0 1 551.32 1026.36
  Q 555.83 1027.19 553.91 1023.08
  A 1.02 1.00 42.5 0 1 553.87 1022.33
  C 555.34 1018.00 544.10 1017.95 546.40 1014.56
  A 1.00 0.99 24.7 0 1 547.49 1014.16
  C 549.51 1014.72 550.24 1012.28 550.67 1010.82
  A 0.99 0.95 -15.4 0 1 550.94 1010.37
  Q 551.93 1009.44 552.70 1010.28
  Q 553.65 1011.32 553.80 1009.92
  L 553.84 1009.62
  A 0.98 0.96 76.8 0 1 554.27 1008.91
  Q 554.95 1008.44 555.80 1008.29
  A 1.01 1.00 -76.8 0 0 556.44 1007.89
  C 557.71 1006.12 555.74 1005.31 554.25 1005.16
  C 550.62 1004.81 550.60 1002.30 548.10 1001.16
  Q 545.46 999.96 542.50 1000.46
  Q 597.62 902.32 642.28 829.30
  C 680.83 766.26 721.21 704.32 765.29 645.00
  Z"
/>
<path fill="#019eec" d="
  M 893.04 651.00
  L 915.46 691.00
  Q 913.62 690.23 913.80 691.21
  A 0.84 0.82 -30.9 0 1 913.63 691.86
  C 911.17 694.86 905.57 701.44 906.26 705.47
  A 1.02 1.00 -33.2 0 1 906.10 706.21
  L 904.01 709.22
  A 0.61 0.61 0.0 0 1 903.42 709.49
  Q 902.91 709.43 902.99 709.97
  A 1.02 1.02 0.0 0 1 902.83 710.69
  C 901.32 712.88 891.48 726.59 891.81 728.11
  Q 891.85 728.29 891.92 728.48
  Q 892.69 730.63 893.74 728.60
  Q 895.14 725.93 894.90 730.48
  A 1.00 0.97 -28.2 0 1 894.74 730.98
  L 881.37 751.06
  A 1.03 0.98 59.8 0 0 881.21 751.73
  L 881.52 754.27
  A 0.96 0.95 58.1 0 1 881.37 754.93
  L 865.82 779.09
  A 1.00 1.00 0.0 0 0 866.13 780.48
  C 867.67 781.45 866.76 782.91 865.98 784.15
  Q 860.05 793.53 854.37 803.07
  C 852.56 806.11 850.95 807.53 851.29 811.47
  A 0.95 0.94 58.7 0 1 851.15 812.06
  Q 845.15 822.13 839.28 832.27
  C 837.79 834.84 836.34 835.99 837.16 839.31
  A 1.03 1.02 -36.8 0 1 837.05 840.05
  L 823.23 863.83
  A 0.98 0.98 0.0 0 0 823.15 864.65
  C 824.44 868.49 821.31 873.20 818.84 876.36
  A 1.01 1.01 0.0 0 0 818.68 877.28
  C 820.50 882.94 821.10 885.92 818.35 891.44
  A 1.01 0.96 56.2 0 0 818.25 892.02
  L 818.87 896.46
  Q 818.90 896.70 819.04 896.90
  L 820.61 899.16
  A 1.00 0.99 39.9 0 1 820.70 900.15
  C 819.83 902.06 818.78 904.45 816.94 905.58
  Q 812.69 908.21 817.46 908.09
  A 1.00 1.00 0.0 0 1 818.40 909.49
  Q 817.60 911.35 815.95 912.61
  A 1.03 0.99 -15.5 0 0 815.57 913.25
  Q 814.76 918.44 810.37 921.02
  A 1.03 0.99 -10.4 0 0 809.90 921.67
  L 809.60 923.07
  A 1.00 0.97 83.2 0 1 809.08 923.75
  Q 806.17 925.24 807.08 928.67
  A 1.01 0.98 -79.6 0 0 807.43 929.19
  L 808.71 930.21
  A 1.01 1.00 -55.2 0 1 808.94 931.52
  L 806.40 935.65
  Q 806.33 935.76 806.29 935.88
  Q 805.63 938.10 804.25 939.87
  A 1.00 1.00 0.0 0 1 802.97 940.13
  Q 801.92 939.54 801.03 941.01
  Q 795.45 950.24 790.21 960.97
  A 0.95 0.94 52.1 0 0 790.13 961.62
  C 791.21 966.51 788.22 968.41 786.49 971.76
  Q 781.33 981.76 775.67 991.56
  A 1.00 0.99 -53.5 0 0 775.85 992.79
  C 779.72 996.40 775.33 1001.77 773.74 1005.17
  Q 772.33 1008.19 770.60 1011.06
  Q 769.16 1013.46 767.90 1015.95
  C 765.67 1020.37 760.46 1025.63 760.89 1031.15
  A 0.79 0.79 0.0 0 1 760.16 1032.01
  L 759.75 1032.04
  L 726.20 972.02
  Q 733.78 958.50 734.93 955.93
  Q 736.03 953.44 734.92 950.60
  A 1.00 1.00 0.0 0 1 734.98 949.75
  L 741.62 937.82
  A 0.99 0.97 51.6 0 0 741.70 937.06
  Q 741.27 935.51 742.61 935.22
  A 1.02 1.01 8.1 0 0 743.27 934.73
  L 746.96 928.24
  A 1.00 1.00 0.0 0 0 746.56 926.86
  L 743.90 925.46
  A 1.01 1.00 28.5 0 1 743.49 924.09
  L 755.40 902.62
  A 1.00 1.00 0.0 0 0 754.85 901.19
  Q 753.16 900.61 753.42 899.31
  A 1.00 0.99 6.4 0 0 752.46 898.11
  L 752.17 898.11
  A 0.64 0.64 0.0 0 1 751.62 897.16
  L 762.29 877.81
  A 1.01 1.01 0.0 0 0 762.21 876.72
  L 761.18 875.39
  A 1.01 1.00 -49.5 0 1 761.10 874.29
  L 772.49 853.89
  A 1.00 1.00 0.0 0 0 772.20 852.59
  L 770.71 851.53
  A 1.00 1.00 0.0 0 1 770.37 850.34
  C 772.84 844.29 777.03 837.96 780.41 832.12
  A 1.03 1.00 -38.6 0 0 780.51 831.35
  L 780.30 830.58
  A 1.02 1.00 53.1 0 1 780.40 829.81
  L 793.64 807.41
  A 0.80 0.80 0.0 0 0 793.12 806.22
  Q 792.23 806.03 792.00 804.91
  A 0.97 0.95 -36.1 0 1 792.12 804.21
  L 802.25 786.88
  A 1.00 0.98 45.5 0 0 802.25 785.87
  Q 801.19 784.05 799.04 784.25
  Q 840.78 716.11 892.06 651.81
  Q 892.59 651.15 893.04 651.00
  Z"
/>
<path fill="#019eec" d="
  M 361.50 687.96
  Q 394.17 760.92 426.44 834.06
  Q 426.53 834.27 426.96 834.50
  L 404.25 874.04
  Q 404.72 872.44 403.73 871.57
  C 402.09 870.13 370.69 871.02 366.04 871.04
  Q 363.67 871.05 361.96 872.69
  C 359.26 875.27 355.71 876.89 353.08 879.58
  C 349.46 883.28 345.23 886.33 341.29 889.68
  C 336.92 893.41 332.00 896.28 327.38 899.74
  A 1.02 0.99 -62.6 0 1 326.78 899.94
  L 267.73 900.29
  A 0.99 0.97 -60.5 0 0 267.21 900.44
  Q 252.25 909.79 236.80 918.27
  C 232.65 920.55 227.82 923.57 222.79 925.44
  Q 220.40 926.33 216.55 928.27
  C 210.10 931.53 205.31 931.03 198.39 931.04
  Q 175.41 931.06 152.43 931.01
  C 150.01 931.00 143.64 931.25 142.07 933.21
  A 1.00 0.99 26.9 0 1 141.02 933.55
  Q 140.33 933.36 139.79 932.75
  L 89.96 820.50
  C 89.44 818.77 90.69 818.00 92.26 818.02
  C 104.02 818.19 111.84 818.72 120.67 814.76
  C 132.69 809.38 144.25 804.42 153.54 799.26
  Q 158.43 796.54 161.85 795.26
  Q 163.68 794.58 165.32 793.27
  C 170.39 789.22 177.67 792.57 183.40 789.45
  Q 187.48 787.22 191.54 785.00
  C 201.70 779.42 210.53 771.36 220.34 765.20
  A 0.99 0.97 -60.5 0 1 220.86 765.05
  Q 231.16 764.99 241.44 764.97
  C 244.52 764.97 245.61 762.30 248.07 761.12
  C 249.27 760.55 250.45 760.32 251.38 759.28
  C 254.55 755.67 258.91 752.62 261.78 749.81
  Q 266.39 745.31 270.65 740.96
  Q 272.55 739.02 275.26 739.02
  L 294.10 738.99
  A 1.00 0.98 -69.7 0 0 294.86 738.63
  C 296.52 736.65 299.23 735.19 301.06 733.05
  Q 309.06 723.71 316.44 714.86
  A 0.99 0.97 -72.1 0 1 317.13 714.50
  Q 327.36 713.72 336.23 714.12
  C 338.84 714.24 341.49 712.65 342.78 710.48
  C 344.71 707.25 347.25 704.36 349.16 701.31
  C 351.23 698.02 356.55 689.40 360.57 689.04
  A 0.52 0.51 -5.1 0 0 361.04 688.49
  Q 361.01 688.09 361.50 687.96
  Z"
/>
<path fill="#09b1f9" d="
  M 915.46 691.00
  L 934.26 724.73
  Q 932.16 723.24 931.07 724.82
  Q 924.50 734.39 917.90 743.94
  A 1.00 0.99 60.6 0 0 917.73 744.56
  C 917.81 746.11 917.96 747.26 917.09 748.67
  Q 908.81 762.10 899.78 775.11
  A 2.01 2.01 0.0 0 0 899.83 777.47
  C 900.39 778.21 900.38 779.45 899.80 780.35
  Q 890.00 795.64 880.53 811.14
  A 1.04 1.01 -39.6 0 0 880.44 811.97
  C 880.85 813.25 880.96 814.02 880.21 815.28
  Q 872.63 828.10 864.89 840.85
  Q 863.97 842.36 863.39 844.95
  Q 862.52 848.82 859.81 852.82
  Q 857.92 855.61 851.12 867.92
  C 849.65 870.59 846.99 874.70 845.41 878.49
  A 1.00 0.98 -54.9 0 0 845.58 879.53
  Q 847.18 881.34 847.83 883.64
  A 0.99 0.97 51.6 0 1 847.75 884.40
  L 840.54 897.40
  A 0.99 0.94 2.8 0 1 840.02 897.85
  L 839.15 898.19
  A 0.99 0.99 0.0 0 0 838.50 899.12
  L 838.50 902.59
  A 0.41 0.41 0.0 0 1 838.08 903.00
  L 837.82 902.99
  A 0.80 0.80 0.0 0 0 837.04 903.51
  Q 836.55 904.86 835.27 905.43
  A 1.00 1.00 0.0 0 0 834.84 906.89
  C 836.27 909.07 839.89 913.97 838.07 916.48
  C 834.64 921.18 831.97 927.00 829.15 932.12
  C 827.74 934.67 825.55 936.78 823.93 939.38
  A 1.00 0.96 -36.3 0 0 823.80 940.12
  C 824.29 942.44 822.96 943.16 822.00 944.79
  Q 817.04 953.18 813.09 962.06
  Q 812.90 962.49 812.04 963.14
  Q 811.87 963.26 811.77 963.44
  L 803.92 977.47
  A 1.00 0.99 -63.4 0 0 804.38 978.87
  C 805.64 979.43 805.84 980.20 805.16 981.44
  Q 797.85 994.87 790.29 1008.16
  Q 788.59 1011.16 787.70 1016.50
  C 786.89 1021.36 784.60 1022.90 783.15 1026.67
  A 1.00 0.99 -62.6 0 0 783.52 1027.85
  L 784.51 1028.52
  A 1.02 1.00 -75.4 0 1 784.94 1029.27
  Q 784.98 1029.83 784.74 1030.22
  C 781.42 1035.48 778.84 1041.00 775.57 1046.29
  Q 772.88 1050.66 772.96 1056.00
  L 759.75 1032.04
  L 760.16 1032.01
  A 0.79 0.79 0.0 0 0 760.89 1031.15
  C 760.46 1025.63 765.67 1020.37 767.90 1015.95
  Q 769.16 1013.46 770.60 1011.06
  Q 772.33 1008.19 773.74 1005.17
  C 775.33 1001.77 779.72 996.40 775.85 992.79
  A 1.00 0.99 -53.5 0 1 775.67 991.56
  Q 781.33 981.76 786.49 971.76
  C 788.22 968.41 791.21 966.51 790.13 961.62
  A 0.95 0.94 52.1 0 1 790.21 960.97
  Q 795.45 950.24 801.03 941.01
  Q 801.92 939.54 802.97 940.13
  A 1.00 1.00 0.0 0 0 804.25 939.87
  Q 805.63 938.10 806.29 935.88
  Q 806.33 935.76 806.40 935.65
  L 808.94 931.52
  A 1.01 1.00 -55.2 0 0 808.71 930.21
  L 807.43 929.19
  A 1.01 0.98 -79.6 0 1 807.08 928.67
  Q 806.17 925.24 809.08 923.75
  A 1.00 0.97 83.2 0 0 809.60 923.07
  L 809.90 921.67
  A 1.03 0.99 -10.4 0 1 810.37 921.02
  Q 814.76 918.44 815.57 913.25
  A 1.03 0.99 -15.5 0 1 815.95 912.61
  Q 817.60 911.35 818.40 909.49
  A 1.00 1.00 0.0 0 0 817.46 908.09
  Q 812.69 908.21 816.94 905.58
  C 818.78 904.45 819.83 902.06 820.70 900.15
  A 1.00 0.99 39.9 0 0 820.61 899.16
  L 819.04 896.90
  Q 818.90 896.70 818.87 896.46
  L 818.25 892.02
  A 1.01 0.96 56.2 0 1 818.35 891.44
  C 821.10 885.92 820.50 882.94 818.68 877.28
  A 1.01 1.01 0.0 0 1 818.84 876.36
  C 821.31 873.20 824.44 868.49 823.15 864.65
  A 0.98 0.98 0.0 0 1 823.23 863.83
  L 837.05 840.05
  A 1.03 1.02 -36.8 0 0 837.16 839.31
  C 836.34 835.99 837.79 834.84 839.28 832.27
  Q 845.15 822.13 851.15 812.06
  A 0.95 0.94 58.7 0 0 851.29 811.47
  C 850.95 807.53 852.56 806.11 854.37 803.07
  Q 860.05 793.53 865.98 784.15
  C 866.76 782.91 867.67 781.45 866.13 780.48
  A 1.00 1.00 0.0 0 1 865.82 779.09
  L 881.37 754.93
  A 0.96 0.95 58.1 0 0 881.52 754.27
  L 881.21 751.73
  A 1.03 0.98 59.8 0 1 881.37 751.06
  L 894.74 730.98
  A 1.00 0.97 -28.2 0 0 894.90 730.48
  Q 895.14 725.93 893.74 728.60
  Q 892.69 730.63 891.92 728.48
  Q 891.85 728.29 891.81 728.11
  C 891.48 726.59 901.32 712.88 902.83 710.69
  A 1.02 1.02 0.0 0 0 902.99 709.97
  Q 902.91 709.43 903.42 709.49
  A 0.61 0.61 0.0 0 0 904.01 709.22
  L 906.10 706.21
  A 1.02 1.00 -33.2 0 0 906.26 705.47
  C 905.57 701.44 911.17 694.86 913.63 691.86
  A 0.84 0.82 -30.9 0 0 913.80 691.21
  Q 913.62 690.23 915.46 691.00
  Z"
/>
<path fill="#13c0f8" d="
  M 934.26 724.73
  L 962.02 774.45
  Q 958.20 774.39 957.12 777.51
  Q 956.27 779.96 955.74 780.74
  Q 942.22 800.55 935.21 812.23
  Q 933.99 814.26 933.46 814.95
  A 1.03 1.00 -28.5 0 0 933.25 815.62
  Q 933.48 819.21 932.32 821.07
  Q 920.09 840.58 908.42 860.43
  Q 906.62 863.48 910.23 862.95
  Q 911.56 862.76 912.28 863.64
  A 1.08 1.02 -65.5 0 1 912.50 864.29
  Q 912.48 865.67 913.64 866.19
  A 1.00 0.99 27.0 0 1 914.10 867.60
  L 889.87 909.44
  A 1.10 1.06 -32.7 0 0 889.74 909.99
  Q 889.95 914.78 886.80 920.29
  Q 883.97 925.25 881.10 930.20
  Q 879.78 932.49 882.28 931.65
  L 886.47 930.25
  Q 888.74 929.49 887.68 931.64
  Q 885.27 936.54 882.32 941.54
  C 880.58 944.46 879.17 947.42 877.37 950.39
  Q 874.37 955.37 872.16 960.82
  C 871.65 962.07 871.88 962.44 872.97 963.12
  A 1.00 0.99 -63.8 0 1 873.37 964.31
  Q 872.56 966.56 870.37 967.39
  A 1.00 1.00 0.0 0 0 869.85 968.81
  Q 897.85 1019.26 926.75 1069.21
  Q 925.58 1068.35 925.47 1069.25
  A 1.01 0.99 82.6 0 1 924.86 1070.06
  Q 921.92 1071.26 918.73 1070.96
  A 1.00 0.97 -61.8 0 0 918.00 1071.19
  Q 915.84 1072.98 913.06 1072.76
  A 1.00 0.98 13.8 0 0 912.06 1073.35
  C 910.25 1077.51 902.42 1079.87 897.74 1081.74
  Q 896.79 1082.12 895.95 1083.34
  Q 895.82 1083.52 895.63 1083.63
  L 890.59 1086.59
  A 1.01 1.01 0.0 0 0 890.10 1087.36
  C 889.68 1091.79 891.44 1096.12 886.80 1099.08
  Q 885.20 1100.10 886.51 1101.55
  A 0.99 0.98 -57.2 0 1 886.72 1102.54
  L 886.30 1103.80
  A 1.00 0.99 0.4 0 1 885.63 1104.45
  Q 883.04 1105.20 885.81 1107.12
  A 1.01 1.01 0.0 0 1 885.70 1108.84
  C 884.59 1109.41 880.81 1110.80 880.46 1111.80
  A 0.79 0.78 -1.0 0 1 880.00 1112.27
  Q 876.60 1113.63 873.60 1115.66
  C 870.32 1117.87 867.63 1118.85 864.24 1120.27
  C 862.50 1121.00 860.61 1122.46 858.33 1122.95
  A 0.81 0.76 9.2 0 0 857.85 1123.27
  Q 857.56 1123.66 857.25 1123.39
  A 0.40 0.40 0.0 0 0 856.75 1123.35
  Q 854.47 1124.89 852.09 1126.26
  Q 838.50 1134.09 823.89 1143.92
  A 0.64 0.64 0.0 0 0 823.84 1144.95
  Q 824.62 1145.57 823.21 1146.00
  L 772.96 1056.00
  Q 772.88 1050.66 775.57 1046.29
  C 778.84 1041.00 781.42 1035.48 784.74 1030.22
  Q 784.98 1029.83 784.94 1029.27
  A 1.02 1.00 -75.4 0 0 784.51 1028.52
  L 783.52 1027.85
  A 1.00 0.99 -62.6 0 1 783.15 1026.67
  C 784.60 1022.90 786.89 1021.36 787.70 1016.50
  Q 788.59 1011.16 790.29 1008.16
  Q 797.85 994.87 805.16 981.44
  C 805.84 980.20 805.64 979.43 804.38 978.87
  A 1.00 0.99 -63.4 0 1 803.92 977.47
  L 811.77 963.44
  Q 811.87 963.26 812.04 963.14
  Q 812.90 962.49 813.09 962.06
  Q 817.04 953.18 822.00 944.79
  C 822.96 943.16 824.29 942.44 823.80 940.12
  A 1.00 0.96 -36.3 0 1 823.93 939.38
  C 825.55 936.78 827.74 934.67 829.15 932.12
  C 831.97 927.00 834.64 921.18 838.07 916.48
  C 839.89 913.97 836.27 909.07 834.84 906.89
  A 1.00 1.00 0.0 0 1 835.27 905.43
  Q 836.55 904.86 837.04 903.51
  A 0.80 0.80 0.0 0 1 837.82 902.99
  L 838.08 903.00
  A 0.41 0.41 0.0 0 0 838.50 902.59
  L 838.50 899.12
  A 0.99 0.99 0.0 0 1 839.15 898.19
  L 840.02 897.85
  A 0.99 0.94 2.8 0 0 840.54 897.40
  L 847.75 884.40
  A 0.99 0.97 51.6 0 0 847.83 883.64
  Q 847.18 881.34 845.58 879.53
  A 1.00 0.98 -54.9 0 1 845.41 878.49
  C 846.99 874.70 849.65 870.59 851.12 867.92
  Q 857.92 855.61 859.81 852.82
  Q 862.52 848.82 863.39 844.95
  Q 863.97 842.36 864.89 840.85
  Q 872.63 828.10 880.21 815.28
  C 880.96 814.02 880.85 813.25 880.44 811.97
  A 1.04 1.01 -39.6 0 1 880.53 811.14
  Q 890.00 795.64 899.80 780.35
  C 900.38 779.45 900.39 778.21 899.83 777.47
  A 2.01 2.01 0.0 0 1 899.78 775.11
  Q 908.81 762.10 917.09 748.67
  C 917.96 747.26 917.81 746.11 917.73 744.56
  A 1.00 0.99 60.6 0 1 917.90 743.94
  Q 924.50 734.39 931.07 724.82
  Q 932.16 723.24 934.26 724.73
  Z"
/>
<path fill="#3c7bec" d="
  M 1026.00 759.21
  C 1028.06 760.31 1025.16 762.54 1026.73 762.10
  A 1.00 0.98 60.7 0 1 1027.74 762.40
  C 1030.03 764.94 1032.92 766.46 1035.15 768.84
  Q 1037.45 771.30 1040.07 773.38
  C 1043.53 776.12 1046.41 778.84 1050.03 781.74
  Q 1077.43 803.73 1109.44 821.55
  Q 1121.49 828.26 1132.59 833.23
  C 1135.78 834.66 1142.96 838.35 1148.40 840.32
  C 1153.99 842.34 1159.04 845.33 1164.80 847.14
  Q 1169.87 848.73 1172.56 849.85
  C 1181.59 853.60 1191.26 855.91 1200.73 858.30
  C 1204.10 859.15 1207.59 860.46 1210.70 861.19
  Q 1226.19 864.81 1241.94 867.06
  C 1244.09 867.37 1245.46 868.69 1247.90 868.34
  Q 1250.00 868.04 1251.99 868.96
  Q 1252.23 869.07 1252.49 869.05
  C 1256.13 868.72 1259.07 870.01 1262.60 869.92
  Q 1266.29 869.82 1269.76 871.20
  A 1.02 0.99 -37.6 0 0 1270.28 871.26
  C 1275.45 870.46 1279.46 872.17 1284.20 872.11
  C 1289.08 872.05 1294.25 871.68 1299.02 872.77
  Q 1301.08 873.24 1303.20 873.29
  A 1.00 1.00 0.0 0 1 1304.17 874.17
  Q 1304.29 875.20 1304.71 876.00
  L 1251.00 997.29
  C 1250.62 997.18 1250.46 997.16 1250.24 997.51
  C 1216.82 1051.43 1143.11 1060.10 1098.61 1014.39
  Q 1091.84 1007.44 1085.74 996.51
  Q 1039.63 913.96 993.75 831.29
  Q 994.11 831.11 994.19 830.94
  Q 1010.02 795.04 1026.00 759.21
  Z"
/>
<path fill="#0dd1fe" d="
  M 962.02 774.45
  L 993.75 831.29
  Q 1039.63 913.96 1085.74 996.51
  Q 1091.84 1007.44 1098.61 1014.39
  C 1143.11 1060.10 1216.82 1051.43 1250.24 997.51
  C 1250.46 997.16 1250.62 997.18 1251.00 997.29
  L 1218.96 1069.75
  L 1218.73 1069.65
  A 0.22 0.21 17.4 0 1 1218.61 1069.43
  Q 1219.33 1064.00 1213.56 1064.81
  A 1.02 0.99 -37.6 0 1 1213.04 1064.75
  Q 1209.77 1063.39 1206.24 1063.80
  A 1.00 0.98 56.3 0 1 1205.62 1063.67
  C 1200.47 1060.62 1198.26 1066.19 1195.40 1068.92
  C 1193.56 1070.68 1192.40 1072.69 1190.46 1074.24
  A 1.01 1.01 0.0 0 1 1189.89 1074.46
  C 1182.69 1074.85 1176.22 1073.13 1169.13 1073.64
  C 1166.44 1073.83 1164.25 1072.44 1161.29 1072.54
  Q 1144.52 1073.08 1127.76 1072.75
  C 1120.59 1072.62 1113.25 1072.83 1105.99 1072.77
  C 1104.35 1072.76 1103.38 1073.95 1101.41 1073.79
  C 1097.11 1073.44 1091.45 1072.67 1087.67 1074.58
  Q 1087.44 1074.70 1087.17 1074.69
  Q 1081.41 1074.43 1075.64 1074.55
  C 1045.98 1075.13 1016.24 1074.79 986.56 1074.78
  C 972.10 1074.77 959.38 1080.37 945.62 1084.57
  Q 941.75 1085.75 938.03 1087.34
  L 926.75 1069.21
  Q 897.85 1019.26 869.85 968.81
  A 1.00 1.00 0.0 0 1 870.37 967.39
  Q 872.56 966.56 873.37 964.31
  A 1.00 0.99 -63.8 0 0 872.97 963.12
  C 871.88 962.44 871.65 962.07 872.16 960.82
  Q 874.37 955.37 877.37 950.39
  C 879.17 947.42 880.58 944.46 882.32 941.54
  Q 885.27 936.54 887.68 931.64
  Q 888.74 929.49 886.47 930.25
  L 882.28 931.65
  Q 879.78 932.49 881.10 930.20
  Q 883.97 925.25 886.80 920.29
  Q 889.95 914.78 889.74 909.99
  A 1.10 1.06 -32.7 0 1 889.87 909.44
  L 914.10 867.60
  A 1.00 0.99 27.0 0 0 913.64 866.19
  Q 912.48 865.67 912.50 864.29
  A 1.08 1.02 -65.5 0 0 912.28 863.64
  Q 911.56 862.76 910.23 862.95
  Q 906.62 863.48 908.42 860.43
  Q 920.09 840.58 932.32 821.07
  Q 933.48 819.21 933.25 815.62
  A 1.03 1.00 -28.5 0 1 933.46 814.95
  Q 933.99 814.26 935.21 812.23
  Q 942.22 800.55 955.74 780.74
  Q 956.27 779.96 957.12 777.51
  Q 958.20 774.39 962.02 774.45
  Z"
/>
<path fill="#0095eb" d="
  M 726.20 972.02
  L 709.54 942.50
  C 738.86 889.47 767.23 835.85 799.04 784.25
  Q 801.19 784.05 802.25 785.87
  A 1.00 0.98 45.5 0 1 802.25 786.88
  L 792.12 804.21
  A 0.97 0.95 -36.1 0 0 792.00 804.91
  Q 792.23 806.03 793.12 806.22
  A 0.80 0.80 0.0 0 1 793.64 807.41
  L 780.40 829.81
  A 1.02 1.00 53.1 0 0 780.30 830.58
  L 780.51 831.35
  A 1.03 1.00 -38.6 0 1 780.41 832.12
  C 777.03 837.96 772.84 844.29 770.37 850.34
  A 1.00 1.00 0.0 0 0 770.71 851.53
  L 772.20 852.59
  A 1.00 1.00 0.0 0 1 772.49 853.89
  L 761.10 874.29
  A 1.01 1.00 -49.5 0 0 761.18 875.39
  L 762.21 876.72
  A 1.01 1.01 0.0 0 1 762.29 877.81
  L 751.62 897.16
  A 0.64 0.64 0.0 0 0 752.17 898.11
  L 752.46 898.11
  A 1.00 0.99 6.4 0 1 753.42 899.31
  Q 753.16 900.61 754.85 901.19
  A 1.00 1.00 0.0 0 1 755.40 902.62
  L 743.49 924.09
  A 1.01 1.00 28.5 0 0 743.90 925.46
  L 746.56 926.86
  A 1.00 1.00 0.0 0 1 746.96 928.24
  L 743.27 934.73
  A 1.02 1.01 8.1 0 1 742.61 935.22
  Q 741.27 935.51 741.70 937.06
  A 0.99 0.97 51.6 0 1 741.62 937.82
  L 734.98 949.75
  A 1.00 1.00 0.0 0 0 734.92 950.60
  Q 736.03 953.44 734.93 955.93
  Q 733.78 958.50 726.20 972.02
  Z"
/>
<path fill="#0095eb" d="
  M 404.25 874.04
  Q 370.18 934.06 335.44 993.69
  Q 329.08 1004.60 322.46 1012.00
  C 279.19 1059.78 203.92 1052.75 169.54 998.69
  Q 169.27 998.28 168.50 998.29
  L 139.79 932.75
  Q 140.33 933.36 141.02 933.55
  A 1.00 0.99 26.9 0 0 142.07 933.21
  C 143.64 931.25 150.01 931.00 152.43 931.01
  Q 175.41 931.06 198.39 931.04
  C 205.31 931.03 210.10 931.53 216.55 928.27
  Q 220.40 926.33 222.79 925.44
  C 227.82 923.57 232.65 920.55 236.80 918.27
  Q 252.25 909.79 267.21 900.44
  A 0.99 0.97 -60.5 0 1 267.73 900.29
  L 326.78 899.94
  A 1.02 0.99 -62.6 0 0 327.38 899.74
  C 332.00 896.28 336.92 893.41 341.29 889.68
  C 345.23 886.33 349.46 883.28 353.08 879.58
  C 355.71 876.89 359.26 875.27 361.96 872.69
  Q 363.67 871.05 366.04 871.04
  C 370.69 871.02 402.09 870.13 403.73 871.57
  Q 404.72 872.44 404.25 874.04
  Z"
/>
<path fill="#19dffc" d="
  M 168.50 998.29
  Q 169.27 998.28 169.54 998.69
  C 203.92 1052.75 279.19 1059.78 322.46 1012.00
  Q 322.23 1013.09 322.67 1013.94
  A 1.01 1.00 76.3 0 0 323.54 1014.48
  Q 329.11 1014.60 334.60 1014.31
  C 337.41 1014.17 339.33 1015.63 342.09 1015.50
  C 345.51 1015.34 361.28 1014.70 363.08 1016.04
  A 0.96 0.93 -25.7 0 0 363.65 1016.23
  Q 369.05 1016.33 374.45 1016.31
  C 377.27 1016.30 379.75 1017.67 382.40 1017.50
  Q 387.19 1017.21 391.88 1018.04
  C 395.20 1018.64 399.01 1018.21 401.48 1018.79
  Q 406.68 1020.03 412.01 1019.67
  Q 412.52 1019.63 413.29 1020.22
  A 1.00 0.98 -26.3 0 0 413.93 1020.43
  C 418.13 1020.25 421.86 1021.20 426.20 1021.38
  C 428.60 1021.47 430.63 1022.28 432.87 1022.38
  Q 436.10 1022.52 439.28 1023.05
  Q 443.75 1023.80 448.24 1024.39
  C 450.89 1024.74 454.37 1025.86 457.71 1025.75
  A 1.03 0.99 57.5 0 1 458.24 1025.88
  C 460.33 1027.06 462.33 1026.47 464.26 1026.88
  C 470.61 1028.22 476.91 1028.85 483.25 1030.47
  Q 483.68 1030.58 483.78 1030.26
  A 0.25 0.24 -78.6 0 1 484.04 1030.08
  C 487.44 1030.31 490.84 1031.44 494.09 1031.37
  Q 509.38 1031.06 524.74 1031.47
  C 510.45 1056.62 489.26 1095.11 468.00 1123.54
  C 461.64 1120.99 454.92 1120.61 448.25 1119.35
  C 446.33 1118.99 444.23 1119.04 442.14 1118.54
  C 436.03 1117.08 429.63 1116.60 423.44 1115.40
  C 420.07 1114.74 416.14 1114.97 412.47 1114.03
  C 410.09 1113.41 408.08 1114.07 405.58 1113.23
  C 401.85 1111.98 398.60 1113.19 394.98 1112.19
  C 391.93 1111.35 389.03 1112.00 385.87 1111.24
  C 381.09 1110.09 376.74 1111.17 371.74 1109.81
  Q 369.84 1109.29 359.25 1109.78
  C 358.02 1109.83 356.15 1108.76 354.53 1108.71
  Q 343.58 1108.39 332.63 1108.78
  C 330.62 1108.85 328.69 1107.76 327.25 1107.76
  Q 312.21 1107.75 297.17 1107.74
  C 294.97 1107.74 293.11 1108.70 290.80 1108.71
  C 282.46 1108.75 273.64 1108.20 265.40 1109.28
  C 260.29 1109.95 255.80 1109.36 250.70 1110.61
  A 0.99 0.99 0.0 0 1 249.66 1110.23
  Q 245.12 1104.10 239.19 1099.31
  A 0.99 0.98 58.1 0 0 238.36 1099.11
  Q 232.63 1100.29 226.88 1100.69
  C 222.44 1100.99 218.69 1101.77 214.54 1102.50
  L 168.50 998.29
  Z"
/>
<path fill="#13c0f8" d="
  M 543.96 1237.75
  Q 523.37 1276.57 486.21 1298.60
  C 414.06 1341.38 317.72 1316.19 277.02 1241.97
  Q 271.23 1231.41 263.62 1213.22
  Q 270.18 1210.84 276.99 1211.57
  C 278.90 1211.78 281.64 1211.37 279.97 1208.61
  A 1.00 0.98 -8.2 0 0 279.36 1208.16
  Q 275.24 1207.12 276.87 1202.91
  A 0.97 0.97 0.0 0 1 277.32 1202.40
  Q 280.69 1200.53 284.40 1200.98
  A 1.00 1.00 0.0 0 0 285.47 1200.31
  Q 286.33 1197.75 284.33 1196.06
  A 1.01 1.00 23.0 0 1 283.98 1195.20
  Q 284.10 1193.96 283.72 1192.83
  A 1.00 1.00 0.0 0 1 284.73 1191.52
  L 287.58 1191.69
  A 1.01 1.01 0.0 0 0 288.58 1191.04
  Q 289.37 1188.92 288.15 1186.70
  A 1.00 1.00 0.0 0 1 288.93 1185.22
  Q 295.03 1184.64 301.17 1184.86
  C 302.59 1184.91 303.58 1183.96 303.05 1182.57
  A 1.01 1.00 -14.2 0 1 303.86 1181.22
  L 313.92 1179.90
  A 1.00 0.99 2.9 0 0 314.76 1179.15
  L 316.32 1172.95
  A 1.00 0.99 -84.7 0 1 317.21 1172.20
  L 323.08 1171.74
  A 1.01 0.98 19.2 0 0 323.72 1171.44
  Q 324.82 1170.31 326.07 1170.91
  Q 339.07 1177.09 351.01 1179.98
  C 399.67 1191.78 440.59 1159.87 468.00 1123.54
  C 489.26 1095.11 510.45 1056.62 524.74 1031.47
  L 542.50 1000.46
  Q 545.46 999.96 548.10 1001.16
  C 550.60 1002.30 550.62 1004.81 554.25 1005.16
  C 555.74 1005.31 557.71 1006.12 556.44 1007.89
  A 1.01 1.00 -76.8 0 1 555.80 1008.29
  Q 554.95 1008.44 554.27 1008.91
  A 0.98 0.96 76.8 0 0 553.84 1009.62
  L 553.80 1009.92
  Q 553.65 1011.32 552.70 1010.28
  Q 551.93 1009.44 550.94 1010.37
  A 0.99 0.95 -15.4 0 0 550.67 1010.82
  C 550.24 1012.28 549.51 1014.72 547.49 1014.16
  A 1.00 0.99 24.7 0 0 546.40 1014.56
  C 544.10 1017.95 555.34 1018.00 553.87 1022.33
  A 1.02 1.00 42.5 0 0 553.91 1023.08
  Q 555.83 1027.19 551.32 1026.36
  A 1.02 1.00 33.5 0 0 550.60 1026.50
  Q 549.61 1027.12 547.49 1028.75
  Q 546.31 1029.66 545.97 1030.84
  A 1.00 1.00 0.0 0 0 546.97 1032.12
  Q 547.72 1032.08 548.29 1031.53
  A 1.00 0.99 -66.8 0 1 548.98 1031.25
  L 554.92 1031.25
  Q 557.05 1031.25 555.07 1032.04
  Q 554.56 1032.24 554.00 1032.26
  A 1.02 1.01 6.2 0 0 553.06 1033.01
  L 552.75 1034.20
  A 1.00 0.98 -88.0 0 1 551.99 1034.92
  C 547.29 1035.91 548.35 1038.22 545.43 1040.80
  A 1.02 1.00 58.4 0 0 545.17 1041.94
  L 545.67 1043.13
  A 1.04 1.03 87.9 0 0 546.27 1043.69
  Q 548.75 1044.53 550.39 1046.54
  A 0.99 0.99 0.0 0 1 550.45 1047.71
  L 545.11 1056.05
  A 1.00 0.99 22.9 0 0 545.73 1057.56
  L 548.74 1058.25
  A 1.00 1.00 0.0 0 1 549.51 1059.33
  Q 549.34 1060.94 550.76 1061.80
  A 1.00 0.99 12.0 0 1 551.24 1062.53
  Q 551.51 1064.73 549.45 1064.29
  A 0.99 0.99 0.0 0 0 548.25 1065.27
  L 548.25 1068.28
  A 1.00 0.99 1.2 0 0 549.21 1069.27
  Q 553.72 1069.47 551.12 1073.62
  A 1.00 1.00 0.0 0 0 551.04 1074.54
  C 552.20 1077.32 550.55 1081.15 548.57 1082.96
  A 1.01 0.99 -21.5 0 0 548.24 1083.70
  L 548.25 1086.03
  A 1.00 1.00 0.0 0 0 549.04 1087.01
  Q 551.83 1087.60 551.95 1090.32
  A 1.00 0.97 -25.0 0 1 551.67 1091.05
  Q 549.45 1093.40 548.50 1096.46
  A 1.01 1.00 -4.3 0 1 547.97 1097.07
  Q 545.95 1098.01 546.84 1099.93
  Q 546.94 1100.17 546.92 1100.43
  L 546.56 1105.30
  Q 546.54 1105.55 546.41 1105.76
  L 541.78 1113.00
  A 1.00 1.00 0.0 0 0 542.36 1114.50
  L 546.37 1115.59
  A 1.01 1.00 6.1 0 1 547.11 1116.50
  Q 547.35 1121.40 544.40 1125.21
  A 1.01 1.01 0.0 0 0 544.24 1126.13
  L 545.47 1130.00
  A 1.00 0.99 60.3 0 1 545.19 1131.05
  Q 542.81 1133.18 542.01 1136.20
  A 1.02 1.02 0.0 0 1 541.60 1136.77
  C 539.99 1137.85 540.06 1138.91 541.13 1140.44
  Q 543.13 1143.31 541.09 1145.63
  A 0.99 0.99 0.0 0 0 541.58 1147.25
  L 542.39 1147.47
  A 1.01 1.00 23.2 0 1 542.99 1148.96
  Q 542.14 1150.36 542.51 1151.95
  A 1.01 1.00 -25.6 0 1 542.14 1152.98
  Q 540.45 1154.23 540.77 1156.49
  A 1.00 0.99 -31.5 0 1 540.59 1157.22
  Q 538.83 1159.65 535.81 1159.95
  C 534.93 1160.03 534.66 1160.66 535.60 1160.98
  C 541.46 1162.96 535.47 1167.39 533.85 1169.63
  A 1.01 0.99 40.7 0 0 533.96 1170.92
  L 535.43 1172.40
  A 1.00 0.99 43.5 0 1 535.47 1173.77
  Q 534.57 1174.77 534.70 1176.20
  A 1.04 0.99 -31.5 0 1 534.53 1176.85
  L 532.25 1180.18
  A 1.01 1.00 -57.1 0 0 532.55 1181.60
  Q 536.43 1184.01 533.09 1186.40
  Q 531.54 1187.51 533.34 1188.15
  L 534.06 1188.41
  A 1.01 0.99 -84.7 0 1 534.71 1189.21
  Q 535.02 1191.31 537.07 1191.28
  Q 538.63 1191.25 537.54 1192.36
  Q 535.74 1194.22 538.59 1195.27
  A 1.06 1.06 0.0 0 1 539.05 1195.62
  C 540.42 1197.46 536.47 1199.98 535.82 1202.44
  A 1.00 0.99 -67.5 0 0 536.28 1203.56
  L 539.27 1205.29
  A 0.99 0.99 0.0 0 1 539.54 1206.79
  L 538.99 1207.46
  A 0.99 0.98 69.6 0 0 538.76 1207.97
  C 538.40 1210.86 533.60 1212.22 535.49 1214.40
  A 1.04 1.00 -16.4 0 0 536.12 1214.73
  Q 538.49 1215.05 537.99 1217.51
  Q 537.29 1220.99 535.85 1221.38
  Q 533.72 1221.96 532.18 1223.39
  A 1.00 1.00 0.0 0 0 532.53 1225.07
  Q 534.61 1225.80 538.25 1226.46
  C 543.18 1227.35 534.65 1231.99 540.08 1234.45
  A 1.01 0.98 9.8 0 1 540.65 1235.24
  L 540.99 1237.97
  A 1.00 0.99 74.5 0 0 542.38 1238.76
  Q 543.27 1238.38 543.96 1237.75
  Z"
/>
<path fill="#13c0f8" d="
  M 1218.96 1069.75
  L 1163.15 1195.76
  Q 1157.08 1192.79 1152.48 1194.09
  Q 1149.05 1195.06 1146.44 1194.60
  C 1143.36 1194.06 1142.05 1191.54 1144.53 1189.05
  A 1.01 1.01 0.0 0 0 1144.82 1188.23
  Q 1144.05 1181.15 1144.92 1174.08
  C 1145.22 1171.66 1144.29 1169.78 1144.77 1167.21
  A 1.02 0.99 -57.6 0 0 1144.62 1166.48
  Q 1143.27 1164.42 1143.97 1162.09
  A 1.00 1.00 0.0 0 0 1143.61 1160.99
  Q 1140.60 1158.79 1136.73 1158.58
  Q 1134.65 1158.46 1134.27 1156.01
  L 1133.31 1149.83
  A 0.99 0.99 0.0 0 0 1132.35 1148.98
  L 1125.76 1148.79
  A 1.01 0.99 -18.9 0 1 1125.01 1148.43
  L 1123.93 1147.10
  A 1.05 1.03 -15.2 0 0 1123.29 1146.74
  L 1116.37 1145.79
  A 0.96 0.96 0.0 0 0 1115.72 1145.93
  C 1095.98 1158.01 1076.76 1168.01 1053.02 1168.82
  C 1002.00 1170.57 962.48 1126.61 938.03 1087.34
  Q 941.75 1085.75 945.62 1084.57
  C 959.38 1080.37 972.10 1074.77 986.56 1074.78
  C 1016.24 1074.79 1045.98 1075.13 1075.64 1074.55
  Q 1081.41 1074.43 1087.17 1074.69
  Q 1087.44 1074.70 1087.67 1074.58
  C 1091.45 1072.67 1097.11 1073.44 1101.41 1073.79
  C 1103.38 1073.95 1104.35 1072.76 1105.99 1072.77
  C 1113.25 1072.83 1120.59 1072.62 1127.76 1072.75
  Q 1144.52 1073.08 1161.29 1072.54
  C 1164.25 1072.44 1166.44 1073.83 1169.13 1073.64
  C 1176.22 1073.13 1182.69 1074.85 1189.89 1074.46
  A 1.01 1.01 0.0 0 0 1190.46 1074.24
  C 1192.40 1072.69 1193.56 1070.68 1195.40 1068.92
  C 1198.26 1066.19 1200.47 1060.62 1205.62 1063.67
  A 1.00 0.98 56.3 0 0 1206.24 1063.80
  Q 1209.77 1063.39 1213.04 1064.75
  A 1.02 0.99 -37.6 0 0 1213.56 1064.81
  Q 1219.33 1064.00 1218.61 1069.43
  A 0.22 0.21 17.4 0 0 1218.73 1069.65
  L 1218.96 1069.75
  Z"
/>
<path fill="#09b1f9" d="
  M 926.75 1069.21
  L 938.03 1087.34
  C 962.48 1126.61 1002.00 1170.57 1053.02 1168.82
  C 1076.76 1168.01 1095.98 1158.01 1115.72 1145.93
  A 0.96 0.96 0.0 0 1 1116.37 1145.79
  L 1123.29 1146.74
  A 1.05 1.03 -15.2 0 1 1123.93 1147.10
  L 1125.01 1148.43
  A 1.01 0.99 -18.9 0 0 1125.76 1148.79
  L 1132.35 1148.98
  A 0.99 0.99 0.0 0 1 1133.31 1149.83
  L 1134.27 1156.01
  Q 1134.65 1158.46 1136.73 1158.58
  Q 1140.60 1158.79 1143.61 1160.99
  A 1.00 1.00 0.0 0 1 1143.97 1162.09
  Q 1143.27 1164.42 1144.62 1166.48
  A 1.02 0.99 -57.6 0 1 1144.77 1167.21
  C 1144.29 1169.78 1145.22 1171.66 1144.92 1174.08
  Q 1144.05 1181.15 1144.82 1188.23
  A 1.01 1.01 0.0 0 1 1144.53 1189.05
  C 1142.05 1191.54 1143.36 1194.06 1146.44 1194.60
  Q 1149.05 1195.06 1152.48 1194.09
  Q 1157.08 1192.79 1163.15 1195.76
  C 1156.71 1210.30 1150.40 1226.50 1143.03 1239.54
  C 1127.14 1267.67 1101.28 1294.21 1070.50 1306.29
  Q 1068.15 1305.64 1068.82 1304.01
  A 1.03 1.03 0.0 0 0 1068.69 1303.02
  L 1068.18 1302.35
  A 1.00 1.00 0.0 0 0 1067.38 1301.95
  C 1064.09 1301.96 1060.84 1301.54 1057.61 1301.71
  Q 1053.27 1301.93 1049.02 1301.82
  A 1.01 1.00 11.5 0 1 1048.11 1300.45
  L 1050.63 1294.11
  A 1.00 1.00 0.0 0 0 1049.65 1292.75
  C 1047.47 1292.86 1036.61 1296.65 1036.05 1293.94
  A 1.01 1.00 65.1 0 1 1036.40 1292.96
  L 1037.65 1291.94
  A 0.97 0.95 75.8 0 0 1038.00 1291.34
  Q 1038.58 1288.13 1040.28 1285.38
  A 0.99 0.99 0.0 0 0 1040.34 1284.43
  C 1038.76 1281.05 1030.24 1288.52 1032.21 1281.73
  Q 1032.26 1281.55 1032.38 1281.39
  L 1036.69 1275.88
  A 0.99 0.98 59.7 0 0 1036.89 1275.11
  L 1036.72 1273.99
  A 1.00 0.98 -27.8 0 1 1036.99 1273.14
  Q 1038.09 1272.02 1038.40 1270.28
  Q 1038.85 1267.71 1035.98 1268.20
  L 1030.27 1269.18
  A 1.01 1.00 56.2 0 1 1029.58 1269.04
  C 1026.96 1267.42 1028.93 1264.81 1030.74 1263.07
  A 1.03 1.00 -23.8 0 0 1031.05 1262.30
  C 1030.78 1257.21 1025.10 1259.47 1022.26 1259.76
  A 1.00 0.99 70.6 0 1 1021.33 1259.31
  Q 1019.09 1255.90 1022.40 1253.90
  A 0.99 0.96 -7.4 0 0 1022.82 1253.37
  L 1023.86 1250.35
  A 1.02 1.02 0.0 0 0 1023.86 1249.67
  C 1023.05 1247.53 1017.26 1249.89 1015.72 1250.39
  Q 1014.98 1250.62 1014.44 1250.44
  A 0.99 0.98 -81.1 0 1 1013.76 1249.50
  L 1013.74 1247.03
  A 1.05 1.05 0.0 0 1 1013.95 1246.40
  Q 1015.77 1244.09 1014.64 1241.45
  A 0.64 0.64 0.0 0 1 1014.85 1240.68
  L 1015.12 1240.48
  Q 1016.73 1239.28 1014.78 1239.75
  L 1008.53 1241.27
  Q 1008.31 1241.32 1008.10 1241.28
  Q 1006.58 1240.99 1006.04 1240.31
  A 1.00 0.99 48.6 0 1 1006.12 1238.97
  Q 1011.11 1234.12 1006.47 1227.98
  A 1.01 1.00 -24.0 0 0 1005.46 1227.60
  L 997.31 1229.33
  A 0.99 0.99 0.0 0 1 996.19 1228.75
  Q 994.72 1225.40 997.89 1224.18
  A 1.01 1.00 88.8 0 0 998.48 1223.56
  L 999.73 1219.80
  A 1.00 1.00 0.0 0 0 999.27 1218.62
  C 996.73 1217.18 992.39 1221.81 992.54 1215.63
  A 1.06 0.98 -28.8 0 1 992.72 1215.09
  Q 994.13 1213.04 991.95 1212.05
  C 985.70 1209.22 979.47 1213.53 973.34 1215.73
  Q 965.26 1218.63 957.57 1222.43
  C 954.07 1224.17 949.95 1225.37 946.26 1227.29
  C 944.24 1228.33 942.18 1228.92 940.11 1229.74
  A 0.99 0.99 0.0 0 1 938.75 1228.76
  C 938.90 1226.25 941.25 1225.14 941.12 1222.64
  C 940.74 1215.28 946.84 1219.79 949.45 1215.52
  A 1.02 0.99 53.8 0 0 949.56 1214.72
  L 948.69 1211.71
  A 1.01 1.00 74.3 0 0 947.47 1211.02
  Q 940.91 1212.78 936.01 1216.28
  C 935.55 1216.61 934.14 1216.68 933.43 1217.09
  Q 926.73 1221.06 919.77 1224.54
  C 917.97 1225.44 916.22 1226.90 913.97 1227.73
  Q 911.26 1228.74 909.76 1229.75
  C 906.35 1232.04 902.72 1233.65 899.30 1236.06
  C 896.17 1238.26 893.89 1239.80 889.79 1239.86
  Q 885.83 1239.91 881.87 1239.85
  C 880.42 1239.83 878.18 1240.76 876.57 1239.32
  A 0.81 0.80 -43.8 0 0 875.53 1239.30
  L 875.29 1239.50
  L 823.21 1146.00
  Q 824.62 1145.57 823.84 1144.95
  A 0.64 0.64 0.0 0 1 823.89 1143.92
  Q 838.50 1134.09 852.09 1126.26
  Q 854.47 1124.89 856.75 1123.35
  A 0.40 0.40 0.0 0 1 857.25 1123.39
  Q 857.56 1123.66 857.85 1123.27
  A 0.81 0.76 9.2 0 1 858.33 1122.95
  C 860.61 1122.46 862.50 1121.00 864.24 1120.27
  C 867.63 1118.85 870.32 1117.87 873.60 1115.66
  Q 876.60 1113.63 880.00 1112.27
  A 0.79 0.78 -1.0 0 0 880.46 1111.80
  C 880.81 1110.80 884.59 1109.41 885.70 1108.84
  A 1.01 1.01 0.0 0 0 885.81 1107.12
  Q 883.04 1105.20 885.63 1104.45
  A 1.00 0.99 0.4 0 0 886.30 1103.80
  L 886.72 1102.54
  A 0.99 0.98 -57.2 0 0 886.51 1101.55
  Q 885.20 1100.10 886.80 1099.08
  C 891.44 1096.12 889.68 1091.79 890.10 1087.36
  A 1.01 1.01 0.0 0 1 890.59 1086.59
  L 895.63 1083.63
  Q 895.82 1083.52 895.95 1083.34
  Q 896.79 1082.12 897.74 1081.74
  C 902.42 1079.87 910.25 1077.51 912.06 1073.35
  A 1.00 0.98 13.8 0 1 913.06 1072.76
  Q 915.84 1072.98 918.00 1071.19
  A 1.00 0.97 -61.8 0 1 918.73 1070.96
  Q 921.92 1071.26 924.86 1070.06
  A 1.01 0.99 82.6 0 0 925.47 1069.25
  Q 925.58 1068.35 926.75 1069.21
  Z"
/>
<path fill="#0dd1fe" d="
  M 468.00 1123.54
  C 440.59 1159.87 399.67 1191.78 351.01 1179.98
  Q 339.07 1177.09 326.07 1170.91
  Q 324.82 1170.31 323.72 1171.44
  A 1.01 0.98 19.2 0 1 323.08 1171.74
  L 317.21 1172.20
  A 1.00 0.99 -84.7 0 0 316.32 1172.95
  L 314.76 1179.15
  A 1.00 0.99 2.9 0 1 313.92 1179.90
  L 303.86 1181.22
  A 1.01 1.00 -14.2 0 0 303.05 1182.57
  C 303.58 1183.96 302.59 1184.91 301.17 1184.86
  Q 295.03 1184.64 288.93 1185.22
  A 1.00 1.00 0.0 0 0 288.15 1186.70
  Q 289.37 1188.92 288.58 1191.04
  A 1.01 1.01 0.0 0 1 287.58 1191.69
  L 284.73 1191.52
  A 1.00 1.00 0.0 0 0 283.72 1192.83
  Q 284.10 1193.96 283.98 1195.20
  A 1.01 1.00 23.0 0 0 284.33 1196.06
  Q 286.33 1197.75 285.47 1200.31
  A 1.00 1.00 0.0 0 1 284.40 1200.98
  Q 280.69 1200.53 277.32 1202.40
  A 0.97 0.97 0.0 0 0 276.87 1202.91
  Q 275.24 1207.12 279.36 1208.16
  A 1.00 0.98 -8.2 0 1 279.97 1208.61
  C 281.64 1211.37 278.90 1211.78 276.99 1211.57
  Q 270.18 1210.84 263.62 1213.22
  L 214.54 1102.50
  C 218.69 1101.77 222.44 1100.99 226.88 1100.69
  Q 232.63 1100.29 238.36 1099.11
  A 0.99 0.98 58.1 0 1 239.19 1099.31
  Q 245.12 1104.10 249.66 1110.23
  A 0.99 0.99 0.0 0 0 250.70 1110.61
  C 255.80 1109.36 260.29 1109.95 265.40 1109.28
  C 273.64 1108.20 282.46 1108.75 290.80 1108.71
  C 293.11 1108.70 294.97 1107.74 297.17 1107.74
  Q 312.21 1107.75 327.25 1107.76
  C 328.69 1107.76 330.62 1108.85 332.63 1108.78
  Q 343.58 1108.39 354.53 1108.71
  C 356.15 1108.76 358.02 1109.83 359.25 1109.78
  Q 369.84 1109.29 371.74 1109.81
  C 376.74 1111.17 381.09 1110.09 385.87 1111.24
  C 389.03 1112.00 391.93 1111.35 394.98 1112.19
  C 398.60 1113.19 401.85 1111.98 405.58 1113.23
  C 408.08 1114.07 410.09 1113.41 412.47 1114.03
  C 416.14 1114.97 420.07 1114.74 423.44 1115.40
  C 429.63 1116.60 436.03 1117.08 442.14 1118.54
  C 444.23 1119.04 446.33 1118.99 448.25 1119.35
  C 454.92 1120.61 461.64 1120.99 468.00 1123.54
  Z"
/>
<path fill="#019eec" d="
  M 1070.50 1306.29
  C 996.52 1338.65 914.10 1309.68 875.29 1239.50
  L 875.53 1239.30
  A 0.81 0.80 -43.8 0 1 876.57 1239.32
  C 878.18 1240.76 880.42 1239.83 881.87 1239.85
  Q 885.83 1239.91 889.79 1239.86
  C 893.89 1239.80 896.17 1238.26 899.30 1236.06
  C 902.72 1233.65 906.35 1232.04 909.76 1229.75
  Q 911.26 1228.74 913.97 1227.73
  C 916.22 1226.90 917.97 1225.44 919.77 1224.54
  Q 926.73 1221.06 933.43 1217.09
  C 934.14 1216.68 935.55 1216.61 936.01 1216.28
  Q 940.91 1212.78 947.47 1211.02
  A 1.01 1.00 74.3 0 1 948.69 1211.71
  L 949.56 1214.72
  A 1.02 0.99 53.8 0 1 949.45 1215.52
  C 946.84 1219.79 940.74 1215.28 941.12 1222.64
  C 941.25 1225.14 938.90 1226.25 938.75 1228.76
  A 0.99 0.99 0.0 0 0 940.11 1229.74
  C 942.18 1228.92 944.24 1228.33 946.26 1227.29
  C 949.95 1225.37 954.07 1224.17 957.57 1222.43
  Q 965.26 1218.63 973.34 1215.73
  C 979.47 1213.53 985.70 1209.22 991.95 1212.05
  Q 994.13 1213.04 992.72 1215.09
  A 1.06 0.98 -28.8 0 0 992.54 1215.63
  C 992.39 1221.81 996.73 1217.18 999.27 1218.62
  A 1.00 1.00 0.0 0 1 999.73 1219.80
  L 998.48 1223.56
  A 1.01 1.00 88.8 0 1 997.89 1224.18
  Q 994.72 1225.40 996.19 1228.75
  A 0.99 0.99 0.0 0 0 997.31 1229.33
  L 1005.46 1227.60
  A 1.01 1.00 -24.0 0 1 1006.47 1227.98
  Q 1011.11 1234.12 1006.12 1238.97
  A 1.00 0.99 48.6 0 0 1006.04 1240.31
  Q 1006.58 1240.99 1008.10 1241.28
  Q 1008.31 1241.32 1008.53 1241.27
  L 1014.78 1239.75
  Q 1016.73 1239.28 1015.12 1240.48
  L 1014.85 1240.68
  A 0.64 0.64 0.0 0 0 1014.64 1241.45
  Q 1015.77 1244.09 1013.95 1246.40
  A 1.05 1.05 0.0 0 0 1013.74 1247.03
  L 1013.76 1249.50
  A 0.99 0.98 -81.1 0 0 1014.44 1250.44
  Q 1014.98 1250.62 1015.72 1250.39
  C 1017.26 1249.89 1023.05 1247.53 1023.86 1249.67
  A 1.02 1.02 0.0 0 1 1023.86 1250.35
  L 1022.82 1253.37
  A 0.99 0.96 -7.4 0 1 1022.40 1253.90
  Q 1019.09 1255.90 1021.33 1259.31
  A 1.00 0.99 70.6 0 0 1022.26 1259.76
  C 1025.10 1259.47 1030.78 1257.21 1031.05 1262.30
  A 1.03 1.00 -23.8 0 1 1030.74 1263.07
  C 1028.93 1264.81 1026.96 1267.42 1029.58 1269.04
  A 1.01 1.00 56.2 0 0 1030.27 1269.18
  L 1035.98 1268.20
  Q 1038.85 1267.71 1038.40 1270.28
  Q 1038.09 1272.02 1036.99 1273.14
  A 1.00 0.98 -27.8 0 0 1036.72 1273.99
  L 1036.89 1275.11
  A 0.99 0.98 59.7 0 1 1036.69 1275.88
  L 1032.38 1281.39
  Q 1032.26 1281.55 1032.21 1281.73
  C 1030.24 1288.52 1038.76 1281.05 1040.34 1284.43
  A 0.99 0.99 0.0 0 1 1040.28 1285.38
  Q 1038.58 1288.13 1038.00 1291.34
  A 0.97 0.95 75.8 0 1 1037.65 1291.94
  L 1036.40 1292.96
  A 1.01 1.00 65.1 0 0 1036.05 1293.94
  C 1036.61 1296.65 1047.47 1292.86 1049.65 1292.75
  A 1.00 1.00 0.0 0 1 1050.63 1294.11
  L 1048.11 1300.45
  A 1.01 1.00 11.5 0 0 1049.02 1301.82
  Q 1053.27 1301.93 1057.61 1301.71
  C 1060.84 1301.54 1064.09 1301.96 1067.38 1301.95
  A 1.00 1.00 0.0 0 1 1068.18 1302.35
  L 1068.69 1303.02
  A 1.03 1.03 0.0 0 1 1068.82 1304.01
  Q 1068.15 1305.64 1070.50 1306.29
  Z"
/>
</svg>
