<?xml version="1.0" encoding="UTF-8"?>
<!-- Generated by Pixelmator Pro 3.3.11 -->
<svg width="512" height="512" viewBox="0 0 512 512" xmlns="http://www.w3.org/2000/svg">
    <radialGradient id="radialGradient1" cx="28.316637" cy="93.075811" r="141.763491" fx="28.316637" fy="93.075811" gradientUnits="userSpaceOnUse">
        <stop offset="0.1" stop-color="#00bae6" stop-opacity="1"/>
        <stop offset="0.78" stop-color="#0084e7" stop-opacity="1"/>
    </radialGradient>
    <path id="Path" fill="url(#radialGradient1)" stroke="none" d="M 104.125496 327.609985 C 120.261879 327.609985 128.364502 318.410461 136.673798 299.769531 L 167.951416 230.081848 L 115.832611 113.43277 C 102.683525 83.944336 68.143623 70.727692 38.651123 83.875671 C 9.192879 97.02359 -4.025556 131.592712 9.124178 161.046814 L 77.963043 315.252167 C 83.593742 323.387817 93.447044 327.609985 104.091049 327.609985 L 104.125496 327.609985 Z"/>
    <radialGradient id="radialGradient2" cx="482.5056" cy="93.075532" r="141.763491" fx="482.5056" fy="93.075532" gradientUnits="userSpaceOnUse">
        <stop offset="0.14" stop-color="#788cf3" stop-opacity="1"/>
        <stop offset="0.46" stop-color="#587eef" stop-opacity="1"/>
        <stop offset="1" stop-color="#1a65e8" stop-opacity="1"/>
    </radialGradient>
    <path id="path1" fill="url(#radialGradient2)" stroke="none" d="M 406.662567 327.609985 C 390.525238 327.609985 382.422607 318.409485 374.114288 299.769531 L 342.836639 230.081848 L 394.920105 113.432465 C 408.070099 83.978455 442.609619 70.761841 472.102692 83.909729 C 501.560364 97.057709 514.779297 131.592499 501.629272 161.080933 L 432.790405 315.285645 C 427.159332 323.422211 417.305634 327.644409 406.662567 327.644409 L 406.662567 327.609985 Z"/>
    <linearGradient id="linearGradient1" x1="77.961647" y1="261.49258" x2="432.833222" y2="261.49258" gradientUnits="userSpaceOnUse">
        <stop offset="1e-05" stop-color="#788cf3" stop-opacity="1"/>
        <stop offset="0.25" stop-color="#57abf6" stop-opacity="1"/>
        <stop offset="0.51" stop-color="#39cafa" stop-opacity="1"/>
        <stop offset="0.86" stop-color="#39cafa" stop-opacity="1"/>
    </linearGradient>
    <path id="path2" fill="url(#linearGradient1)" stroke="none" d="M 406.670959 327.644409 C 390.534576 327.644409 382.431915 318.443909 374.12265 299.803925 L 308.992493 154.696014 C 299.275696 132.897217 277.817322 119.989563 255.362854 120.09259 C 232.943771 119.989563 211.484451 132.897217 201.734116 154.696014 L 136.603058 299.803925 C 128.294693 318.443909 120.192055 327.644409 104.054749 327.644409 C 93.411667 327.644409 83.557991 323.456635 77.927299 315.28656 C 82.562294 326.580505 94.956978 358.746399 108.381615 387.376434 C 108.896408 388.474762 109.411201 389.539642 109.925995 390.569122 C 109.925995 390.569122 109.925995 390.569122 109.925995 390.534729 C 115.659462 398.361633 126.269035 402.8591 136.671951 402.8591 C 152.80925 402.8591 160.91188 393.658569 169.220245 375.018616 C 169.220245 375.018616 210.660599 282.536621 224.463196 251.674591 C 228.205429 243.298981 236.753983 223.147766 255.32933 223.147766 C 273.903778 223.147766 282.074371 242.475006 286.19458 251.674591 C 299.997162 282.502197 341.4375 375.018616 341.4375 375.018616 C 349.74585 393.658569 357.848511 402.8591 373.985809 402.8591 C 384.388702 402.8591 394.998291 398.361633 400.73175 390.534729 C 400.73175 390.534729 400.73175 390.534729 400.73175 390.569122 C 401.246552 389.539642 401.761322 388.474762 402.277069 387.376434 C 415.700775 358.746399 428.095795 326.580505 432.730835 315.28656 C 427.099762 323.422211 417.246094 327.644409 406.602997 327.644409 L 406.670959 327.644409 Z"/>
    <linearGradient id="linearGradient2" x1="109.985571" y1="328.19311" x2="400.791331" y2="328.19311" gradientUnits="userSpaceOnUse">
        <stop offset="1e-05" stop-color="#679bf5" stop-opacity="1"/>
        <stop offset="0.19" stop-color="#529df4" stop-opacity="1"/>
        <stop offset="0.51" stop-color="#34a2f3" stop-opacity="1"/>
        <stop offset="0.86" stop-color="#4daff7" stop-opacity="1"/>
    </linearGradient>
    <path id="path3" fill="url(#linearGradient2)" stroke="none" d="M 400.791321 390.603546 C 394.576599 403.064636 387.847961 412.024231 380.946198 418.409637 C 370.646637 427.472473 358.080292 432.621887 342.836639 433.170563 C 342.664459 433.170563 342.527588 433.170563 342.355377 433.170563 C 325.704193 432.827393 309.223389 425.550171 298.065521 412.744995 C 294.528992 408.453949 291.439301 403.579834 288.863464 398.223969 C 288.863464 398.223969 271.147339 357.956848 255.42337 322.460571 C 255.42337 322.460571 255.42337 322.494995 255.42337 322.529419 C 255.42337 322.529419 255.42337 322.494995 255.42337 322.460571 C 239.663986 357.956848 221.982315 398.223969 221.982315 398.223969 C 219.407425 403.579834 216.351242 408.453949 212.780273 412.744995 C 201.622406 425.550171 185.108078 432.827393 168.490417 433.170563 C 168.318207 433.170563 168.181351 433.170563 168.010071 433.170563 C 152.765503 432.621887 140.199158 427.438049 129.899567 418.409637 C 122.998749 412.024231 116.269211 403.064636 110.054459 390.603546 C 115.787926 398.396027 126.397499 402.892578 136.800415 402.892578 C 152.936783 402.892578 161.040344 393.692993 169.348724 375.052094 C 169.348724 375.052094 210.789063 282.570099 224.59166 251.708984 C 228.711868 242.508484 236.916885 223.181213 255.456879 223.181213 C 273.997772 223.181213 282.20282 242.508484 286.323029 251.708984 C 300.12561 282.535706 341.565979 375.052094 341.565979 375.052094 C 349.874329 393.692993 357.976959 402.892578 374.114288 402.892578 C 384.517181 402.892578 395.12674 398.396027 400.860229 390.603546 L 400.791321 390.603546 Z"/>
</svg>
