<?xml version="1.0" encoding="UTF-8"?>
<!-- Generated by Pixelmator Pro 3.3.11 -->
<svg width="341" height="32" viewBox="0 0 341 32" xmlns="http://www.w3.org/2000/svg">
    <title>about-wordmark</title>
    <g id="Page-1">
        <g id="about-wordmark" fill="#053361" fill-rule="evenodd" >
            <path id="Browser" stroke="none" d="M 330.766998 10.686001 L 328.990997 10.686001 L 328.990997 30 L 330.841003 30 L 330.841003 19.936001 C 330.841003 15.163 333.394012 12.313999 337.686005 12.313999 C 337.834015 12.313999 337.981995 12.351 338.130005 12.351 L 338.130005 10.538 C 334.503998 10.538 331.950989 12.091999 330.766998 14.903999 Z M 323.256012 20.269001 C 323.256012 14.534 319.334015 10.538 314.042999 10.538 C 308.752014 10.538 304.792999 14.608 304.792999 20.343 C 304.792999 26.078001 308.899994 30.148001 314.746002 30.148001 C 317.669006 30.148001 320.333008 29.075001 322.035004 27.003 L 320.962006 25.782 C 319.481995 27.594999 317.225006 28.483 314.78299 28.483 C 310.15799 28.483 306.790985 25.375 306.605988 20.786999 L 323.218994 20.786999 C 323.218994 20.602001 323.256012 20.417 323.256012 20.269001 Z M 314.042999 12.166 C 318.149994 12.166 321.18399 15.163 321.442993 19.344 L 306.643005 19.344 C 306.938995 15.125999 309.936005 12.166 314.042999 12.166 Z M 294.100006 30.148001 C 299.020996 30.148001 301.721985 28.002001 301.721985 24.857 C 301.721985 17.493999 288.920013 21.601 288.920013 15.792 C 288.920013 13.719999 290.584991 12.166 294.359009 12.166 C 296.431 12.166 298.540009 12.721001 300.167999 13.905001 L 301.019012 12.424999 C 299.502014 11.278 296.838013 10.538 294.395996 10.538 C 289.511993 10.538 287.070007 12.906 287.070007 15.829 C 287.070007 23.414 299.872009 19.27 299.872009 24.894001 C 299.872009 27.077 298.243988 28.52 294.174011 28.52 C 291.325012 28.52 288.697998 27.447001 287.217987 26.188999 L 286.367004 27.669001 C 287.884003 29.075001 290.917999 30.148001 294.100006 30.148001 Z M 276.932007 27.890999 L 270.382996 10.686001 L 268.791992 10.686001 L 262.205994 27.927999 L 255.768005 10.686001 L 253.992004 10.686001 L 261.317993 30 L 263.019989 30 L 269.569 13.239 L 276.080994 30 L 277.820007 30 L 285.145996 10.686001 L 283.444 10.686001 Z M 242.707001 30.148001 C 248.257004 30.148001 252.363998 26.078001 252.363998 20.343 C 252.363998 14.608 248.257004 10.538 242.707001 10.538 C 237.156998 10.538 233.050003 14.608 233.050003 20.343 C 233.050003 26.078001 237.156998 30.148001 242.707001 30.148001 Z M 242.707001 28.483 C 238.266998 28.483 234.936996 25.190001 234.936996 20.343 C 234.936996 15.496 238.266998 12.202999 242.707001 12.202999 C 247.147003 12.202999 250.477005 15.496 250.477005 20.343 C 250.477005 25.190001 247.147003 28.483 242.707001 28.483 Z M 222.875 10.686001 L 221.098999 10.686001 L 221.098999 30 L 222.949005 30 L 222.949005 19.936001 C 222.949005 15.163 225.501999 12.313999 229.794006 12.313999 C 229.942001 12.313999 230.089996 12.351 230.238007 12.351 L 230.238007 10.538 C 226.612 10.538 224.059006 12.091999 222.875 14.903999 Z M 209.259003 16.643 C 211.848999 15.792 213.587997 13.794001 213.587997 10.723 C 213.587997 6.431 210.220993 4.1 204.671005 4.1 L 193.867004 4.1 L 193.867004 30 L 205.410995 30 C 211.774994 30 214.957001 27.521 214.957001 23.154999 C 214.957001 19.566 212.921997 17.346001 209.259003 16.643 Z M 204.597 5.728001 C 209.074005 5.728001 211.664001 7.466999 211.664001 10.871 C 211.664001 14.312 209.074005 16.050999 204.597 16.050999 L 195.753998 16.050999 L 195.753998 5.728001 Z M 195.753998 28.372 L 195.753998 17.679001 L 205.410995 17.679001 C 210.369003 17.679001 213.070007 19.306999 213.070007 23.007 C 213.070007 26.743999 210.369003 28.372 205.410995 28.372 Z"/>
            <path id="Waterfox" stroke="none" d="M 146.200531 30.501001 C 139.827286 30.501001 135.167328 26.214588 135.167328 20.176783 C 135.167328 14.138975 139.827286 9.852564 146.200531 9.852564 C 152.573792 9.852564 157.194672 14.138975 157.194672 20.176783 C 157.194672 26.214588 152.573792 30.501001 146.200531 30.501001 Z M 123.204437 30.202173 L 123.204437 15.071314 L 120.110687 15.071314 L 120.110687 10.598658 L 123.204437 10.598658 L 123.204437 9.704126 C 123.204437 5.194407 125.962158 2.249048 130.95639 2.249048 C 132.596298 2.249048 134.311096 2.58567 135.391937 3.331079 L 133.864594 7.542017 C 133.231003 7.09477 132.409454 6.834986 131.514984 6.834986 C 129.800522 6.834986 128.870453 7.765903 128.870453 9.741236 L 128.870453 10.598658 L 134.013031 10.598658 L 134.013031 15.071314 L 129.01889 15.071314 L 129.01889 30.202173 L 123.204437 30.202173 Z M 157.903656 30.202173 L 165.6185 20.102564 L 158.163422 10.151392 L 164.686859 10.151392 L 168.934906 16.002954 L 173.296234 10.151392 L 179.483734 10.151392 L 172.028656 19.954126 L 179.780609 30.202173 L 173.184906 30.202173 L 168.786469 24.053736 L 164.239594 30.202173 L 157.903656 30.202173 Z M 146.200531 25.729517 C 149.107635 25.729517 151.306 23.642931 151.306 20.176783 C 151.306 16.710634 149.107635 14.624048 146.200531 14.624048 C 143.293442 14.624048 141.057953 16.710634 141.057953 20.176783 C 141.057953 23.642931 143.293442 25.729517 146.200531 25.729517 Z M 111.986046 10.151335 L 106.432755 10.151335 L 106.432755 30.202839 L 112.246948 30.202839 L 112.246948 20.736143 C 112.246948 16.897287 114.371361 15.145576 117.576622 15.145576 C 118.023865 15.145576 118.396568 15.182848 118.881081 15.220116 L 118.881081 9.853172 C 115.787636 9.853172 113.402321 10.859474 111.986046 12.797539 Z M 102.556625 20.251629 C 102.556625 13.803839 98.009628 9.853172 92.120895 9.853172 C 86.008545 9.853172 81.424286 14.176544 81.424286 20.177086 C 81.424286 26.140358 85.934006 30.501001 92.866302 30.501001 C 96.481544 30.501001 99.276825 29.382889 101.14035 27.258472 L 98.046906 23.904133 C 96.667892 25.208597 95.139809 25.842196 93.015388 25.842196 C 89.959213 25.842196 87.834801 24.314106 87.275742 21.816986 L 102.444817 21.816986 C 102.482086 21.33247 102.556625 20.698872 102.556625 20.251629 Z M 92.158173 14.251085 C 94.767097 14.251085 96.667892 15.890985 97.077873 18.425375 L 87.201202 18.425375 C 87.611176 15.853714 89.511971 14.251085 92.158173 14.251085 Z M 78.703537 25.134056 C 78.069939 25.618572 77.212723 25.879465 76.355499 25.879465 C 74.790138 25.879465 73.858383 24.947704 73.858383 23.233265 L 73.858383 15.071035 L 78.852623 15.071035 L 78.852623 10.598581 L 73.858383 10.598581 L 73.858383 5.716152 L 68.044189 5.716152 L 68.044189 10.598581 L 64.950745 10.598581 L 64.950745 15.071035 L 68.044189 15.071035 L 68.044189 23.307804 C 68.044189 28.078423 70.8022 30.501001 75.535553 30.501001 C 77.324532 30.501001 79.076241 30.091026 80.268898 29.233807 Z M 52.427868 9.853172 C 49.22261 9.853172 45.98008 10.710392 43.781124 12.275749 L 45.868267 16.33823 C 47.321815 15.182848 49.520771 14.474707 51.645187 14.474707 C 54.775909 14.474707 56.266727 15.928257 56.266727 18.425375 L 51.645187 18.425375 C 45.532833 18.425375 43.035713 20.885225 43.035713 24.425919 C 43.035713 27.892071 45.831001 30.501001 50.527077 30.501001 C 53.471439 30.501001 55.55859 29.531971 56.639431 27.705717 L 56.639431 30.202839 L 62.080917 30.202839 L 62.080917 18.760809 C 62.080917 12.685726 58.540222 9.853172 52.427868 9.853172 Z M 51.980625 26.587605 C 49.930748 26.587605 48.700825 25.618572 48.700825 24.165024 C 48.700825 22.823288 49.558044 21.816986 52.27879 21.816986 L 56.266727 21.816986 L 56.266727 23.866861 C 55.59586 25.693113 53.918686 26.587605 51.980625 26.587605 Z M 31.034632 22.599667 L 25.07136 4.113523 L 19.480791 4.113523 L 13.331166 22.450584 L 7.442436 4.113523 L 1.181 4.113523 L 9.753203 30.202839 L 16.200991 30.202839 L 22.126993 12.536644 L 27.866642 30.202839 L 34.3517 30.202839 L 42.886635 4.113523 L 37.109715 4.113523 Z"/>
        </g>
    </g>
</svg>