<?xml version="1.0" encoding="UTF-8"?>
<!-- Generated by Pixelmator Pro 3.3.11 -->
<svg width="197" height="38" viewBox="0 0 197 38" xmlns="http://www.w3.org/2000/svg">
    <g id="Page-1">
    <title>Waterfox</title>
        <g id="firefox-wordmark">
            <path id="Waterfox" fill="context-fill #20123a" fill-rule="evenodd" stroke="none" d="M 159.327484 34.668705 C 152.465225 34.668705 147.448578 30.054558 147.448578 23.553471 C 147.448578 17.05238 152.465225 12.436283 159.327484 12.436283 C 166.189758 12.436283 171.165375 17.05238 171.165375 23.553471 C 171.165375 30.054558 166.189758 34.668705 159.327484 34.668705 Z M 134.567719 34.348392 L 134.567719 18.055424 L 131.235687 18.055424 L 131.235687 13.239017 L 134.567719 13.239017 L 134.567719 12.276127 C 134.567719 7.420378 137.537933 4.250736 142.915375 4.250736 C 144.681107 4.250736 146.526993 4.610237 147.690765 5.412846 L 146.044281 9.948002 C 145.362076 9.46644 144.480057 9.186283 143.516937 9.186283 C 141.670944 9.186283 140.667328 10.190243 140.667328 12.317142 L 140.667328 13.239017 L 146.204437 13.239017 L 146.204437 18.055424 L 140.827484 18.055424 L 140.827484 34.348392 L 134.567719 34.348392 Z M 171.929047 34.348392 L 180.235687 23.471439 L 172.210297 12.758549 L 179.231781 12.758549 L 183.807953 19.057377 L 188.503265 12.758549 L 195.163422 12.758549 L 187.138031 23.311283 L 195.485687 34.348392 L 188.382172 34.348392 L 183.645844 27.725346 L 178.751312 34.348392 L 171.929047 34.348392 Z M 159.327484 29.531986 C 162.457642 29.531986 164.825531 27.285576 164.825531 23.553471 C 164.825531 19.821365 162.457642 17.573002 159.327484 17.573002 C 156.197327 17.573002 153.790375 19.821365 153.790375 23.553471 C 153.790375 27.285576 156.197327 29.531986 159.327484 29.531986 Z M 122.488136 12.757607 L 116.508728 12.757607 L 116.508728 34.347664 L 122.769051 34.347664 L 122.769051 24.154587 C 122.769051 20.021175 125.056473 18.135056 128.507675 18.135056 C 128.989243 18.135056 129.390533 18.175186 129.912231 18.215315 L 129.912231 12.436565 C 126.581421 12.436565 124.013084 13.520082 122.488136 15.606853 Z M 112.33519 23.632895 C 112.33519 16.690367 107.439301 12.436565 101.098724 12.436565 C 94.517372 12.436565 89.58136 17.091671 89.58136 23.552635 C 89.58136 29.973469 94.437111 34.668705 101.901329 34.668705 C 105.793968 34.668705 108.803734 33.464798 110.810242 31.177376 L 107.479439 27.565655 C 105.994614 28.970213 104.349274 29.652428 102.061852 29.652428 C 98.771179 29.652428 96.483757 28.007088 95.881805 25.318363 L 112.214798 25.318363 C 112.254929 24.796671 112.33519 24.114456 112.33519 23.632895 Z M 101.138863 17.17193 C 103.947975 17.17193 105.994614 18.937658 106.43605 21.666515 L 95.801544 21.666515 C 96.242973 18.897528 98.289619 17.17193 101.138863 17.17193 Z M 86.651848 28.889954 C 85.969643 29.411646 85.046646 29.692558 84.123642 29.692558 C 82.438171 29.692558 81.434921 28.689301 81.434921 26.843311 L 81.434921 18.054796 L 86.81237 18.054796 L 86.81237 13.23917 L 81.434921 13.23917 L 81.434921 7.982111 L 75.174606 7.982111 L 75.174606 13.23917 L 71.843803 13.23917 L 71.843803 18.054796 L 75.174606 18.054796 L 75.174606 26.923573 C 75.174606 32.060242 78.144241 34.668705 83.240784 34.668705 C 85.167038 34.668705 87.053154 34.227272 88.337318 33.304276 Z M 58.360046 12.436565 C 54.908852 12.436565 51.417519 13.35956 49.049839 15.045029 L 51.297131 19.419222 C 52.862209 18.175186 55.229889 17.412712 57.517315 17.412712 C 60.888252 17.412712 62.493458 18.977791 62.493458 21.666515 L 57.517315 21.666515 C 50.935955 21.666515 48.247231 24.315109 48.247231 28.12748 C 48.247231 31.859589 51.257 34.668705 56.313404 34.668705 C 59.483692 34.668705 61.730988 33.62532 62.894764 31.658937 L 62.894764 34.347664 L 68.753777 34.347664 L 68.753777 22.027687 C 68.753777 15.486462 64.941406 12.436565 58.360046 12.436565 Z M 57.878487 30.455032 C 55.671322 30.455032 54.347027 29.411646 54.347027 27.846567 C 54.347027 26.401878 55.270023 25.318363 58.199528 25.318363 L 62.493458 25.318363 L 62.493458 27.525526 C 61.771114 29.491905 59.965256 30.455032 57.878487 30.455032 Z M 35.325306 26.161098 L 28.904469 6.256512 L 22.884935 6.256512 L 16.263451 26.000576 L 9.922876 6.256512 L 3.181 6.256512 L 12.41095 34.347664 L 19.353476 34.347664 L 25.734182 15.325941 L 31.914236 34.347664 L 38.896893 34.347664 L 48.086712 6.256512 L 41.866528 6.256512 Z"/>
        </g>
    </g>
</svg>