<?xml version="1.0" encoding="utf-8"?>
<!DOCTYPE svg PUBLIC "-//W3C//DTD SVG 1.1//EN" "http://www.w3.org/Graphics/SVG/1.1/DTD/svg11.dtd">
<svg version="1.1" id="Layer_1" xmlns="http://www.w3.org/2000/svg" xmlns:xlink="http://www.w3.org/1999/xlink" x="0px" y="0px"
	 width="664px" height="90px" viewBox="0 0 664 90" enable-background="new 0 0 664 90" xml:space="preserve">
<g>
	<rect fill="#D4D4D7" width="664" height="90"/>
	<path fill="#FFFFFF" d="M181.972,39.998c-9.475-0.042-17.139-7.734-17.139-17.213c0-9.51-7.713-17.216-17.217-17.216H42.504
		c-9.503,0-17.216,7.706-17.216,17.216c0,9.479-7.664,17.171-17.139,17.213H0V90h664V39.998H181.972z"/>
	<path fill="#E3E3E6" d="M594.5,48.498H102.504c-9.113,0-16.5,7.387-16.5,16.501s7.387,16.501,16.5,16.501H594.5
		c9.113,0,16.5-7.387,16.5-16.501S603.613,48.498,594.5,48.498z"/>
	<g>
		<circle fill="#E3E3E6" cx="26.501" cy="64.999" r="16.501"/>
		<path opacity="0.7" fill="#212436" d="M30.524,73.438c-0.264,0-0.52-0.069-0.745-0.201l-12.036-6.949
			C17.286,66.023,17,65.532,17,65.001c0-0.528,0.285-1.022,0.74-1.289l12.044-6.95c0.221-0.133,0.479-0.201,0.74-0.201
			c0.259,0,0.516,0.068,0.735,0.201C31.718,57.025,32,57.52,32,58.049v13.903c0,0.53-0.282,1.021-0.74,1.284
			C31.043,73.365,30.78,73.438,30.524,73.438L30.524,73.438z"/>
		<g opacity="0.7">
			<path fill="#212436" d="M60.479,56.561c0.264,0,0.52,0.07,0.745,0.201l12.036,6.95c0.458,0.263,0.745,0.754,0.745,1.285
				c0,0.528-0.285,1.022-0.74,1.289l-12.045,6.95c-0.221,0.133-0.479,0.201-0.74,0.201c-0.259,0-0.516-0.068-0.735-0.201
				c-0.458-0.266-0.74-0.76-0.74-1.288V58.045c0-0.529,0.282-1.02,0.74-1.285C59.96,56.633,60.223,56.561,60.479,56.561
				L60.479,56.561z"/>
		</g>
	</g>
	<g>
		<path fill="#038ECE" d="M603.438,62.764c-0.145-0.433-0.514-0.753-0.967-0.834l-4.651-0.834l-2.195-4.4
			c-0.307-0.62-1.061-0.872-1.678-0.562c-0.24,0.117-0.443,0.316-0.562,0.562l-2.205,4.4l-4.643,0.831
			c-0.676,0.12-1.137,0.767-1.018,1.448c0.041,0.241,0.151,0.46,0.315,0.643l3.332,3.586l-0.693,4.963
			c-0.092,0.688,0.384,1.32,1.07,1.42c0.256,0.029,0.521-0.014,0.756-0.139l4.199-2.187l4.199,2.192
			c0.614,0.323,1.369,0.084,1.69-0.523c0.121-0.232,0.168-0.503,0.133-0.764l-0.694-4.969l3.332-3.582
			C603.477,63.68,603.58,63.197,603.438,62.764z"/>
	</g>
	<g opacity="0.7">
		<path fill="#212436" d="M326.537,59.535H124.358c-3.018,0-5.463,2.445-5.463,5.464s2.446,5.463,5.463,5.463h202.178
			c3.018,0,5.463-2.444,5.463-5.463S329.554,59.535,326.537,59.535z"/>
		<circle fill="#212436" cx="102.504" cy="64.999" r="5.464"/>
	</g>
	<g>
		<path fill="#038ECE" d="M139.259,18.082H69.675c-2.597,0-4.703,2.106-4.703,4.703c0,2.598,2.105,4.703,4.703,4.703h69.584
			c2.597,0,4.702-2.105,4.702-4.703C143.961,20.188,141.856,18.082,139.259,18.082z"/>
		<circle fill="#038ECE" cx="50.863" cy="22.785" r="4.703"/>
	</g>
	<g>
		<circle fill="#038ECE" cx="637.5" cy="64.999" r="16.5"/>
		<g>
			<path fill="#FFFFFF" d="M631.835,58h11.33c0.736,0,1.333,0.598,1.333,1.333v0.001c0,0.736-0.597,1.333-1.333,1.333h-11.33
				c-0.736,0-1.333-0.597-1.333-1.333v-0.001C630.502,58.598,631.099,58,631.835,58z"/>
			<path fill="#FFFFFF" d="M631.835,63.666h11.33c0.736,0,1.333,0.598,1.333,1.333V65c0,0.734-0.597,1.333-1.333,1.333h-11.33
				c-0.736,0-1.333-0.599-1.333-1.333v-0.001C630.502,64.264,631.099,63.666,631.835,63.666z"/>
			<path fill="#FFFFFF" d="M631.835,69.331h11.33c0.736,0,1.333,0.597,1.333,1.333v0.001c0,0.735-0.597,1.333-1.333,1.333h-11.33
				c-0.736,0-1.333-0.598-1.333-1.333v-0.001C630.502,69.928,631.099,69.331,631.835,69.331z"/>
		</g>
	</g>
	<g opacity="0.7">
		<circle fill="#212436" cx="190.407" cy="22.785" r="4.703"/>
		<path fill="#212436" d="M278.804,18.082H209.22c-2.597,0-4.703,2.106-4.703,4.703c0,2.598,2.105,4.703,4.703,4.703h69.584
			c2.597,0,4.702-2.105,4.702-4.703C283.506,20.188,281.4,18.082,278.804,18.082z"/>
	</g>
</g>
</svg>