<svg xmlns="http://www.w3.org/2000/svg" viewBox="0 0 1024 768" version="1.1"><g id="react-group-132" stroke="none" stroke-width="1" fill="#FFFFFF00" fill-rule="evenodd"><g id="react-group-133"><rect id="react-rect-135" x="0" y="0" width="1024" height="768"></rect><path d="M436.795377,309.520335 C426.166155,310.198683 415.450187,309.922319 404.811929,309.584042 C403.763736,309.549945 401.258012,309.062719 400.619156,309.689025 C399.884517,310.410443 400.040842,314.383625 399.918854,315.367948 C399.000782,322.823498 398.080902,330.279945 397.162829,337.735495 C396.739937,341.158641 396.317949,344.582685 395.895961,348.005831 C395.77578,348.979386 394.583912,353.187658 395.15319,354.032004 C396.187829,355.568158 403.599278,355.918996 405.551989,356.294959 L428.811036,360.775109 C431.001398,361.196833 436.59116,361.296432 437.606823,363.026399 C438.2511,364.12378 437.858028,367.096489 437.933931,368.341922 L438.566462,378.619436 C439.395077,392.079624 440.223691,405.539812 441.051403,419 C457.512555,417.676503 473.973706,416.353903 490.433051,415.030407 C494.438776,414.708281 498.4445,414.387052 502.449321,414.064927 C503.402635,413.98776 505.401431,414.188752 506.180347,413.662045 C507.880047,412.510827 509.329445,407.585624 510.246614,405.816176 C512.584265,401.304622 514.921917,396.793965 517.260472,392.282411 C519.513184,387.93506 521.765896,383.587709 524.018608,379.240358 C524.596018,378.127723 526.035476,376.271239 526,375.054519 C525.958669,373.683466 523.913789,371.228491 523.274933,370.056635 C521.402643,366.621824 519.531256,363.187013 517.658063,359.752202 C508.387878,342.744145 499.118597,325.736088 489.848412,308.728929 C489.377629,307.866637 488.329436,304.732417 487.410459,304.255958 C485.624916,303.331753 479.380034,305.19093 477.456238,305.410765 C463.936353,306.954097 450.380322,308.653557 436.795377,309.520335" id="react-path-136" fill="#7fbbca"></path><g id="react-group-134" transform="translate(49.000000, 38.000000)" fill="#2d3d8b"><path d="M231,242.303017 C234.285882,246.202011 237.571764,250.101006 240.858545,254 C249.572063,243.244989 258.285582,232.489978 267,221.734968 C262.631107,219.782776 258.263113,217.830585 253.895119,215.878394 C250.01785,214.146206 250.51307,214.969646 248.060342,218.404389 C242.373861,226.371197 236.686481,234.337107 231,242.303017" id="react-path-137"></path><path d="M399.041236,495.998768 C399.026893,501.665547 399.014343,507.333221 399,513 C416.333632,512.146359 433.667264,511.292718 451,510.439078 C450.212923,508.06159 449.424949,505.684101 448.637871,503.307508 C448.022911,501.4499 447.244798,495.836809 445.74953,494.591245 C444.11621,493.230252 436.933008,494.634195 434.739411,494.712938 C422.840019,495.141548 410.939731,495.570158 399.041236,495.998768" id="react-path-138"></path><path d="M357.748116,67 C337.499347,79.7922723 317.249674,92.5854404 297,105.377713 C301.47126,110.606599 305.940709,115.835485 310.411063,121.064371 C311.482029,122.316724 311.672142,123.109522 312.897008,122.987691 C314.321945,122.846152 316.720075,120.609296 317.906919,119.869351 C332.262207,110.934468 346.615684,101.999585 360.970066,93.0655985 C365.312774,90.3620217 369.656387,87.6584448 374,84.9548679 C368.582705,78.9699119 363.164505,72.984956 357.748116,67" id="react-path-139"></path><path d="M828.22508,266.94377 C827.493267,260.997359 824.495017,254.952128 822.301398,249.444513 C819.716386,242.955046 816.993022,236.519976 814.205032,230.11573 C812.439214,226.0614 811.799333,227.057757 807.18272,227.239078 C801.787873,227.44941 796.393026,227.660648 791,227.871887 C795.153313,242.95142 799.306626,258.030046 803.459939,273.108672 C804.179009,275.718783 805.341354,285.504659 807.60688,286.826487 C808.391486,287.284322 811.101197,286.695029 811.990478,286.662392 C814.53544,286.566292 817.079492,286.471098 819.624454,286.375905 C823.083273,286.246261 826.541181,286.116617 830,285.986972 C829.517586,279.63259 829.003314,273.270048 828.22508,266.94377" id="react-path-140"></path><path d="M485.63592,648.752431 C476.355035,646.407145 466.258427,648.628948 456.905513,648.694745 C451.397126,648.733503 445.899543,648.365756 440.392957,648.649678 C438.548125,648.74522 430.109974,648.500056 429.82276,649.609605 C429.602173,650.461372 431.280439,652.607462 431.929597,652.960787 C433.75192,653.954965 435.033129,652.677766 436.871659,652.204563 C441.854237,650.919252 447.68045,651.712431 452.799883,651.468168 C458.15611,651.213089 463.510536,650.894015 468.866762,650.647949 C474.203181,650.401883 481.010784,651.508729 485.63592,648.752431 M30.9247819,167.676689 C30.2125991,166.045264 29.9199829,163.455715 28.2840334,162.434497 C26.7687318,161.487188 23.593171,162.178516 21.8419757,162.15418 C18.1180971,162.103705 10.032887,162.247919 7.60012108,165.637858 C4.64244676,169.758784 13.3435014,172.697152 16.2453536,172.618736 C21.2873555,172.481732 25.8746768,168.608675 30.9247819,167.676689 M123.619285,115.949695 C124.002838,114.905943 122.655903,114.216418 121.682616,113.883824 C119.206633,113.038367 117.577887,114.445358 115.399022,115.503531 C109.896937,118.176906 103.914962,119.943532 98.127464,121.875103 C93.0881632,123.556102 88.4135072,125.912204 83.4723454,127.805018 C79.9690544,129.147113 72.5753188,128.885725 70.5576177,132.272059 C66.5744362,138.960902 77.008679,133.944044 78.847209,133.295079 C84.1233038,131.434714 89.7388334,130.28821 94.9104868,128.161949 C99.8876629,126.115907 104.962978,124.034713 109.888834,121.81922 C112.136126,120.807917 114.370813,119.949841 116.662223,119.066528 C118.805974,118.240901 121.33868,116.167819 123.619285,115.949695 M274.189668,231.882735 C272.875146,231.076937 267.487407,226.578349 265.676788,227.171431 C264.263227,227.635621 262.681298,232.803904 261.799848,234.161322 C257.387196,240.955622 252.627907,247.469605 247.896528,254.042176 C249.996162,255.171555 252.095796,256.300032 254.19633,257.429411 C258.477529,247.283028 266.732907,239.690141 274.189668,231.882735 M355.890806,268.147244 C362.64889,268.163468 369.343948,267.316208 376.093928,267.409947 C383.657831,267.515404 391.090282,267.720008 398.646082,267.102591 C406.082134,266.494186 413.489375,266.464442 420.924527,266.011969 C423.262756,265.870459 436.287327,264.876281 428.657698,261.151945 C426.090778,259.899082 423.004353,261.460203 420.215946,262.022639 C416.986364,262.675209 413.726169,262.919472 410.460573,263.312456 C407.348937,263.687414 404.044625,264.722152 400.905979,264.645538 C397.613372,264.565319 395.14099,263.976744 391.831276,264.452651 C384.969652,265.44052 378.137739,264.887999 371.279716,264.251653 C366.551039,263.8127 356.169917,261.153747 355.890806,268.147244 M539.798725,652.953576 C544.149252,649.445562 551.027984,650.965221 556.196035,649.846658 C561.903401,648.610921 557.408817,642.56293 555.220948,639.343344 C552.940343,635.984952 549.504579,629.275378 545.669956,634.244464 C541.664266,639.436182 541.191578,646.755963 539.798725,652.953576 M402.884065,500.54241 C402.739107,503.695297 401.177887,506.939219 404.456989,508.021728 C407.603738,509.060072 413.005883,507.481826 416.266978,507.200608 C420.517566,506.832861 424.699726,506.131619 428.937709,505.694469 C430.82936,505.498878 432.730015,505.353762 434.63247,505.527721 C435.94159,505.646698 439.099143,507.069913 440.269608,506.481338 C441.708379,505.757563 442.405256,501.857465 441.230289,500.353129 C439.957184,498.722605 432.26633,500.338707 429.513938,500.547818 C420.549078,501.227428 411.811109,500.141314 402.884065,500.54241 M402.334846,490.426672 C406.462985,488.726745 411.366332,489.522629 415.712358,489.499194 C420.826388,489.473055 425.880095,489.751569 430.98152,490.084163 C433.238717,490.231082 439.823031,491.903969 441.717383,490.459121 C442.713178,489.700192 443.07062,483.191617 442.226985,482.194735 C440.849438,480.565113 436.525021,482.526428 434.754018,482.790521 C430.010035,483.495369 425.168812,483.477342 420.383412,483.433176 C415.903234,483.392616 411.409549,483.194321 406.932972,483.183505 C401.628066,483.170886 402.345651,485.881215 402.334846,490.426672 M260.351173,223.612941 C258.664804,222.634987 253.130306,218.142709 251.063086,218.825024 C249.303787,219.405487 247.436446,224.766656 246.385728,226.45126 C244.384234,229.660932 242.270194,232.808411 240.195771,235.972114 C238.870445,237.99472 235.334741,241.649654 235.938881,244.384319 C236.260308,245.839983 239.204477,248.354721 240.690967,247.913064 C242.225177,247.457888 244.75158,241.751505 245.603318,240.625731 C250.211347,234.538983 256.000646,229.959275 260.351173,223.612941 M797.030856,230.20444 C802.937201,241.781249 803.697103,254.871408 806.896974,267.296379 C807.64247,270.187877 808.790425,273.04242 809.422476,275.951044 C809.774516,277.571653 809.126259,280.348682 810.032919,281.727732 C812.304521,285.181666 822.811692,284.084735 825.078793,281.044516 C826.410421,279.258962 825.375911,277.406708 824.809586,275.552652 C824.044282,273.04873 824.410727,270.868389 823.966851,268.368973 C823.079099,263.360227 818.565607,258.304612 816.423656,253.68164 C814.085428,248.631432 813.009501,242.5555 809.65927,238.044294 C807.41648,235.025707 801.125682,228.796547 797.030856,230.20444 M411.900244,681.803663 C419.803582,680.764419 432.234818,678.414625 431.820653,667.793236 C431.40919,657.235842 417.567995,655.361055 409.862735,654.435379 C407.604639,654.164076 407.358841,654.034283 405.066531,655.403418 C403.490905,656.343516 401.922483,657.34851 400.453099,658.44544 C397.591763,660.581616 394.351377,663.491141 393.740934,667.218181 C392.190519,676.684053 404.964791,680.963615 411.900244,681.803663 M366.725708,82.067427 C370.311832,82.4468911 365.541738,78.9623111 364.637779,78.5404841 C361.89439,77.2596801 358.84578,77.4922258 355.933123,77.9789493 C348.885125,79.1570006 342.646548,85.0742969 336.624057,88.7328355 C330.246825,92.605893 323.952426,96.9855035 317.302385,100.366429 C314.261878,101.913129 311.74808,103.225479 309.221677,105.532008 C307.934166,106.708257 307.487588,107.523969 305.757101,107.523068 C304.79732,107.523068 302.65717,105.279633 301.635265,106.577563 C298.782932,110.200048 313.154438,111.371789 314.654434,111.126625 C322.147209,109.900803 328.64779,107.057977 335.077242,103.202045 C341.641749,99.2667947 348.613217,96.0715448 355.211036,92.2408503 C358.062469,90.5841876 360.504238,88.3876223 363.105371,86.4199974 C363.477218,86.137878 364.150686,85.1878657 364.527035,84.8273298 C365.132075,85.0048937 365.638076,84.8480606 366.045038,84.3568304 C366.256622,83.5888888 366.483512,82.8254539 366.725708,82.067427 M511.681461,648.850677 C504.393068,651.437523 492.478637,653.452017 489.059079,662.001226 C485.185742,671.686123 502.595954,678.591288 509.427867,679.116769 C516.605516,679.668389 529.361781,676.763371 530.362078,667.838303 C530.936506,662.700666 526.86419,659.422493 523.058378,656.859983 C519.168834,654.239788 513.61633,653.678254 511.681461,648.850677 M45.3323023,109.457343 C40.1804568,110.048622 36.6789665,110.556978 32.5751371,113.900048 C29.1699852,116.675273 26.3644713,119.47844 24.9770204,123.758903 C21.7690467,133.65201 29.6975947,142.146237 39.8824384,140.994325 C41.0051842,140.867236 42.1018196,140.451718 43.2416722,140.566188 C44.2887879,140.671645 45.0207786,141.423362 45.90583,141.573886 C47.9919582,141.928113 48.3962187,141.562169 50.1077983,139.938856 C53.5993846,136.626432 57.1035759,132.986821 59.0375438,128.517077 C63.695093,117.752374 56.6912122,109.65023 45.3323023,109.457343 M162.460707,88.8391936 C162.961306,77.6977313 146.001272,75.86711 138.180767,76.7143695 C129.301441,77.6770005 114.733657,86.692202 118.1154,97.7525437 C121.091982,107.487916 137.883649,106.746113 145.14143,104.766771 C146.693647,104.344042 149.106605,103.424676 150.634511,103.735638 C152.929523,104.200729 153.041167,106.089938 155.203826,104.380096 C156.563365,103.304797 157.790553,100.174444 158.750334,98.6322514 C160.662693,95.5595838 161.651286,92.3562218 162.460707,88.8391936 M400.840253,546.378247 C400.60616,548.763192 399.694998,551.830452 402.262818,552.96614 C403.850148,553.667383 408.252896,552.89854 409.847429,552.955324 C416.501071,553.192377 423.330282,552.66329 429.942508,553.191475 C431.898084,553.348308 437.742305,555.332158 439.481795,554.00178 C441.183471,552.701146 439.855444,548.6334 439.741999,546.811792 C439.279215,539.381146 440.27501,532.157808 440.594637,524.767722 C440.680171,522.782972 441.499496,517.960803 439.977892,516.490718 C438.124957,514.700657 434.013924,515.736296 431.806248,515.959829 C424.917613,516.657466 417.830899,517.678684 410.90625,517.694007 C409.005595,517.697612 404.797324,516.349208 403.14877,517.060365 C400.616064,518.151887 401.212101,521.962752 401.072545,524.39637 C400.649377,531.731474 400.368466,539.035932 400.840253,546.378247 M245.971564,213.718032 C236.940078,207.027386 227.578161,200.682855 218.546675,194.176983 C215.330598,191.861441 212.940149,188.554425 209.926653,186.293865 C208.036802,184.874254 207.460574,184.256836 204.877448,185.626873 C201.891863,187.210527 199.116961,189.698225 196.362767,191.663146 C194.049749,193.312598 191.725926,194.94853 189.410207,196.591673 C187.263755,198.114036 186.545269,198.46015 188.065973,200.988409 C190.741836,205.436521 196.298842,209.451089 199.931784,213.109627 C208.897544,222.138349 217.655321,231.478934 227.728521,239.278228 C231.191296,229.176011 238.35544,220.961199 245.971564,213.718032 M347.216762,57.7772185 C331.537937,51.5823095 330.348565,30.6063277 324.865388,17.2358518 C323.167314,26.3889584 327.671802,41.2646718 320.066483,48.4528574 C315.389126,52.8730282 312.67905,46.6348548 310.167953,43.2395075 C306.343234,38.0694219 302.237604,33.126474 298.586654,27.8247928 C299.707599,34.2207006 302.920075,41.3989715 302.319536,47.9030401 C301.847749,53.0091305 298.583953,60.003528 293.833667,54.2133206 C290.571672,50.236609 286.395814,46.5167793 282.591804,42.9898364 C278.018888,38.7499335 272.801316,36.0107616 267.830443,32.394586 C269.755407,41.9596049 273.424364,50.4502266 278.833712,58.5451601 C281.608613,62.6985343 284.646419,66.6878646 287.265559,70.9439915 C289.406609,74.4231635 290.416811,78.7504963 293.253837,81.7059898 C295.904489,84.4667938 299.801237,86.6714712 302.974096,88.7923239 C307.49299,91.8118125 308.576121,90.9528356 312.73127,88.0829694 C320.774164,82.5289131 329.506731,78.0817021 337.601845,72.5979502 C336.10365,70.6168052 333.7105,68.6599963 333.788831,65.9631873 C333.851856,63.7801421 335.522919,61.7926877 337.759407,62.0540763 C339.511503,62.2586804 340.321825,64.0947098 342.271999,63.4754893 C343.920554,62.9509094 346.174148,59.0147582 347.216762,57.7772185 M887.10622,224.821638 C879.840335,225.678812 873.057042,228.268362 865.610185,227.79606 C862.596689,227.604976 860.346695,228.161102 859.02317,225.136206 C857.96615,222.719713 859.04838,219.047655 855.726961,218.389677 C853.266284,217.902953 850.220375,220.188751 848.400752,221.482174 C845.131554,223.806729 842.235104,225.869896 838.533735,227.512138 C831.971929,230.423465 825.311085,232.953526 818.138837,233.271699 C819.874726,238.540932 821.701552,243.818277 824.104606,248.826122 C826.40772,253.626658 828.67392,257.710629 829.359092,263.058279 C829.651708,265.346781 829.651708,267.840788 831.8981,268.846683 C834.102175,269.834552 838.030435,269.020642 840.416382,269.063005 C845.878851,269.161251 851.344921,269.289241 856.80829,269.30186 C860.972444,269.309972 865.113188,270.302347 869.167498,270.244661 C874.206798,270.171653 879.909663,267.981397 884.824714,266.941251 C894.138912,264.970922 907.171587,263.748705 914.594134,257.396061 C907.724406,256.315355 900.725927,257.050848 893.976848,258.530848 C890.887721,259.209557 883.800107,262.740106 881.729285,259.205051 C879.262306,254.993991 884.090022,249.180348 887.496975,247.223539 C891.340601,245.014355 897.076779,245.25321 899.785954,241.271992 C894.669223,241.703734 889.277882,241.893015 884.331318,243.398253 C880.539913,244.551067 875.648271,247.835549 874.148275,242.147193 C871.71731,232.930993 880.767703,228.560396 887.10622,224.821638 M344.86863,303.724931 C346.15344,291.525296 348.508775,279.195868 348.717658,266.913309 C348.806794,261.607121 342.811313,262.556232 338.614747,261.048291 C332.514825,258.857133 326.535551,256.263077 320.546373,253.790702 C314.576103,251.326439 308.573419,248.949605 302.582441,246.535817 C297.143381,244.345561 291.923109,241.033137 286.439031,239.086243 C283.454346,238.026267 283.222054,239.061005 281.489766,241.800177 C279.805197,244.464538 278.035095,247.073016 276.202867,249.638229 C272.354739,255.02734 268.234703,260.214551 264.023731,265.322444 C276.694462,272.950484 289.919813,279.999863 302.993904,286.91314 C316.336302,293.968829 330.849164,298.240278 344.86863,303.724931 M615.526892,257.443832 C622.229153,257.460057 628.754944,256.495623 635.428394,256.291019 C642.024413,256.089119 648.403445,256.378449 654.945443,256.549703 C661.228137,256.713747 667.388383,257.988242 673.653971,258.284783 C675.178276,258.35689 676.762005,258.35058 678.277307,258.520032 C679.801612,258.690385 680.70467,259.256427 682.119132,259.496183 C685.594512,260.08566 688.978956,259.251019 692.485848,259.438498 C705.414981,260.128924 718.154139,262.785173 731.087774,263.458473 C744.382453,264.150702 757.359305,265.182737 770.592759,266.777207 C777.587637,267.61996 784.594219,268.114795 791.620608,268.607828 C793.06118,268.708778 796.146705,269.616428 796.936319,267.972384 C797.8952,265.975916 794.643108,259.155477 794.04347,257.041835 C793.265561,254.295452 792.626308,251.486877 791.580993,248.823418 C790.96875,247.266804 789.679438,242.185049 788.437845,241.197181 C786.707358,239.819934 784.122431,241.143101 782.102029,241.435135 C778.009004,242.026414 773.848452,242.378838 769.732918,242.784441 C763.640199,243.386536 757.542978,244.825975 751.454761,245.008947 C744.582332,245.214453 737.744117,244.919715 730.879792,244.663734 C717.131333,244.149069 703.050643,244.414964 689.373312,243.010677 C673.567537,241.387364 657.689732,240.727583 641.847042,239.536012 C638.091651,239.252991 634.326356,239.181785 630.567364,238.95645 C627.878896,238.79511 622.389417,236.907704 619.877419,237.782905 C617.324006,238.672528 617.808398,241.693819 617.519383,244.04181 C616.968364,248.52237 616.254381,252.989411 615.526892,257.443832 M450.950549,381.774656 C441.413962,383.241136 432.057447,383.81529 422.415519,384.092001 C418.163131,384.213682 413.937753,384.418286 409.702472,384.843718 C406.161366,385.199748 404.175177,385.354778 404.044625,389.232342 C403.468397,406.238823 402.543729,423.062332 402.020622,440.075122 C401.725304,449.680702 402.06564,459.297998 402.032326,468.907183 C402.018821,472.554004 401.271524,475.183212 405.279916,475.608645 C410.149949,476.126014 415.259478,475.447305 420.158323,475.493273 C424.668214,475.536538 429.179005,475.647402 433.687995,475.745648 C436.583545,475.807841 441.952376,477.249083 442.924762,473.742871 C443.234485,472.620703 442.676264,470.652177 442.705075,469.411933 C442.759096,467.104503 443.043609,464.773638 443.183165,462.467109 C443.501891,457.175343 443.734184,451.878168 444.055611,446.586402 C445.371034,424.90377 448.905837,403.399603 450.950549,381.774656 M341.747991,111.848598 C348.038789,116.675273 355.19393,119.995809 361.9187,124.216784 C365.14288,126.241193 368.254515,128.41162 371.41387,130.533374 C374.66326,132.716419 378.438459,134.038685 381.508678,136.463289 C387.450137,141.156566 394.801555,144.147212 401.329147,148.219465 C407.962081,152.357517 414.572505,156.502779 421.355799,160.391159 C424.35759,162.111817 427.640294,163.145654 430.718616,164.697761 C434.408281,166.559028 437.75581,168.997152 441.496795,170.775496 C449.503674,174.583657 457.499749,178.396325 465.473315,182.278395 C481.125129,189.897421 497.167699,196.936886 513.146343,203.841149 C516.551495,205.312136 520.131316,205.958397 523.720141,206.827289 C525.414614,207.237398 527.563767,207.450114 529.091674,208.264926 C529.566162,208.519103 530.069462,208.555157 530.446712,208.981491 C531.167898,209.799006 530.555655,210.943708 530.999531,211.552112 C533.487219,214.958276 540.397463,205.386947 542.004601,203.0678 C544.485986,199.484072 543.479386,198.90361 539.647465,197.4173 C535.78223,195.917471 531.880981,194.503268 528.057163,192.900686 C521.014567,189.948798 513.810807,186.609334 507.082435,182.993158 C500.083957,179.230965 492.795563,176.124948 485.870914,172.201415 C478.10443,167.801074 470.39827,163.310599 462.543552,159.066189 C449.29119,151.905044 437.116556,142.876322 424.242345,135.103167 C417.132222,130.811888 410.449768,125.704896 403.571938,120.980073 C396.858872,116.368818 390.496946,111.220364 383.641624,106.91196 C379.870927,104.542337 375.949871,102.570205 372.425871,99.8328362 C369.792326,97.787696 367.164182,95.6893767 363.862571,97.4064292 C360.295355,99.2613867 356.928018,102.380023 353.463443,104.534225 C349.55409,106.96604 345.651941,109.409572 341.747991,111.848598 M633.784341,191.662245 C631.744131,190.593256 624.245954,187.740515 627.766352,184.24602 C630.271146,181.759224 636.192797,185.063536 638.621061,185.886459 C638.569741,182.447847 638.575143,180.076422 637.468604,176.798249 C636.356662,173.503852 636.665485,171.012548 639.374661,168.515837 C640.613553,167.373839 645.109037,166.388675 645.630344,164.890648 C646.440666,162.563388 642.407965,163.301585 641.032219,162.976202 C633.759131,161.256445 634.198506,153.632011 634.018434,147.794934 C633.805049,140.932132 632.198812,134.333423 626.895706,129.872692 C624.499855,127.858197 623.635512,127.854592 620.68414,129.177759 C619.596508,129.665384 618.616919,130.449549 617.416742,130.665871 C615.719569,130.971425 614.582417,129.865481 613.071617,129.940292 C610.731588,130.055664 608.34294,133.926919 606.065035,135.163557 C603.114564,136.766139 600.210911,136.287528 597.296454,137.434032 C594.703424,138.453448 592.196829,141.218758 589.778469,142.689745 C586.484961,144.692522 587.234959,146.658345 587.445643,150.593594 C587.621212,153.877176 587.515871,156.031378 584.287189,157.249088 C583.246376,157.642072 581.415048,157.46541 580.529097,158.097249 C579.219977,159.030136 579.929459,159.731378 579.508091,161.291598 C578.439367,165.239466 576.174968,162.830185 573.28482,162.302901 C569.765323,161.660246 565.888384,164.144338 567.726914,167.921854 C568.384175,169.273864 569.796835,170.505094 571.210397,170.92602 C572.882361,171.422658 574.968489,170.054424 576.510801,170.671842 C580.443563,172.248285 577.300415,175.981635 577.487689,178.526117 C579.874537,177.230892 580.685759,173.518273 583.153639,177.633791 C584.936346,180.608213 584.226865,185.126629 583.783889,188.374157 C582.756581,195.887726 580.453467,205.092209 575.566326,211.119469 C574.862247,211.987459 573.810629,213.617983 572.488004,213.412478 C571.386867,213.242124 571.255415,211.814402 570.303737,211.449359 C568.262626,210.663391 565.136585,211.827021 564.355075,213.717131 C563.03425,216.911479 563.172005,221.597545 563.067564,224.978471 C562.946916,228.869555 562.490435,233.271699 563.434009,237.088874 C565.045649,243.608265 571.111357,245.877839 577.009599,247.31818 C580.297705,248.119471 583.901836,249.055062 587.229557,247.928387 C590.859798,246.69896 593.354689,243.400957 595.914405,240.7393 C597.838469,238.738326 601.571351,236.46064 601.821651,233.566438 C601.939597,232.211724 600.976215,230.344147 600.756528,228.956985 C600.408089,226.755012 600.30995,224.529604 600.368474,222.301492 C600.475616,218.208507 601.620871,214.047922 601.271532,209.954938 C600.91229,205.768214 597.799754,205.467167 596.105281,202.242173 C595.09508,200.317812 594.858286,197.321758 597.314461,196.667385 C598.741528,196.28702 601.414689,197.37043 602.960603,197.480394 C605.319539,197.648043 607.709088,197.684998 610.074327,197.708433 C614.432958,197.752599 617.717462,197.529066 621.662828,195.630844 C625.723441,193.678542 629.350081,192.460832 633.784341,191.662245 M532.721915,650.362224 C532.88578,646.792918 533.382778,643.223612 534.488417,639.817449 C535.42839,636.921444 537.44429,634.385975 537.783725,631.394428 C538.491406,625.149945 536.421484,619.283124 530.402594,617.030675 C524.566477,614.845827 518.243267,614.88098 512.149647,615.291089 C508.611242,615.529043 505.613052,614.317642 502.141274,614.478081 C498.485822,614.646631 495.260742,614.145486 491.631401,613.760614 C484.889524,613.044049 479.145243,610.075937 472.597844,608.82037 C469.394372,608.205656 468.286032,609.572989 466.325953,611.828141 C464.165996,614.311333 461.73413,616.399737 458.997044,618.224049 C454.790573,621.028118 447.265386,626.179275 446.863826,617.486753 C446.527093,610.191308 453.834394,604.785973 458.346085,600.061149 C453.77497,598.118762 454.165725,590.905339 448.855417,593.807653 C446.550502,595.067726 444.730879,596.930796 442.601534,598.442343 C440.809823,599.714133 436.69789,603.254597 434.340754,602.978787 C431.014834,602.590309 430.659192,597.862781 431.15799,595.239882 C432.06285,590.476301 437.041826,587.733524 440.57663,584.935765 C442.712278,583.244851 445.906746,581.913572 447.721867,579.928822 C449.651333,577.817884 449.221862,575.452768 449.157037,572.801026 C449.128225,571.594132 450.033085,567.047773 449.541489,566.005824 C448.784289,564.398735 446.161547,564.824168 444.293306,564.658321 C440.825129,564.34826 437.383062,563.739856 433.92839,563.41267 C431.220115,563.156689 428.618082,563.767798 425.908006,563.866945 C419.062588,564.117517 412.137939,563.761488 405.283517,563.741659 C404.040124,563.738053 398.828854,562.847529 397.962711,563.923729 C397.215414,564.851208 397.926696,569.149698 397.923095,570.26105 C397.899686,577.159004 397.923095,584.047945 398.129277,590.943195 C398.533537,604.548921 398.078857,618.518787 395.285047,631.891967 C394.779046,634.314769 393.186314,636.99986 395.641589,638.192333 C397.530539,639.109897 402.572541,637.683977 404.632559,637.549678 C411.313211,637.112528 418.065892,637.543368 424.70963,637.057546 C436.276523,636.212089 448.240473,636.989044 460.037857,637.263052 C475.733789,637.628996 491.341486,639.326219 507.032015,639.728216 C513.852223,639.903076 520.789478,638.658326 527.52055,638.863831 C530.166701,638.944952 530.915798,639.614647 531.065258,642.450263 C531.241728,645.820373 529.776846,647.62846 532.721915,650.362224 M203.374751,169.227895 C197.345958,159.043656 191.662901,148.658418 185.64041,138.471474 C182.91953,133.871036 179.864617,129.497734 176.827711,125.104604 C175.271893,122.853958 173.552211,120.579878 172.362838,118.101193 C171.272506,115.831619 170.948377,113.22224 169.665367,111.043702 C167.238004,116.410279 162.027635,119.354055 156.57507,121.274811 C152.337988,122.76743 148.204447,124.904506 143.783691,125.825676 C132.222201,128.237661 120.78496,133.433886 109.439555,137.201486 C85.3486903,145.199075 59.5984665,149.591304 36.4043575,159.982852 C44.3184997,167.817298 41.8596235,184.520929 55.0651666,187.047385 C60.3187525,188.05328 65.8055309,186.436276 70.8340274,185.050917 C77.1833484,183.301416 83.5371711,181.565436 89.8927945,179.834863 C96.7886325,177.955569 103.753798,176.497201 110.706358,174.856763 C114.197945,174.032938 117.71204,173.461489 121.210829,172.718785 C124.125286,172.100465 124.1604,171.494765 125.687406,168.749284 C128.269632,164.108285 133.060434,159.360928 137.112042,165.483729 C138.761497,167.977737 138.412159,171.10809 139.858133,173.579564 C141.093423,175.690502 143.734172,176.78563 145.590709,178.212451 C146.87912,174.574643 148.417831,169.64792 151.264762,166.853766 C154.370995,163.805434 157.45652,166.25798 158.574764,169.840806 C159.918097,174.146507 157.938211,179.385996 157.072067,183.622293 C156.648899,185.692671 155.84578,188.072208 156.331974,190.195765 C156.97843,193.01786 159.437306,195.927385 160.902188,198.376326 C174.594825,188.170454 188.582778,177.748261 203.374751,169.227895 M471.062734,340.689781 C467.053442,335.254702 462.814559,330.438843 459.805565,324.350292 C456.588587,317.842618 453.987455,310.833799 450.556192,304.491972 C447.14924,298.19431 444.013294,291.77677 440.902559,285.310558 C438.731797,280.797549 436.261217,269.962542 430.044248,270.233845 C426.938915,270.369948 423.770557,271.48851 420.647217,271.794966 C416.985463,272.155502 413.307503,272.134771 409.650251,272.581836 C401.627165,273.563395 393.817465,275.318304 385.71965,275.79331 C378.761687,276.201617 371.713689,276.410728 364.746722,276.107877 C362.848769,276.025855 357.906707,274.546757 356.147408,275.394016 C354.095493,276.381885 354.780666,280.235113 354.607797,282.207244 C353.953237,289.62437 352.951139,297.047806 351.823892,304.405443 C351.631215,305.660108 349.691845,311.929828 350.55979,312.989804 C351.897721,314.624835 357.649204,313.531509 359.524649,313.676625 C366.923787,314.246272 374.194173,315.936284 381.5645,316.753799 C385.302784,317.168416 389.04647,317.263958 392.805463,317.277478 C396.457313,317.290097 401.784728,316.282399 405.249304,317.533458 C407.476788,318.338355 408.74089,320.231169 408.021504,322.642253 C407.22919,325.300304 404.650566,325.894287 402.260117,326.391827 C400.507121,326.755968 395.421902,326.553167 394.318063,328.164762 C393.123289,329.909756 395.21572,333.197844 395.806354,334.852704 C396.937203,338.025421 396.295248,339.387345 396.211515,342.489757 C396.12238,345.755312 398.013131,348.628783 397.76103,351.931292 C397.515233,355.158991 397.38108,357.735921 397.695304,361.026713 C397.971714,363.918212 397.779038,367.084619 398.185099,369.893194 C399.124172,376.392756 413.177852,372.461111 417.539183,372.363766 C426.554463,372.161866 435.604856,373.620234 444.585922,373.188492 C447.228471,373.061403 453.354503,373.540916 455.217343,371.297481 C457.106293,369.025203 457.406112,363.839795 458.624296,361.027615 C461.804358,353.679892 466.54474,347.238917 471.062734,340.689781 M551.333205,196.023829 C550.675944,203.565339 550.310399,209.373574 545.794206,215.719908 C540.972791,222.496181 535.42839,221.888678 527.814967,222.634086 C520.982154,223.30288 515.620525,225.560737 510.131946,229.600542 C503.677283,234.351505 496.714819,238.296669 489.836088,242.386048 C476.750292,250.165513 461.142595,252.317011 446.283096,254.628948 C442.546612,255.211214 435.649874,256.883199 440.046319,261.311482 C444.772296,266.072359 447.419347,273.097402 450.594908,279.053456 C457.875198,292.709657 463.455614,307.378963 471.759611,320.458306 C475.114343,325.741961 479.128136,332.118039 484.277281,335.848685 C489.165322,339.389148 498.977417,332.813874 503.952793,330.63894 C510.420061,327.812339 517.206055,325.66715 523.298774,322.178964 C528.98183,318.925127 534.765727,316.118355 540.738698,313.439573 C546.603627,310.808562 552.283982,308.190169 558.427121,306.270315 C565.655191,304.010656 573.292924,303.209365 580.635339,301.240839 C588.167729,299.222739 594.11279,297.082958 600.200107,292.090436 C603.02903,289.771289 606.475598,287.45124 607.615451,283.785491 C608.781414,280.035015 607.922473,275.251604 607.746003,271.406489 C607.560529,267.386513 606.935681,263.270093 607.017614,259.249216 C607.100447,255.195891 609.087535,252.015062 610.288612,248.248363 C612.182964,242.304928 614.33842,231.529409 608.339338,227.526559 C607.91617,233.876498 605.676981,239.573868 603.580049,245.529922 C601.559647,251.26695 598.24273,254.775866 593.283561,258.120739 C591.397312,259.393431 589.356201,261.165465 587.122414,261.743224 C584.753574,262.357036 581.439358,262.042468 578.97688,262.068607 C573.437881,262.127194 567.436999,260.676037 563.171105,256.942687 C554.535776,249.384051 552.651328,235.836913 553.485059,225.091139 C553.96585,218.910651 554.984154,212.684195 557.816679,207.107605 C558.790866,205.190455 560.728435,203.144414 559.647106,200.899176 C558.515356,198.548482 553.449045,197.125266 551.333205,196.023829 M380.95946,327.710487 C370.773715,326.381011 360.167504,325.298502 350.275277,322.424129 C346.674747,321.377673 342.333223,320.053605 342.295408,315.737088 C342.282803,314.412118 343.274997,312.019061 342.704171,310.772508 C342.118938,309.496211 338.47159,309.409682 336.78432,309.074384 C317.16283,305.183299 298.937794,297.576892 281.422239,288.052434 C263.706806,278.418012 247.342808,267.050313 230.626772,255.823223 C214.317696,244.870141 200.767316,231.493356 187.210634,217.426144 C185.327986,215.472039 183.395819,213.567508 181.451047,211.674694 C180.032083,210.29294 178.061201,207.478957 176.19566,206.729042 C172.842729,205.380638 168.155468,210.48763 165.190591,212.00819 C161.33436,213.98573 156.734433,214.284975 154.189123,210.117179 C152.508155,207.363586 154.071176,206.860638 154.311571,204.270187 C154.50965,202.140321 153.051971,200.932526 151.769862,199.449822 C150.78127,201.784292 149.465847,206.05484 146.100311,205.523951 C143.07511,205.048044 142.742878,200.878445 142.527693,198.500711 C142.276493,195.729091 143.139936,192.208457 141.264491,189.965022 C139.788805,188.200198 136.905861,186.910381 135.016911,188.509358 C131.217402,191.725339 133.68168,201.303878 128.319151,203.691527 C120.757949,207.05713 121.495342,191.6992 121.335078,188.629236 C104.407457,190.501319 88.4972404,197.89501 71.550712,200.315108 C64.6539737,201.300272 56.6876108,200.976691 50.668721,197.039639 C45.1342236,193.420759 39.3863415,185.457421 37.020202,179.346337 C31.3434481,183.553791 25.4082916,186.779687 18.1189975,184.903097 C10.7090554,182.994059 4.19046731,178.883048 1.4677863,171.435277 C-1.26569901,163.959564 -0.475185142,158.266701 6.34862418,154.047529 C9.14063272,152.320562 11.3483093,151.475105 14.4212293,150.641365 C17.8236802,149.718393 22.1336915,149.049599 25.346167,147.587626 C22.0337518,142.748332 18.2657558,138.007284 16.7603581,132.224288 C15.0622839,125.702192 15.9095202,118.364384 18.5430659,112.197417 C23.3032558,101.051448 36.6843687,93.5937615 48.7374542,96.140948 C59.2563306,98.3636522 66.6995859,107.469889 69.686972,117.429695 C71.0447111,121.958026 69.8526378,124.758489 75.391637,122.308648 C81.6815343,119.526211 87.18632,115.432326 93.6832995,112.977076 C99.3195373,110.846308 105.466278,109.056247 110.688351,105.9971 C113.391224,104.414347 113.264274,104.278244 112.162236,101.373226 C110.793693,97.7651625 109.948257,94.4058687 110.253479,90.4850402 C111.125925,79.258852 120.417614,71.3009221 130.361162,67.6072313 C141.633638,63.4196062 155.611688,65.0735649 164.058841,74.1230173 C168.162671,78.5197533 170.963683,84.2982433 171.322025,90.3480366 C171.482289,93.0295227 169.883254,97.106283 170.774608,99.5786583 C171.550716,101.730157 175.223274,103.379609 176.640437,105.436466 C178.887729,108.701119 179.929443,112.608428 182.159628,115.928964 C184.093596,118.804238 186.052774,121.656077 187.911112,124.582728 C192.425504,131.68799 196.657184,138.968113 200.346849,146.538466 C202.035019,150.001414 203.619649,153.513936 205.166463,157.042681 C206.228885,159.462779 207.104932,163.883851 209.015491,165.811817 C210.944957,167.760514 213.821599,167.136787 215.478257,169.603754 C217.565286,172.709771 215.582698,175.456154 213.928742,178.161976 C226.504935,181.845752 234.227301,192.494182 244.290597,200.297982 C254.45023,208.17389 265.601158,214.995231 276.522494,221.74897 C287.890407,228.779421 299.051239,235.479982 311.427553,240.588777 C322.960232,245.349654 334.107557,250.961396 345.608724,255.781762 C347.220364,256.457767 348.476362,257.353698 350.070896,256.304539 C351.545681,255.332894 351.841899,252.200738 353.383311,250.931652 C357.288161,247.715671 366.473608,249.500324 371.121253,249.427315 C377.824415,249.32276 384.623914,248.944197 391.321674,249.290312 C393.588774,249.406585 395.780244,250.310629 398.001426,250.011384 C401.405678,249.553503 404.58484,248.857669 408.127746,248.714356 C411.077318,248.594477 414.020586,248.376353 416.974659,248.48181 C418.375615,248.532285 420.744456,249.133479 422.000454,248.179861 C423.567076,246.992796 422.622601,244.14276 423.693127,242.414891 C424.387302,241.295427 425.759447,240.988971 426.431114,240.105658 C426.344679,240.218326 427.500738,238.224562 427.180211,238.477839 C429.244731,236.849117 435.019624,236.356084 437.459592,236.936547 C438.163672,237.104197 438.278918,238.29036 439.16577,238.293064 C440.04902,238.295768 440.117448,237.403441 440.741395,237.189824 C441.388752,236.967193 441.562521,236.07036 442.428665,235.934257 C443.386646,235.782832 444.612933,236.859933 445.650144,236.920323 C446.817908,236.987022 447.932551,236.212771 449.019282,235.910823 C450.464356,235.510628 451.578098,235.804464 452.780976,235.662053 C454.975147,235.401566 457.334083,235.154598 459.612888,234.887802 C462.928004,234.500226 466.156686,233.465487 469.39077,232.678618 C470.807933,232.333405 472.225096,231.931407 473.687276,231.820542 C475.375446,231.691651 477.572319,232.486632 479.165051,232.110774 C480.528192,231.789897 479.418052,231.303173 480.599321,230.893965 C481.876027,230.451407 483.256275,230.329726 484.55099,229.88176 C487.52487,228.85243 490.26916,227.141687 492.941421,225.511163 C499.164692,221.712015 504.733403,216.978178 510.885545,213.077179 C509.480988,211.03294 504.251711,210.686826 502.039533,209.963951 C498.994524,208.968872 496.007138,207.80344 493.028756,206.628092 C486.258067,203.954718 479.536899,201.152453 472.818431,198.352891 C460.072971,193.043098 447.254581,187.919882 435.073645,181.404997 C423.631002,175.285801 411.41045,170.516811 400.064145,164.178589 C394.291953,160.954496 388.513459,157.56005 382.901531,154.062852 C377.674055,150.805409 372.048622,148.583607 366.632971,145.604678 C356.053771,139.784727 346.337113,132.544263 335.717397,126.847795 C333.209001,125.502996 330.424195,122.654762 327.71772,121.922874 C325.391197,121.293739 323.03136,122.591668 320.929025,123.502022 C318.701541,124.466455 316.611811,126.049208 314.112419,126.103288 C311.360026,126.162777 308.209675,124.680073 305.613044,123.781437 C300.787128,122.112155 296.595064,117.484676 294.840267,112.666113 C293.983127,110.310011 293.586069,107.69252 293.269143,105.213835 C292.893694,102.276369 293.885888,98.8224342 293.170104,96.0282805 C291.808763,90.7139806 285.520667,85.724163 282.004771,81.9123966 C277.638937,77.1794609 273.854735,71.8822864 270.408166,66.4526149 C262.703807,54.3142707 257.358385,39.9162673 261.65309,25.6291288 C262.30765,23.4514917 263.474513,19.8533429 265.402179,18.4039883 C268.077141,16.390395 269.222396,18.7401881 271.536314,19.9074233 C274.410255,21.3576791 277.136538,22.2022346 279.831308,24.1725636 C283.096904,26.5602129 285.783571,29.4724421 288.794366,32.1431122 C288.809672,25.9761447 287.849891,20.5699081 289.18062,14.3939272 C289.863991,11.2239148 291.392798,4.62971221 295.425499,4.0645721 C299.60946,3.47779984 302.608551,11.0598709 304.429074,13.8260831 C307.814418,18.9664244 311.59682,23.7894941 315.363015,28.6504201 C315.851909,21.1089093 314.850712,3.18035768 324.332376,0.214048116 C332.827249,-2.44490454 337.219193,20.4500299 339.27651,25.5732458 C341.196072,30.3530512 343.890842,35.0751708 346.8071,39.321383 C349.862013,43.7703967 353.192435,41.5035269 357.926515,41.7126377 C362.303152,41.9064258 364.271334,44.9340265 364.222714,49.226207 C364.16149,54.6567798 359.846077,58.6235767 356.860491,62.7210678 C363.322357,65.8451118 371.689379,69.908352 375.549211,76.3412148 C376.405451,77.7662331 376.994285,79.402165 377.047406,81.0840652 C377.097826,82.7470373 375.577123,85.7917635 376.366736,87.328548 C376.943865,88.4525188 378.892239,88.8599244 379.929451,89.4719342 C382.075002,90.7383167 383.980159,92.3760513 386.100501,93.6884022 C399.996618,102.29079 413.061705,112.56967 426.467128,121.652472 C438.572434,129.852862 451.394425,137.158222 463.637486,145.354106 C479.205567,155.775397 495.574966,164.641878 512.239683,173.209113 C516.083309,175.185752 519.647824,177.380514 523.337489,179.593304 C527.122592,181.862878 531.640586,183.396057 535.68139,185.233889 C538.513015,186.521002 541.601241,188.970844 544.573321,189.773037 C548.109025,190.727555 549.598216,186.976179 553.718252,187.948725 C557.273763,188.787872 561.148902,189.159224 563.28455,192.358981 C565.156393,195.164852 564.981724,199.457032 567.996121,201.270528 C571.491308,203.372453 572.470897,201.119103 573.279418,198.199663 C574.197783,194.878226 576.793513,191.079979 573.608049,188.688725 C570.599054,186.429967 566.335861,186.181197 562.815464,185.345655 C561.030955,184.922927 558.664816,183.378931 556.965841,183.239224 C554.843699,183.064364 554.346701,185.041903 552.543285,185.044608 C551.584404,185.045509 550.740769,184.11803 549.826907,183.823292 C549.620725,183.756593 549.07961,184.512817 548.831111,184.443414 C547.937957,184.192841 547.865928,183.894498 546.994382,183.536666 C543.889049,182.26127 539.782519,180.250381 540.719791,176.373718 C541.22219,174.294327 544.629143,170.949454 542.251299,169.042219 C540.016612,167.248553 537.01662,170.988212 535.784931,167.245849 C534.910684,164.587797 537.043631,163.874838 534.330854,161.687286 C532.336562,160.078394 530.499833,159.641244 531.603671,156.691159 C532.313153,154.791134 536.006419,151.90234 534.947599,149.611134 C533.448504,146.369014 527.74564,149.647188 528.295758,143.78938 C528.688314,139.593642 533.963508,136.56514 533.998622,132.437004 C534.023832,129.482412 531.22192,129.503142 530.493531,127.583289 C529.774145,125.685968 530.431406,125.693179 531.482123,124.360998 C532.261833,123.371327 532.768734,123.042338 533.351265,121.876004 C534.059846,120.458197 535.283432,118.622167 534.82335,116.972715 C534.410086,115.490011 532.674196,114.608501 532.238423,112.96626 C530.59257,106.778561 543.662159,92.7212645 546.991681,101.239828 C549.464063,98.3798763 552.70535,92.3922754 557.073884,92.8717882 C559.715533,93.1620197 558.586485,93.9155398 559.503949,95.4415083 C560.169313,96.549255 562.015046,97.1116911 562.538154,98.3095718 C563.573565,95.0935911 562.475128,89.1339317 565.353571,86.7742239 C568.159085,84.4740045 569.921985,88.5210206 571.114959,90.7725677 C571.882964,88.6481095 572.37636,84.6614832 575.024311,83.8989497 C577.857736,83.0850398 579.626038,86.6300095 581.006286,88.4353933 C582.492776,86.3226526 585.280283,80.0961967 588.490958,80.8551249 C590.899414,81.4238704 592.091487,85.4447476 593.216934,87.3006064 C595.852281,85.5700338 600.004729,81.4022382 603.416184,81.8429934 C606.738503,82.2711299 606.445887,85.3861605 610.33183,84.1116659 C613.149048,83.1868912 616.077911,80.73074 619.068898,80.5468667 C622.22195,80.3530786 623.889412,82.563164 627.390903,82.0268668 C631.107578,81.4581213 631.675704,80.592835 634.098566,83.6276464 C635.295141,85.1256733 634.978215,85.7827501 637.053539,86.0964163 C638.809236,86.3623116 640.346146,85.2022872 642.186477,85.9332738 C643.547818,86.4731764 644.498595,87.7341509 645.068521,89.0302777 C645.741989,90.5607528 644.962279,93.2133961 645.633946,94.4175861 C646.926859,96.7340296 651.814,94.6897908 654.008171,96.2986825 C656.967646,98.4700103 654.181039,101.76621 655.756665,104.171886 C657.021667,106.103458 660.586182,105.611326 662.005146,108.218001 C663.290856,110.57861 662.989237,113.699049 661.497344,115.886601 C660.870695,116.805968 659.109596,117.5676 658.697232,118.399536 C657.846395,120.115688 658.560378,119.91559 659.054674,121.669598 C660.00185,125.024385 659.243749,126.289866 656.658823,128.584677 C655.163329,129.912351 654.850905,129.531084 654.750966,131.548283 C654.674435,133.104897 655.998861,134.547942 655.753064,136.290232 C655.353305,139.120439 652.569399,140.898783 651.731167,143.681219 C650.651638,147.262242 647.702067,149.221755 645.479084,152.169137 C648.107228,153.754593 651.560999,155.068747 652.835905,158.044971 C654.227858,161.291598 653.970356,165.912767 652.983564,169.206263 C652.037288,172.362755 650.011484,174.37725 648.06311,176.882074 C645.691569,179.932208 645.894149,182.350503 645.747391,186.073036 C645.436768,193.942635 642.060427,201.089359 634.341662,203.588774 C631.280447,204.580248 628.515449,206.038616 625.408315,206.963391 C621.609707,208.094572 618.830304,208.186509 614.889439,207.962977 C612.42426,207.82417 609.540415,207.29238 608.683275,209.90266 C608.253804,211.2078 608.410467,216.287752 608.995699,217.446875 C609.996897,219.431625 612.833923,219.168434 614.543702,220.884585 C617.626526,223.979787 616.75498,226.618008 621.958146,226.690116 C638.813738,226.925365 655.61711,225.62383 672.472702,226.844245 C680.784802,227.44634 688.919532,228.883075 697.264945,229.305804 C706.449492,229.769994 715.658348,229.925024 724.835692,230.482954 C733.499832,231.009336 741.976698,232.144123 750.685856,231.695256 C758.819685,231.276133 766.632087,230.718203 774.732603,229.819568 C777.503903,229.512211 781.796808,229.953867 783.755085,227.834817 C784.840016,226.660371 785.090316,224.645877 786.173446,223.352454 C787.173743,222.158179 788.530581,221.293794 789.758669,220.361808 C792.736151,218.102149 795.542566,216.069628 799.470825,216.144439 C802.911991,216.210237 805.656281,218.696132 808.461795,220.524049 C811.716587,222.646705 813.065323,223.621955 816.924255,222.799031 C820.772383,221.979713 824.300884,220.460054 828.054474,219.342393 C835.973118,216.985389 843.392964,213.594548 850.605728,209.573671 C854.158538,207.592526 856.662433,206.261247 860.753657,207.45372 C864.948422,208.675937 866.141396,209.879225 866.191816,214.235401 C866.207122,215.618056 865.680413,218.07601 867.269544,218.874597 C868.422902,219.454159 870.96281,217.837155 871.942399,217.411723 C876.269517,215.534232 880.518304,213.578324 885.042601,212.207386 C889.17074,210.955425 893.351099,209.844974 897.496345,208.649798 C900.964522,207.64931 905.588758,206.200857 909.04433,208.063025 C917.773296,212.766217 904.928796,224.717083 901.593872,228.692893 C905.752623,227.696011 914.680568,228.264756 916.868437,232.729093 C919.457865,238.012747 914.267304,243.252236 911.337541,247.092845 C915.44047,248.961323 923.723759,247.354234 924.879818,253.237279 C925.851303,258.17572 920.713863,263.150215 917.366334,266.03901 C908.698593,273.516525 895.258057,278.752409 883.812712,278.850655 C880.908159,278.875892 878.078335,278.309851 875.189989,278.171946 C873.075949,278.071897 871.168992,278.802884 869.115277,278.805588 C866.220628,278.809193 863.653708,278.240448 860.668123,278.648755 C857.226957,279.119254 853.813701,279.697013 850.357229,280.086392 C847.150156,280.446928 843.941282,280.775917 840.723404,281.026489 C838.603062,281.193237 835.404092,280.72454 833.43411,281.436599 C830.884298,282.357768 831.627993,283.278938 831.420911,285.731483 C831.165209,288.74286 829.640004,291.464906 827.421523,293.473092 C819.360622,300.768537 805.633772,299.017233 801.583064,288.308414 C800.597172,285.703542 801.906292,284.342519 801.534445,281.994528 C801.160796,279.632116 798.963024,279.712336 796.811169,279.552798 C790.261069,279.067878 783.626334,279.022811 777.048323,278.569437 C764.315467,277.692433 751.19996,275.905977 738.472506,276.209729 C725.190433,276.526099 711.823726,275.726611 698.555158,275.005539 C692.3643,274.669339 685.950153,272.498011 679.856534,272.966708 C673.383864,273.463346 666.509634,272.068973 660.002751,271.392968 C645.457476,269.88052 629.221329,269.442469 615.779893,263.398985 C616.842314,277.970046 618.607915,292.762836 606.784421,303.630291 C601.829754,308.18386 595.604682,313.399914 589.108603,315.3414 C580.735278,317.843519 572.708592,319.918404 564.187608,321.775164 C548.343118,325.228197 532.600367,333.491681 518.305391,340.915116 C511.581522,344.406907 503.691689,345.76793 496.402395,347.724739 C492.930617,348.657626 489.019464,349.887054 485.378418,349.757261 C481.790493,349.62927 479.300105,347.191146 476.132647,345.735482 C473.102944,352.874094 469.01172,359.40971 465.962209,366.455483 C464.449608,369.950879 463.257535,373.667104 461.495536,377.04803 C460.152202,379.62496 457.977839,381.01032 457.772557,383.998262 C457.272859,391.252245 458.599986,398.818993 458.244345,406.154999 C457.856291,414.156193 456.612897,422.276364 455.880006,430.286571 C454.295377,447.597705 455.03457,465.027816 453.74886,482.362384 C452.573893,498.198025 453.307685,513.911984 451.551087,529.762046 C451.063994,534.161486 450.522879,538.55642 450.170839,542.970281 C449.940348,545.866286 448.336811,552.534399 449.846711,555.130257 C450.506673,556.265044 452.093102,556.386725 453.153724,556.955471 C454.808581,557.84329 456.313978,559.200708 457.551069,560.614009 C460.162106,563.597444 460.786054,567.149625 461.38119,570.950575 C464.761132,569.133474 478.930058,559.802803 476.807915,570.021294 C476.150654,573.190405 473.275813,574.898444 471.007812,576.920149 C469.344852,578.401952 467.759323,579.973889 465.99012,581.332208 C464.797146,582.247969 462.268943,583.383657 461.692714,584.879882 C460.665406,587.554157 465.976615,591.372233 468.48321,591.342489 C472.004508,591.301928 476.400053,586.018274 479.383838,584.33367 C487.303382,579.861221 486.587598,589.519979 483.602013,593.717519 C481.349318,596.885729 483.254475,596.642367 486.352605,597.285022 C491.195628,598.290918 495.668604,599.148993 500.591758,599.762806 C510.000494,600.937252 519.25887,599.421198 528.595577,601.593427 C537.891768,603.757544 543.419062,609.557666 544.7732,619.122685 C545.488984,624.175597 546.160651,621.639226 550.403135,622.824488 C554.322392,623.919616 556.53457,628.400177 558.789965,631.437692 C563.292653,637.500104 571.710095,652.770604 564.814257,659.91823 C561.886295,662.953041 554.776172,662.182395 550.921741,662.700666 C548.442157,663.03326 545.457472,664.189679 542.955378,663.59119 C540.576634,663.022444 538.994706,660.894381 537.278624,659.334161 C537.256116,668.928023 537.198493,677.261812 529.595874,684.188609 C523.461739,689.77962 515.258582,692.345735 507.032916,691.779693 C498.972015,691.226271 490.694129,687.946295 485.5855,681.465661 C482.88983,678.046879 480.971168,673.852944 480.276092,669.54454 C479.954665,667.559789 479.862828,665.473187 480.173451,663.478522 C480.358025,662.294162 481.485272,660.145367 480.769488,659.000666 C479.51529,656.996987 473.36945,658.662663 471.340945,658.867267 C465.985618,659.408071 460.645598,660.083175 455.31098,660.797937 C450.901029,661.389216 446.401943,662.015648 441.976686,661.180106 C438.173576,660.461738 436.720399,660.051628 437.404671,664.552018 C438.780417,673.605977 436.489007,681.636916 429.043951,687.203591 C421.593493,692.773871 414.717463,693.877111 405.605845,692.410631 C397.28114,691.070339 389.665916,683.209754 387.241254,675.388827 C384.013472,664.980154 387.341193,655.498059 395.11488,648.391895 C390.399708,646.003345 387.272766,644.592748 385.609806,639.075646 C383.871216,633.308874 385.496361,627.243758 386.318387,621.460761 C388.083988,609.0421 387.396115,596.955132 388.002956,584.495911 C388.269462,578.998639 389.404813,573.403121 389.42282,567.92027 C389.432724,564.794424 389.259855,564.90619 386.041978,564.880952 C384.045885,564.865629 381.930045,565.005337 381.090011,562.678979 C379.060606,557.068138 388.580085,557.542243 390.974136,555.307821 C393.829169,552.645263 391.857386,542.138344 391.773653,538.441048 C391.502646,526.430694 392.690217,514.699756 392.922509,502.72185 C393.028752,497.311106 393.358282,491.621849 392.910805,486.230034 C392.731634,484.077634 391.500845,482.33895 391.582777,480.197366 C391.687219,477.454589 392.215729,474.89208 392.074373,472.038437 C390.83278,446.937924 390.559971,421.374123 393.78055,396.439456 C393.973227,394.945936 395.028446,391.584839 394.463921,390.08501 C393.608582,387.813633 390.894004,388.61853 388.996951,387.786593 C383.690244,385.461136 382.378423,381.768347 382.088508,376.361209 C381.91744,373.156945 381.747272,369.951781 381.580706,366.746616 C381.495172,365.10077 381.411439,363.454022 381.322304,361.807274 C381.217862,359.899137 382.002974,357.753047 381.957956,356.150464 C381.94265,355.635799 381.721162,354.866956 381.71666,354.563205 C381.101716,354.261256 380.863121,353.817797 380.997275,353.231926 C380.969363,352.681207 381.057599,352.144009 381.261079,351.622133 C381.293492,351.933997 380.891933,349.854605 380.856819,350.038479 C380.912641,349.753655 381.953454,348.067248 381.849013,347.862644 C381.36282,346.908125 380.332811,348.06815 379.988874,346.288905 C379.70166,344.795385 380.674046,343.038673 380.348117,341.290074 C379.47567,336.622035 380.298597,332.434409 380.95946,327.710487" id="react-path-141"></path><path d="M122.656724,401 C181.615893,401.136151 240.713029,402.589889 299.523408,404.330861 C306.004291,404.523229 312.505914,405.071345 318.990403,405.348917 C320.117592,405.39635 323.828296,404.924654 324.664219,406.133321 C326.024059,408.103553 322.910314,410.108043 321.443165,411.006637 C316.395165,414.096819 309.713192,413.557486 303.992485,413.752489 C296.099461,414.01952 288.201928,414.050264 280.305297,413.940465 C252.867727,413.559243 225.418435,411.473942 198.039479,409.851552 C181.174035,408.852821 164.256289,408.24146 147.3674,407.744291 C139.030714,407.49922 130.687716,407.363069 122.351932,407.088132 C120.101162,407.014347 116,407.716182 116,404.757759 C116,401.675483 120.497933,401.166894 122.656724,401" id="react-path-142"></path><path d="M193.167517,434.163089 C234.887903,435.960854 276.637171,437.19295 318.361167,438.858136 C321.066285,438.966851 326.824027,438.168728 327.839462,441.48761 C328.896417,444.938187 324.497102,448.400255 321.586188,449.294718 C317.806062,450.456989 312.993352,449.805587 309.048049,449.916953 C303.738904,450.067209 298.694223,450.020364 293.40313,449.662402 C273.241557,448.296843 253.114283,446.52471 232.948196,445.1565 C221.532,444.382241 210.123927,443.464798 198.72488,442.481065 C195.684893,442.21856 186.657,443.033476 184.527746,440.556025 C183.216255,439.029605 184.606273,436.671475 185.902419,435.494177 C188.037089,433.556763 190.491282,433.99604 193.167517,434.163089" id="react-path-143"></path><path d="M316.267573,479.773392 C302.709655,480.502344 289.001412,479.428237 275.673929,477.189565 C273.858346,476.883932 269.66099,476.84968 268.500708,475.163429 C266.728331,472.588385 270.058852,470.341807 272.299302,470.114339 C278.506672,469.483752 285.887826,471.64953 292.151905,472.031571 C298.704029,472.431177 305.346167,471.732964 311.914493,471.681147 C315.66898,471.651286 319.423467,471.624939 323.178854,471.612643 C325.381498,471.606495 328.548193,471.048803 330.722933,471.54853 C336.808784,472.946713 329.069374,478.071333 326.359051,478.661521 C325.418404,478.867032 316.299078,480.218667 316.267573,479.773392" id="react-path-144"></path><path d="M612.132406,154.520572 C612.222387,152.929871 611.808841,148.908984 613.777499,148.155122 C617.616654,146.685358 617.363074,156.110389 618.859108,157.43715 C624.350628,162.301938 622.870953,143.557805 628.104347,149.602819 C632.356139,154.515275 628.940527,166.351073 622.959116,168.55881 C618.552812,170.18482 615.554381,167.055501 613.84203,163.431847 C613.802039,163.347987 611.421654,154.482614 612.132406,154.520572" id="react-path-145"></path><path d="M617.105065,133.060287 C619.755188,132.55562 623.205514,135.30883 621.582346,137.974846 C620.395175,139.924816 612.351127,142.947534 610.17202,142.998617 C607.497383,143.062031 607.724136,140.93415 608.57862,138.767517 C609.914625,135.376647 613.480516,133.021535 617.105065,133.060287" id="react-path-146"></path><path d="M134,90.3519859 C134.814508,86.9602851 136.016492,82.9418767 140.030597,86.2113377 C142.726746,88.4080067 144.698287,93.8248759 144.968891,97.2129278 C145.292536,101.26965 143.065674,103.333132 139.466016,101.057099 C135.813315,98.7482243 134.41984,94.4908097 134,90.3519859" id="react-path-147"></path><path d="M47,133.003347 C45.6940013,142.072603 37.6494569,133.631997 38.0118739,128.099342 C38.2000341,125.219804 39.8489849,122.859702 42.980972,124.586714 C45.7848372,126.134366 46.7608604,130.201946 47,133.003347" id="react-path-148"></path><path d="M505,663.088905 C505.598248,660.836848 505.729371,656.20242 508.333617,655.214048 C512.187173,653.753056 513.858989,660.156826 513.987381,662.734669 C514.126699,665.528174 513.150562,671.463912 509.151314,670.971103 C505.871421,670.567311 505.654704,665.534598 505,663.088905" id="react-path-149"></path><path d="M408,666.682509 C408.737109,663.925865 408.880263,658.946449 412.192365,658.111749 C415.837899,657.192558 416.954678,662.163618 416.999135,664.975042 C417.040926,667.600772 415.571153,674.402786 411.854486,673.981258 C408.993186,673.65722 408.611738,668.909923 408,666.682509" id="react-path-150"></path></g></g></g></svg>