<svg xmlns="http://www.w3.org/2000/svg" viewBox="0 0 1024 768" version="1.1"><g id="react-group-305" stroke="none" stroke-width="1" fill="#FFFFFF00" fill-rule="evenodd"><g id="react-group-306"><rect id="react-rect-307" x="0" y="0" width="1024" height="768"></rect><path d="M344,337.46593 C349.023075,317.935039 353.75717,297.978749 361.210177,279.209351 C365.875147,267.463352 370.817577,255.823944 375.768647,244.197019 C376.455096,242.582808 376.745036,241.027174 378.081451,240.22343 C379.865257,239.14985 383.556718,239.172897 385.569981,238.804154 C414.166563,233.55917 443.060767,229.555813 472.050018,227.303984 C505.132038,224.734307 537.383599,225.909675 570.118075,231.300619 C598.112695,235.910866 625.830816,242.26496 653.246515,249.54091 C657.27688,250.609689 661.301485,251.702474 665.317449,252.825027 C667.188621,253.348373 670.295401,253.615327 671.926556,254.707152 C675.413523,257.040603 676.596327,266.603912 677.902979,270.655283 C679.654143,276.085599 680.673735,283.545921 684.049334,288.16577 C689.07529,295.042249 696.725111,301.007434 702.954991,306.72391 C724.696689,326.675398 748.530375,344.875358 776.609481,354.739231 C820.049674,369.998849 865.857395,379.563119 910.857698,389.018878 C911.905132,389.238779 912.952566,389.45772 914,389.674741 C902.350536,402.574981 890.701072,415.475222 879.051608,428.375462 C872.483783,435.647572 865.916919,442.919681 859.350054,450.191791 C855.973495,453.931075 856.343122,454.598461 851.567744,453.55657 C827.639011,448.335593 803.752521,442.644084 780.257739,435.706148 C768.739805,432.305839 757.024096,428.774934 746.307818,423.266836 C731.558295,415.68552 717.714115,406.314265 704.239562,396.688538 C692.19455,388.083577 680.432758,379.082025 668.883141,369.825041 C666.60586,368.000532 658.389599,359.203517 655.72541,359.776797 C653.427008,360.271335 649.448486,365.500954 647.765487,367.023939 C643.314613,371.053224 638.845496,375.063303 634.348538,379.040733 C627.192192,385.368899 619.883195,393.120183 611.523884,397.883112 C602.715261,402.903393 592.619187,406.322907 583.321889,410.320503 C578.135602,412.549285 572.944515,414.770385 567.752468,416.985723 C566.395892,417.563805 564.503598,418.821756 563.041414,418.853445 C558.713428,418.94467 552.428824,415.427208 548.41478,414.056906 C538.10269,410.536563 527.866446,406.793439 517.73581,402.779518 C496.105479,394.209126 472.333238,384.897408 454.530699,369.474543 C451.424879,366.784832 448.390104,363.773432 446.334599,360.179149 C445.622228,358.932721 444.562313,357.197517 444.489348,355.726386 C444.37318,353.380451 445.692313,352.919523 447.653732,351.453193 C457.779568,343.885321 468.697461,337.28924 479.43486,330.638424 C481.957919,329.076068 484.485778,327.520434 487.022277,325.980164 L361.560602,336.055296 C355.707068,336.525827 349.853534,336.995398 344,337.46593" id="react-path-308" fill="#7fbbca"></path><path d="M530.820972,98.5823377 C544.076212,99.1869046 557.665043,99.8030054 570.804919,101.668609 C583.902495,103.527484 596.125233,108.282321 607.963427,114.039644 C629.307554,124.420126 651.12371,137.038179 664.851938,157.005228 C671.270943,166.340933 676.506512,176.115887 685.366411,183.464884 C687.439105,185.18343 689.698302,187.248954 692.448755,187.774706 C694.63585,188.192809 696.5653,187.307584 698.707212,187.201857 C702.794917,186.999053 704.343669,189.153965 704.343669,193.214848 C707.412332,191.990335 710.75306,190.882123 714.099556,191.331944 C716.897115,191.708717 719.121703,193.395545 721.807745,194.104878 C726.654925,195.385137 731.399239,193.470515 736.008963,192.04416 C747.652,188.441748 760.44098,185.713988 772.674293,186.999053 C780.731456,187.845832 790.495034,191.339633 786.322729,201.718192 C782.862792,210.327264 769.923841,214.685144 761.751314,216.826599 C754.799716,218.648951 745.453369,217.022675 746.04076,226.614048 C746.4503,233.308498 747.463574,240.490253 754.579565,242.662465 C758.480766,243.853337 772.304169,245.627631 764.231625,251.668495 C758.271189,256.129218 756.189844,263.9809 751.656067,269.87759 C745.877329,277.393828 738.043202,283.470254 728.885281,286.213393 C718.638139,289.283324 707.794953,288.694136 697.269016,289.885008 C704.683029,300.115549 715.386817,307.15217 725.130207,314.931765 C735.374465,323.112161 745.258213,332.051871 757.114672,337.883203 C767.741552,343.109967 779.223081,346.739292 790.198935,351.171181 C801.726609,355.826058 813.335999,360.42711 825.234759,364.053551 C849.237048,371.367946 874.484299,376.47745 899.160502,380.964125 C911.338056,383.178628 923.278154,382.853757 935.578762,383.050794 C948.19662,383.253598 960.806786,385.466178 973.192955,387.73835 C979.197614,388.840796 985.259953,389.535712 991.26365,390.633352 C994.144847,391.160065 1005.54947,392.321141 1005.95805,396.540615 C1006.62427,403.412878 999.191029,407.26519 993.747806,409.181735 C991.423236,410.00064 987.679698,409.881456 985.666609,411.00697 C983.489127,412.224754 984.33897,414.017309 984.089977,416.375024 C983.726583,419.801545 981.893269,422.266909 979.08225,424.168075 C976.770178,425.731875 973.983194,425.670361 975.57713,428.631682 C976.311609,429.997485 978.150692,430.857719 978.998612,432.298491 C979.967663,433.941107 980.413735,435.743274 980.216656,437.633867 C979.872489,440.944087 977.685393,443.470004 974.634996,444.640692 C969.758976,446.512062 964.036958,445.18759 959.042689,444.580139 C950.685582,443.564198 942.206382,443.462315 933.960792,441.634197 C925.364306,439.728225 916.998547,436.790933 908.392447,434.838826 C903.978841,433.838263 899.556582,432.999174 895.243919,431.611265 C892.437707,430.70874 888.381727,428.364481 885.392857,429.098804 C882.593375,429.78603 880.405319,433.166415 878.574888,435.128134 C876.048432,437.834748 873.602731,440.615372 871.035899,443.28354 C869.335252,445.051106 867.590382,446.782147 865.733034,448.386316 C865.129299,448.907262 861.400182,451.187124 861.348268,451.79938 C861.203103,453.528499 865.273503,453.498703 866.145457,454.18593 C871.211828,458.190104 863.598813,460.723711 860.313844,460.522829 C852.742168,460.061475 845.132038,459.132037 837.632465,458.01998 C819.776154,455.371035 801.970795,452.511596 784.897993,446.531285 C768.010733,440.615372 751.532052,434.322685 735.912827,425.505043 C720.920409,417.042066 706.419246,407.473761 692.257444,397.694002 C685.385639,392.947815 678.466727,388.030542 672.663954,381.984872 C666.990004,376.071842 662.363937,369.283199 657.658077,362.602206 C646.389009,373.485372 635.5439,384.929853 623.438448,394.90665 C611.923272,404.397102 598.079679,409.467198 584.686004,415.63109 C585.119578,418.431898 598.211386,420.109114 600.60229,420.836709 C611.522384,424.159425 622.001214,429.490955 632.622326,433.671983 C650.291171,440.627867 667.056338,449.680032 672.940826,468.998301 C678.726294,487.991699 672.015997,507.111009 663.831935,524.269561 C654.172184,544.524957 642.699307,563.285756 628.828797,580.944109 C622.928927,588.456502 616.573373,595.372018 610.098609,602.367309 C604.574631,608.336086 599.838969,615.406348 602.153926,623.889508 C606.599257,622.500638 607.41449,625.968488 604.507336,628.904819 C601.92416,631.514357 597.458641,632.020886 594.009279,632.453406 C583.551599,633.764422 572.749752,633.301145 562.280535,632.326533 C543.218678,630.551278 524.114521,625.740694 506.857138,617.463221 C498.271226,613.344669 495.164109,619.985294 489.259433,625.128438 C484.613177,629.173942 478.216284,631.796936 474.685206,637.032352 C471.780936,641.33929 473.676739,648.144273 479.710238,646.530493 C484.404562,645.274262 488.175979,640.037886 493.148136,639.836043 C501.973426,639.478493 485.322661,652.067711 483.192286,653.604599 C487.409775,657.376174 492.191582,652.204195 496.444641,651.341077 C500.523694,650.512561 501.662906,652.62422 499.48927,656.023828 C497.794392,658.674695 492.470377,660.551832 496.011068,663.77651 C498.94514,666.447562 505.449706,667.853732 509.051924,669.02442 C520.289267,672.677773 531.468929,675.276738 543.167726,676.945305 C546.945873,677.483552 553.002444,677.139458 556.065339,679.817238 C560.104976,683.349485 558.15726,689.202924 556.112446,693.249389 C548.366764,708.57694 532.262052,716.111439 515.721843,717.214846 C505.536228,717.893422 495.254477,717.235992 485.035214,717.785773 C473.837286,718.388417 462.614363,719.283253 451.39144,718.913208 C433.347664,718.319214 421.869019,705.279214 412.873568,690.939732 C407.159241,681.828937 401.891946,672.453824 396.944785,662.907625 C395.01245,659.178341 390.965122,655.314495 390.276788,651.123856 C389.655749,647.35132 392.062996,644.325601 394.401986,641.656472 C400.556617,634.632346 407.961977,629.271019 415.197177,623.4666 C419.328143,620.153496 420.91631,617.409396 422.755393,612.586317 C424.304145,608.526395 427.281479,606.790548 429.903109,603.551453 C432.786229,599.987487 431.880628,599.356969 429.632005,596.444667 C427.278595,593.39492 428.203423,588.901517 429.191702,585.450968 C430.608748,580.500055 433.649531,579.410104 438.190037,577.814586 C442.330617,576.361318 445.840544,573.80945 449.51198,571.442123 C467.646124,559.749664 484.732386,546.519355 503.090527,535.152727 C521.20256,523.938923 540.131749,514.033253 557.417973,501.519966 C543.381148,499.633217 531.005553,492.054504 517.763773,487.566868 C510.968877,485.263939 504.238391,482.804342 497.663647,479.921836 C495.152573,478.821312 492.227153,477.842856 489.987182,476.224269 C487.736637,474.597994 486.00715,472.458461 483.647971,470.919651 C478.049968,467.267259 471.394469,465.188279 465.374429,462.341336 C458.872748,459.266599 452.455666,455.906398 446.414477,451.993533 C440.774174,448.340181 435.35883,444.16492 430.669313,439.339918 C426.933466,435.496256 423.300485,430.486713 418.011079,428.72107 C418.565784,436.086406 427.691018,442.184939 432.692016,446.617789 C440.80686,453.810118 449.242799,459.922107 458.314198,465.86205 C448.140119,474.57781 435.738568,480.253434 423.824426,486.140513 C410.427867,492.759032 397.406238,500.096494 384.063515,506.817856 C372.760799,512.511743 360.86973,516.899419 349.381471,522.18962 C336.98665,527.897924 324.229395,532.68448 311.297173,537.026981 C299.593569,540.957147 288.575416,545.147786 277.532267,550.663859 C266.796754,556.027108 255.310418,560.128359 243.826005,563.570258 C230.922623,567.436987 218.612402,571.11533 206.202198,576.417065 C195.011961,581.196893 183.775579,584.252407 171.932578,586.851372 C168.020802,587.709684 162.997693,589.285018 160.257816,585.498065 C158.181277,582.628054 157.868835,578.202893 157.272791,574.827314 C154.98956,561.911303 154.808824,548.788644 152.755358,535.852449 C144.959685,538.204397 137.576436,541.098437 129.351996,541.471365 C124.181799,541.705887 121.040073,542.239329 119.75185,547.883235 C122.742643,548.220601 133.429127,548.368619 133.717535,552.604432 C133.979025,556.425026 127.512914,556.464433 125.220069,556.569199 C121.116982,556.755664 117.398439,556.082855 115.20846,560.098563 C118.434786,561.290396 125.58827,559.118184 127.016852,563.456841 C128.857857,569.053651 120.497866,569.040195 117.489769,569.490977 C112.241701,570.277202 112.781025,574.397677 113.140573,578.802654 C113.613563,584.598423 113.97215,590.401881 114.754698,596.167854 C116.427465,608.48891 119.29232,620.623501 120.648799,632.989731 C121.821659,643.682588 122.47923,653.952537 114.835452,662.473183 C111.761982,665.899703 107.489696,669.843325 102.659821,670.250855 C97.7578431,670.664152 97.8472496,667.231865 94.7958912,664.704986 C92.9260449,663.157526 90.4495801,662.841305 88.2471031,662.006061 C85.5677912,660.991081 82.9682723,659.504173 80.5610254,657.96344 C76.1243465,655.124186 72.246218,651.599628 69.1092985,647.363815 C56.8413764,630.789645 52.4556495,606.028351 51.2404898,585.932507 C50.4675559,573.153942 51.2385671,560.358075 52.4114269,547.62949 C53.0430408,540.773566 53.6785002,533.914759 54.5081543,527.07998 C54.7648376,524.962554 55.1945658,522.841284 55.3541516,520.717129 C55.4454809,519.501267 54.8590509,517.043592 55.4800898,515.87771 C54.6869674,517.364618 53.2824196,516.265056 51.8874854,515.094368 C49.0082106,512.676101 49.894585,508.032757 51.4346846,504.854215 C56.075172,495.272454 69.9822139,494.899525 79.0295781,494.15463 C103.349116,492.151581 126.453494,485.632062 149.735724,478.667527 C146.449794,473.748332 151.618068,470.500587 155.624058,468.809914 C161.801761,466.20326 168.181349,463.910903 174.416734,461.42151 C188.497782,455.798749 202.285615,450.556606 217.030963,446.968611 C230.387146,443.719905 243.310716,438.325899 256.488085,434.371704 C270.102873,430.285831 283.471553,425.616537 296.863305,420.857855 C323.386282,411.432762 349.933292,401.802942 375.67276,390.369995 C382.179248,387.4798 388.394444,384.129211 394.67309,380.786311 C399.774069,378.071046 405.760461,376.079531 410.084661,372.157055 C414.213705,368.411431 416.686324,363.202928 421.174916,359.801398 C425.216476,356.738195 430.746222,356.695904 434.094641,352.890688 C438.622649,347.746583 444.029341,345.485944 450.17628,342.468877 C452.150915,341.500032 465.151394,336.603904 464.88702,333.825203 C455.596431,333.825203 446.059734,336.588526 436.872012,337.875513 C427.154579,339.23651 417.444837,340.75033 407.656264,341.502915 C391.794776,342.721661 375.940979,342.391984 360.146787,340.673438 C357.786647,340.416809 348.318207,338.473352 346.685816,341.004075 C345.441816,342.933115 348.534513,345.229316 348.565276,347.301568 C348.611422,350.342664 346.159952,351.973746 343.383543,350.917436 C337.978774,348.862485 338.770935,340.154414 339.275649,335.73502 C340.241817,327.281655 342.391419,318.906144 344.269917,310.623865 C333.119096,316.298528 322.530671,323.584089 312.928602,331.591477 C305.490555,337.792854 298.77449,346.202005 290.046298,350.623322 C281.666118,354.869708 276.683386,351.247112 277.026592,341.898911 C277.184255,337.616001 278.052363,333.551274 279.535743,329.562477 C280.236575,327.677651 283.115849,322.343237 281.767061,320.335382 C274.107901,326.441605 266.499694,332.564167 258.459835,338.169627 C252.776272,342.132472 244.53645,348.312703 237.115708,346.740253 C230.562113,345.351383 231.203341,338.140792 233.280841,333.283111 C235.082431,329.069405 238.320293,325.325703 241.529314,322.107754 C244.18267,319.448236 247.955048,317.064569 249.283649,313.377576 C240.481431,317.332732 231.418686,320.325771 222.197315,323.105433 C215.639875,325.081569 211.056108,333.289839 203.430596,332.076861 C195.797393,330.862921 198.837215,321.4311 201.883766,317.329848 C204.016064,314.460799 206.965518,311.93392 209.826527,309.813611 C212.616396,307.745203 216.860803,305.943036 218.233625,302.501138 C209.316045,304.17451 200.350396,307.083928 191.17421,306.547603 C185.725218,306.2285 176.628825,303.849639 177.704587,296.525633 C178.793809,289.109355 188.670827,288.541312 194.224607,287.158209 C201.797244,285.27146 209.04398,281.729601 216.351281,279.028754 C231.091823,273.578863 246.119606,269.207671 261.201803,264.863754 L265.966139,263.491671 C282.989911,258.585932 300.10982,254.407788 317.345092,250.332488 C325.863708,248.317906 334.352522,246.120704 342.938433,244.402157 C351.244588,242.739358 359.684372,241.77628 367.927078,239.78861 C360.980287,229.304323 369.392191,220.688523 378.476087,215.699164 C372.714653,214.534243 366.856122,213.83356 361.144679,212.421623 C356.266736,211.216333 351.565683,209.364186 346.652169,208.297303 C338.207578,206.464379 329.773561,205.50034 322.56528,200.271653 C308.94184,190.390972 307.7834,174.667425 319.262045,162.769279 C330.84644,150.760599 347.849063,145.137838 364.212381,144.579406 C382.527261,143.954655 403.365712,147.504203 420.503887,153.98816 C428.922521,157.17343 437.688207,161.222779 444.90514,166.647542 C449.813847,170.337419 457.576834,177.40768 464.165999,177.40768 C456.27419,167.865326 446.589444,157.99714 445.164708,145.07344 C443.814958,132.837928 449.365853,119.83253 458.680476,111.918373 C477.291455,96.109284 508.004041,97.5404448 530.820972,98.5823377 Z M424.716217,623.000084 C419.858258,630.553898 413.140213,636.687337 406.797262,642.956646 C404.609209,645.119009 400.217714,647.870143 400.006122,651.257266 C399.834924,654.022854 403.22809,657.133418 404.710196,659.30638 C412.545831,670.799471 418.998425,683.493232 428.570077,693.700854 C439.389159,705.236345 451.736513,707.478687 467.056733,707.51145 C484.066805,707.549032 501.303857,709.676704 518.284113,708.779574 C532.66852,708.020242 546.847106,701.616026 553.999877,688.597525 C549.340044,686.196185 542.709521,687.340965 537.659205,687.394928 C530.772848,687.467199 524.050956,687.342892 517.248274,686.146077 C511.082291,685.061041 504.988442,683.432524 499.188899,681.055274 C496.18814,679.824732 493.220081,678.417848 490.456882,676.708386 C488.433294,675.457608 486.912717,673.541932 484.924714,672.314281 C477.594014,667.78816 469.128411,682.178855 461.292776,681.902296 C456.493485,681.733663 458.230463,677.013854 460.228083,674.373536 C463.832841,669.605546 470.12097,666.662652 474.869286,663.186876 C470.448938,659.118474 465.454405,663.385382 461.245648,665.511127 C455.983741,668.16879 450.516973,671.431605 444.637602,672.429915 C445.078098,664.853938 455.384551,660.793245 461.070604,657.71159 C463.601052,656.340359 466.772046,655.068381 467.395281,652.052252 C467.863668,649.783891 467.061542,646.558656 466.823982,644.268133 C466.522945,641.356074 466.299811,640.426181 463.199027,639.605177 C459.438461,638.608795 455.650964,638.896917 451.883665,637.653848 C441.573365,634.24938 433.553068,629.196158 424.716217,623.000084 Z M89.634612,503.613953 C87.1168206,504.311988 84.5730429,504.915927 82.0157907,505.455536 C76.9542216,506.523233 71.8859152,507.632215 66.8070218,508.601015 C64.2593942,509.086855 61.4307288,508.778644 60.6800112,511.209765 C60.2940653,512.456051 61.2651859,514.6961 61.4316912,515.990394 C61.7310158,518.324539 61.750265,520.691329 61.7781763,523.042757 C62.0438148,544.703929 57.5144852,566.240281 59.5086992,587.899533 C61.1930015,606.204953 65.1352314,629.35245 78.5836638,642.985739 C84.3882508,648.869589 91.5296927,655.260403 98.8386024,659.281546 C104.568118,662.432786 112.571922,654.523001 113.742272,649.047218 C114.580573,645.123051 113.182121,640.981888 112.271635,637.198864 C111.104173,632.351985 109.921312,627.507026 108.765399,622.657266 C106.296693,612.305799 104.05224,601.857355 103.342908,591.21592 C103.109993,587.719984 103.160041,584.351748 103.357345,580.871174 C103.464178,578.980623 104.354452,574.425631 103.032034,572.806804 C101.321745,570.712699 97.4141639,572.080925 95.1004137,572.259514 C92.5633732,572.456347 90.0869675,572.304642 87.6086369,571.657495 C81.7087664,570.11548 80.675086,565.427027 87.1168206,563.255149 C91.6143891,561.739059 99.8357094,563.935901 103.614321,561.01798 C108.054142,557.589255 99.081142,557.118777 96.9858699,557.029482 C94.1957027,556.911383 84.9416645,557.641103 85.4142316,552.440885 C85.763604,548.58681 93.7298728,548.330448 96.5171526,548.16626 C102.471883,547.816763 110.006008,550.046251 112.579622,542.868107 C113.611378,539.992432 107.400633,538.532032 105.842413,537.106196 C102.055139,533.640025 100.813567,527.697605 100.488256,522.828642 C100.167758,518.041292 104.880917,501.444955 97.7000141,501.006163 C95.4950217,500.87174 91.8299798,503.005212 89.634612,503.613953 Z M442.815162,599.39334 C438.588851,604.424881 434.936071,609.936076 430.999877,615.194872 C440.231885,620.288304 449.674538,624.384711 459.220599,628.764462 C463.561807,630.756577 466.604673,632.335763 470.806089,629.315679 C473.820232,627.149496 476.079881,624.070421 479.021255,621.817204 C483.248523,618.581468 487.666329,615.61457 491.999877,612.529694 C479.212751,607.864664 466.230299,603.771158 453.447003,599.096457 C448.666313,597.348038 446.266872,595.282428 442.815162,599.39334 Z M337.525752,583.4118 C340.259952,586.183613 334.995741,593.864491 333.959235,596.493236 C342.437978,595.820721 350.845741,594.48445 359.171828,592.763747 C362.007151,592.178824 360.961893,595.629964 359.901078,596.767692 C358.589401,598.176956 355.965074,598.603239 354.210985,599.105435 C347.757612,600.954607 341.137969,601.84513 334.515409,602.832004 C337.546171,606.56052 344.838668,612.393199 342.490484,618.000084 C338.255002,614.351375 335.209655,609.494864 330.524955,606.339592 C329.171467,608.359083 326.363369,615.481317 323.285936,615.045302 C318.454413,614.360134 323.349137,606.036912 324.359391,604.032993 C321.105965,604.032993 308.880823,606.887531 307.175351,602.883586 C305.430013,598.787183 317.227329,598.919544 319.408272,597.952135 L319.001704,597.455918 L318.593392,596.963579 C316.962577,594.998326 315.396565,593.060449 315.175706,590.361769 C318.8239,591.618233 321.259594,597.333149 325.268523,597.415875 C329.070344,597.494708 330.767065,591.783685 332.121525,589.079027 C332.891613,587.541294 335.507189,581.364085 337.525752,583.4118 Z M748.89769,529.542002 C757.07215,536.435543 751.519276,550.339123 745.333736,556.590005 C738.403771,563.592406 722.975437,570.024722 714.191989,562.886723 C709.383539,558.980161 711.118635,553.019573 712.303463,547.822919 C713.618991,542.047585 714.438236,537.179422 719.222062,533.21652 C726.66441,527.050626 740.604842,522.54915 748.89769,529.542002 Z M732.305089,533.547862 C724.330359,535.243435 716.249043,543.20956 714.353544,551.420173 C711.867503,562.186518 723.046528,562.97343 730.41055,561.355063 C739.674872,559.319979 749.517254,552.527789 749.989688,541.874284 C750.396827,532.679784 738.501468,532.230402 732.305089,533.547862 Z M151.999877,487.000084 C140.057941,491.443831 128.832714,497.52429 116.303328,500.161377 C112.479594,500.965732 110.9092,501.84637 109.963877,505.407547 C108.639461,510.392037 107.384496,515.444119 108.329819,520.651665 C110.292811,531.464589 125.342737,530.139769 133.700162,529.715865 C137.990771,529.497637 146.243053,530.281714 149.965503,527.605037 C152.684753,525.650638 151.543614,521.984209 151.120148,519.130826 C149.535285,508.461778 151.263875,497.662373 151.999877,487.000084 Z M803.096111,383.959917 C798.699419,384.788827 791.098148,388.371764 797.401641,392.863704 C801.607172,395.858974 807.866478,396.222768 812.806872,396.962901 C822.458076,398.408427 832.76057,399.6571 841.135129,405.100501 C856.653711,415.186378 854.752673,434.219465 850.111027,449.796027 C853.453934,451.764567 863.274204,438.893785 865.124331,436.800762 C872.62762,428.309983 880.16165,419.845258 887.726418,411.408516 C890.964619,407.80049 864.422128,395.336925 862.036945,394.214664 C849.428036,388.283952 837.658698,384.378715 823.515702,383.36067 C816.808755,382.878185 809.733895,382.709315 803.096111,383.959917 Z M748.353169,352.389928 C747.147674,355.42683 749.258987,356.803496 751.197671,358.901545 C762.040336,370.628588 769.674814,387.227128 775.711986,401.7851 C778.722329,409.044926 780.830733,416.365107 782.69474,423.970775 C784.523834,431.4337 790.333097,433.428284 797.293545,435.546452 C813.326724,440.426572 830.204622,442.059985 846.294051,446.87975 C850.604932,448.171153 851.450621,438.695442 851.721203,436.291786 C852.491245,429.454444 851.775513,422.318202 848.182304,416.29134 C841.388667,404.897686 827.770357,402.475828 815.622305,400.534893 C808.675434,399.425513 799.522208,398.279729 794.024259,393.530857 C791.265101,391.147319 790.874261,388.413149 793.026307,385.451929 C796.950227,380.05065 803.859274,379.357048 810.032222,378.916362 C813.038686,378.701767 831.654514,380.583305 832.262595,378.380832 C822.993959,375.361174 813.479957,373.369464 804.347097,369.915826 C797.222505,367.221413 790.041179,364.676809 782.851807,362.154704 L775.661555,359.635383 C768.35003,357.07174 761.656285,353.953406 754.640557,350.866687 C752.005537,349.708448 749.588728,349.2783 748.353169,352.389928 Z M905.57919,401.801067 C903.258115,404.922731 900.955308,407.542979 899.214983,411.049974 C897.184282,415.141306 893.816127,417.750822 890.999877,421.263671 C905.624381,423.843922 919.57487,427.120694 933.664777,431.847089 C940.899147,434.274184 948.37197,435.473098 955.77172,437.211475 C961.979202,438.668902 968.594362,440.930158 975.022029,439.59272 C967.701123,429.505841 948.175823,432.294853 943.035613,420.078414 C939.537654,411.767957 948.133517,405.139297 955.164048,403.696503 C967.441516,401.177709 980.529534,400.983581 992.999877,400.086102 C993.13103,395.315808 947.863334,392.845791 943.387524,392.459485 C935.439716,391.771743 927.145767,390.282124 919.213343,390.007027 C911.851093,389.751441 909.444444,396.605446 905.57919,401.801067 Z M732.840968,366.911282 C728.480591,371.125267 724.212491,375.431466 719.855998,379.651215 C716.992467,382.425318 713.112906,385.380006 710.855495,388.6853 C707.973508,392.905049 713.021599,394.933755 716.385375,396.930764 C724.876892,401.972753 733.652043,406.679507 742.292177,411.475592 C750.054213,415.784673 758.12708,421.269482 766.695333,423.789997 C771.277178,425.137665 775.580247,427.230729 779.999877,429.000084 C777.867769,409.867612 766.880861,392.490086 756.748738,376.539955 C754.422361,372.877332 752.019248,369.265619 749.692871,365.603957 C748.520455,363.760639 746.345609,359.410254 743.8881,359.034674 C740.256233,358.478509 735.043012,364.782677 732.840968,366.911282 Z M954.999877,415.606233 C960.311322,418.648599 965.635348,420.19478 971.626086,417.895877 C973.098854,417.294996 974.559042,416.658932 975.999877,415.989538 C972.008309,410.546425 960.201978,413.86377 954.999877,415.606233 Z M515.105463,349.023399 C505.690333,353.267421 495.620079,357.495042 487.432466,363.898219 C484.40985,366.261905 477.655622,371.227575 479.236194,375.73112 C480.588772,379.587305 488.065464,382.871381 491.615258,384.046471 C510.291597,390.22775 531.54803,385.730959 548.744807,397.074721 C553.398981,400.144619 554.916061,404.157096 558.373502,408.193693 C561.500014,411.844381 565.456735,411.39094 569.658767,409.876251 C575.175858,407.886896 580.260047,404.840153 585.799264,402.887459 C588.631403,401.888922 593.444307,401.22709 593.738681,397.405637 C595.123966,379.392421 591.280761,356.443443 575.400005,345.421914 C557.573115,333.049707 532.980453,340.966607 515.105463,349.023399 Z M505.008523,391.000084 C504.553197,393.283957 522.223681,397.41908 524.14276,397.947736 C534.812726,400.886725 544.781011,407.873361 555.833451,409.000084 C557.755406,404.714732 542.445907,397.891638 540.024531,397.012128 C528.975926,392.999662 516.612147,392.272283 505.008523,391.000084 Z M851.999877,383.000084 C865.396258,388.489279 878.380957,395.210405 889.610037,404.555952 C893.483287,407.778823 902.892752,392.48381 904.999877,390.138665 C887.157139,389.397172 869.573254,385.993306 851.999877,383.000084 Z M601.618191,275.40695 C589.199137,283.610393 578.38316,294.336645 564.748375,300.62544 C569.014938,301.29691 573.672683,298.53525 577.746531,297.566415 C581.714914,296.62348 585.727401,296.000931 589.590319,294.665665 C591.963295,293.845513 601.762008,288.549534 603.600944,292.13902 C606.474403,297.745794 586.237471,301.624971 583.360178,302.581336 C573.642961,305.810147 563.989982,309.192437 554.372478,312.706143 C545.056989,316.109536 535.748211,319.771924 526.122078,322.216075 C516.345416,324.698595 505.979106,325.33841 496.580204,329.193606 C488.268555,332.602755 481.124699,338.24502 473.108354,342.226837 C465.06804,346.220164 455.929925,348.690214 448.999877,354.632722 C456.535873,362.674054 465.447717,369.407938 475.197532,374.53413 C476.759382,362.271172 491.134344,355.288844 500.968532,350.575126 C522.40873,340.298759 554.608337,324.803152 576.46081,342.217244 C592.432137,354.944476 594.5961,379.09437 594.5961,398.000084 C598.922107,396.622612 602.872273,394.431702 606.890513,392.363574 C609.673846,390.930466 609.705485,386.940016 610.055439,384.27524 C610.628789,379.910686 611.809045,375.684262 613.164757,371.497168 C616.162857,362.23568 619.916473,353.199614 623.493675,344.152037 C629.282777,329.515912 636.418005,315.081228 639.976031,299.683464 C642.298192,289.634438 645.060432,272.362314 632.943393,267.374252 C622.460112,263.059578 610.130224,269.784829 601.618191,275.40695 Z M547.383097,234.50506 C545.357987,235.861975 546.113912,239.93272 546.251616,241.975305 C546.754283,249.402276 546.439394,256.86002 546.687838,264.300453 C546.990209,273.366108 547.056653,289.990481 556.406059,295.073864 C562.801096,298.550298 570.754206,293.340937 575.856946,289.793339 C584.491834,283.793486 592.413166,276.825232 601.167461,270.967705 C611.545312,264.023493 631.209976,254.41738 641.141012,267.480693 C646.515307,274.550884 645.761308,285.085969 644.420863,293.312087 C642.650938,304.165484 638.516938,314.45919 634.408939,324.601914 C625.925236,345.546105 617.070793,366.830727 612.353238,389.000084 C623.109533,382.60787 631.474791,373.39508 640.862716,365.301673 C647.821085,359.302781 658.155602,352.413384 659.761824,342.637056 C660.124861,340.429064 662.262639,338.855773 663.733083,337.378649 C665.64649,335.456273 666.994638,333.508893 668.207009,331.056637 C670.883082,325.639555 672.622193,319.78876 673.718045,313.861032 C676.0176,301.424727 674.921748,289.046122 672.801304,276.682905 C671.842193,271.09176 673.250045,265.092869 671.946193,259.64309 C671.041008,255.858922 668.370712,256.082991 664.817379,255.222297 C652.022492,252.122838 639.202568,249.117622 626.399977,246.047012 C621.199977,244.798766 615.545459,242.458063 610.146127,242.535958 C605.714572,242.60039 601.991757,245.242095 598.166869,247.155817 C591.887388,250.29759 581.905315,255.79449 574.69465,252.670027 C566.291836,249.029148 576.084205,240.808801 571.87028,236.919811 C568.981391,234.253103 560.346503,235.852358 556.430133,235.189768 C554.282726,234.827219 549.352357,233.18565 547.383097,234.50506 Z M679.605939,341.902597 C673.495053,342.865698 669.956517,345.516184 666.591129,350.716344 C663.171214,356.001655 662.763694,358.618863 667.64054,362.755109 C672.900035,367.215325 678.402511,371.62073 683.9863,375.637567 C691.063372,380.729084 698.914349,384.583446 705.909152,389.799266 C708.972248,392.083695 722.875758,374.175297 725.288353,371.719585 C728.616432,368.332092 732.031564,364.934811 735.602625,361.816477 C736.907455,360.677199 740.99796,358.034543 740.999877,356.096595 C741.004656,351.197894 730.140327,346.815001 726.644839,345.466267 C718.812038,342.44581 710.600415,341.226273 702.254865,341.100013 C694.857326,340.988434 686.933645,340.74668 679.605939,341.902597 Z M706.836991,320.353433 C701.100268,323.39912 695.107535,325.965949 689.334375,328.948628 C687.286299,330.006185 674.371719,335.430648 675.023729,338.673112 C689.556826,337.752233 704.02568,335.293001 718.512753,338.106044 C725.018464,339.370072 731.218306,341.488094 736.654914,345.396499 C740.772161,348.354945 743.911394,354.040162 747.999877,348.980173 C739.653198,344.250732 732.136872,337.981968 724.734648,331.895441 C721.495696,329.230708 718.161819,326.724947 714.873966,324.132915 C712.917938,322.591654 709.692409,318.838344 706.836991,320.353433 Z M363.079274,249.539954 C358.532767,250.178461 354.101533,251.38272 349.636677,252.416584 C331.548633,256.605645 313.392386,260.366802 295.352372,264.79997 C259.369363,273.641417 222.310486,282.166961 187.999877,296.331848 C190.88455,299.520551 198.528982,297.210632 202.109127,296.585527 C209.117644,295.361165 215.918672,293.221642 222.842656,291.606709 C229.614866,290.028153 236.412052,288.145181 243.239976,286.82892 C246.384971,286.222961 251.93242,285.424588 252.059219,290.139197 C252.23885,296.822933 239.252537,301.820897 234.486054,304.263878 C229.389126,306.876297 224.454538,309.763457 219.602562,312.800909 C215.766898,315.202727 208.69306,318.403875 207.449087,323.176878 C219.896505,317.904174 232.351608,312.652531 244.722178,307.201773 C249.382034,305.148405 254.103369,303.21374 258.539407,300.708536 C261.497086,299.038081 265.303932,296.106887 268.806269,295.843634 C273.548738,295.486569 274.334506,299.792418 272.336464,303.266391 C269.83603,307.615318 264.675702,310.068829 260.880382,313.112026 C256.041854,316.992843 251.759512,321.57056 247.403204,325.963522 C243.786556,329.609806 239.129581,333.199609 237.242008,338.129606 C243.743329,340.303591 251.130321,333.334586 255.907371,329.890289 C263.414438,324.476865 270.406624,318.58863 277.568837,312.738686 C281.232554,309.746226 285.600389,304.899512 290.422587,304.006369 C296.533906,302.872948 296.027671,309.859185 294.54547,313.710326 C291.233331,322.318197 283.47843,329.494932 282.924166,339.198889 C282.583154,345.173279 287.64358,342.89878 291.020078,340.502706 C296.705853,336.466809 300.554005,330.317236 305.714333,325.688783 C318.140618,314.541246 332.36514,305.031617 347.736616,298.428293 C350.487766,297.246051 351.477181,293.003382 352.313861,290.453185 C353.561677,286.647036 354.99777,282.956718 356.498223,279.236724 C359.785386,271.088349 362.480822,262.281364 367.086885,254.754264 C368.371203,252.654947 371.685264,250.515424 368.943719,249.280531 C367.453833,248.610435 364.61815,249.323609 363.079274,249.539954 Z M494.299613,235.755843 C489.643499,236.299412 484.930639,236.249736 480.265869,236.741718 C472.652194,237.544175 475.973318,246.804907 474.747013,252.384846 C471.135422,268.811324 453.722845,271.913201 440.527797,264.163763 C433.104561,259.802793 428.647541,253.553185 424.656037,246.242232 C422.380398,242.074234 420.68473,241.403609 415.976679,242.446803 C412.745964,243.163282 409.805717,243.011388 406.519218,243.249259 C402.38248,243.549225 402.021802,244.426196 401.937163,248.362055 C401.863104,251.857517 401.360078,254.279217 399.032502,257.110742 C394.596642,262.504397 387.158978,266.055268 380.822585,268.76547 C374.474651,271.481403 367.284172,273.499964 363.797617,279.918661 C362.040393,283.155237 360.157172,287.018492 359.648376,290.697374 C359.092451,294.716344 360.456295,297.209691 358.112368,300.917232 C353.239847,308.624637 351.006528,317.047566 348.543337,325.806762 C347.740227,328.660259 347.422831,329.83433 350.538128,330.618636 C355.007651,331.744941 361.355586,330.035899 365.942449,329.856302 C369.214521,329.728291 371.125634,323.959201 372.189394,321.621568 C374.257282,317.076225 376.792609,312.772573 379.331783,308.470833 C385.086282,298.725761 391.238969,289.04565 398.755501,280.531012 C404.429208,274.104672 412.804635,266.104944 420.069173,275.135447 C427.149044,283.935721 432.251437,294.243468 440.766326,301.914571 C448.254965,308.661894 455.971553,308.769843 463.738155,302.375028 C471.384531,296.079565 477.195776,287.490413 481.948071,278.920367 C487.087975,269.652948 490.964062,259.758849 495.97316,250.436023 C497.542831,247.513743 504.793904,239.60859 502.58463,236.222987 C501.092865,233.935986 496.39347,235.51224 494.299613,235.755843 Z M533.294128,233.734569 C529.195225,233.928207 525.071323,233.467715 520.97242,233.385828 C513.554396,233.239396 507.350755,233.498543 503.625878,240.606305 C500.337525,246.878824 497.536656,253.552105 494.535794,259.97491 C488.016778,273.928398 481.620836,288.205579 471.612513,300.079145 C462.745499,310.59821 451.290108,315.897723 439.754912,305.848784 C434.640658,301.393186 430.75521,295.644742 427.085139,289.994562 C424.142929,285.464784 420.785347,277.492876 415.855703,274.852272 C410.35973,271.908206 404.067631,278.661447 400.708126,282.326116 C395.059275,288.486884 390.338277,295.732409 385.803811,302.72842 C382.515459,307.802503 379.366524,312.983521 376.170476,318.117333 C374.875327,320.199181 369.597616,327.008298 371.354289,329.601697 C373.115769,332.201839 381.7126,330.424417 384.200018,330.186464 C390.139245,329.620001 396.07078,329.415766 402.012891,328.904215 C420.495934,327.31465 438.704947,323.254035 457.235104,322.170241 C469.441431,321.455419 481.468918,319.096119 493.483905,316.952615 C505.167173,314.868841 516.925438,313.446903 528.48371,310.692621 C535.279639,309.073191 542.088068,307.451836 548.870536,305.771714 C551.217574,305.1908 562.310476,303.606052 562.999877,300.556015 C555.361668,299.222707 551.351223,296.260337 548.642659,288.80865 C545.250463,279.47646 544.856246,269.075891 544.566832,259.242747 C544.455572,255.460134 544.437519,251.675554 544.435235,247.891466 L544.435106,243.350954 C544.434144,240.637133 545.606221,235.712373 543.160148,233.829943 C540.8958,232.088165 535.917118,233.609331 533.294128,233.734569 Z M684.929329,294.000084 C685.249677,306.297147 683.051092,318.691037 677.999877,329.925876 C683.283727,330.772396 689.568667,324.143083 694.002067,321.922767 C695.709641,321.066661 707.015288,316.958692 703.22926,313.818037 C696.264531,308.041955 691.698606,299.971738 684.929329,294.000084 Z M836.461761,304.000084 C838.011538,307.057844 836.097279,310.938847 835.060511,313.839486 C843.124046,315.776694 851.154357,317.680032 859.278476,319.324637 C865.401368,320.563735 863.265294,324.235869 857.950514,323.982781 C850.559266,323.630903 843.682005,320.499757 836.326912,320.09331 C829.320666,319.70568 828.495942,325.822141 822.522555,327.000084 C822.725805,323.634667 825.448176,321.297597 827.403476,318.773299 C824.179821,317.119286 820.886787,315.581938 817.759871,313.759513 C816.139738,312.815842 811.665317,308.857689 813.388052,306.754891 C815.127399,304.632335 819.68781,308.610246 821.310875,309.486176 C823.617953,310.731861 828.223314,313.477259 830.936891,312.689768 C834.654989,311.610614 833.881078,306.274117 836.461761,304.000084 Z M720.279191,223.877151 C717.008029,224.104189 713.449721,223.003777 710.351227,224.443298 C707.262273,225.878954 703.57518,229.021748 700.991829,231.201318 C698.49052,233.311327 697.246544,235.873481 694.136602,237.118812 C691.030476,238.364142 687.848033,238.254004 686.650801,242.051828 C689.468828,242.824725 695.000899,241.79967 697.208385,243.871035 C700.418493,246.885334 694.816783,250.202029 692.492912,251.15076 C689.159742,252.511059 686.43425,252.069542 683.02667,251.814486 C681.544201,251.704348 681.557556,251.248338 680.343153,251.982591 C675.838507,254.705121 678.955127,264.390489 680.416608,267.923595 C687.565658,285.21717 711.993009,279.393389 726.080282,277.622489 C721.597577,273.106837 714.255826,268.125515 713.885685,261.033217 C713.775025,258.921275 714.298754,255.146639 717.01089,254.970804 C719.179264,254.830717 721.78074,258.105869 723.130607,259.396607 C727.133464,263.222448 732.311612,269.566968 738.100301,270.115725 C745.83795,270.849977 751.790722,258.318415 754.999877,252.853066 C751.056165,252.112051 746.734682,252.155526 744.442293,248.28621 C741.716801,243.687472 741.669102,236.641548 741.716801,231.464103 C741.757822,227.05569 743.163019,222.232812 737.269394,222.016401 C731.840351,221.81738 725.760702,223.497465 720.279191,223.877151 Z M200.707456,235.184363 C199.579807,237.643235 194.681188,238.607137 192.530318,239.264652 C184.349347,241.763403 176.360948,244.937178 168.385005,248.049675 C152.2827,254.334974 136.356681,261.276815 121.65316,270.51315 C118.905412,272.240586 120.251502,268.909242 120.965265,267.708012 C122.565244,265.01473 125.927116,263.109298 128.438221,261.459674 C135.232863,256.994214 142.429895,253.8574 149.94309,250.870376 C164.977145,244.894381 180.240179,238.557531 195.658421,233.716626 C197.44714,233.155404 202.222167,231.880252 200.707456,235.184363 Z M387.456477,247.361315 C384.467481,247.670239 380.966495,246.990792 378.09191,247.966097 C374.345892,249.23726 374.963713,251.808517 373.854877,254.970557 C371.974717,260.337999 369.962031,265.660642 367.999877,271.000084 C375.263089,270.661294 382.219299,264.912131 388.374628,261.602628 C391.859407,259.729483 403.973661,253.5118 400.321079,247.819568 C398.008063,244.217008 390.77536,247.016925 387.456477,247.361315 Z M470.117567,238.003563 C465.620019,237.922475 460.675056,239.283796 456.122921,239.509888 C450.019941,239.813252 444.009564,240.974239 437.914382,241.254707 C433.904215,241.439778 429.967154,242.264012 425.999877,242.803962 C429.946685,251.947806 437.651197,259.945927 447.33155,263.258126 C454.968804,265.871061 465.65706,266.314659 470.874956,259.084488 C473.877221,254.92516 478.781244,238.160015 470.117567,238.003563 Z M704.308929,200.233197 C699.405093,203.490852 695.474125,208.158938 691.377481,212.323849 C681.116125,222.754886 670.497407,233.922888 666.054961,248.221548 C665.445233,250.180374 670.071657,251.911184 671.323864,251.987189 C673.969874,252.146897 674.508323,250.812471 675.547655,248.576561 C678.118533,243.040665 679.103924,236.856316 683.216943,232.136277 C688.229625,226.381023 694.265264,220.770083 700.083211,215.825875 C704.037296,212.466239 713.72649,207.735616 714.863109,202.18144 C716.206824,195.61514 707.278586,198.260902 704.308929,200.233197 Z M577.804437,238.229238 C575.031325,239.035873 574.810416,241.601978 574.17683,244.366716 C571.627447,255.475078 597.409871,243.355399 600.999877,241.539463 C599.806028,237.973132 588.055552,238.623481 585.334142,238.483328 C583.215296,238.375441 579.85278,237.633337 577.804437,238.229238 Z M730.101919,243.999047 C726.281294,244.146421 728.042652,228.541666 732.385878,230.111004 C736.110567,231.458284 732.550821,243.903453 730.101919,243.999047 Z M192.999877,226.056912 C187.149906,231.106189 177.965289,231.783439 170.691783,233.404136 C159.973688,235.792384 149.349284,238.836248 138.718188,241.582873 C132.004918,243.317387 135.78412,239.181457 139.145535,237.627544 C144.92476,234.955227 151.467855,233.531121 157.64479,232.060923 C164.332246,230.469385 171.165976,229.406479 177.815191,227.670084 C182.41945,226.467025 188.357376,223.390239 192.999877,226.056912 Z M374.998844,117.534575 C381.500003,118.728397 387.989696,120.807556 393.689199,124.213291 C398.407412,127.03262 398.220136,131.419199 392.238764,128.873971 C364.338433,116.998788 329.718136,124.19228 302.473272,134.707461 C299.467298,135.866901 299.690882,133.336954 300.599554,131.386727 C301.850292,128.70015 304.523755,127.140542 307.090203,125.893237 C314.801014,122.143682 323.689944,120.023454 332.074376,118.465756 C346.047473,115.86991 360.959818,114.95783 374.998844,117.534575 Z M379.076076,100.477834 C382.620735,101.439398 386.694027,103.824386 388.8621,106.849769 C391.400119,110.39038 389.381971,112.199982 385.860677,110.117727 C381.930496,107.793867 378.337159,105.4768 373.826748,104.249375 C371.44547,103.602188 371.54185,102.108902 373.25236,100.798032 C374.85286,99.5706073 377.338307,100.00627 379.076076,100.477834 Z" id="react-path-309" fill="#2d3d8b"></path></g></g></svg>