<?xml version="1.0" encoding="UTF-8" standalone="no"?>
<!-- Generator: Adobe Illustrator 16.0.0, SVG Export Plug-In . SVG Version: 6.00 Build 0)  -->

<svg
   xmlns:dc="http://purl.org/dc/elements/1.1/"
   xmlns:cc="http://creativecommons.org/ns#"
   xmlns:rdf="http://www.w3.org/1999/02/22-rdf-syntax-ns#"
   xmlns:svg="http://www.w3.org/2000/svg"
   xmlns="http://www.w3.org/2000/svg"
   xmlns:sodipodi="http://sodipodi.sourceforge.net/DTD/sodipodi-0.dtd"
   xmlns:inkscape="http://www.inkscape.org/namespaces/inkscape"
   version="1.1"
   id="Layer_1"
   x="0px"
   y="0px"
   width="29.25716"
   height="32"
   viewBox="0 0 29.25716 32"
   enable-background="new 0 0 1024 1024"
   xml:space="preserve"
   inkscape:version="0.91 r13725"
   sodipodi:docname="identity-icons-brand.svg"><metadata
     id="metadata4143"><rdf:RDF><cc:Work
         rdf:about=""><dc:format>image/svg+xml</dc:format><dc:type
           rdf:resource="http://purl.org/dc/dcmitype/StillImage" /><dc:title></dc:title></cc:Work></rdf:RDF></metadata><defs
     id="defs4141" /><sodipodi:namedview
     pagecolor="#ffffff"
     bordercolor="#666666"
     borderopacity="1"
     objecttolerance="10"
     gridtolerance="10"
     guidetolerance="10"
     inkscape:pageopacity="0"
     inkscape:pageshadow="2"
     inkscape:window-width="1920"
     inkscape:window-height="1017"
     id="namedview4139"
     showgrid="false"
     fit-margin-top="0"
     fit-margin-left="0"
     fit-margin-right="0"
     fit-margin-bottom="0"
     inkscape:zoom="0.828125"
     inkscape:cx="-396.59994"
     inkscape:cy="447.12203"
     inkscape:window-x="-8"
     inkscape:window-y="-8"
     inkscape:window-maximized="1"
     inkscape:current-layer="Layer_1" /><path
     d="M 29.25714,17.37143 C 29.25714,25.45056 22.7077,32 14.62857,32 6.54944,32 0,25.45056 0,17.37143 0,10.17277 5.19977,4.1886 12.04825,2.96982 12.54419,1.25465 14.12504,0 16.00001,0 c 0.1893,0 0.37532,0.0139 0.5578,0.0386 -0.6315,0.72321 -1.01497,1.66863 -1.01497,2.70418 0,1.11401 0.44341,2.12391 1.16262,2.86469 -0.4328,-0.82392 -0.68337,-1.75765 -0.70188,-2.74844 3.00112,0.51722 4.10148,2.62662 7.31073,2.62662 0.16005,0 0.30369,-0.0186 0.45606,-0.0394 -1.108,2.70508 -3.75106,4.61081 -6.85606,4.61081 l -2.28574,0 c -2.23425,0 -4.19543,0.36124 -6.05669,1.02422 1.82092,0.31574 3.40782,1.30642 4.50088,2.70268 -0.24454,-0.0448 -0.4886,-0.0698 -0.72992,-0.0698 -2.78696,0 -5.02856,2.24165 -5.02856,5.02857 0,3.28216 2.66073,5.94286 5.94286,5.94286 2.78695,0 5.02857,-2.2416 5.02857,-5.02856 0,-0.24307 -0.0251,-0.4886 -0.0702,-0.73439 1.71204,1.33806 2.81304,3.42135 2.81304,5.76292 0,1.28195 -0.33324,2.48451 -0.91283,3.53192 1.95167,-1.59261 3.19852,-4.01642 3.19852,-6.73188 0,-2.74287 -1.37142,-3.65713 -1.37142,-6.4 0,-3.10509 1.9058,-5.7481 4.6108,-6.85603 -0.0209,0.15237 -0.0394,0.29597 -0.0394,0.45602 7e-5,3.65717 2.74294,4.57144 2.74294,8.68574 z"
     id="path4137"
     inkscape:connector-curvature="0"
     style="clip-rule:evenodd;fill:#333333;fill-rule:evenodd" /></svg>