<svg xmlns="http://www.w3.org/2000/svg" viewBox="0 0 119.17 23.42"><title>firefox-wordmark</title><path d="M13.88,28.7,8.41,7.14h2.94l2.56,10.91c.64,2.68,1.22,5.37,1.6,7.45h.07c.35-2.14,1-4.7,1.76-7.49L20.22,7.14h2.91l2.62,10.94c.61,2.56,1.19,5.12,1.51,7.39h.06c.45-2.37,1.06-4.77,1.73-7.46L31.9,7.14h2.84L28.63,28.7H25.72L23,17.47a65.68,65.68,0,0,1-1.41-7h-.06a69.13,69.13,0,0,1-1.67,7L16.79,28.7Z" transform="translate(-8.41 -5.63)"/><path d="M44.86,28.7l-.23-1.95h-.09a5.77,5.77,0,0,1-4.74,2.3,4.4,4.4,0,0,1-4.73-4.44c0-3.75,3.32-5.8,9.31-5.76v-.32c0-1.28-.36-3.59-3.52-3.59a7.72,7.72,0,0,0-4,1.15l-.64-1.85a9.61,9.61,0,0,1,5.08-1.38c4.74,0,5.89,3.23,5.89,6.34V25a21,21,0,0,0,.26,3.71Zm-.42-7.9c-3.07-.07-6.56.48-6.56,3.49A2.49,2.49,0,0,0,40.54,27a3.86,3.86,0,0,0,3.74-2.59,2.84,2.84,0,0,0,.16-.89Z" transform="translate(-8.41 -5.63)"/><path d="M55,8.77v4.44h4v2.15H55v8.35c0,1.92.54,3,2.11,3a6.5,6.5,0,0,0,1.63-.19l.13,2.11a7,7,0,0,1-2.49.38,3.88,3.88,0,0,1-3-1.18c-.8-.83-1.09-2.21-1.09-4V15.36h-2.4V13.21h2.4V9.5Z" transform="translate(-8.41 -5.63)"/><path d="M63.55,21.47c.06,3.81,2.49,5.38,5.31,5.38a10.27,10.27,0,0,0,4.28-.8l.48,2a12.47,12.47,0,0,1-5.15,1c-4.76,0-7.61-3.13-7.61-7.81s2.75-8.35,7.26-8.35c5.06,0,6.4,4.45,6.4,7.3a9.18,9.18,0,0,1-.1,1.31Zm8.25-2c0-1.79-.74-4.57-3.9-4.57-2.85,0-4.1,2.62-4.32,4.57Z" transform="translate(-8.41 -5.63)"/><path d="M78,18.05c0-1.83,0-3.4-.13-4.84h2.47l.09,3h.13a4.64,4.64,0,0,1,4.29-3.39,3.24,3.24,0,0,1,.8.1v2.65a4.54,4.54,0,0,0-1-.09c-2,0-3.39,1.5-3.78,3.61a8.55,8.55,0,0,0-.13,1.32V28.7H78Z" transform="translate(-8.41 -5.63)"/><path d="M89.72,28.7V15.36H87.55V13.21h2.17v-.73c0-2.18.48-4.16,1.79-5.41a5.43,5.43,0,0,1,3.78-1.44,6.65,6.65,0,0,1,2.4.45L97.3,8.26a4,4,0,0,0-1.79-.36c-2.4,0-3,2.12-3,4.48v.83h3.75v2.15H92.5V28.7Z" transform="translate(-8.41 -5.63)"/><path d="M112.38,20.83c0,5.73-4,8.22-7.71,8.22-4.2,0-7.43-3.07-7.43-8,0-5.19,3.39-8.23,7.68-8.23C109.37,12.86,112.38,16.09,112.38,20.83ZM100.09,21c0,3.39,2,6,4.7,6s4.71-2.53,4.71-6c0-2.63-1.32-6-4.64-6S100.09,18.05,100.09,21Z" transform="translate(-8.41 -5.63)"/><path d="M116.79,13.21,119,16.54c.58.87,1.06,1.67,1.57,2.53h.1c.51-.93,1-1.73,1.53-2.56l2.18-3.3h3l-5.28,7.49,5.44,8h-3.2l-2.28-3.49c-.6-.89-1.11-1.76-1.66-2.68h-.06c-.51.92-1.06,1.76-1.63,2.68L116.5,28.7h-3.1l5.51-7.9-5.25-7.59Z" transform="translate(-8.41 -5.63)"/></svg>