<?xml version="1.0" encoding="utf-8"?>
<!DOCTYPE svg PUBLIC "-//W3C//DTD SVG 1.1//EN" "http://www.w3.org/Graphics/SVG/1.1/DTD/svg11.dtd">
<svg version="1.1" id="Layer_1" xmlns="http://www.w3.org/2000/svg" xmlns:xlink="http://www.w3.org/1999/xlink" x="0px" y="0px"
	 width="179.304px" height="32px" viewBox="0 0 179.304 32" enable-background="new 0 0 179.304 32" xml:space="preserve" fill="context-fill">
<title>about-wordmark</title>
<g id="Page-1">
	<g id="about-wordmark">
		<path id="Waterfox" d="M14.694,31.015l5.526-19.021h0.227l5.54,19.021h5.994l8.324-29.091h-6.719L28.771,22.18h-0.255
			L23.217,1.924h-5.753l-5.313,20.213h-0.241L7.095,1.924H0.376L8.7,31.015H14.694z M47.336,31.427c3.225,0,5.313-1.406,6.378-3.438
			h0.17v3.025h5.739V16.299c0-5.199-4.403-7.387-9.261-7.387c-5.228,0-8.665,2.5-9.503,6.478l5.597,0.454
			c0.412-1.448,1.705-2.514,3.878-2.514c2.06,0,3.238,1.037,3.238,2.826v0.086c0,1.289-1.253,1.552-4.383,1.87l-0.59,0.06
			c-0.102,0.01-0.206,0.021-0.311,0.03c-4.318,0.398-8.196,1.847-8.196,6.719C40.092,29.239,43.175,31.427,47.336,31.427z
			 M49.069,27.251c-1.86,0-3.196-0.867-3.196-2.529c0-1.704,1.406-2.542,3.537-2.84c1.321-0.186,3.48-0.498,4.204-0.98v2.314
			C53.615,25.503,51.726,27.251,49.069,27.251z M73.047,31.313c1.563-0.057,2.67-0.369,3.281-0.568l-0.952-4.504
			c-0.298,0.058-0.938,0.199-1.506,0.199c-1.208,0-2.045-0.454-2.045-2.131V13.742h4.105V9.196h-4.105V3.969h-6.051v5.228h-2.983
			v4.546h2.983v11.363C65.746,29.382,68.658,31.497,73.047,31.313z M89.581,31.44c5.397,0,9.034-2.627,9.886-6.676l-5.597-0.369
			c-0.611,1.662-2.173,2.528-4.19,2.528c-3.025,0-4.943-2.003-4.943-5.256v-0.015h14.858v-1.661c0-7.415-4.489-11.08-10.256-11.08
			c-6.42,0-10.583,4.56-10.583,11.293C78.757,27.122,82.862,31.44,89.581,31.44z M93.899,17.903h-9.162
			c0.128-2.485,2.017-4.474,4.702-4.474C92.067,13.43,93.885,15.305,93.899,17.903z M109.595,31.015V18.671
			c0-2.685,1.96-4.531,4.63-4.531c0.838,0,1.989,0.142,2.557,0.326V9.097c-0.54-0.128-1.293-0.213-1.903-0.213
			c-2.443,0-4.446,1.421-5.242,4.119h-0.227V9.196h-5.867v21.818H109.595z M128.388,31.015V13.742h4.333V9.196h-4.333V7.733
			c0-1.478,0.597-2.344,2.372-2.344c0.725,0,1.463,0.156,1.946,0.313l1.065-4.546c-0.753-0.227-2.415-0.597-4.276-0.597
			c-4.105,0-7.159,2.315-7.159,7.06v1.577h-3.082v4.546h3.082v17.272H128.388z M145.504,31.44c6.619,0,10.738-4.531,10.738-11.25
			c0-6.761-4.119-11.278-10.738-11.278c-6.62,0-10.739,4.518-10.739,11.278C134.766,26.909,138.885,31.44,145.504,31.44z
			 M145.533,26.753c-3.054,0-4.617-2.798-4.617-6.604c0-3.808,1.563-6.62,4.617-6.62c2.997,0,4.56,2.813,4.56,6.62
			C150.092,23.955,148.53,26.753,145.533,26.753z M164.211,31.015l4.233-7.543l4.304,7.543h6.18l-6.492-10.909l6.32-10.909h-6.207
			l-4.104,7.628l-4.005-7.628h-6.25l6.25,10.909l-6.478,10.909H164.211z"/>
	</g>
</g>
</svg>
