<svg viewBox="0 0 16 16" xmlns="http://www.w3.org/2000/svg">
  <path fill="context-fill" fill-opacity="context-fill-opacity" d="M7 3C7 2.44772 6.55228 2 6 2H2C0.895431 2 0 2.89543 0 4V13C0 14.1046 0.895431 15 2 15H14C15.1046 15 16 14.1046 16 13V6C16 5.44772 15.5523 5 15 5H8C7.44772 5 7 4.55228 7 4V3ZM2 8C2 7.44772 2.44772 7 3 7H13C13.5523 7 14 7.44772 14 8V12C14 12.5523 13.5523 13 13 13H3C2.44772 13 2 12.5523 2 12V8Z"></path>
  <rect fill="context-fill" opacity="0.35" x="8" y="2" width="8" height="2" rx="1"></rect>
</svg>
