<?xml version="1.0" encoding="utf-8"?>
<!DOCTYPE svg PUBLIC "-//W3C//DTD SVG 1.1//EN" "http://www.w3.org/Graphics/SVG/1.1/DTD/svg11.dtd">
<svg version="1.1" id="Layer_1" xmlns="http://www.w3.org/2000/svg" xmlns:xlink="http://www.w3.org/1999/xlink" x="0px" y="0px"
	 width="16px" height="16px" viewBox="0 0 16 16" enable-background="new 0 0 16 16" xml:space="preserve">
<g id="Layer_1_1_" display="none">
	<path fill="context-fill" display="inline" d="M15.707,7.293l-7-7c-0.391-0.391-1.023-0.391-1.414,0l-7,7C-0.091,7.69-0.08,8.323,0.317,8.707
		c0.388,0.374,1.002,0.374,1.39,0L2,8.414V14c0,1.104,0.896,2,2,2h8c1.104,0,2-0.896,2-2V8.414l0.293,0.293
		c0.396,0.384,1.029,0.373,1.414-0.023C16.081,8.295,16.081,7.681,15.707,7.293L15.707,7.293z M8,11.5C8,11.225,8.224,11,8.5,11
		C8.775,11,9,11.225,9,11.5S8.775,12,8.5,12C8.224,12,8,11.775,8,11.5z M12,13c0,0.553-0.447,1-1,1h-1V9c0-0.552-0.447-1-1-1H7
		C6.448,8,6,8.448,6,9v5H5c-0.552,0-1-0.447-1-1V6.414l4-4l4,4V13z"/>
</g>
	<path fill="context-fill" d="M15.631,7.301L8.693,0.282C8.513,0.088,8.262-0.021,7.997-0.02C7.737-0.019,7.49,0.091,7.315,0.282
		L0.372,7.301c-0.394,0.375-0.41,1-0.031,1.396c0.374,0.395,1.001,0.407,1.395,0.031C1.743,8.721,1.752,8.71,1.76,8.702l0.297-0.301
		v5.612c0,1.1,0.884,1.993,1.982,2.006h7.928c1.101-0.008,1.986-0.906,1.979-2.006V8.401l0.294,0.301
		c0.177,0.196,0.431,0.306,0.697,0.304c0.263,0.01,0.52-0.103,0.694-0.304c0.388-0.366,0.402-0.979,0.034-1.37
		C15.652,7.322,15.641,7.312,15.631,7.301z M11.967,13.017c0.034,0.52-0.361,0.969-0.883,1.003c-0.034,0.002-0.071,0.002-0.104,0
		H5.03c-0.516,0.031-0.959-0.363-0.994-0.875c-0.002-0.042-0.001-0.086,0.001-0.128V6.397l3.959-4.011l3.97,4.011V13.017z"/>
</svg>
