<?xml version="1.0" encoding="utf-8"?>
<!DOCTYPE svg PUBLIC "-//W3C//DTD SVG 1.1//EN" "http://www.w3.org/Graphics/SVG/1.1/DTD/svg11.dtd">
<svg version="1.1" id="Layer_2" xmlns="http://www.w3.org/2000/svg" xmlns:xlink="http://www.w3.org/1999/xlink" x="0px" y="0px"
	 width="160px" height="32px" viewBox="0 0 160 32" enable-background="new 0 0 160 32" xml:space="preserve" fill="context-fill">
<path d="M73.25,20.463c-2.071,0-3.75,1.68-3.75,3.75c0,2.072,1.679,3.75,3.75,3.75S77,26.285,77,24.213
	C77,22.143,75.32,20.463,73.25,20.463z M71,6.964c-0.828,0-1.5,0.67-1.5,1.5c0,0.829,0.672,1.5,1.5,1.5
	c9.014-0.097,16.402,7.13,16.5,16.146c0.001,0.119,0.001,0.236,0,0.354c0,0.829,0.671,1.5,1.5,1.5c0.828,0,1.5-0.671,1.5-1.5
	c0.111-10.655-8.43-19.385-19.084-19.499C71.277,6.962,71.138,6.962,71,6.964z M71,12.963c-0.828,0-1.5,0.671-1.5,1.5
	s0.672,1.5,1.5,1.5c5.737-0.062,10.439,4.539,10.5,10.277c0,0.072,0,0.146,0,0.223c0,0.829,0.67,1.5,1.499,1.5
	s1.501-0.671,1.501-1.5c0.083-7.373-5.827-13.416-13.199-13.5C71.201,12.962,71.1,12.962,71,12.963z"/>
<g>
	<path d="M121.25,6.92h-18.5c-1.512,0-2.75,1.237-2.75,2.75v15.584c0,1.514,1.238,2.75,2.75,2.75h18.5c1.514,0,2.75-1.236,2.75-2.75
		V9.67C124,8.158,122.764,6.92,121.25,6.92z M109.15,15.84l-3.336,4.346c-0.01,0.021-0.027,0.021-0.037,0.026
		c-0.01,0.021-0.01,0.037-0.021,0.046c-0.055,0.057-0.128,0.094-0.189,0.129c-0.037,0.027-0.063,0.057-0.104,0.072
		c-0.115,0.057-0.246,0.093-0.375,0.093c-0.107,0-0.211-0.026-0.312-0.062c-0.034-0.01-0.062-0.036-0.102-0.047
		c-0.046-0.025-0.101-0.047-0.146-0.082c-0.019-0.01-0.019-0.026-0.025-0.035c-0.02-0.012-0.025-0.012-0.045-0.021l-1.516-1.422
		c-0.363-0.349-0.385-0.926-0.034-1.292c0.339-0.376,0.926-0.396,1.293-0.046l0.771,0.725l2.721-3.546
		c0.312-0.403,0.892-0.476,1.285-0.163C109.38,14.859,109.463,15.437,109.15,15.84z M122,25.087c0,0.504-0.413,0.917-0.917,0.917
		H112V8.92h9.083c0.504,0,0.917,0.412,0.917,0.916V25.087z"/>
	<path d="M118.38,17.441l1.485-1.521c0.354-0.361,0.348-0.943-0.016-1.297c-0.361-0.354-0.941-0.348-1.295,0.015l-1.486,1.521
		l-1.521-1.485c-0.359-0.354-0.941-0.347-1.296,0.015s-0.349,0.942,0.015,1.297l1.521,1.487l-1.486,1.521
		c-0.354,0.359-0.347,0.939,0.018,1.296c0.179,0.175,0.41,0.262,0.642,0.262c0.237,0,0.478-0.092,0.653-0.272l1.486-1.521
		l1.521,1.486c0.179,0.175,0.408,0.262,0.643,0.262c0.237,0,0.477-0.094,0.654-0.273c0.354-0.36,0.348-0.942-0.016-1.297
		L118.38,17.441z"/>
</g>
<g>
	<g>
		<path d="M57.25,5h-18.5C37.24,5,36,6.23,36,7.73v17.53c0,1.51,1.24,2.74,2.75,2.74h18.5c1.51,0,2.75-1.24,2.75-2.74V21v-2V7.73
			C60,6.23,58.76,5,57.25,5z M55,15h3v3h-3V15z M58,14h-3v-3h3V14z M58,7v3h-3V7H58z M53,7v9H43V7H53z M38,7h3v3h-3V7z M38,11h3v3
			h-3V11z M41,15v3h-3v-3H41z M38,19h3v3h-3V19z M38,26v-3h3v3H38z M43,26v-9h10v9H43z M58,26h-3v-3h3V26z M58,22h-3v-3h3V22z"/>
	</g>
	<rect x="43" y="7" opacity="0.25" enable-background="new    " width="10" height="9"/>
	<rect x="43" y="17" opacity="0.25" enable-background="new    " width="10" height="9"/>
</g>
<path d="M151.5,14.641h-0.833v-3.308c0-3.682-2.985-6.667-6.667-6.667s-6.667,2.985-6.667,6.667v3.308H136.5
	c-1.38,0-2.5,1.119-2.5,2.5V25.5c0,1.38,1.12,2.5,2.5,2.5h15c1.38,0,2.5-1.12,2.5-2.5v-8.359C154,15.76,152.88,14.641,151.5,14.641z
	 M140.667,11.333C140.667,9.493,142.16,8,144,8s3.333,1.493,3.333,3.333v3.308h-6.666V11.333L140.667,11.333z"/>
<g>
	<path d="M21.25,5h-7.1c-0.72,0-1.39,0.25-1.95,0.81L6.8,11.2C6.29,11.71,6,12.31,6,13.15v12.1C6,26.76,7.24,28,8.75,28h9.14
		c-0.98-0.5-1.86-1.18-2.59-2H8.92C8.41,26,8,25.59,8,25.08V14h4.25c1.51,0,2.75-1.24,2.75-2.75V7h6.08C21.59,7,22,7.41,22,7.92V11
		c0.69,0,1.36,0.08,2,0.22V7.75C24,6.24,22.76,5,21.25,5z M13,11.08c0,0.51-0.41,0.92-0.92,0.92H8.83L13,7.83V11.08z"/>
	<g>
		<g>
			<path d="M22,12c-4.42,0-8,3.58-8,8s3.58,8,8,8s8-3.58,8-8S26.42,12,22,12z M23.5,24.73c0,0.72-0.67,1.31-1.5,1.31
				s-1.5-0.59-1.5-1.31V20.35c0-0.72,0.67-1.31,1.5-1.31s1.5,0.59,1.5,1.31V24.73z M22,17c-0.83,0-1.5-0.67-1.5-1.5S21.17,14,22,14
				s1.5,0.67,1.5,1.5S22.83,17,22,17z"/>
		</g>
	</g>
</g>
</svg>
