<?xml version="1.0" encoding="utf-8"?>
<!DOCTYPE svg PUBLIC "-//W3C//DTD SVG 1.1//EN" "http://www.w3.org/Graphics/SVG/1.1/DTD/svg11.dtd">
<svg version="1.1" id="Layer_1" xmlns="http://www.w3.org/2000/svg" xmlns:xlink="http://www.w3.org/1999/xlink" x="0px" y="0px"
	 width="81.291px" height="36px" viewBox="0 0 81.291 36" enable-background="new 0 0 81.291 36" xml:space="preserve" fill="context-fill">
<path d="M64.976,2.97c-0.85-0.19-1.709-0.32-2.58-0.37c-0.08,0-0.16,0.06-0.16,0.15c0,0.08,0.062,0.16,0.143,0.16
	c0.852,0.05,1.699,0.17,2.528,0.36h0.03c0.08,0,0.149-0.05,0.16-0.13C65.115,3.06,65.056,2.98,64.976,2.97z M59.796,2.66
	c-1.08,0.12-2.141,0.34-3.181,0.68c-0.06,0.02-0.101,0.08-0.101,0.14c0,0.09,0.069,0.16,0.148,0.16c0.021,0,0.029,0,0.051-0.01
	c1.012-0.33,2.051-0.55,3.109-0.66c0.09-0.01,0.148-0.09,0.141-0.17C59.955,2.71,59.886,2.65,59.796,2.66z M66.836,3.52
	c-0.19-0.08-0.399-0.15-0.61-0.21c-0.021-0.01-0.029-0.01-0.05-0.01c-0.061,0-0.12,0.05-0.141,0.11
	c-0.029,0.08,0.021,0.17,0.101,0.19c0.2,0.06,0.399,0.13,0.6,0.2c0.021,0.01,0.041,0.01,0.062,0.01c0.061,0,0.108-0.04,0.141-0.09
	C66.955,3.64,66.915,3.55,66.836,3.52z M55.017,4.13c-0.041-0.08-0.131-0.11-0.211-0.08c-0.199,0.1-0.391,0.19-0.58,0.29h-0.01
	c-0.07,0.04-0.101,0.14-0.061,0.21c0.029,0.05,0.08,0.08,0.141,0.08c0.02,0,0.051,0,0.08-0.02l0.561-0.28
	C55.017,4.3,55.046,4.21,55.017,4.13z M71.347,6.07c-0.841-0.68-1.74-1.28-2.711-1.77c-0.021-0.01-0.05-0.02-0.07-0.02
	c-0.06,0-0.108,0.03-0.14,0.08c-0.04,0.08-0.011,0.17,0.069,0.21c0.939,0.48,1.83,1.07,2.65,1.73c0.028,0.03,0.068,0.04,0.1,0.04
	c0.051,0,0.102-0.02,0.12-0.06C71.426,6.22,71.415,6.12,71.347,6.07z M53.315,5.04c-0.051-0.08-0.142-0.1-0.222-0.05
	c-0.72,0.46-1.409,0.98-2.061,1.56c-0.069,0.06-0.069,0.16-0.011,0.22c0.021,0.03,0.07,0.05,0.109,0.05
	c0.04,0,0.069-0.02,0.109-0.04c0.631-0.57,1.301-1.08,2.021-1.53C53.347,5.2,53.365,5.11,53.315,5.04z M73.216,7.86
	c-0.061-0.06-0.16-0.07-0.221-0.02c0,0.01,0,0.01-0.01,0.01c-0.062,0.05-0.07,0.15-0.01,0.21c0.229,0.26,0.448,0.52,0.648,0.79
	h0.391C73.767,8.51,73.495,8.18,73.216,7.86z M72.365,28.71c-0.06-0.069-0.16-0.069-0.22,0c-0.61,0.58-1.271,1.12-1.961,1.601
	c-0.08,0.051-0.091,0.149-0.039,0.209c0.028,0.041,0.068,0.07,0.119,0.07c0.041,0,0.069-0.01,0.09-0.02
	c0.721-0.5,1.391-1.041,2.011-1.641C72.437,28.859,72.437,28.77,72.365,28.71z M69.315,31.04c-0.041-0.08-0.142-0.101-0.211-0.06
	c-0.181,0.107-0.369,0.209-0.561,0.31c-0.051,0.03-0.08,0.08-0.08,0.14c0,0.09,0.069,0.15,0.148,0.15c0.029,0,0.062-0.01,0.08-0.021
	c0.189-0.1,0.381-0.199,0.57-0.31C69.347,31.21,69.365,31.109,69.315,31.04z M54.995,31.58c-0.96-0.439-1.88-0.99-2.721-1.62
	c-0.069-0.05-0.159-0.04-0.219,0.021v0.012c-0.052,0.06-0.031,0.158,0.028,0.21c0.869,0.647,1.8,1.21,2.778,1.659
	c0.021,0.011,0.039,0.021,0.062,0.021c0.062,0,0.12-0.04,0.149-0.09C55.104,31.71,55.075,31.62,54.995,31.58z M57.386,32.46
	c-0.199-0.06-0.41-0.12-0.609-0.181c-0.021-0.01-0.029-0.01-0.051-0.01c-0.061,0-0.129,0.051-0.148,0.108
	c-0.021,0.08,0.029,0.16,0.109,0.188c0.199,0.07,0.41,0.132,0.619,0.189h0.041c0.068,0,0.129-0.05,0.148-0.109
	C57.517,32.561,57.466,32.48,57.386,32.46z M66.806,32.061c-1,0.369-2.039,0.631-3.09,0.779c-0.08,0.01-0.15,0.08-0.141,0.16
	c0,0.09,0.08,0.16,0.16,0.15c1.08-0.16,2.148-0.433,3.17-0.801c0.08-0.029,0.119-0.119,0.101-0.199
	C66.966,32.08,66.886,32.04,66.806,32.061z M61.165,33c-0.85-0.02-1.699-0.1-2.529-0.26c-0.01,0-0.021,0-0.021,0
	c-0.08,0-0.149,0.05-0.171,0.13c-0.01,0.08,0.041,0.159,0.131,0.18c0.851,0.16,1.721,0.24,2.59,0.261c0.091,0,0.16-0.068,0.16-0.148
	C61.325,33.07,61.256,33,61.165,33z"/>
<path d="M75.546,8.85h-0.761c-2.92-4.18-7.8-6.92-13.31-6.92c-4.972,0-9.44,2.24-12.42,5.76h-0.802c3.09-3.88,7.87-6.38,13.222-6.38
	C67.347,1.31,72.524,4.31,75.546,8.85z"/>
<path d="M74.396,27.79h0.771c-3.061,4.229-8.061,6.989-13.688,6.989c-5.371,0-10.16-2.51-13.25-6.409h0.799
	c2.971,3.54,7.451,5.8,12.451,5.8C66.745,34.17,71.437,31.67,74.396,27.79z"/>
<g transform="translate(165.794)">
	<defs>
		<filter id="Adobe_OpacityMaskFilter" filterUnits="userSpaceOnUse" x="-118.939" y="0.11" width="30.26" height="35.779">
			<feColorMatrix  type="matrix" values="1 0 0 0 0  0 1 0 0 0  0 0 1 0 0  0 0 0 1 0"/>
		</filter>
	</defs>
	<mask maskUnits="userSpaceOnUse" x="-118.939" y="0.11" width="30.26" height="35.779" id="b">
		<g filter="url(#Adobe_OpacityMaskFilter)">
			<path id="a" fill="#FFFFFF" d="M-122.342,0.115h36.215v35.77h-36.215V0.115L-122.342,0.115z"/>
		</g>
	</mask>
	<path mask="url(#b)" d="M-104.679,35.58c-0.3-0.01-0.601-0.03-0.899-0.051c-0.09,0-0.16,0.061-0.17,0.15
		c0,0.079,0.061,0.158,0.148,0.158c0.301,0.03,0.611,0.04,0.921,0.051c0.09,0,0.159-0.068,0.149-0.148
		C-104.527,35.65-104.589,35.58-104.679,35.58z M-98.719,34.721c-1.141,0.369-2.34,0.619-3.54,0.76
		c-0.08,0.012-0.149,0.08-0.14,0.17c0.01,0.07,0.08,0.132,0.148,0.132v0.01c1.229-0.142,2.438-0.392,3.619-0.771
		c0.08-0.028,0.131-0.119,0.102-0.199C-98.549,34.74-98.648,34.7-98.719,34.721z M-106.777,35.4l-0.301-0.041
		c-0.011,0-0.011,0-0.021,0c-0.067,0-0.139,0.051-0.158,0.131c-0.012,0.09,0.051,0.16,0.13,0.17l0.301,0.05h0.029
		c0.069,0,0.142-0.05,0.149-0.13C-106.629,35.49-106.69,35.42-106.777,35.4z M-109.719,34.721c-1.149-0.371-2.26-0.841-3.311-1.438
		c-0.021-0.013-0.039-0.013-0.062-0.013c-0.062,0-0.119,0.03-0.159,0.08c-0.04,0.07-0.011,0.17,0.061,0.211
		c1.069,0.602,2.211,1.102,3.371,1.472c0.02,0.01,0.039,0.01,0.049,0.01c0.07,0,0.141-0.05,0.16-0.13
		C-109.589,34.83-109.639,34.75-109.719,34.721z M-95.738,33.63c-0.039-0.08-0.141-0.101-0.209-0.069l-0.271,0.142
		c-0.08,0.04-0.101,0.13-0.069,0.21c0.029,0.05,0.08,0.08,0.141,0.08c0.029,0,0.051,0,0.069-0.012l0.279-0.148
		C-95.729,33.8-95.697,33.7-95.738,33.63z M-93.918,32.529c-0.061-0.069-0.15-0.09-0.221-0.049c-0.25,0.17-0.51,0.34-0.76,0.487
		c-0.07,0.052-0.102,0.142-0.052,0.212c0.03,0.051,0.08,0.078,0.132,0.078c0.028,0,0.06-0.01,0.09-0.027
		c0.25-0.15,0.521-0.312,0.771-0.49C-93.889,32.689-93.868,32.59-93.918,32.529z M-115.049,31.971
		c-0.239-0.181-0.479-0.371-0.699-0.561c-0.029-0.021-0.07-0.03-0.102-0.03c-0.049,0-0.101,0.021-0.129,0.05
		c-0.051,0.07-0.041,0.16,0.021,0.221c0.239,0.189,0.479,0.382,0.729,0.57c0.028,0.021,0.061,0.029,0.09,0.029
		c0.039,0,0.09-0.02,0.109-0.061C-114.969,32.12-114.979,32.029-115.049,31.971z M-89.618,28.3c-0.069-0.05-0.159-0.03-0.221,0.04
		c-0.71,0.96-1.521,1.86-2.409,2.66c-0.07,0.061-0.07,0.15-0.011,0.221c0.03,0.029,0.069,0.049,0.11,0.049
		c0.039,0,0.08-0.02,0.108-0.039c0.909-0.818,1.729-1.729,2.449-2.711C-89.527,28.45-89.549,28.35-89.618,28.3z M-116.639,30.609
		l-0.221-0.209c-0.029-0.041-0.069-0.051-0.109-0.051s-0.08,0.01-0.109,0.051c-0.061,0.06-0.061,0.158,0,0.22l0.221,0.21
		c0.029,0.029,0.069,0.04,0.109,0.04s0.08-0.011,0.109-0.04C-116.578,30.77-116.578,30.67-116.639,30.609z M-89.618,7.44
		c-0.03-0.04-0.079-0.06-0.13-0.06c-0.029,0-0.061,0.01-0.091,0.03c-0.069,0.05-0.09,0.14-0.029,0.21
		c0.29,0.4,0.569,0.81,0.819,1.23h0.37C-88.969,8.37-89.288,7.9-89.618,7.44z M-116.229,4.81c-0.062-0.06-0.16-0.07-0.222-0.01
		c-0.909,0.82-1.729,1.73-2.459,2.71v0.01c-0.041,0.05-0.041,0.12,0.011,0.17c0,0.02,0.02,0.03,0.028,0.04
		c0.029,0.02,0.062,0.03,0.091,0.03c0.051,0,0.101-0.03,0.131-0.07c0.709-0.96,1.51-1.86,2.398-2.66
		C-116.179,4.97-116.168,4.87-116.229,4.81z M-91.408,5.37l-0.221-0.22c-0.068-0.05-0.159-0.05-0.229,0.01
		c-0.052,0.06-0.052,0.15,0.01,0.21l0.22,0.21c0.021,0.03,0.062,0.05,0.101,0.05c0.051,0,0.08-0.02,0.121-0.05
		C-91.35,5.52-91.35,5.43-91.408,5.37z M-92.549,4.34c-0.229-0.2-0.471-0.39-0.721-0.57c-0.029-0.02-0.061-0.03-0.09-0.03
		c-0.051,0-0.091,0.021-0.119,0.06c-0.062,0.06-0.041,0.16,0.021,0.21c0.239,0.18,0.479,0.37,0.71,0.57
		c0.029,0.02,0.061,0.03,0.1,0.03c0.052,0,0.09-0.02,0.121-0.05C-92.469,4.49-92.479,4.39-92.549,4.34z M-113.549,2.83
		c-0.04-0.07-0.141-0.09-0.21-0.05c-0.261,0.16-0.521,0.33-0.771,0.51c-0.07,0.04-0.091,0.14-0.039,0.21
		c0.028,0.04,0.068,0.07,0.129,0.07V3.56c0.021,0,0.061-0.01,0.08-0.02c0.25-0.18,0.51-0.34,0.76-0.49
		C-113.527,3-113.498,2.91-113.549,2.83z M-95.318,2.43c-1.069-0.6-2.199-1.09-3.369-1.46c-0.08-0.03-0.17,0.01-0.2,0.09v0.01
		c-0.021,0.08,0.03,0.16,0.11,0.19c1.148,0.37,2.25,0.85,3.311,1.44c0.021,0.01,0.04,0.02,0.068,0.02h0.011
		c0.062,0,0.12-0.03,0.142-0.09C-95.208,2.56-95.238,2.46-95.318,2.43z M-112.208,2.11c-0.051-0.08-0.142-0.11-0.221-0.07
		l-0.271,0.14c-0.079,0.04-0.101,0.14-0.061,0.21c0.028,0.05,0.079,0.08,0.141,0.08c0.021,0,0.04-0.01,0.069-0.02l0.271-0.14
		C-112.208,2.28-112.179,2.19-112.208,2.11z M-106.27,0.23c-1.219,0.13-2.438,0.39-3.601,0.77c-0.062,0.02-0.101,0.08-0.101,0.14
		c0,0.09,0.062,0.16,0.148,0.16c0.01,0,0.03-0.01,0.051-0.01c1.141-0.37,2.33-0.62,3.529-0.76c0.09-0.01,0.149-0.08,0.149-0.17
		C-106.107,0.28-106.19,0.22-106.27,0.23z M-101.368,0.33l-0.311-0.04c-0.011,0-0.011,0-0.021,0c-0.069,0-0.141,0.05-0.159,0.13
		c0,0.08,0.061,0.16,0.141,0.17l0.301,0.05h0.02c0.07,0,0.131-0.06,0.15-0.13C-101.229,0.43-101.288,0.35-101.368,0.33z
		 M-102.898,0.16c-0.31-0.02-0.608-0.04-0.92-0.05c-0.1,0-0.16,0.07-0.16,0.16c0,0.08,0.07,0.15,0.15,0.15
		c0.301,0.01,0.6,0.02,0.91,0.05h0.01c0.08,0,0.141-0.07,0.16-0.15C-102.748,0.24-102.809,0.16-102.898,0.16z"/>
</g>
<path d="M25.905,2.97c-0.85-0.19-1.71-0.32-2.58-0.37c-0.08,0-0.16,0.06-0.16,0.15c-0.01,0.08,0.06,0.16,0.14,0.16
	c0.85,0.05,1.7,0.17,2.53,0.36h0.03c0.08,0,0.15-0.05,0.16-0.12C26.045,3.06,25.985,2.98,25.905,2.97z M20.726,2.66
	c-1.08,0.12-2.15,0.34-3.18,0.68c-0.06,0.02-0.1,0.08-0.1,0.14c0,0.09,0.07,0.16,0.15,0.16c0.02,0,0.03,0,0.05-0.01
	c1.01-0.33,2.05-0.55,3.11-0.66c0.09-0.01,0.15-0.09,0.14-0.17C20.886,2.72,20.806,2.65,20.726,2.66z M27.775,3.52
	c-0.2-0.08-0.41-0.15-0.62-0.21c-0.08-0.03-0.17,0.02-0.19,0.1c-0.03,0.08,0.01,0.16,0.09,0.19c0.21,0.06,0.41,0.13,0.61,0.2
	c0.02,0.01,0.04,0.01,0.06,0.01c0.06,0,0.12-0.04,0.14-0.1C27.896,3.63,27.855,3.54,27.775,3.52z M15.936,4.13
	c-0.04-0.08-0.13-0.11-0.21-0.08c-0.19,0.1-0.39,0.19-0.58,0.29c-0.08,0.04-0.11,0.14-0.06,0.21c0.03,0.05,0.08,0.08,0.13,0.08
	c0.03,0,0.06-0.01,0.08-0.02c0.19-0.09,0.38-0.19,0.57-0.28C15.945,4.3,15.976,4.2,15.936,4.13z M32.275,6.07
	c-0.84-0.69-1.75-1.28-2.71-1.77c-0.08-0.04-0.17-0.01-0.21,0.06c-0.04,0.08-0.01,0.17,0.06,0.21c0.95,0.48,1.84,1.06,2.66,1.73
	c0.03,0.03,0.06,0.04,0.1,0.04c0.05,0,0.09-0.02,0.12-0.06C32.355,6.22,32.335,6.12,32.275,6.07z M14.235,5.04
	c-0.04-0.08-0.14-0.1-0.21-0.05c-0.73,0.46-1.43,0.98-2.07,1.56c-0.04,0.03-0.05,0.06-0.05,0.1h0.41c0.59-0.52,1.22-0.99,1.88-1.4
	C14.266,5.2,14.286,5.11,14.235,5.04z M33.295,28.71c-0.06-0.06-0.16-0.069-0.22,0c-0.61,0.58-1.27,1.12-1.96,1.601
	c-0.01,0-0.01,0-0.01,0c-0.07,0.051-0.08,0.149-0.03,0.222c0.02,0.038,0.07,0.06,0.12,0.06h0.01c0.02,0,0.06,0,0.08-0.021
	c0.72-0.488,1.39-1.038,2.01-1.641C33.355,28.87,33.355,28.77,33.295,28.71z M30.246,31.04c-0.04-0.069-0.14-0.09-0.21-0.05
	c-0.18,0.1-0.37,0.199-0.56,0.3c-0.08,0.04-0.11,0.14-0.06,0.21c0.02,0.05,0.08,0.08,0.13,0.08c0.03,0,0.05,0,0.07-0.021
	c0.2-0.09,0.39-0.199,0.58-0.3C30.266,31.21,30.286,31.12,30.246,31.04z M15.925,31.58c-0.96-0.439-1.88-0.99-2.73-1.62
	c-0.07-0.05-0.16-0.04-0.22,0.021v0.012c-0.05,0.06-0.04,0.158,0.03,0.21c0.87,0.647,1.8,1.21,2.78,1.659
	c0.03,0.011,0.05,0.021,0.07,0.021c0.06,0,0.11-0.04,0.14-0.09C16.036,31.71,16.005,31.62,15.925,31.58z M18.315,32.46
	c-0.21-0.06-0.41-0.12-0.61-0.181c-0.02-0.01-0.04-0.01-0.05-0.01c-0.07,0-0.13,0.051-0.15,0.108c-0.02,0.08,0.02,0.16,0.1,0.188
	c0.21,0.07,0.42,0.132,0.62,0.189h0.05c0.07,0,0.13-0.05,0.14-0.109C18.445,32.561,18.396,32.48,18.315,32.46z M27.726,32.061
	c-0.99,0.359-2.03,0.631-3.08,0.779c-0.01,0-0.01,0-0.01,0c-0.08,0.021-0.14,0.09-0.13,0.18c0.01,0.07,0.08,0.131,0.16,0.131
	c1.08-0.158,2.14-0.43,3.17-0.801c0.08-0.029,0.12-0.119,0.09-0.199C27.896,32.07,27.806,32.029,27.726,32.061z M22.096,33
	c-0.85-0.02-1.71-0.1-2.54-0.26c-0.08-0.01-0.16,0.039-0.18,0.13c-0.02,0.08,0.04,0.159,0.12,0.18c0.85,0.16,1.72,0.24,2.59,0.261
	h0.01c0.06-0.011,0.11-0.061,0.12-0.119C22.235,33.1,22.175,33.02,22.096,33z"/>
<g>
	<path d="M22.405,1.93c4.98,0,9.44,2.24,12.42,5.76h0.8c-3.09-3.88-7.87-6.38-13.22-6.38c-4.86,0-9.25,2.06-12.33,5.34h0.87
		C13.886,3.74,17.925,1.93,22.405,1.93z"/>
	<path d="M22.405,34.17c-4.38,0-8.35-1.729-11.27-4.54h-0.87c3.06,3.17,7.37,5.149,12.14,5.149c5.37,0,10.16-2.51,13.25-6.409h-0.8
		C31.886,31.91,27.405,34.17,22.405,34.17z"/>
</g>
<g>
	<path d="M76.966,20.221c-0.029-0.029-0.061-0.061-0.09-0.07c-0.091-0.09-0.189-0.158-0.29-0.198c-0.261-0.16-0.54-0.24-0.851-0.24
		c-0.28,0-0.57,0.08-0.82,0.21c-0.01,0.012-0.02,0.021-0.02,0.04c0,0.011,0,0.021,0.01,0.03l1.181,1.18
		c0.011,0.012,0.029,0.021,0.04,0.012c0.02,0,0.029-0.012,0.029-0.029l0.189-0.641c0.061,0.038,0.131,0.1,0.18,0.148
		c0.439,0.438,0.439,1.14,0,1.58c-0.01,0.021-0.01,0.05,0,0.06l0.381,0.382c0.01,0.01,0.021,0.01,0.029,0.01
		c0.01,0,0.021,0,0.029-0.01c0.029-0.029,0.069-0.07,0.092-0.109c0.379-0.432,0.5-1,0.368-1.521c0-0.01,0-0.01,0-0.01
		C77.354,20.74,77.194,20.45,76.966,20.221z"/>
	<path d="M77.194,16.95l-0.061-0.16l-0.25-0.05h-0.01l-0.16-0.02v-0.01l-0.58-0.1l-0.398-0.79c-0.051-0.1-0.149-0.16-0.26-0.16
		l-0.19,0.01l-0.47,0.94l-0.852,0.15c-0.109,0.02-0.189,0.09-0.229,0.19l-0.051,0.17l0.721,0.76l-0.12,0.899
		c-0.021,0.109,0.021,0.221,0.11,0.279l0.16,0.092l0.897-0.471l0.771,0.398c0.101,0.05,0.209,0.04,0.299-0.021l0.15-0.108
		l-0.15-1.06l0.61-0.65C77.205,17.16,77.226,17.05,77.194,16.95z"/>
	<path d="M76.146,22.48l-0.049-0.051l-0.701-0.699c-0.02-0.013-0.028-0.021-0.049-0.013c-0.011,0-0.021,0.013-0.031,0.03
		l-0.18,0.641c-0.07-0.039-0.13-0.091-0.189-0.148c-0.43-0.44-0.43-1.141,0-1.58c0.021-0.021,0.021-0.04,0-0.061l-0.369-0.382
		c-0.021-0.01-0.051-0.01-0.061,0c-0.681,0.683-0.681,1.78,0,2.462c0.319,0.318,0.76,0.51,1.219,0.51c0.291,0,0.57-0.069,0.82-0.209
		c0.021-0.013,0.021-0.021,0.03-0.03c0-0.021-0.011-0.03-0.021-0.04L76.146,22.48z"/>
	<path d="M76.495,11.96c-0.239-0.19-0.529-0.3-0.84-0.33c-0.062-0.02-0.131-0.02-0.2-0.02c-0.05,0-0.101,0-0.14,0.02
		c-0.91,0.06-1.621,0.81-1.621,1.73c0.011,0.97,0.801,1.75,1.761,1.74c0.341,0,0.66-0.1,0.931-0.28c0.1-0.04,0.189-0.11,0.271-0.2
		c0.229-0.2,0.409-0.48,0.479-0.79c0.062-0.15,0.08-0.31,0.08-0.47C77.216,12.78,76.937,12.27,76.495,11.96z M76.646,13.63
		c-0.01,0.05-0.02,0.09-0.039,0.14c-0.021,0.07-0.061,0.14-0.101,0.2v0.01c-0.04,0.07-0.091,0.13-0.141,0.19
		c-0.029,0.03-0.069,0.07-0.109,0.1s-0.08,0.06-0.12,0.09c-0.039,0.03-0.08,0.06-0.13,0.08c0,0-0.011,0-0.011,0.01
		c-0.04,0.01-0.061,0.03-0.1,0.04c-0.07,0.03-0.142,0.05-0.222,0.06c-0.069,0.01-0.149,0.02-0.221,0.02
		c-0.67,0-1.222-0.54-1.222-1.21s0.552-1.22,1.222-1.21c0.681,0,1.221,0.54,1.221,1.21C76.676,13.45,76.665,13.54,76.646,13.63z"/>
	<path d="M75.33,13.633h0.815l0.002,0.005c0.082,0,0.146-0.068,0.146-0.148c0-0.08-0.067-0.146-0.146-0.146h-0.672v-0.665
		c0-0.081-0.063-0.147-0.146-0.147s-0.146,0.066-0.146,0.147v0.808C75.185,13.567,75.251,13.632,75.33,13.633z"/>
</g>
<g>
	<path fill="none" d="M42.126,8.64c-0.171,0-0.32,0.15-0.32,0.32c0,0.18,0.149,0.33,0.32,0.33c0.18,0,0.329-0.15,0.329-0.33
		C42.455,8.79,42.306,8.64,42.126,8.64z M46.896,7.69c0,0.02,0.021,0.03,0.03,0.04c0.029,0.02,0.06,0.03,0.091,0.03
		c0.049,0,0.101-0.03,0.129-0.07H46.896z"/>
	<polygon fill="#2C3046" points="57.915,26.859 57.915,27.74 26.375,27.74 26.375,26.859 30.326,25.87 53.966,25.87 	"/>
	<polygon fill="#424864" points="57.915,26.859 26.375,26.859 30.326,25.87 53.966,25.87 	"/>
</g>
<g>
	<path fill="none" d="M8.235,26.77c-0.06,0-0.13,0.013-0.19,0.021c-0.34,0.08-0.61,0.359-0.67,0.7c-0.02,0.05-0.02,0.108-0.02,0.159
		c0,0.41,0.27,0.74,0.64,0.841c0.08,0.028,0.16,0.04,0.24,0.04c0.31,0,0.57-0.15,0.73-0.391c0,0,0,0,0-0.012
		c0.1-0.13,0.15-0.3,0.15-0.479C9.116,27.17,8.726,26.77,8.235,26.77z"/>
	<path fill="#373C56" d="M14.536,7.26H1.766c-0.63,0-1.14,0.51-1.14,1.13v19.5c0,0.629,0.51,1.129,1.14,1.129h12.77
		c0.62,0,1.13-0.5,1.14-1.129V8.39C15.675,7.77,15.166,7.26,14.536,7.26z M8.965,28.13c0,0.011,0,0.011,0,0.011
		c-0.16,0.239-0.42,0.392-0.73,0.392c-0.08,0-0.16-0.013-0.24-0.04c-0.37-0.102-0.64-0.432-0.64-0.842c0-0.051,0-0.108,0.02-0.158
		c0.06-0.342,0.33-0.62,0.67-0.7c0.06-0.01,0.13-0.021,0.19-0.021c0.49,0,0.88,0.399,0.88,0.881C9.116,27.83,9.065,28,8.965,28.13z
		 M15.045,26.32H1.255V8.49h13.79V26.32z"/>
</g>
<g>
	<path fill="none" d="M8.786,11.15c-0.09-0.05-0.19-0.1-0.29-0.13c-0.14-0.05-0.29-0.08-0.44-0.08c-0.08,0-0.16,0-0.23,0.02
		c-0.62,0.1-1.1,0.64-1.1,1.3c0,0.29,0.09,0.55,0.26,0.77c0.13,0.19,0.31,0.34,0.52,0.43c0.1,0.05,0.2,0.08,0.3,0.09
		c0.08,0.02,0.17,0.03,0.25,0.03c0.73,0,1.33-0.59,1.33-1.33C9.386,11.8,9.146,11.39,8.786,11.15z M8.916,12.71h-0.98
		c-0.09,0-0.16-0.07-0.16-0.15v-0.97c0-0.09,0.07-0.16,0.16-0.16s0.16,0.07,0.16,0.16v0.81h0.82c0.09,0,0.15,0.07,0.15,0.16
		C9.076,12.64,9.005,12.71,8.916,12.71z"/>
	<polygon fill="none" points="8.076,16.43 7.755,17.07 7.175,17.17 7.045,17.19 7.166,17.32 7.545,17.73 7.445,18.46 8.076,18.13 
		8.695,18.46 8.596,17.73 9.105,17.19 8.396,17.07 	"/>
</g>
<path d="M7.616,23.02c-0.01-0.01-0.03-0.02-0.04-0.01c-0.01,0-0.03,0.021-0.03,0.03l-0.18,0.64c-0.07-0.039-0.14-0.09-0.19-0.147
	c-0.02-0.021-0.04-0.04-0.05-0.062c-0.21-0.229-0.3-0.521-0.27-0.811c0.01-0.25,0.12-0.51,0.32-0.71c0.02-0.021,0.02-0.04,0-0.062
	l-0.38-0.381c-0.01-0.01-0.04-0.01-0.06,0c-0.05,0.051-0.1,0.11-0.14,0.172c-0.24,0.301-0.36,0.67-0.37,1.028
	c-0.01,0.37,0.1,0.74,0.34,1.05c0.04,0.07,0.1,0.143,0.17,0.21c0.21,0.212,0.47,0.36,0.76,0.433c0.15,0.06,0.31,0.08,0.47,0.08
	c0.29,0,0.57-0.08,0.82-0.211c0.01-0.012,0.02-0.021,0.02-0.029c0.01-0.021,0-0.03-0.01-0.04L7.616,23.02z"/>
<path d="M9.076,10.62c-0.09-0.06-0.18-0.11-0.28-0.15c-0.2-0.08-0.41-0.13-0.63-0.14c-0.04-0.01-0.07-0.01-0.11-0.01
	c-0.23,0-0.45,0.04-0.65,0.12c-0.76,0.26-1.3,0.98-1.3,1.81c0,0.3,0.07,0.59,0.21,0.85c0.11,0.23,0.27,0.44,0.46,0.6
	c0.34,0.3,0.79,0.49,1.28,0.49c1.07,0,1.94-0.87,1.94-1.93C9.996,11.57,9.625,10.96,9.076,10.62z M8.056,13.58
	c-0.08,0-0.17-0.01-0.25-0.03c-0.1-0.01-0.2-0.04-0.3-0.09c-0.21-0.09-0.39-0.24-0.52-0.43c-0.17-0.22-0.26-0.48-0.26-0.77
	c0-0.66,0.48-1.2,1.1-1.3c0.07-0.02,0.15-0.02,0.23-0.02c0.15,0,0.3,0.03,0.44,0.08c0.1,0.03,0.2,0.08,0.29,0.13
	c0.36,0.24,0.6,0.65,0.6,1.1C9.386,12.99,8.786,13.58,8.056,13.58z"/>
<path d="M9.985,16.9l-0.08-0.19l-1.1-0.19l-0.44-0.86c-0.05-0.12-0.17-0.19-0.29-0.19l-0.21,0.02l-0.52,1.03l-0.12,0.02l-0.32,0.06
	l-0.49,0.08c-0.07,0.02-0.14,0.06-0.19,0.11c-0.03,0.03-0.05,0.07-0.06,0.11l-0.06,0.2l0.09,0.1l0.7,0.73l-0.13,0.98
	c-0.03,0.13,0.03,0.25,0.13,0.32l0.18,0.1l1-0.51l0.83,0.43c0.11,0.05,0.24,0.04,0.34-0.02l0.17-0.131l-0.17-1.169l0.66-0.7
	C9.996,17.14,10.016,17.02,9.985,16.9z"/>
<path d="M7.965,21c-0.17,0-0.33,0.029-0.48,0.08c-0.1,0.02-0.2,0.061-0.29,0.109c-0.02,0-0.03,0.011-0.05,0.021
	c-0.01,0.011-0.02,0.021-0.02,0.03c-0.01,0.02,0,0.029,0.01,0.039l0.1,0.101l0.43,0.431l0.65,0.649
	c0.01,0.011,0.02,0.021,0.04,0.011c0.01,0,0.03-0.011,0.03-0.029l0.18-0.642c0.07,0.04,0.13,0.091,0.19,0.15
	c0.43,0.438,0.44,1.149,0,1.579c-0.02,0.021-0.02,0.051,0,0.061l0.37,0.381c0.01,0.01,0.02,0.01,0.03,0.01c0.02,0,0.03,0,0.04-0.01
	c0.67-0.681,0.67-1.779,0-2.461C8.866,21.189,8.425,21,7.965,21z"/>
<path d="M7.936,12.71h0.98c0.09,0,0.16-0.07,0.15-0.15c0-0.09-0.06-0.16-0.15-0.16h-0.82v-0.81c0-0.09-0.07-0.16-0.16-0.16
	s-0.16,0.07-0.16,0.16v0.97C7.775,12.64,7.846,12.71,7.936,12.71z"/>
<path d="M44.056,16.51l-0.07-0.19l-0.139-0.02l-0.301-0.06l-0.67-0.11l-0.439-0.87c-0.061-0.11-0.17-0.18-0.291-0.18l-0.22,0.01
	l-0.521,1.04l-0.92,0.16c-0.12,0.02-0.22,0.1-0.26,0.22l-0.05,0.19l0.79,0.84l-0.13,0.979c-0.02,0.119,0.03,0.238,0.14,0.311
	l0.17,0.109l1-0.521l0.84,0.439c0.101,0.051,0.229,0.039,0.34-0.029l0.16-0.12l-0.16-1.17l0.13-0.14l0.341-0.35l0.189-0.21
	C44.065,16.75,44.097,16.62,44.056,16.51z"/>
<path d="M38.476,15.83c-0.2-0.26-0.46-0.46-0.76-0.6c-0.11-0.04-0.22-0.08-0.34-0.1c-0.14-0.03-0.28-0.05-0.43-0.05
	c-1.07,0-1.94,0.87-1.94,1.93c0,1.07,0.87,1.94,1.94,1.932c0.24,0,0.46-0.041,0.67-0.121c0.11-0.039,0.23-0.09,0.33-0.159
	c0.29-0.17,0.53-0.41,0.69-0.71c0.16-0.28,0.25-0.6,0.25-0.94C38.886,16.57,38.735,16.15,38.476,15.83z M37.945,17.87
	c-0.08,0.1-0.18,0.19-0.3,0.26c-0.2,0.13-0.44,0.2-0.7,0.2c-0.73,0-1.33-0.59-1.33-1.32c0-0.73,0.6-1.32,1.33-1.32
	c0.19,0,0.38,0.04,0.55,0.12c0.12,0.05,0.24,0.13,0.34,0.23c0.27,0.23,0.44,0.58,0.44,0.97C38.275,17.34,38.155,17.64,37.945,17.87z
	"/>
<g>
	<path d="M37.965,17.13c0,0.09-0.07,0.16-0.16,0.16h-0.98c-0.09,0-0.16-0.07-0.16-0.16v-0.97c0-0.08,0.07-0.16,0.16-0.16
		c0.09,0,0.16,0.08,0.16,0.16v0.81h0.81C37.886,16.97,37.956,17.04,37.965,17.13z"/>
</g>
<g>
	<path d="M48.636,18.28c-0.01,0-0.021,0.01-0.029,0.01c-0.01,0-0.021-0.01-0.029-0.01l-0.381-0.38c-0.01-0.02-0.01-0.04,0-0.06
		c0.439-0.44,0.439-1.15,0-1.58c-0.051-0.06-0.119-0.11-0.18-0.15l-0.189,0.64c0,0.01-0.012,0.03-0.029,0.03
		c-0.011,0.01-0.029,0-0.04-0.01l-1.181-1.18c-0.012-0.01-0.012-0.02-0.012-0.04c0-0.01,0.012-0.02,0.021-0.03
		c0.25-0.14,0.54-0.21,0.818-0.21c0.472,0,0.9,0.18,1.229,0.51C49.315,16.5,49.315,17.6,48.636,18.28z"/>
	<path d="M48.256,18.54c-0.011,0.021-0.011,0.03-0.03,0.04c-0.25,0.13-0.529,0.199-0.819,0.199c-0.46,0-0.898-0.18-1.22-0.5
		c-0.621-0.62-0.67-1.59-0.149-2.27V16c0.04-0.06,0.091-0.12,0.149-0.18c0.01-0.02,0.039-0.02,0.061,0l0.109,0.11v0.01l0.261,0.26
		c0.021,0.01,0.021,0.04,0,0.06c-0.431,0.43-0.431,1.14,0,1.58c0.062,0.05,0.118,0.1,0.188,0.15l0.18-0.64
		c0.012-0.02,0.021-0.03,0.031-0.03c0.021-0.01,0.029,0,0.049,0.01l1.17,1.18C48.245,18.52,48.256,18.529,48.256,18.54z"/>
</g>
<g>
	<path d="M9.735,30.4c-0.03-0.041-0.07-0.051-0.11-0.051s-0.08,0.01-0.11,0.051c-0.06,0.06-0.06,0.158,0,0.22l0.22,0.21
		c0.03,0.029,0.07,0.04,0.11,0.04c0.04,0,0.08-0.011,0.11-0.04c0.06-0.061,0.06-0.16,0-0.221L9.735,30.4z"/>
	<path d="M11.556,31.971c-0.24-0.181-0.48-0.371-0.71-0.561c-0.03-0.021-0.07-0.03-0.1-0.03c-0.05,0-0.09,0.021-0.12,0.05
		c-0.06,0.07-0.05,0.16,0.02,0.221c0.23,0.189,0.47,0.382,0.72,0.57c0.02,0.021,0.06,0.029,0.09,0.029
		c0.03,0.02,0.07,0.04,0.11,0.029c0.08-0.01,0.15-0.069,0.15-0.159C11.715,32.04,11.636,31.971,11.556,31.971z"/>
	<path d="M13.976,2.47c0.02,0,0.05-0.01,0.07-0.02l0.27-0.14c0.07-0.03,0.1-0.12,0.07-0.2c-0.04-0.08-0.14-0.11-0.22-0.07
		l-0.27,0.14c-0.08,0.04-0.1,0.14-0.06,0.21C13.866,2.44,13.916,2.47,13.976,2.47z"/>
	<path d="M10.146,4.8c-0.64,0.57-1.23,1.19-1.77,1.85h0.41c0.48-0.57,1.01-1.12,1.57-1.62c0.06-0.06,0.07-0.16,0.01-0.22
		C10.306,4.75,10.206,4.74,10.146,4.8z"/>
	<path d="M24.875,0.59l0.3,0.05h0.02c0.07,0,0.13-0.06,0.15-0.13c0.01-0.08-0.04-0.16-0.12-0.18l-0.31-0.04h-0.03
		c-0.07,0-0.13,0.05-0.14,0.13C24.735,0.5,24.795,0.58,24.875,0.59z"/>
	<path d="M33.846,4.58c0.03,0.02,0.07,0.03,0.1,0.03c0.05,0,0.09-0.02,0.12-0.05c0.06-0.07,0.05-0.17-0.02-0.22
		c-0.23-0.2-0.47-0.39-0.72-0.57c-0.02-0.02-0.06-0.03-0.09-0.03c-0.04,0-0.09,0.021-0.12,0.06c-0.06,0.06-0.04,0.16,0.02,0.21
		C33.375,4.19,33.616,4.38,33.846,4.58z"/>
	<path d="M34.956,5.58c0.03,0.03,0.07,0.05,0.11,0.05s0.08-0.02,0.12-0.05c0.06-0.06,0.06-0.15,0-0.21l-0.23-0.22
		c-0.06-0.05-0.15-0.05-0.22,0.01c-0.05,0.06-0.05,0.15,0.01,0.21L34.956,5.58z"/>
	<path d="M27.815,1.26c1.15,0.36,2.26,0.85,3.31,1.44c0.02,0.01,0.05,0.02,0.08,0.02c0.05,0,0.11-0.03,0.13-0.08
		c0.04-0.08,0.02-0.17-0.06-0.21c-1.07-0.6-2.2-1.09-3.37-1.47c-0.01,0-0.03-0.01-0.04-0.01c-0.07,0-0.13,0.05-0.15,0.12
		C27.686,1.15,27.735,1.23,27.815,1.26z"/>
	<path d="M12.835,2.78c-0.26,0.16-0.52,0.33-0.77,0.51c-0.07,0.04-0.09,0.14-0.04,0.21c0.03,0.04,0.07,0.07,0.13,0.07V3.56
		c0.03,0,0.06-0.01,0.09-0.02c0.24-0.18,0.5-0.34,0.75-0.49c0.08-0.05,0.1-0.14,0.05-0.22C13.005,2.76,12.905,2.74,12.835,2.78z"/>
	<path d="M27.866,34.721c-1.14,0.369-2.33,0.619-3.53,0.76c-0.09,0-0.15,0.069-0.15,0.16c0.01,0.08,0.08,0.149,0.16,0.142v0.01
		c1.23-0.142,2.44-0.392,3.62-0.771c0.08-0.028,0.12-0.119,0.1-0.199C28.036,34.74,27.945,34.7,27.866,34.721z"/>
	<path d="M23.695,0.16c-0.31-0.02-0.62-0.04-0.92-0.05c-0.1,0-0.16,0.07-0.16,0.16c0,0.08,0.07,0.15,0.15,0.15
		c0.3,0.01,0.61,0.02,0.91,0.05h0.01c0.08,0,0.15-0.07,0.16-0.15C23.846,0.24,23.786,0.16,23.695,0.16z"/>
	<path d="M30.646,33.561c-0.09,0.051-0.18,0.102-0.27,0.142c-0.08,0.04-0.11,0.13-0.07,0.21c0.03,0.05,0.08,0.08,0.14,0.08
		c0.03,0,0.05,0,0.07-0.012l0.27-0.148c0.08-0.03,0.11-0.13,0.07-0.2C30.815,33.55,30.715,33.529,30.646,33.561z"/>
	<path d="M16.875,34.73c-1.15-0.371-2.26-0.853-3.31-1.44c-0.02-0.011-0.05-0.021-0.07-0.021c-0.06,0-0.12,0.028-0.15,0.08
		c-0.04,0.068-0.01,0.17,0.06,0.209c1.08,0.602,2.2,1.092,3.37,1.471c0.02,0.011,0.04,0.011,0.05,0.011
		c0.07-0.011,0.12-0.05,0.14-0.12C16.996,34.84,16.956,34.75,16.875,34.73z"/>
	<path d="M34.346,31c-0.07,0.061-0.07,0.15-0.01,0.221c0.03,0.029,0.07,0.049,0.11,0.049c0.04,0,0.08-0.02,0.11-0.039
		c0.9-0.818,1.73-1.729,2.45-2.711c0.03-0.049,0.04-0.107,0.02-0.147h-0.29C36.025,29.32,35.226,30.21,34.346,31z"/>
	<path d="M32.445,32.48c-0.24,0.17-0.5,0.34-0.75,0.487c-0.07,0.052-0.1,0.142-0.05,0.212c0.03,0.051,0.08,0.078,0.13,0.078
		c0.03,0,0.05-0.01,0.08-0.027c0.26-0.15,0.52-0.312,0.77-0.49c0.07-0.051,0.09-0.15,0.04-0.211
		C32.616,32.46,32.516,32.439,32.445,32.48z"/>
	<path d="M19.815,35.4l-0.3-0.041c-0.01,0-0.02,0-0.02,0c-0.08,0-0.15,0.051-0.16,0.131c-0.01,0.09,0.05,0.16,0.13,0.17l0.3,0.05
		h0.03c0.07,0,0.14-0.05,0.15-0.13C19.956,35.49,19.896,35.42,19.815,35.4z"/>
	<path d="M21.916,35.58c-0.3-0.01-0.6-0.03-0.9-0.051c-0.09,0-0.16,0.061-0.17,0.15c0,0.079,0.06,0.158,0.15,0.158
		c0.3,0.03,0.61,0.04,0.92,0.051c0.08,0,0.15-0.068,0.16-0.148C22.076,35.65,22.005,35.58,21.916,35.58z"/>
	<path d="M20.326,0.23c-1.22,0.13-2.43,0.39-3.6,0.77c-0.06,0.02-0.1,0.08-0.1,0.14c0,0.09,0.06,0.16,0.15,0.16
		c0.01,0,0.03-0.01,0.05-0.01c1.14-0.37,2.33-0.62,3.53-0.76c0.09-0.01,0.15-0.08,0.14-0.17C20.485,0.28,20.405,0.22,20.326,0.23z"
		/>
	<path fill="#373C56" d="M52.847,8.31H31.446c-0.62,0-1.12,0.5-1.12,1.11v16.45h23.64V9.42C53.966,8.81,53.466,8.31,52.847,8.31z
		 M42.126,8.64c0.18,0,0.329,0.15,0.329,0.32c0,0.18-0.149,0.33-0.329,0.33c-0.171,0-0.32-0.15-0.32-0.33
		C41.806,8.79,41.955,8.64,42.126,8.64z M53.466,24.88h-22.64V9.7h22.64V24.88z"/>
</g>
<path fill="#373C56" d="M79.604,9.47h-2.489h-1.181h-4.25c-0.591,0-1.069,0.48-1.069,1.07V26.1c0,0,0,0,0,0.012
	c0.011,0.58,0.479,1.061,1.069,1.061h7.92c0.59,0,1.069-0.479,1.069-1.061V10.54C80.676,9.95,80.194,9.47,79.604,9.47z
	 M75.944,26.609c-0.061,0.021-0.139,0.029-0.209,0.029c-0.17,0-0.32-0.051-0.45-0.141c-0.22-0.141-0.359-0.391-0.359-0.67
	c0-0.07,0.011-0.148,0.029-0.21c0-0.011,0-0.021,0.011-0.03c0.069-0.102,0.131-0.21,0.189-0.318c-0.01-0.012,0-0.012,0.01-0.021
	c0.141-0.148,0.341-0.24,0.57-0.24c0.119,0,0.24,0.03,0.34,0.07c0.21,0.102,0.369,0.279,0.439,0.5
	c0.029,0.08,0.041,0.158,0.041,0.25C76.556,26.21,76.296,26.52,75.944,26.609z M80.126,24.49h-3.779h-0.791h-4.391V10.51h5.352h1.14
	h2.472L80.126,24.49L80.126,24.49z"/>
</svg>
