<?xml version="1.0" encoding="iso-8859-1"?>
<!-- Generator: Adobe Illustrator 21.0.2, SVG Export Plug-In . SVG Version: 6.00 Build 0)  -->
<svg xmlns="http://www.w3.org/2000/svg" xmlns:xlink="http://www.w3.org/1999/xlink" version="1.1" id="Layer_1" x="0px" y="0px" viewBox="0 0 48 48" style="enable-background:new 0 0 48 48;" xml:space="preserve" width="50px" height="50px">
<path style="fill:#FF3D00;" d="M44,24c0,11.047-8.953,20-20,20S4,35.047,4,24S12.953,4,24,4S44,12.953,44,24z"/>
<path style="fill:#FFFFFF;" d="M26,16.199c-0.602-0.598-1.5-0.898-2.5-1.098c-0.398-0.5-1-1-1.898-1.5  c-1.602-0.801-3.5-1.203-5.301-0.902h-0.402c-0.098,0-0.199,0.102-0.398,0.102c0.199,0,1,0.398,1.602,0.598  c-0.301,0.203-0.801,0.203-1.102,0.402c0,0,0,0-0.102,0L15.699,14c-0.098,0.199-0.199,0.398-0.199,0.5  c1.301-0.102,3.199,0,4.602,0.398C19,15,18,15.301,17.301,15.699c-0.5,0.301-1,0.602-1.301,1.102  c-1.199,1.301-1.699,3.5-1.301,5.898c0.5,2.699,2.402,11.402,3.402,16.301l0.253,1.604c0,0,3.52,0.396,5.646,0.396  c1.19,0,3.229,0.312,3.688-0.188c-0.053,0.01-0.604-0.625-0.789-1.113c-0.5-1-1-1.898-1.398-2.598c-1.199-2.5-2.5-5.902-1.898-8.102  c0.098-0.398,0.098-2.102,0.398-2.301c2.602-1.699,2.398-0.098,3.5-0.801c0.5-0.398,1-0.898,1.199-1.5  C29.398,22.102,27.801,18,26,16.199z"/>
<circle style="fill:none;stroke:#FFFFFF;stroke-width:2;stroke-miterlimit:10;" cx="24" cy="24" r="17"/>
<path style="fill:#0277BD;" d="M19,21.102c-0.602,0-1.199,0.5-1.199,1.199c0,0.598,0.5,1.199,1.199,1.199  c0.602,0,1.199-0.5,1.199-1.199C20.102,21.699,19.602,21.102,19,21.102z M19.5,22.199c-0.199,0-0.301-0.098-0.301-0.301  c0-0.199,0.102-0.297,0.301-0.297s0.301,0.098,0.301,0.297C19.801,22.102,19.602,22.199,19.5,22.199z M26.801,20.602  c-0.602,0-1,0.5-1,1c0,0.598,0.5,1,1,1c0.598,0,1-0.5,1-1S27.301,20.602,26.801,20.602z M27.199,21.5  c-0.098,0-0.301-0.102-0.301-0.301c0-0.098,0.102-0.301,0.301-0.301c0.102,0,0.301,0.102,0.301,0.301S27.398,21.5,27.199,21.5z   M19.301,18.898c0,0-0.902-0.398-1.699,0.102c-0.902,0.5-0.801,1.102-0.801,1.102s-0.5-1,0.801-1.5  C18.699,18.102,19.301,18.898,19.301,18.898 M27.398,18.801c0,0-0.598-0.402-1.098-0.402c-1,0-1.301,0.5-1.301,0.5  s0.199-1.098,1.5-0.898C27.102,18.199,27.398,18.801,27.398,18.801"/>
<path style="fill:#8BC34A;" d="M23.301,35.699c0,0-4.301-2.301-4.402-1.398c-0.098,0.898,0,4.699,0.5,5s4.102-1.902,4.102-1.902  L23.301,35.699z M25,35.602c0,0,2.898-2.203,3.602-2.102c0.598,0.102,0.797,4.699,0.199,4.898c-0.602,0.203-3.902-1.199-3.902-1.199  L25,35.602z"/>
<path style="fill:#689F38;" d="M22.5,35.699c0,1.5-0.199,2.102,0.398,2.301c0.602,0.102,1.902,0,2.301-0.301  c0.402-0.301,0.102-2.199-0.098-2.598C25,34.801,22.5,35.102,22.5,35.699"/>
<path style="fill:#FFCA28;" d="M22.301,26.801c0.098-0.699,2-2.102,3.301-2.199c1.297-0.102,1.699-0.102,2.797-0.301  c1.102-0.301,3.902-1,4.703-1.301c0.797-0.398,4.098,0.199,1.797,1.5c-1,0.602-3.699,1.602-5.699,2.199  c-1.898,0.602-3.098-0.598-3.801,0.402c-0.5,0.797-0.098,1.797,2.203,2c3.098,0.297,6.199-1.402,6.5-0.5  c0.297,0.898-2.703,2-4.602,2.098c-1.801,0-5.602-1.199-6.102-1.598C22.898,28.699,22.199,27.801,22.301,26.801"/>
</svg>
