<?xml version="1.0" encoding="UTF-8"?>
<svg xmlns="http://www.w3.org/2000/svg" xmlns:xlink="http://www.w3.org/1999/xlink" viewBox="0 0 48 48" version="1.1" width="50px" height="50px">
<g id="surface1">
<path style=" fill:#0097A7;" d="M 24 35 C 17.898438 35 13 30.101563 13 24 C 13 17.898438 17.898438 13 24 13 C 30.101563 13 35 17.898438 35 24 C 35 30.101563 30.101563 35 24 35 Z M 22.898438 8 C 22.898438 8 21.5 6.800781 21.5 4.5 C 21.5 2.398438 22.601563 1 22.601563 1 C 22.601563 1 24 2.199219 24 4.5 C 24 7.199219 22.898438 8 22.898438 8 Z M 30.101563 9 C 30.101563 9 29.5 7 30.800781 5.199219 C 32 3.5 33.800781 3 33.800781 3 C 33.800781 3 34.398438 4.898438 33.101563 6.800781 C 31.601563 9.101563 30.101563 9 30.101563 9 Z M 36 11.898438 C 36 11.898438 36 10.5 37.398438 9.601563 C 38.601563 8.800781 40 9 40 9 C 40 9 40 10.300781 38.601563 11.199219 C 37 12.300781 36 11.898438 36 11.898438 Z M 16.898438 8 C 16.898438 8 15.398438 7.800781 14.5 6.5 C 13.699219 5.199219 14.101563 4 14.101563 4 C 14.101563 4 15.5 4.199219 16.398438 5.5 C 17.398438 7.101563 16.898438 8 16.898438 8 Z M 12 12 C 12 12 10.5 12.199219 9.300781 11.199219 C 8.101563 10.300781 8 9 8 9 C 8 9 9.398438 8.800781 10.699219 9.800781 C 12.199219 11 12 12 12 12 Z M 24.398438 40 C 24.398438 40 25.800781 41 25.601563 43.601563 C 25.5 45.800781 24.101563 47 24.101563 47 C 24.101563 47 22.699219 45.601563 22.898438 43.5 C 23.101563 40.898438 24.398438 40 24.398438 40 Z M 16.800781 39 C 16.800781 39 17.199219 40.601563 16.199219 42.199219 C 15.300781 43.601563 14 44 14 44 C 14 44 13.5 42.300781 14.5 40.800781 C 15.699219 38.898438 16.800781 39 16.800781 39 Z M 12 35 C 12 35 11.898438 36.398438 10.601563 37.300781 C 9.398438 38.199219 8 38 8 38 C 8 38 8 36.699219 9.398438 35.699219 C 10.800781 34.800781 12 35 12 35 Z M 32.101563 39 C 32.101563 39 33.601563 39.199219 34.5 40.5 C 35.300781 41.699219 35 43 35 43 C 35 43 33.601563 42.800781 32.699219 41.5 C 31.601563 39.898438 32.101563 39 32.101563 39 Z M 36 35 C 36 35 37.5 34.699219 38.699219 35.800781 C 39.898438 36.699219 40 38 40 38 C 40 38 38.601563 38.300781 37.300781 37.199219 C 35.800781 36 36 35 36 35 Z "/>
<path style="fill:none;stroke-width:2;stroke-linecap:butt;stroke-linejoin:miter;stroke:#E65100;stroke-opacity:1;stroke-miterlimit:10;" d="M 38 24 C 38 31.730469 31.730469 38 24 38 C 16.269531 38 10 31.730469 10 24 C 10 16.269531 16.269531 10 24 10 C 31.730469 10 38 16.269531 38 24 Z "/>
<path style=" fill:#CDDC39;" d="M 16.800781 25.398438 C 16.898438 25.800781 16.398438 26.199219 16.300781 26.601563 C 16.199219 27 16.101563 27.300781 15.898438 27.398438 C 15.699219 27.601563 15.398438 27.699219 15.199219 27.898438 C 15 28.101563 14.398438 29.101563 14.199219 29.199219 C 13.5 27.601563 13 25.898438 13 24 C 13 23.398438 13.101563 22.898438 13.101563 22.398438 C 13.199219 22.398438 13.800781 22.699219 14.199219 23 C 14.699219 23.300781 15 24.300781 15.398438 24.5 C 15.800781 24.699219 16.699219 25.101563 16.800781 25.398438 Z M 14.800781 18 C 15.398438 18 15.699219 17.5 15.898438 17.5 C 16.101563 17.5 16.199219 17.601563 16.398438 17.601563 C 16.5 17.601563 16.800781 17.5 16.800781 17.199219 C 16.800781 16.898438 16.398438 16.199219 16.398438 16.101563 C 15.800781 16.699219 15.199219 17.300781 14.800781 18 Z M 18.300781 14.898438 C 18.300781 15 18 15.300781 18 15.601563 C 18 15.898438 18.199219 16.199219 18.5 16.199219 C 19 16.199219 19.398438 15.699219 20.101563 15.699219 C 20.699219 15.699219 21.898438 15.199219 21.898438 14.5 C 21.898438 14.199219 21.601563 14.101563 21.300781 14.101563 C 21 14.101563 20 14.101563 19.601563 13.898438 C 19.101563 14.101563 18.601563 14.398438 18.101563 14.699219 C 18.199219 14.699219 18.300781 14.800781 18.300781 14.898438 Z M 26.601563 29.5 C 26.601563 29.601563 26.699219 29.699219 26.800781 29.699219 C 26.898438 29.699219 27 29.601563 27.101563 29.5 C 27.300781 29.300781 27.398438 29 27.398438 28.699219 C 27.398438 28.601563 27.398438 28.5 27.398438 28.5 C 27.300781 28.398438 27.199219 28.398438 27.199219 28.398438 C 26.898438 28.398438 26.699219 28.898438 26.601563 29.199219 C 26.601563 29.398438 26.601563 29.5 26.601563 29.5 Z M 35 24 C 35 25.300781 34.800781 26.5 34.398438 27.601563 C 34.300781 27.5 34.101563 27.101563 34.101563 26.800781 C 34.101563 26.601563 34.300781 26.101563 34.300781 25.699219 C 34.300781 25.300781 33.898438 24.199219 33.101563 24.199219 C 32.101563 24.199219 32.199219 25.699219 31.699219 25.699219 C 31 25.699219 31 23.199219 30.101563 23.199219 C 29.800781 23.199219 29.398438 23.699219 29 24 C 28.699219 24.300781 28 24.300781 28 25.199219 C 28 25.898438 26.5 26.101563 26.5 27.699219 C 26.5 28.199219 25.898438 28.800781 25.5 29.101563 C 25.199219 29.398438 24.800781 30.699219 23.699219 30.699219 C 23.101563 30.699219 22.5 29.5 22.5 28.300781 C 22.5 27.601563 22.699219 27.398438 22.699219 26.699219 C 22.699219 26 22.398438 24.699219 21 24.699219 C 20.300781 24.699219 19.601563 24.300781 19.601563 22.699219 C 19.601563 21.199219 21.199219 21.199219 21.199219 19.800781 C 21.199219 19.398438 22.101563 19 22.101563 18.800781 C 22.101563 18.601563 21.800781 18.199219 21.800781 18 C 21.800781 17.800781 22.101563 17.601563 22.300781 17.601563 C 22.5 17.601563 23 18.101563 23.199219 18.101563 C 23.398438 18.101563 23.5 17.601563 23.601563 17.199219 C 23.699219 16.800781 24.898438 16.199219 25.398438 16.199219 C 25.898438 16.199219 27.199219 16.898438 28 16.898438 C 28.699219 16.898438 31.199219 16.5 32 16.5 C 33.101563 17.699219 33.898438 19.101563 34.398438 20.601563 C 34.398438 20.699219 34.5 20.800781 34.5 20.898438 C 34.601563 21.101563 34.601563 21.398438 34.699219 21.601563 C 34.699219 21.800781 34.800781 21.898438 34.800781 22.101563 C 34.800781 22.300781 34.898438 22.601563 34.898438 22.800781 C 34.898438 22.898438 34.898438 23.101563 34.898438 23.199219 C 35 23.5 35 23.699219 35 24 Z M 26.199219 21.300781 C 26.199219 21.199219 26 21 25.699219 21 C 25.398438 21 25.101563 20.601563 24.699219 20.5 C 24.398438 20.398438 23.5 19.800781 23.199219 19.800781 C 22.898438 19.800781 23 19.800781 23 20 C 23 20 23.800781 21 24.300781 21.300781 C 24.800781 21.5 24.898438 21.398438 25.101563 21.398438 C 25.300781 21.398438 25.398438 21.601563 25.699219 21.601563 C 26.101563 21.5 26.199219 21.398438 26.199219 21.300781 Z "/>
</g>
</svg>
