<svg xmlns:dc="http://purl.org/dc/elements/1.1/" xmlns:cc="http://creativecommons.org/ns#" xmlns:rdf="http://www.w3.org/1999/02/22-rdf-syntax-ns#" xmlns:svg="http://www.w3.org/2000/svg" xmlns="http://www.w3.org/2000/svg" xmlns:sodipodi="http://sodipodi.sourceforge.net/DTD/sodipodi-0.dtd" xmlns:inkscape="http://www.inkscape.org/namespaces/inkscape" version="1.1" id="Calque_1" x="0px" y="0px" viewBox="0 0 339 367.60001" xml:space="preserve" sodipodi:docname="4qwant_block_RGB__.svg" width="339" inkscape:version="0.92.1 r15371" height="339"><metadata id="metadata107"><rdf:RDF><cc:Work rdf:about=""><dc:format>image/svg+xml</dc:format><dc:type rdf:resource="http://purl.org/dc/dcmitype/StillImage"/><dc:title/></cc:Work></rdf:RDF></metadata><defs id="defs105"/><sodipodi:namedview pagecolor="#ffffff" bordercolor="#666666" borderopacity="1" objecttolerance="10" gridtolerance="10" guidetolerance="10" inkscape:pageopacity="0" inkscape:pageshadow="2" inkscape:window-width="1920" inkscape:window-height="1001" id="namedview103" showgrid="false" fit-margin-top="0" fit-margin-left="0" fit-margin-right="0" fit-margin-bottom="0" inkscape:zoom="1.1125147" inkscape:cx="151.46657" inkscape:cy="209.94594" inkscape:window-x="-9" inkscape:window-y="-9" inkscape:window-maximized="1" inkscape:current-layer="Calque_1"/><style type="text/css" id="style2">
	.st0{fill:#232323;}
	.st1{fill:#888A90;}
	.st2{fill:url(#SVGID_1_);}
	.st3{fill:#0A92EF;}
	.st4{fill:url(#SVGID_2_);}
	.st5{fill:#FFAA64;}
	.st6{fill:#0E9F9D;}
	.st7{fill:#2EC75B;}
	.st8{fill:#0ABFFF;}
	.st9{fill:#FF2B2A;}
	.st10{fill:#E60000;}
	.st11{fill:#FF2C1D;}
	.st12{fill:#FF5429;}
	.st13{fill:#FF8F2B;}
	.st14{fill:#B20070;}
	.st15{fill:#B9E239;}
	.st16{fill:#E4F445;}
	.st17{fill:#7CED91;}
	.st18{fill:#FFFFFF;}
	.st19{fill:#0F8791;}
	.st20{fill:#18D1C3;}
	.st21{fill:#47D6E5;}
	.st22{fill:#1B7EEA;}
	.st23{fill:#2AD3FF;}
	.st24{fill:url(#SVGID_3_);}
	.st25{fill:url(#SVGID_4_);}
	.st26{fill:#CD2B90;}
	.st27{fill:#0E799A;}
	.st28{fill:#FAFB3E;}
</style><g id="g98" transform="translate(-238.8,-112.7)"><g id="g96"><linearGradient id="SVGID_1_" gradientUnits="userSpaceOnUse" x1="318.89999" y1="182.89999" x2="413.29999" y2="182.89999" gradientTransform="translate(0,-30)"><stop offset="0" style="stop-color:#FFDD24" id="stop20"/><stop offset="1" style="stop-color:#F4EF25" id="stop22"/></linearGradient><path class="st2" d="m 399.5,155.4 13.8,-21.1 -53.7,-15.7 c -15.1,5 -28.9,13.1 -40.7,23.4 l 15.8,45.2 c 14.2,-19.3 36.7,-31.8 62.1,-31.8 0.9,-0.1 1.8,-0.1 2.7,0 z" id="path25" inkscape:connector-curvature="0" style="fill:url(#SVGID_1_)"/><path class="st3" d="m 498.3,310.7 -18.1,-15 -40.1,6 c -1.6,1.1 -3.3,2.2 -5.1,3.2 l 38,36.1 21.4,18.9 25.6,-30 z" id="path27" inkscape:connector-curvature="0" style="fill:#0a92ef"/><linearGradient id="SVGID_2_" gradientUnits="userSpaceOnUse" x1="448.0181" y1="188.6852" x2="510.0119" y2="246.9218" gradientTransform="translate(0,-30)"><stop offset="0" style="stop-color:#FFAA64" id="stop29"/><stop offset="1" style="stop-color:#FF3264" id="stop31"/></linearGradient><polygon class="st4" points="494.1,187.5 454.1,181 455.7,149.3 " id="polygon34" style="fill:url(#SVGID_2_)"/><polygon class="st5" points="494.1,187.5 454.1,181 455.7,149.3 " id="polygon36" style="fill:#ffaa64"/><path class="st6" d="m 454.2,181.2 c 4.4,4.9 8.2,10.5 11.3,16.4 L 500.9,249 494.5,187.4 454,181 Z" id="path38" inkscape:connector-curvature="0" style="fill:#0e9f9d"/><polygon class="st7" points="494.1,187.5 454.1,181 455.7,149.3 " id="polygon40" style="fill:#2ec75b"/><polygon class="st8" points="480.2,295.7 485.8,334.7 520,329.8 500.1,312.1 " id="polygon42" style="fill:#0abfff"/><path class="st9" d="m 346.1,321.8 10.8,-18 c -19.9,-12.3 -34,-33.5 -37.1,-58.3 l -8.9,29.2 z" id="path44" inkscape:connector-curvature="0" style="fill:#ff2b2a"/><path class="st10" d="m 289.2,289.1 c 7.8,16.3 18.9,30.5 32.6,41.7 l 24.4,-9.1 -35.2,-47.1 z" id="path46" inkscape:connector-curvature="0" style="fill:#e60000"/><path class="st11" d="M 289.5,289.7 311.5,275 299,211.4 282.8,197.7 c -3.7,11.8 -5.7,24.5 -5.7,37.6 0,19.5 4.5,38 12.4,54.4 z" id="path48" inkscape:connector-curvature="0" style="fill:#ff2c1d"/><path class="st12" d="m 319.1,235.2 c 0,-2.1 0.1,-4.2 0.3,-6.3 l -20.4,-17.5 12.3,63.8 8.7,-27.9 c -0.6,-3.9 -0.9,-8 -0.9,-12.1 z" id="path50" inkscape:connector-curvature="0" style="fill:#ff5429"/><path class="st13" d="m 282.7,198.1 16.3,13.3 20.4,17.5 c 1.2,-15.7 6.8,-30.2 15.6,-42.1 l -11.6,-32.3 -22.3,6.9 c -8,11 -14.3,23.3 -18.4,36.7 z" id="path52" inkscape:connector-curvature="0" style="fill:#ff8f2b"/><path class="st14" d="m 398.7,358 v -41.3 l 0.2,-1.5 c -0.7,0 -1.3,0 -2,0 -1.2,0 -2.4,0 -3.6,-0.1 l -47.2,6.7 -24.4,9.1 c 20.6,17 46.7,27.2 75.2,27.2 0.6,-0.1 1.2,-0.1 1.8,-0.1 z" id="path54" inkscape:connector-curvature="0" style="fill:#b20070"/><path class="st15" d="m 455.7,149.3 -42,-15.7 -14.2,21.8 c 21.6,0.7 41,10.5 54.7,25.8 v 0 z" id="path56" inkscape:connector-curvature="0" style="fill:#b9e239"/><path class="st16" d="M 472.6,140.1 C 457,127 437.2,118.1 416.4,114.4 l -3.7,20 43.3,15.3 z" id="path58" inkscape:connector-curvature="0" style="fill:#e4f445"/><path class="st17" d="m 472.5,140 -16.8,9.3 38.9,38.8 11.5,-3.4 C 498.4,167.2 486.8,151.9 472.5,140 Z" id="path60" inkscape:connector-curvature="0" style="fill:#7ced91"/><g id="g66"><path class="st18" d="m 454.1,181 v 0 c 0,0.1 0.1,0.1 0.1,0.2 z" id="path62" inkscape:connector-curvature="0" style="fill:#ffffff"/><path class="st19" d="m 474.7,235.2 c 0,16.5 -4.9,31.9 -13.3,44.6 L 501,248.1 465.2,196.8 c 6,11.4 9.5,24.5 9.5,38.4 z" id="path64" inkscape:connector-curvature="0" style="fill:#0f8791"/></g><path class="st20" d="m 494.1,187.5 6.4,61 16,-5.9 c 0.1,-2.5 0.2,-4.9 0.2,-7.4 0,-18.1 -3.9,-35.3 -10.7,-50.8 z" id="path68" inkscape:connector-curvature="0" style="fill:#18d1c3"/><path class="st21" d="m 500.6,248.5 -20.4,47.2 17.3,14.3 v 0 l -3.3,-2.9 v 0 c 13.2,-18.7 21.4,-41.4 22.5,-66 z" id="path70" inkscape:connector-curvature="0" style="fill:#47d6e5"/><path class="st22" d="m 485.8,334.7 -50.2,-30.1 c -0.2,0.1 -0.4,0.3 -0.6,0.4 l 38,36.1 21.4,18.9 1.4,-1.6 z" id="path72" inkscape:connector-curvature="0" style="fill:#1b7eea"/><polygon class="st23" points="495.8,358.2 520,329.8 485.8,334.7 " id="polygon74" style="fill:#2ad3ff"/><linearGradient id="SVGID_3_" gradientUnits="userSpaceOnUse" x1="264.35461" y1="397.62659" x2="332.50671" y2="57.540798" gradientTransform="translate(0,-30)"><stop offset="0" style="stop-color:#FF6D19" id="stop76"/><stop offset="1" style="stop-color:#FBF124" id="stop78"/></linearGradient><path class="st24" d="M 277.8,221.8 299,211.3 323.4,154.4 319,142 c -22.5,19.7 -37.8,47.9 -41.2,79.8 z" id="path81" inkscape:connector-curvature="0" style="fill:url(#SVGID_3_)"/><linearGradient id="SVGID_4_" gradientUnits="userSpaceOnUse" x1="306.104" y1="206.22501" x2="394.66791" y2="184.46359" gradientTransform="translate(0,-30)"><stop offset="0" style="stop-color:#FFA724" id="stop83"/><stop offset="1" style="stop-color:#BDCE25" id="stop85"/></linearGradient><path class="st25" d="m 413.5,134.2 -90.1,20.2 11.6,32.3 v 0 c 14.2,-19.2 36.6,-31.5 61.9,-31.5 0.9,0 1.8,0 2.7,0.1 v 0 l 13.9,-21.1 z" id="path88" inkscape:connector-curvature="0" style="fill:url(#SVGID_4_)"/><path class="st26" d="m 354.9,302.5 -9.3,19.5 53.2,34.5 v -39.8 l 0.2,-1.5 c -0.7,0 -1.3,0 -2,0 -15.6,0 -30,-4.7 -42.1,-12.7 z" id="path90" inkscape:connector-curvature="0" style="fill:#cd2b90"/><path class="st27" d="m 480.2,295.7 20.4,-47.2 -39.2,31.4 c -5.7,8.6 -17.3,18.9 -25.8,24.6 z" id="path92" inkscape:connector-curvature="0" style="fill:#0e799a"/><path class="st28" d="m 417.8,114.6 c -6.8,-1.2 -13.8,-1.9 -20.9,-1.9 -13,0 -25.5,2.1 -37.2,6.1 l 53.6,15.8 z" id="path94" inkscape:connector-curvature="0" style="fill:#fafb3e"/></g></g></svg>