<!-- This Source Code Form is subject to the terms of the Mozilla Public
   - License, v. 2.0. If a copy of the MPL was not distributed with this
   - file, You can obtain one at http://mozilla.org/MPL/2.0/. -->
<!DOCTYPE svg PUBLIC "-//W3C//DTD SVG 1.1//EN" "http://www.w3.org/Graphics/SVG/1.1/DTD/svg11.dtd">
<svg version="1.1" xmlns="http://www.w3.org/2000/svg" xmlns:xlink="http://www.w3.org/1999/xlink" x="0px"
	 y="0px" width="16px" height="16px" viewBox="0 0 16 16" enable-background="new 0 0 16 16" xml:space="preserve">
<path fill="context-fill" d="M14,7H5C4.448,7,4,7.448,4,8c0,0.553,0.448,1,1,1h9c0.553,0,1-0.447,1-1C15,7.448,14.553,7,14,7z M14,11H5
	c-0.552,0-1,0.447-1,1s0.448,1,1,1h9c0.553,0,1-0.447,1-1S14.553,11,14,11z M14,3H5C4.448,3,4,3.448,4,4s0.448,1,1,1h9
	c0.553,0,1-0.448,1-1S14.553,3,14,3z M2,3C1.448,3,1,3.448,1,4s0.448,1,1,1s1-0.448,1-1S2.552,3,2,3z M2,7C1.448,7,1,7.448,1,8
	c0,0.553,0.448,1,1,1s1-0.447,1-1C3,7.448,2.552,7,2,7z M2,11c-0.552,0-1,0.447-1,1s0.448,1,1,1s1-0.447,1-1S2.552,11,2,11z"/>
</svg>
