<svg viewBox="0 0 16 16" xmlns="http://www.w3.org/2000/svg">
  <path d="M9.711 1.296l.207 1.817c.491.193.945.458 1.35.781l1.68-.725c.171-.099.354.021.402.106l1.418 2.457c.098.169.061.303-.11.401l-1.471 1.088c.038.254.057.514.057.779 0 .276-.021.547-.062.811l1.423 1.147c.171.099.207.232.11.401l-1.342 2.325c-.049.085-.232.204-.402.106l-1.693-.693c-.413.331-.877.601-1.378.797l-.246 1.811c0 .197-.195.296-.293.296h-2.684c-.195 0-.293-.099-.293-.296l-.281-1.805c-.507-.196-.976-.468-1.393-.802l-1.692.693c-.171.099-.354-.021-.402-.106l-1.342-2.325c-.098-.169-.061-.303.11-.401l1.423-1.147c-.041-.264-.062-.535-.062-.811 0-.265.02-.525.057-.779l-1.471-1.088c-.171-.099-.207-.232-.11-.401l1.418-2.457c.049-.084.232-.204.402-.106l1.68.725c.406-.324.861-.589 1.352-.782l.212-1.816c0-.197.195-.296.293-.296h2.837c.195 0 .293.099.293.296zm-1.715 8.704c1.105 0 2-.895 2-2s-.895-2-2-2-2 .895-2 2 .895 2 2 2z"></path>
</svg>
