<svg viewBox="0 0 16 16" xmlns="http://www.w3.org/2000/svg">
  <path fill-rule="evenodd" d="M8 1C4.134 1 1 4.134 1 8C1 11.866 4.134 15 8 15C11.866 15 15 11.866 15 8C15 4.134 11.866 1 8 1ZM3 8C3 7.216 3.197 6.484 3.52 5.823C3.522 5.829 3.524 5.839 3.527 5.844L4.125 7.106C4.173 7.209 4.306 7.295 4.419 7.295H4.665C4.778 7.295 4.918 7.376 4.974 7.474L5.492 8.367C5.549 8.467 5.672 8.602 5.764 8.668L6.868 9.463C6.959 9.531 7.128 9.584 7.24 9.584H7.587C7.7 9.584 7.792 9.679 7.792 9.792V11.096C7.792 11.211 7.884 11.304 7.998 11.304H8.231C8.343 11.304 8.435 11.398 8.435 11.513V11.751C8.435 11.866 8.343 11.96 8.231 11.96H7.998C7.884 11.96 7.792 12.053 7.792 12.168V12.979C5.133 12.867 3 10.686 3 8ZM10.372 12.374C10.435 12.297 10.497 12.209 10.531 12.136L11.055 11.01C11.103 10.907 11.143 10.728 11.143 10.613V10.55C11.143 10.435 11.06 10.296 10.961 10.243L9.223 9.319C9.123 9.266 8.948 9.223 8.836 9.221H7.472C7.36 9.221 7.195 9.162 7.107 9.09L6.29 8.423C6.202 8.35 6.131 8.198 6.131 8.083L6.134 7.503C6.135 7.389 6.227 7.295 6.34 7.295H6.893C7.007 7.295 7.099 7.389 7.099 7.503V8.222C7.099 8.336 7.191 8.43 7.304 8.43H7.36C7.473 8.43 7.566 8.336 7.566 8.222L7.565 6.974C7.565 6.858 7.639 6.708 7.729 6.638L8.143 6.316C8.233 6.246 8.398 6.189 8.511 6.189H9.523C9.636 6.189 9.728 6.119 9.728 6.031C9.728 5.944 9.636 5.872 9.523 5.872H9.193C9.08 5.872 8.988 5.779 8.988 5.664L8.99 4.913C8.99 4.797 8.896 4.703 8.785 4.703H8.492C8.379 4.702 8.35 4.635 8.427 4.551L8.866 4.08C8.944 3.996 9.007 3.854 9.007 3.761C9.007 3.667 8.915 3.592 8.802 3.592H8.497C8.385 3.592 8.217 3.537 8.125 3.471L7.741 3.197C7.692 3.162 7.65 3.103 7.619 3.038C7.747 3.029 7.87 3 8 3C8.433 3 8.846 3.073 9.247 3.177C9.25 3.289 9.339 3.38 9.45 3.38H9.747C9.86 3.38 9.952 3.474 9.952 3.589V4.268C9.952 4.384 10.044 4.478 10.157 4.478H10.246C10.359 4.478 10.525 4.422 10.616 4.353C10.616 4.353 10.792 4.215 11.013 4.036C12.213 4.951 13 6.379 13 8C13 9.894 11.929 11.526 10.372 12.374Z"></path>
</svg>
