<?xml version="1.0" encoding="utf-8"?>
<!-- Generator: Adobe Illustrator 18.1.1, SVG Export Plug-In . SVG Version: 6.00 Build 0)  -->
<!DOCTYPE svg PUBLIC "-//W3C//DTD SVG 1.1//EN" "http://www.w3.org/Graphics/SVG/1.1/DTD/svg11.dtd">
<svg version="1.1" id="aboutWordmark" xmlns="http://www.w3.org/2000/svg" xmlns:xlink="http://www.w3.org/1999/xlink" x="0px"
	 y="0px" viewBox="-333 277 132 48" enable-background="new -333 277 132 48" xml:space="preserve">
<g>
	<path fill="#FFFFFF" d="M-332.9,291c-0.3-1.2,0.3-2,1.5-2h2.3c1.1,0,1.7,0.5,1.9,1.6l2.6,12.8c0.3,1.4,0.3,2.4,0.3,2.4h0.1
		c0,0,0-1,0.4-2.4l3.2-12.9c0.3-1,0.9-1.5,2-1.5h1.4c1.1,0,1.7,0.5,1.9,1.5l3.1,12.9c0.4,1.4,0.4,2.4,0.4,2.4h0.1c0,0,0-1,0.3-2.4
		l2.8-12.9c0.2-1,0.9-1.5,2-1.5h2.2c1.3,0,1.8,0.7,1.5,2l-5,19.6c-0.3,1-0.9,1.5-2,1.5h-3.1c-1.1,0-1.7-0.5-2-1.5l-2.5-10.1
		c-0.4-1.5-0.5-2.7-0.5-2.7h-0.1c0,0-0.1,1.2-0.5,2.7l-2.5,10.1c-0.3,1-0.9,1.5-2,1.5h-3.2c-1.1,0-1.7-0.5-2-1.5L-332.9,291z"/>
	<path fill="#FFFFFF" d="M-297.9,307.8c1.6,0,2.8-1.6,2.8-2.9v-0.5h-0.5c-1.7,0-3.9,0.5-3.9,2C-299.5,307.2-298.9,307.8-297.9,307.8
		 M-295.6,301.3h0.5V301c0-1.4-1.1-1.8-2.4-1.8c-1.1,0-2.2,0.4-3,0.7c-1.1,0.5-1.9,0.3-2.4-0.8l-0.4-0.8c-0.5-1-0.3-1.9,0.7-2.4
		c1.3-0.6,3.2-1.3,5.6-1.3c4.6,0,7.4,2.5,7.4,6.8v8.5c0,1.2-0.6,1.8-1.8,1.8h-1.5c-1.2,0-1.8-0.6-1.8-1.8v-0.1c0-0.2,0-0.3,0-0.3
		h-0.1c0,0-1.6,2.6-4.9,2.6c-3.2,0-5.4-2.2-5.4-5.1C-305,302.5-299.7,301.3-295.6,301.3"/>
	<path fill="#FFFFFF" d="M-286.3,299.6h-0.5c-1.1,0-1.7-0.6-1.7-1.8v-0.8c0-1.2,0.6-1.8,1.8-1.8h0.6v-3c0-1.2,0.6-1.8,1.8-1.8h1.9
		c1.2,0,1.8,0.6,1.8,1.8v3h1.7c1.2,0,1.8,0.6,1.8,1.8v0.8c0,1.2-0.6,1.8-1.7,1.8h-1.7v5c0,1.4,0.9,2,1.9,2.1
		c1.3,0.2,1.8,0.5,1.8,1.8v1.5c0,1.3-0.8,1.8-2.3,1.8c-2.5,0-7-1.1-7-6.1V299.6z"/>
	<path fill="#FFFFFF" d="M-265.5,301.2c0-1.4-0.9-2.5-2.3-2.5c-1.6,0-2.4,1.2-2.7,2.5H-265.5z M-267.7,294.6c4.9,0,7.7,3.5,7.7,7.9
		c0,0.9-0.8,1.8-1.9,1.8h-8.7c0.4,2,2.1,3,3.9,3c1.1,0,2.2-0.4,3-0.8c1.1-0.5,1.8-0.4,2.4,0.7l0.5,0.8c0.5,1,0.4,1.9-0.6,2.4
		c-1.2,0.7-3.2,1.5-5.7,1.5c-5.9,0-9.1-4.3-9.1-8.7C-276.3,298.4-273,294.6-267.7,294.6"/>
	<path fill="#FFFFFF" d="M-258.4,297.2c0-1.2,0.6-1.8,1.8-1.8h1.8c1.2,0,1.8,0.6,1.8,1.8v1c0,0.5-0.1,1-0.1,1h0.1
		c0.5-1.7,2.3-4,4.4-4c1.1,0,1.5,0.6,1.5,1.8v1.8c0,1.2-0.6,1.8-1.8,1.8c-2.6,0-3.9,2.3-3.9,5v4.7c0,1.2-0.6,1.8-1.8,1.8h-2
		c-1.2,0-1.8-0.6-1.8-1.8V297.2z"/>
	<path fill="#FFFFFF" d="M-243.4,300.1h-0.4c-1.2,0-1.8-0.6-1.8-1.8v-0.8c0-1.2,0.6-1.8,1.8-1.8h0.4v-0.8c0-5.3,5.2-6.1,7-6.1h0.5
		c1.2,0,1.8,0.6,1.8,1.8v1.2c0,1.2-0.6,1.7-1.8,1.8c-0.7,0.1-1.9,0.2-1.9,1.6v0.5h1.3c1.2,0,1.8,0.6,1.8,1.8v0.8
		c0,1.2-0.6,1.8-1.8,1.8h-1.3v10.2c0,1.2-0.6,1.8-1.8,1.8h-2c-1.2,0-1.8-0.6-1.8-1.8V300.1z"/>
	<path fill="#FFFFFF" d="M-212,303.8l-4-6.3c-0.8-1.2-0.3-2.1,1.2-2.1h2.3c1,0,1.6,0.4,2.1,1.3l1.2,2.4c0.2,0.4,0.5,1.1,0.5,1.1h0.1
		c0,0,0.3-0.7,0.5-1.1l1.2-2.4c0.5-0.9,1.1-1.3,2.1-1.3h2.3c1.5,0,2,0.9,1.2,2.1l-4,6.3l3.9,6.1c0.8,1.2,0.3,2.1-1.2,2.1h-2.2
		c-1,0-1.6-0.4-2.1-1.3l-1.3-2.5c-0.2-0.3-0.4-0.8-0.4-0.8h-0.1c0,0-0.2,0.5-0.4,0.8l-1.3,2.5c-0.5,0.9-1.1,1.3-2.1,1.3h-2.2
		c-1.5,0-2-0.9-1.2-2.1L-212,303.8z"/>
	<path fill="#FFFFFF" d="M-226.7,305.3c-0.4-0.1-0.7,0-0.8,0.2c-0.1,0.3,0.1,0.6,0.5,0.7c0.4,0.1,0.7,0,0.8-0.2
		C-226.1,305.7-226.3,305.4-226.7,305.3"/>
	<path fill="#FFFFFF" d="M-219.9,307.5c-0.5-0.2-1.4-0.4-2.4,0c-0.7,0.3-1.7,0.8-2.4,1.2c0,0,0,0,0,0c0.1-0.3-0.3-0.6-0.7-0.6
		c-0.4,0-0.8,0.3-0.7,0.6c0,0,0,0,0,0c-0.7-0.4-1.7-0.9-2.4-1.2c-0.9-0.4-1.8-0.2-2.4,0c0,0,0,0,0,0c0.4-0.3,1.1-0.9,1.5-1.8
		c0-0.1,0.1-0.2,0.1-0.4c0-0.1,0.1-0.2,0.1-0.3c0.2-0.6,0.4-1,0.6-1.4c-0.3-0.2-0.5-0.4-0.7-0.6c0,0,0,0,0,0
		c-0.1-0.1-0.2-0.2-0.2-0.3c-0.9-1.3-0.6-3.1-0.4-3.6c0-0.1,0.1-0.1,0.2-0.1c0.4,0.2,1.7,0.8,2.5,2c0.1,0.2,0.2,0.3,0.3,0.5
		c0,0.1,0.1,0.1,0.1,0.2c0,0.1,0.1,0.2,0.1,0.3c0,0,0,0,0,0c0.2-0.2,0.8-0.3,1.5-0.3c0.5,0,1,0.1,1.3,0.2c0-0.1,0-0.2,0.1-0.2
		c0-0.1,0.1-0.1,0.1-0.2c0.1-0.2,0.2-0.3,0.3-0.5c0.8-1.2,2.1-1.9,2.5-2.1c0.1,0,0.2,0,0.2,0.1c0.1,0.5,0.5,2.3-0.4,3.7
		c-0.1,0.1-0.2,0.2-0.2,0.3c0,0,0,0,0,0c-0.2,0.2-0.4,0.4-0.7,0.6c0.3,0.4,0.5,0.9,0.7,1.5c0,0.1,0.1,0.2,0.1,0.3
		c0,0.1,0.1,0.2,0.1,0.4C-221,306.6-220.2,307.2-219.9,307.5C-219.8,307.5-219.9,307.5-219.9,307.5 M-225.4,295.7
		c-4.8,0-8.8,3.3-8.8,8.2c0,4.8,3.9,8.1,8.8,8.1c4.9,0,8.8-3.2,8.8-8.1C-216.5,299-220.4,295.7-225.4,295.7"/>
	<path fill="#FFFFFF" d="M-223.6,306.2c-0.4,0.1-0.7,0-0.8-0.2c-0.1-0.3,0.1-0.6,0.5-0.7c0.4-0.1,0.7,0,0.8,0.2
		C-223,305.7-223.3,306-223.6,306.2"/>
	<path fill="#FFFFFF" d="M-226.2,306c-0.1,0.3-0.5,0.3-0.8,0.2c-0.4-0.1-0.6-0.5-0.5-0.7c0.1-0.3,0.5-0.3,0.8-0.2
		C-226.3,305.4-226.1,305.7-226.2,306"/>
	<path fill="#FFFFFF" d="M-224,305.3c-0.4,0.1-0.6,0.5-0.5,0.7c0.1,0.3,0.5,0.3,0.8,0.2c0.4-0.1,0.6-0.5,0.5-0.7
		C-223.2,305.2-223.6,305.1-224,305.3"/>
</g>
</svg>
