<?xml version="1.0" encoding="UTF-8"?>
<svg width="347px" height="59px" viewBox="0 0 347 59" version="1.1" xmlns="http://www.w3.org/2000/svg" xmlns:xlink="http://www.w3.org/1999/xlink">
    <title>about-wordmark</title>
    <defs>
        <filter id="filter-1">
            <feColorMatrix in="SourceGraphic" type="matrix" values="0 0 0 0 1.000000 0 0 0 0 1.000000 0 0 0 0 1.000000 0 0 0 1.000000 0"></feColorMatrix>
        </filter>
    </defs>
    <g id="Page-1" stroke="none" stroke-width="1" fill="none" fill-rule="evenodd">
        <g filter="url(#filter-1)" id="about-wordmark">
            <g>
                <path d="M177.840893,47 C186.090885,47 189.499973,42.9772766 189.499973,37.7272816 C189.499973,32.2045596 185.681795,29.2045624 182.477252,29.0000172 L182.477252,28.6591084 C185.477249,27.8409274 188.136338,25.8636565 188.136338,21.3636608 C188.136338,16.2500293 184.72725,12.0909424 177.431803,12.0909424 L165.227269,12.0909424 L165.227269,47 L177.840893,47 Z M177.295439,27.4318368 L169.454537,27.4318368 L169.454537,15.8409388 L177.431803,15.8409388 C182.068162,15.8409388 184.113614,18.2954819 184.113614,21.3636608 C184.113614,25.0454755 181.113617,27.4318368 177.295439,27.4318368 Z M177.840893,43.2500036 L169.454537,43.2500036 L169.454537,31.1136515 L178.045438,31.1136515 C182.613616,31.1136515 185.477249,34.1818304 185.477249,37.7272816 C185.477249,40.7954605 183.363615,43.2500036 177.840893,43.2500036 Z M199.931811,47 L199.931811,30.431834 C199.931811,26.8863828 202.727263,24.2954762 206.545441,24.2954762 C207.619304,24.2954762 208.727257,24.5000215 208.999984,24.5682032 L208.999984,20.477298 C208.539757,20.4432071 207.48294,20.4091163 206.88635,20.4091163 C203.749989,20.4091163 201.022719,22.1818419 200.068174,24.7727485 L199.795447,24.7727485 L199.795447,20.8182068 L195.909087,20.8182068 L195.909087,47 L199.931811,47 Z M223.590895,47.545454 C230.681798,47.545454 235.45452,42.1590955 235.45452,34.0454669 C235.45452,25.8636565 230.681798,20.477298 223.590895,20.477298 C216.499993,20.477298 211.72727,25.8636565 211.72727,34.0454669 C211.72727,42.1590955 216.499993,47.545454 223.590895,47.545454 Z M223.590895,43.9318211 C218.204537,43.9318211 215.749994,39.2954619 215.749994,34.0454669 C215.749994,28.7954719 218.204537,24.0909309 223.590895,24.0909309 C228.977254,24.0909309 231.431797,28.7954719 231.431797,34.0454669 C231.431797,39.2954619 228.977254,43.9318211 223.590895,43.9318211 Z M250.590896,47 L256.318163,26.8863828 L256.727254,26.8863828 L262.454521,47 L266.409063,47 L274.386328,20.8182068 L270.159059,20.8182068 L264.499974,40.7954605 L264.227247,40.7954605 L258.704525,20.8182068 L254.409074,20.8182068 L248.818171,40.8636422 L248.545444,40.8636422 L242.886358,20.8182068 L238.659089,20.8182068 L246.636354,47 L250.590896,47 Z M288.499988,47.545454 C294.58521,47.545454 298.727251,44.2215936 298.727251,39.7045524 C298.727251,36.0568286 296.443162,33.7556944 291.772712,32.6136501 L287.886352,31.6591055 C284.784083,30.8920608 283.386357,29.8522891 283.386357,27.8409274 C283.386357,25.5909295 285.772718,23.9545674 288.97726,23.9545674 C292.488621,23.9545674 293.937483,25.8977474 294.636346,27.7045639 L298.249979,26.6818376 C296.988616,22.965932 294.159074,20.477298 288.97726,20.477298 C283.454538,20.477298 279.363633,23.6136587 279.363633,28.0454726 C279.363633,31.6591055 281.511358,34.0795578 286.318172,35.2045567 L290.681804,36.227283 C293.323847,36.8409188 294.568164,38.1022812 294.568164,39.9090977 C294.568164,42.1590955 292.181803,44.0000029 288.431806,44.0000029 C285.142037,44.0000029 283.079539,42.5852315 282.36363,39.7727342 L278.545452,40.7272787 C279.482951,45.1761381 283.14772,47.545454 288.499988,47.545454 Z M315.772713,47.545454 C321.09089,47.545454 324.97725,44.8863657 326.204522,40.931824 L322.318162,39.8409159 C321.295435,42.568186 318.926119,43.9318211 315.772713,43.9318211 C311.051127,43.9318211 307.795448,40.8806877 307.607948,35.2727385 L326.613612,35.2727385 L326.613612,33.5681946 C326.613612,23.8182039 320.818163,20.477298 315.363623,20.477298 C308.27272,20.477298 303.568179,26.0682018 303.568179,34.1136487 C303.568179,42.1590955 308.204539,47.545454 315.772713,47.545454 Z M322.522707,31.795469 L307.607948,31.795469 C307.880675,27.7216093 310.761354,24.0909309 315.363623,24.0909309 C319.727255,24.0909309 322.522707,27.3636551 322.522707,31.795469 Z M336.77272,47 L336.77272,30.431834 C336.77272,26.8863828 339.568172,24.2954762 343.38635,24.2954762 C344.460213,24.2954762 345.568166,24.5000215 345.840893,24.5682032 L345.840893,20.477298 C345.380666,20.4432071 344.323849,20.4091163 343.727259,20.4091163 C340.590898,20.4091163 337.863628,22.1818419 336.909083,24.7727485 L336.636356,24.7727485 L336.636356,20.8182068 L332.749996,20.8182068 L332.749996,47 L336.77272,47 Z" id="Browser" fill="#FFFFFF" fill-rule="nonzero"></path>
                <path d="M13.5639075,47 L18.5369141,29.8821186 L18.7414594,29.8821186 L23.7272501,47 L29.1221313,47 L36.6136014,20.8182068 L30.5667322,20.8182068 L26.2329295,39.048303 L26.0028161,39.048303 L21.2343547,20.8182068 L16.0568029,20.8182068 L11.2755574,39.0099508 L11.0582281,39.0099508 L6.72442541,20.8182068 L0.677556172,20.8182068 L8.1690263,47 L13.5639075,47 Z M42.941754,47.3707383 C45.8437398,47.3707383 47.7229994,46.1051145 48.6818053,44.2769912 L48.8352142,44.2769912 L48.8352142,47 L53.999982,47 L53.999982,33.7556944 C53.999982,29.0767216 50.0369176,27.1079735 45.6647627,27.1079735 C40.9602217,27.1079735 37.8664747,29.3579714 37.1122141,32.9375134 L42.1491411,33.3466039 C42.5198794,32.0426279 43.6832305,31.083822 45.6391946,31.083822 C47.492886,31.083822 48.5539645,32.0170597 48.5539645,33.6278537 L48.5539645,33.7045581 C48.5539645,34.9701819 47.2116362,35.136375 43.7982872,35.468761 C39.9119273,35.8267152 36.4218738,37.1306912 36.4218738,41.5156302 C36.4218738,45.4019902 39.1960189,47.3707383 42.941754,47.3707383 Z M44.5014116,43.6122191 C42.8266972,43.6122191 41.6249938,42.8323903 41.6249938,41.3366531 C41.6249938,39.8025637 42.8906176,39.048303 44.8082294,38.7798374 C45.9971488,38.6136444 47.9403287,38.3323946 48.5923167,37.897736 L48.5923167,39.9815408 C48.5923167,42.0397775 46.8920343,43.6122191 44.5014116,43.6122191 Z M66.0809564,47.2684657 C67.487205,47.2173293 68.4843631,46.9360796 69.0340785,46.7571025 L68.1775453,42.7045496 C67.9090796,42.7556859 67.3337961,42.8835267 66.8224329,42.8835267 C65.7357862,42.8835267 64.9815256,42.4744361 64.9815256,40.9659148 L64.9815256,31.4545603 L68.6761243,31.4545603 L68.6761243,27.3636551 L64.9815256,27.3636551 L64.9815256,22.6591141 L59.535508,22.6591141 L59.535508,27.3636551 L56.8508515,27.3636551 L56.8508515,31.4545603 L59.535508,31.4545603 L59.535508,41.6818233 C59.5099399,45.5298309 62.130676,47.4346587 66.0809564,47.2684657 Z M80.9616371,47.3835224 C85.819587,47.3835224 89.0923112,45.0184678 89.8593559,41.3750054 L84.8224289,41.0426193 C84.2727135,42.5383565 82.8664648,43.3181853 81.0511257,43.3181853 C78.3281169,43.3181853 76.6022663,41.5156302 76.6022663,38.5880762 L76.6022663,38.5752921 L89.9744126,38.5752921 L89.9744126,37.0795549 C89.9744126,30.4062658 85.9346437,27.1079735 80.7443078,27.1079735 C74.9659042,27.1079735 71.2201691,31.2116628 71.2201691,37.2713161 C71.2201691,43.4971624 74.9147679,47.3835224 80.9616371,47.3835224 Z M84.8479971,35.2002953 L76.6022663,35.2002953 C76.717323,32.9630816 78.4176055,31.1733105 80.8337963,31.1733105 C83.1988509,31.1733105 84.835213,32.8608089 84.8479971,35.2002953 Z M98.9744246,47 L98.9744246,35.8906356 C98.9744246,33.4744447 100.738627,31.8125145 103.142034,31.8125145 C103.896295,31.8125145 104.931805,31.9403553 105.443168,32.1065483 L105.443168,27.2741665 C104.957373,27.1591098 104.279817,27.0824054 103.730102,27.0824054 C101.53124,27.0824054 99.7286852,28.3608132 99.0127768,30.7897882 L98.8082315,30.7897882 L98.8082315,27.3636551 L93.528407,27.3636551 L93.528407,47 L98.9744246,47 Z M115.887776,47 L115.887776,31.4545603 L119.78692,31.4545603 L119.78692,27.3636551 L115.887776,27.3636551 L115.887776,26.046895 C115.887776,24.7173508 116.424707,23.937522 118.022717,23.937522 C118.674705,23.937522 119.339477,24.0781469 119.774136,24.2187717 L120.732942,20.1278665 C120.055385,19.9233213 118.559648,19.5909352 116.884934,19.5909352 C113.190335,19.5909352 110.441758,21.6747401 110.441758,25.9446224 L110.441758,27.3636551 L107.667613,27.3636551 L107.667613,31.4545603 L110.441758,31.4545603 L110.441758,47 L115.887776,47 Z M131.292603,47.3835224 C137.249984,47.3835224 140.957367,43.3054013 140.957367,37.258532 C140.957367,31.1733105 137.249984,27.1079735 131.292603,27.1079735 C125.335222,27.1079735 121.62784,31.1733105 121.62784,37.258532 C121.62784,43.3054013 125.335222,47.3835224 131.292603,47.3835224 Z M131.318171,43.1647764 C128.569594,43.1647764 127.163346,40.6463129 127.163346,37.2201798 C127.163346,33.7940467 128.569594,31.2627991 131.318171,31.2627991 C134.015612,31.2627991 135.421861,33.7940467 135.421861,37.2201798 C135.421861,40.6463129 134.015612,43.1647764 131.318171,43.1647764 Z M148.129255,47 L151.938911,40.2116542 L155.812486,47 L161.373561,47 L155.531237,37.1818275 L161.220152,27.3636551 L155.633509,27.3636551 L151.938911,34.2287054 L148.3338,27.3636551 L142.708806,27.3636551 L148.3338,37.1818275 L142.504261,47 L148.129255,47 Z" id="Waterfox" fill="#000000" fill-rule="nonzero"></path>
            </g>
        </g>
    </g>
</svg>