<?xml version="1.0" encoding="UTF-8"?>
<svg width="341px" height="32px" viewBox="0 0 341 32" version="1.1" xmlns="http://www.w3.org/2000/svg" xmlns:xlink="http://www.w3.org/1999/xlink">
    <title>about-wordmark</title>
    <g id="Page-1" stroke="none" stroke-width="1" fill="none" fill-rule="evenodd">
        <g id="about-wordmark" fill="#FFFFFF" fill-rule="nonzero">
            <path d="M205.4176,31 C211.042595,31 213.954524,27.9176166 213.954524,23.4573936 C213.954524,19.224443 211.284072,16.4261503 208.286915,16.1846732 L208.286915,16.0142188 C210.999981,15.3181968 212.818161,12.9460399 212.818161,9.40911865 C212.818161,4.9346839 209.934641,1.90911865 204.650555,1.90911865 L195.204541,1.90911865 L195.204541,31 L205.4176,31 Z M205.26135,15.4176285 L196.980108,15.4176285 L196.980108,3.5568444 L204.650555,3.5568444 C208.769869,3.5568444 211.099413,5.8011604 211.099413,9.4091115 C211.099413,12.7471765 208.968733,15.4176285 205.26135,15.4176285 Z M205.4176,29.3522743 L196.980108,29.3522743 L196.980108,17.0369451 L205.474418,17.0369451 C209.480096,17.0369451 212.235775,19.7926243 212.235775,23.4573936 C212.235775,26.9232993 209.792596,29.3522743 205.4176,29.3522743 Z M222.07954,31 L222.07954,16.6250137 C222.07954,13.1022898 224.707379,10.5596786 228.343739,10.5596786 C228.798284,10.5596786 229.096579,10.6164967 229.323852,10.6449058 L229.323852,8.8977484 C229.053966,8.8835438 228.75567,8.8835438 228.443171,8.8835438 C225.559651,8.8835438 223.130676,10.3608151 222.193177,12.5909266 L222.036927,12.5909266 L222.036927,9.181839 L220.346587,9.181839 L220.346587,31 L222.07954,31 Z M241.411921,31.454545 C246.809643,31.454545 250.730094,26.7102314 250.730094,20.1619422 C250.730094,13.6136529 246.795438,8.8551348 241.411921,8.8551348 C236.014199,8.8551348 232.093748,13.5994484 232.093748,20.1619422 C232.093748,26.7102314 236.014199,31.454545 241.411921,31.454545 Z M241.411921,29.8494329 C236.823857,29.8494329 233.812496,25.5738688 233.812496,20.1619422 C233.812496,14.7784246 236.852266,10.4744514 241.411921,10.4744514 C245.98578,10.4744514 249.011345,14.76422 249.011345,20.1619422 C249.011345,25.5738688 245.999984,29.8494329 241.411921,29.8494329 Z M262.661922,31 L268.230099,12.0085408 L268.414757,12.0085408 L273.982934,31 L275.91475,31 L282.448835,9.181839 L280.630655,9.181839 L275.00566,28.4431843 L274.863615,28.4431843 L269.23862,9.181839 L267.434645,9.181839 L261.795446,28.4573888 L261.639196,28.4573888 L256.014201,9.181839 L254.196021,9.181839 L260.730106,31 L262.661922,31 Z M294.28124,31.454545 C298.826691,31.454545 301.980097,28.9261383 301.980097,25.3039827 C301.980097,22.4914854 300.218735,20.5454645 296.781238,19.6931926 L293.428969,18.8551348 C290.588062,18.1591032 289.224427,16.8096726 289.224427,14.735811 C289.224427,12.1789952 291.468743,10.4318378 294.678967,10.4318378 C297.661919,10.4318378 299.323849,11.9233136 300.119303,14.309675 L301.724415,13.8835391 C300.67328,10.6733148 298.372146,8.8551348 294.678967,8.8551348 C290.502835,8.8551348 287.505679,11.2699052 287.505679,14.7926291 C287.505679,17.6051264 289.281245,19.5795563 292.846583,20.4460328 L296.326693,21.2983047 C298.926122,21.9375086 300.218735,23.3437573 300.218735,25.3608008 C300.218735,28.0028438 297.832373,29.8636374 294.267036,29.8636374 C291.042607,29.8636374 289.039768,28.3579571 288.414769,25.5028462 L286.752839,25.9289821 C287.505679,29.4801151 290.218744,31.454545 294.28124,31.454545 Z M316.482943,31.454545 C320.786916,31.454545 323.428959,28.9403429 324.423276,26.7386404 L322.846573,26.0994365 C322.036915,27.7187531 320.034076,29.8494329 316.482943,29.8494329 C311.525561,29.8494329 308.556814,25.8437549 308.485792,20.4744419 L325.133503,20.4744419 L325.133503,19.3948974 C325.133503,12.9176309 320.957371,8.8551348 316.071012,8.8551348 C310.659085,8.8551348 306.767043,13.6704711 306.767043,20.1903512 C306.767043,26.6960268 310.559653,31.454545 316.482943,31.454545 Z M323.40055,18.8977388 L308.514201,18.8977388 C308.855109,14.1392206 311.937493,10.4744514 316.071012,10.4744514 C320.218735,10.4744514 323.40055,14.1676297 323.40055,18.8977388 Z M332.846586,31 L332.846586,16.6250137 C332.846586,13.1022898 335.474424,10.5596786 339.110784,10.5596786 C339.565329,10.5596786 339.863625,10.6164967 340.090897,10.6449058 L340.090897,8.8977484 C339.821011,8.8835438 339.522716,8.8835438 339.210216,8.8835438 C336.326696,8.8835438 333.897721,10.3608151 332.960222,12.5909266 L332.803972,12.5909266 L332.803972,9.181839 L331.113633,9.181839 L331.113633,31 L332.846586,31 Z" id="Browser"></path>
            <path d="M15.0710084,31 L20.5965713,11.9801318 L20.8238438,11.9801318 L26.3636112,31 L32.3579237,31 L40.6817794,1.90911865 L33.9630358,1.90911865 L29.1476995,22.1647812 L28.8920179,22.1647812 L23.5937275,1.90911865 L17.8408921,1.90911865 L12.5283971,22.1221676 L12.2869201,22.1221676 L7.47158378,1.90911865 L0.752840191,1.90911865 L9.07669589,31 L15.0710084,31 Z M47.7130599,31.4119314 C50.9374887,31.4119314 53.0255549,30.0056828 54.0908948,27.9744347 L54.2613492,27.9744347 L54.2613492,31 L59.99998,31 L59.99998,16.2841049 C59.99998,11.0852463 55.5965752,8.8977484 50.7386252,8.8977484 C45.5113575,8.8977484 42.0738608,11.3977484 41.2357934,15.3750149 L46.832379,15.8295599 C47.2443104,14.3806977 48.5369228,13.3153578 50.7102162,13.3153578 C52.7698733,13.3153578 53.9488495,14.3522886 53.9488495,16.1420596 L53.9488495,16.2272868 C53.9488495,17.5163481 52.6955954,17.7789346 49.5654443,18.098216 L48.9755051,18.157133 C48.8736886,18.167137 48.7701139,18.1772534 48.6647636,18.1875122 C44.3465859,18.5852391 40.4687487,20.0341014 40.4687487,24.9062558 C40.4687487,29.2244335 43.5511321,31.4119314 47.7130599,31.4119314 Z M49.4460128,27.235799 C47.5852192,27.235799 46.2499932,26.3693226 46.2499932,24.7073924 C46.2499932,23.0028485 47.6562418,22.1647812 49.7869216,21.866486 C51.1079431,21.6818271 53.2670319,21.3693274 53.991463,20.8863733 L53.991463,23.201712 C53.991463,25.4886416 52.1022603,27.235799 49.4460128,27.235799 Z M73.4232848,31.2982952 C74.9857833,31.241477 76.0937368,30.9289773 76.7045317,30.7301139 L75.7528281,26.2272773 C75.4545329,26.2840954 74.815329,26.4261407 74.2471477,26.4261407 C73.0397625,26.4261407 72.2016951,25.9715957 72.2016951,24.2954609 L72.2016951,13.7272892 L76.3068048,13.7272892 L76.3068048,9.181839 L72.2016951,9.181839 L72.2016951,3.9545712 L66.1505645,3.9545712 L66.1505645,9.181839 L63.1676128,9.181839 L63.1676128,13.7272892 L66.1505645,13.7272892 L66.1505645,25.0909147 C66.1221554,29.3664788 69.0340845,31.4829541 73.4232848,31.2982952 Z M89.9573746,31.426136 C95.3550967,31.426136 98.9914569,28.7982976 99.8437288,24.750006 L94.2471432,24.3806881 C93.6363483,26.0426184 92.0738498,26.9090948 90.0568063,26.9090948 C87.031241,26.9090948 85.1136292,24.9062558 85.1136292,21.653418 L85.1136292,21.6392135 L99.9715696,21.6392135 L99.9715696,19.9772832 C99.9715696,12.5625176 95.4829375,8.8977484 89.7158975,8.8977484 C83.2954491,8.8977484 79.1335213,13.4574031 79.1335213,20.1903512 C79.1335213,27.1079583 83.238631,31.426136 89.9573746,31.426136 Z M94.2755523,17.889217 L85.1136292,17.889217 C85.24147,15.403424 87.1306727,13.4147895 89.8153293,13.4147895 C92.4431677,13.4147895 94.2613477,15.2897877 94.2755523,17.889217 Z M109.971583,31 L109.971583,18.6562618 C109.971583,15.9716052 111.931808,14.1250161 114.60226,14.1250161 C115.440328,14.1250161 116.590895,14.2670614 117.159076,14.4517203 L117.159076,9.0824073 C116.619304,8.9545665 115.866464,8.8693393 115.255669,8.8693393 C112.812489,8.8693393 110.80965,10.2897925 110.014196,12.9886535 L109.786924,12.9886535 L109.786924,9.181839 L103.920452,9.181839 L103.920452,31 L109.971583,31 Z M128.764195,31 L128.764195,13.7272892 L133.096577,13.7272892 L133.096577,9.181839 L128.764195,9.181839 L128.764195,7.7187722 C128.764195,6.2415009 129.360786,5.3750244 131.136352,5.3750244 C131.860783,5.3750244 132.599419,5.5312743 133.082373,5.6875241 L134.147713,1.14207393 C133.394873,0.91480142 131.732942,0.54548359 129.872149,0.54548359 C125.767039,0.54548359 122.713065,2.8608223 122.713065,7.6051359 L122.713065,9.181839 L119.630681,9.181839 L119.630681,13.7272892 L122.713065,13.7272892 L122.713065,31 L128.764195,31 Z M145.88067,31.426136 C152.499982,31.426136 156.619296,26.8948903 156.619296,20.1761467 C156.619296,13.4147895 152.499982,8.8977484 145.88067,8.8977484 C139.261358,8.8977484 135.142044,13.4147895 135.142044,20.1761467 C135.142044,26.8948903 139.261358,31.426136 145.88067,31.426136 Z M145.909079,26.7386404 C142.855105,26.7386404 141.292606,23.9403476 141.292606,20.1335331 C141.292606,16.3267185 142.855105,13.5142212 145.909079,13.5142212 C148.906235,13.5142212 150.468734,16.3267185 150.468734,20.1335331 C150.468734,23.9403476 148.906235,26.7386404 145.909079,26.7386404 Z M164.588061,31 L168.821012,23.4573936 L173.124985,31 L179.303956,31 L172.812485,20.0909195 L179.133502,9.181839 L172.926122,9.181839 L168.821012,16.8096726 L164.815334,9.181839 L158.56534,9.181839 L164.815334,20.0909195 L158.338067,31 L164.588061,31 Z" id="Waterfox"></path>
        </g>
    </g>
</svg>