<?xml version="1.0" encoding="UTF-8"?>
<svg width="197px" height="38px" viewBox="0 0 197 38" version="1.1" xmlns="http://www.w3.org/2000/svg" xmlns:xlink="http://www.w3.org/1999/xlink">
    <title>Waterfox</title>
    <g id="Page-1" stroke="none" stroke-width="1" fill="none" fill-rule="evenodd">
        <g id="firefox-wordmark" fill="#FFFFFF" fill-rule="nonzero">
            <path d="M18.08521,37 L24.7158855,14.1761581 L24.9886125,14.1761581 L31.6363335,37 L38.8295084,37 L48.8181353,2.0909424 L40.755643,2.0909424 L34.9772394,26.3977374 L34.6704215,26.3977374 L28.312473,2.0909424 L21.4090705,2.0909424 L15.0340766,26.3466011 L14.7443041,26.3466011 L8.96590054,2.0909424 L0.903408229,2.0909424 L10.8920351,37 L18.08521,37 Z M54.6156719,37.4943177 C58.4849864,37.4943177 60.9906659,35.8068193 62.2690737,33.3693216 L62.473619,33.3693216 L62.473619,37 L69.3599761,37 L69.3599761,19.3409259 C69.3599761,13.1022955 64.0758902,10.477298 58.2463503,10.477298 C51.973629,10.477298 47.8486329,13.477298 46.8429521,18.2500179 L53.5588548,18.7954719 C54.0531725,17.0568372 55.6043074,15.7784293 58.2122594,15.7784293 C60.683848,15.7784293 62.0986193,17.0227463 62.0986193,19.1704715 L62.0986193,19.2727442 C62.0986193,20.9602426 60.3088483,21.1818333 55.7577163,21.6250147 C50.5759031,22.1022869 45.9224984,23.8409216 45.9224984,29.687507 C45.9224984,34.8693202 49.6213585,37.4943177 54.6156719,37.4943177 Z M56.6952154,32.4829589 C54.462263,32.4829589 52.8599918,31.4431871 52.8599918,29.4488708 C52.8599918,27.4034182 54.5474902,26.3977374 57.1043059,26.0397832 C58.6895317,25.8181925 61.2804383,25.4431928 62.1497557,24.8636479 L62.1497557,27.6420544 C62.1497557,30.3863699 59.8827124,32.4829589 56.6952154,32.4829589 Z M82.8279418,37.3579542 C84.70294,37.2897725 86.0324842,36.9147728 86.765438,36.6761367 L85.6233937,31.2727327 C85.2654395,31.3409145 84.4983948,31.5113689 83.8165772,31.5113689 C82.367715,31.5113689 81.3620341,30.9659148 81.3620341,28.9545531 L81.3620341,16.272747 L86.2881658,16.272747 L86.2881658,10.8182068 L81.3620341,10.8182068 L81.3620341,4.5454855 L74.1006774,4.5454855 L74.1006774,10.8182068 L70.5211354,10.8182068 L70.5211354,16.272747 L74.1006774,16.272747 L74.1006774,29.9090977 C74.0665865,35.0397746 77.5609014,37.5795449 82.8279418,37.3579542 Z M100.028849,37.5113631 C106.506116,37.5113631 110.869748,34.3579571 111.892475,29.5000072 L105.176572,29.0568258 C104.443618,31.051142 102.56862,32.0909138 100.148168,32.0909138 C96.5174892,32.0909138 94.216355,29.687507 94.216355,25.7841016 L94.216355,25.7670562 L112.045883,25.7670562 L112.045883,23.7727399 C112.045883,14.8750211 106.659525,10.477298 99.739077,10.477298 C92.0345389,10.477298 87.0402255,15.9488837 87.0402255,24.0284215 C87.0402255,32.3295499 91.9663572,37.5113631 100.028849,37.5113631 Z M105.210663,21.2670605 L94.216355,21.2670605 C94.369764,18.2841088 96.6368073,15.8977474 99.8583951,15.8977474 C103.011801,15.8977474 105.193617,18.1477453 105.210663,21.2670605 Z M121.405899,37 L121.405899,22.1875141 C121.405899,18.9659263 123.75817,16.7500193 126.962712,16.7500193 C127.968393,16.7500193 129.349074,16.9204737 130.030891,17.1420644 L130.030891,10.6988887 C129.383165,10.5454798 128.479756,10.4432071 127.746802,10.4432071 C124.814987,10.4432071 122.41158,12.147751 121.457036,15.3863842 L121.184309,15.3863842 L121.184309,10.8182068 L114.144543,10.8182068 L114.144543,37 L121.405899,37 Z M141.317034,37 L141.317034,16.272747 L146.515893,16.272747 L146.515893,10.8182068 L141.317034,10.8182068 L141.317034,9.0625266 C141.317034,7.2898011 142.032943,6.2500293 144.163622,6.2500293 C145.03294,6.2500293 145.919303,6.4375291 146.498847,6.625029 L147.777255,1.1704887 C146.873847,0.8977617 144.879531,0.4545803 142.646578,0.4545803 C137.720447,0.4545803 134.055678,3.2329867 134.055678,8.9261631 L134.055678,10.8182068 L130.356817,10.8182068 L130.356817,16.272747 L134.055678,16.272747 L134.055678,37 L141.317034,37 Z M159.216804,37.5113631 C167.159978,37.5113631 172.103155,32.0738683 172.103155,24.011376 C172.103155,15.8977474 167.159978,10.477298 159.216804,10.477298 C151.27363,10.477298 146.330453,15.8977474 146.330453,24.011376 C146.330453,32.0738683 151.27363,37.5113631 159.216804,37.5113631 Z M159.250895,31.8863685 C155.586126,31.8863685 153.711128,28.5284172 153.711128,23.9602397 C153.711128,19.3920622 155.586126,16.0170655 159.250895,16.0170655 C162.847482,16.0170655 164.722481,19.3920622 164.722481,23.9602397 C164.722481,28.5284172 162.847482,31.8863685 159.250895,31.8863685 Z M179.025681,37 L184.105214,27.9488723 L189.269982,37 L196.684748,37 L188.894982,23.9091034 L196.480202,10.8182068 L189.031346,10.8182068 L184.105214,19.9716071 L179.298401,10.8182068 L171.798408,10.8182068 L179.298401,23.9091034 L171.525681,37 L179.025681,37 Z" id="Waterfox"></path>
        </g>
    </g>
</svg>