<?xml version="1.0" encoding="UTF-8"?>
<svg width="16px" height="14px" viewBox="0 0 16 14" version="1.1" xmlns="http://www.w3.org/2000/svg" xmlns:xlink="http://www.w3.org/1999/xlink">
    <title>Combined Shape</title>
    <g id="Page-1" stroke="none" stroke-width="1" fill="none" fill-rule="evenodd" fill-opacity="0">
        <g id="identity-icons-brand" fill="#000000" fill-rule="nonzero">
            <path d="M12.0811428,3.82041509 C12.2669577,4.12437583 12.1241368,4.2856942 11.747474,4.60753286 L11.7338139,4.61902499 C11.7048094,4.64380146 11.6744192,4.66952926 11.6426867,4.69634671 C11.276541,5.00578305 10.7362607,5.45968455 10.0861644,6.26354772 C10.0884732,6.26601053 10.0902041,6.26909618 10.0919269,6.27218928 L11.21,8.28 L12.7351168,4.84105992 C13.0953233,4.02771237 14.0138724,3.63560439 14.8403076,3.91584244 L14.9850605,3.97232669 C15.846252,4.35372177 16.2348297,5.36107882 15.8534346,6.22227034 L14.1405599,10.0881541 C14.1423161,10.08474 14.1440548,10.0813152 14.1457758,10.0778801 L12.9523899,12.7720664 C12.8180757,13.0809174 12.4524823,13.5107949 12.0502577,13.6476231 C11.2565824,13.9902322 10.3163825,13.6824586 9.88650503,12.9110493 L8.01897681,9.5583321 C7.88619865,9.79744556 7.74348496,10.0534704 7.59814787,10.3135752 L7.28081184,10.880628 C6.8596077,11.6322452 6.46088984,12.3400009 6.26278626,12.6913089 L6.15460701,12.8830719 C6.1401631,12.9086631 6.13252881,12.9221823 6.13252881,12.9221823 C6.03267022,13.1014783 5.90527073,13.2557057 5.75856117,13.3825428 C5.36495231,13.7299637 4.8276941,13.8778221 4.31030789,13.7794234 L4.31066702,13.78086 C3.77664209,13.6813812 3.29935955,13.3290756 3.06269349,12.7946915 L1.86571628,10.1001461 L1.869,10.107 L0.146565405,6.22119295 C-0.213641057,5.40784541 0.11294915,4.46412181 0.875834628,4.0404787 L1.01493951,3.9712493 L1.15969242,3.91476505 C1.98612761,3.634527 2.90467669,4.02663499 3.26488316,4.83998253 L3.26488316,4.83998253 L4.81982661,8.34611452 C5.38017321,7.37171311 5.942182,6.39720884 6.26001964,5.85416304 C6.61498988,5.24721705 7.05512136,4.742307 7.53460219,4.3388416 C9.22904316,2.90404121 11.4209949,2.7399945 12.0811428,3.82041509 Z M4.03234199,3.76510921 C4.44354478,2.71896622 5.762985,3.26376503 5.2738512,4.19714149 C4.81488424,5.07341643 5.10146924,5.68393586 4.91651777,5.61677872 C4.13720768,5.33306675 3.78957073,4.38352948 4.03234199,3.76510921 Z M8.16484025,2.91217766 C6.32358548,3.63007668 6.49704482,4.27363598 6.29126386,4.19857801 C6.08548291,4.12352003 5.58306133,2.25102104 6.93446404,1.04973428 C8.8795071,-0.679113079 10.9319298,1.83263567 8.16484025,2.91217766 Z M11.2741798,-5.55111512e-16 C11.695079,-5.55111512e-16 12.0358925,0.341172621 12.0358925,0.761712766 C12.0358925,1.18225291 11.6947199,1.52342553 11.2741798,1.52342553 C10.8532805,1.52342553 10.512467,1.18225291 10.512467,0.761712766 C10.512467,0.341172621 10.8536396,-5.55111512e-16 11.2741798,-5.55111512e-16 Z" id="Combined-Shape"></path>
        </g>
    </g>
</svg>