<?xml version="1.0" encoding="utf-8"?>
<!-- Generator: Adobe Illustrator 18.1.1, SVG Export Plug-In . SVG Version: 6.00 Build 0)  -->
<!DOCTYPE svg PUBLIC "-//W3C//DTD SVG 1.1//EN" "http://www.w3.org/Graphics/SVG/1.1/DTD/svg11.dtd">
<svg version="1.1" id="Layer_1" xmlns="http://www.w3.org/2000/svg" xmlns:xlink="http://www.w3.org/1999/xlink" x="0px" y="0px"
	 viewBox="0 0 800 600" enable-background="new 0 0 800 600" xml:space="preserve">
<path fill-rule="evenodd" clip-rule="evenodd" fill="#CCCCCC" d="M534.7,344c0,89.6-72.6,162.2-162.2,162.2S210.4,433.5,210.4,344
	c0-79.8,57.6-146.1,133.6-159.7c5.5-19,23-32.9,43.8-32.9c2.1,0,4.2,0.2,6.2,0.4c-7,8-11.3,18.5-11.3,30c0,12.3,4.9,23.5,12.9,31.8
	c-4.8-9.1-7.6-19.5-7.8-30.5c33.3,5.7,45.5,29.1,81,29.1c1.8,0,3.4-0.2,5.1-0.4c-12.3,30-41.6,51.1-76,51.1h-25.3
	c-24.8,0-46.5,4-67.1,11.4c20.2,3.5,37.8,14.5,49.9,30c-2.7-0.5-5.4-0.8-8.1-0.8c-30.9,0-55.7,24.8-55.7,55.7
	c0,36.4,29.5,65.9,65.9,65.9c30.9,0,55.7-24.8,55.7-55.7c0-2.7-0.3-5.4-0.8-8.1c19,14.8,31.2,37.9,31.2,63.9
	c0,14.2-3.7,27.5-10.1,39.2c21.6-17.7,35.5-44.5,35.5-74.6c0-30.4-15.2-40.5-15.2-70.9c0-34.4,21.1-63.7,51.1-76
	c-0.2,1.7-0.4,3.3-0.4,5.1C504.3,288.2,534.7,298.3,534.7,344z"/>
</svg>
