<svg id="Layer_1" data-name="Layer 1" xmlns="http://www.w3.org/2000/svg" width="128.4" height="22.3" viewBox="0 0 128.4 22.3"><defs><style>.cls-1{fill:#666;}</style></defs><title>about-wordmark</title><path class="cls-1" d="M15.9,8l4.3,16.1c.3,1.2.5,2.3.5,2.3h.1a17,17,0,0,1,.4-2.3L25.2,8h3.2L22.7,29.9H19L15.2,15.7c-.4-1.4-.7-3.1-.7-3.1h-.1s-.3,1.7-.7,3.1L9.9,29.9H6.5L.9,8H4.1L8,24.1a17,17,0,0,1,.4,2.3h.1s.2-1.1.5-2.3L13.2,8Z" transform="translate(-0.9 -8)"/><path class="cls-1" d="M39.3,20.1H40v-.3c0-2.6-1.5-3.4-3.4-3.4a8.24,8.24,0,0,0-4.4,1.5L31,15.7a9.9,9.9,0,0,1,5.9-1.9c4,0,6.2,2.2,6.2,6.1v9.9H40.3V28.3a6.76,6.76,0,0,1,.1-1.2h-.1a5.46,5.46,0,0,1-5,3.1c-2.7,0-5.3-1.6-5.3-4.8C29.9,20.4,36.7,20.1,39.3,20.1Zm-3.5,7.8c2.5,0,4.2-2.7,4.2-5v-.5h-.8c-2.3,0-6.4.2-6.4,3A2.75,2.75,0,0,0,35.8,27.9Z" transform="translate(-0.9 -8)"/><path class="cls-1" d="M48.1,16.9h-2V14.5h2.1V9.9h2.9v4.5h3.8v2.4H51.1v7c0,3.1,2.2,3.5,3.3,3.5a2.44,2.44,0,0,0,.7-.1V30a5,5,0,0,1-1.1.1c-2,0-6-.6-6-5.9V16.9Z" transform="translate(-0.9 -8)"/><path class="cls-1" d="M65.3,13.9c4.4,0,6.8,3.3,6.8,7.3,0,.4-.1,1.3-.1,1.3H60.5a5.2,5.2,0,0,0,5.4,5.2,7.75,7.75,0,0,0,4.7-1.8l1.2,2.2a9.35,9.35,0,0,1-6.1,2.2,8,8,0,0,1-8.3-8.2C57.4,17.1,60.8,13.9,65.3,13.9ZM69,20.3c-.1-2.7-1.8-4-3.8-4a4.46,4.46,0,0,0-4.6,4Z" transform="translate(-0.9 -8)"/><path class="cls-1" d="M75.7,14.2h2.9V17a6.76,6.76,0,0,1-.1,1.2h.1a5.32,5.32,0,0,1,5-4.1,3.78,3.78,0,0,1,.8.1v3a4.13,4.13,0,0,0-.9-.1,4.81,4.81,0,0,0-4.4,3.7,9,9,0,0,0-.4,2.8V30h-3Z" transform="translate(-0.9 -8)"/><path class="cls-1" d="M88.2,16.9h-2V14.5h2v-.7c0-5.2,3.9-5.8,5.9-5.8a5,5,0,0,1,1.1.1v2.6a2.77,2.77,0,0,0-.8-.1,3,3,0,0,0-3.3,3.3v.7h3.7V17H91.1V30.1h-3V16.9Z" transform="translate(-0.9 -8)"/><path class="cls-1" d="M105.1,13.9a8.21,8.21,0,1,1-8.5,8.2A8.18,8.18,0,0,1,105.1,13.9Zm0,13.8a5.42,5.42,0,0,0,5.4-5.6,5.37,5.37,0,0,0-5.4-5.6,5.42,5.42,0,0,0-5.4,5.6A5.37,5.37,0,0,0,105.1,27.7Z" transform="translate(-0.9 -8)"/><path class="cls-1" d="M122.4,23.8a4.54,4.54,0,0,1-.5.9l-3.3,5.2h-3.4l5.3-8.1-5.1-7.6h3.4l2.9,4.8c.2.4.5.9.5.9h.1s.3-.5.5-.9l2.9-4.8h3.4L124,21.8l5.3,8.1h-3.4l-3.3-5.2a1.44,1.44,0,0,0-.2-.9Z" transform="translate(-0.9 -8)"/></svg>