<?xml version="1.0" encoding="utf-8"?>
<!-- Generator: Adobe Illustrator 17.1.0, SVG Export Plug-In . SVG Version: 6.00 Build 0)  -->
<!DOCTYPE svg PUBLIC "-//W3C//DTD SVG 1.1//EN" "http://www.w3.org/Graphics/SVG/1.1/DTD/svg11.dtd">
<svg version="1.1" id="aboutWordmark" xmlns="http://www.w3.org/2000/svg" xmlns:xlink="http://www.w3.org/1999/xlink" x="0px"
	 y="0px" viewBox="0 0 132 48" enable-background="new 0 0 132 48" xml:space="preserve">
<g>
	<path fill="#FFFFFF" d="M6.5,35l-6-23.6h3.2l2.8,11.9c0.7,2.9,1.3,5.9,1.8,8.2h0.1c0.4-2.3,1.1-5.1,1.9-8.2l3.2-11.9h3.2l2.9,12
		c0.7,2.8,1.3,5.6,1.6,8.1h0.1c0.5-2.6,1.2-5.2,1.9-8.2l3.1-11.9h3.1L22.6,35h-3.2l-3-12.3c-0.7-3-1.2-5.3-1.5-7.7h-0.1
		c-0.4,2.3-0.9,4.7-1.8,7.7L9.7,35H6.5z"/>
	<path fill="#FFFFFF" d="M40.4,35l-0.2-2.1H40c-0.9,1.3-2.8,2.5-5.2,2.5c-3.4,0-5.2-2.4-5.2-4.9c0-4.1,3.6-6.3,10.2-6.3v-0.4
		c0-1.4-0.4-3.9-3.9-3.9c-1.6,0-3.2,0.5-4.4,1.3l-0.7-2c1.4-0.9,3.4-1.5,5.6-1.5c5.2,0,6.4,3.5,6.4,6.9v6.3c0,1.5,0.1,2.9,0.3,4.1
		H40.4z M39.9,26.4c-3.4-0.1-7.2,0.5-7.2,3.8c0,2,1.3,2.9,2.9,2.9c2.2,0,3.6-1.4,4.1-2.8c0.1-0.3,0.2-0.7,0.2-1V26.4z"/>
	<path fill="#FFFFFF" d="M51.5,13.2v4.9h4.4v2.3h-4.4v9.1c0,2.1,0.6,3.3,2.3,3.3c0.8,0,1.4-0.1,1.8-0.2l0.1,2.3
		c-0.6,0.2-1.5,0.4-2.7,0.4c-1.4,0-2.6-0.5-3.3-1.3c-0.9-0.9-1.2-2.4-1.2-4.4v-9.2h-2.6v-2.3h2.6V14L51.5,13.2z"/>
	<path fill="#FFFFFF" d="M60.8,27.1c0.1,4.2,2.7,5.9,5.8,5.9c2.2,0,3.5-0.4,4.7-0.9l0.5,2.2c-1.1,0.5-2.9,1-5.6,1
		c-5.2,0-8.3-3.4-8.3-8.5c0-5.1,3-9.1,7.9-9.1c5.5,0,7,4.9,7,8c0,0.6-0.1,1.1-0.1,1.4H60.8z M69.9,24.9c0-2-0.8-5-4.3-5
		c-3.1,0-4.5,2.9-4.7,5H69.9z"/>
	<path fill="#FFFFFF" d="M76.7,23.3c0-2,0-3.7-0.1-5.3h2.7l0.1,3.3h0.1c0.8-2.3,2.6-3.7,4.7-3.7c0.4,0,0.6,0,0.9,0.1v2.9
		c-0.3-0.1-0.6-0.1-1-0.1c-2.2,0-3.7,1.6-4.1,4c-0.1,0.4-0.1,0.9-0.1,1.4v9h-3V23.3z"/>
	<path fill="#FFFFFF" d="M89.5,35V20.4h-2.4v-2.3h2.4v-0.8c0-2.4,0.5-4.6,2-5.9c1.2-1.1,2.7-1.6,4.1-1.6c1.1,0,2,0.2,2.6,0.5
		l-0.4,2.4c-0.5-0.2-1.1-0.4-2-0.4c-2.6,0-3.3,2.3-3.3,4.9v0.9h4.1v2.3h-4.1V35H89.5z"/>
	<path fill="#FFFFFF" d="M114.2,26.4c0,6.3-4.3,9-8.4,9c-4.6,0-8.1-3.4-8.1-8.7c0-5.7,3.7-9,8.4-9C111,17.7,114.2,21.2,114.2,26.4z
		 M100.8,26.6c0,3.7,2.1,6.5,5.1,6.5c2.9,0,5.1-2.8,5.1-6.6c0-2.9-1.4-6.5-5.1-6.5S100.8,23.3,100.8,26.6z"/>
	<path fill="#FFFFFF" d="M119.1,18.1l2.4,3.6c0.6,0.9,1.2,1.8,1.7,2.8h0.1c0.6-1,1.1-1.9,1.7-2.8l2.4-3.6h3.3l-5.8,8.2l6,8.8h-3.5
		l-2.5-3.8c-0.7-1-1.2-1.9-1.8-2.9H123c-0.6,1-1.2,1.9-1.8,2.9l-2.5,3.8h-3.4l6-8.6l-5.7-8.3H119.1z"/>
</g>
</svg>
