<?xml version="1.0" encoding="utf-8"?>
<!DOCTYPE svg PUBLIC "-//W3C//DTD SVG 1.1//EN" "http://www.w3.org/Graphics/SVG/1.1/DTD/svg11.dtd">
<svg version="1.1" id="Layer_1" xmlns="http://www.w3.org/2000/svg" xmlns:xlink="http://www.w3.org/1999/xlink" x="0px" y="0px"
	 width="16px" height="16px" viewBox="0 0 16 16" enable-background="new 0 0 16 16" xml:space="preserve" fill="context-fill" fill-opacity="context-fill-opacity">
<path d="M11.416,14.186c-0.193,0-0.381-0.051-0.546-0.148L2.045,8.943C1.709,8.75,1.499,8.39,1.499,8
	c0-0.387,0.209-0.75,0.543-0.945l8.831-5.096c0.162-0.096,0.352-0.146,0.543-0.146c0.189,0,0.378,0.05,0.539,0.146
	c0.336,0.195,0.543,0.557,0.543,0.945v10.194c0,0.389-0.207,0.747-0.543,0.942C11.796,14.134,11.604,14.186,11.416,14.186
	L11.416,14.186z"/>
</svg>
