<?xml version="1.0" encoding="utf-8"?>
<!DOCTYPE svg PUBLIC "-//W3C//DTD SVG 1.1//EN" "http://www.w3.org/Graphics/SVG/1.1/DTD/svg11.dtd">
<svg version="1.1" id="Layer_1" xmlns="http://www.w3.org/2000/svg" xmlns:xlink="http://www.w3.org/1999/xlink" x="0px" y="0px"
	 width="32px" height="32px" viewBox="0 0 32 32" enable-background="new 0 0 32 32" xml:space="preserve">
<path fill="#FFFFFF" d="M3,1h26c1.104,0,2,0.896,2,2v26c0,1.104-0.896,2-2,2H3c-1.104,0-2-0.896-2-2V3C1,1.896,1.896,1,3,1z"/>
<path fill="#FFFFFF" d="M3,1h26c1.1,0,2,0.627,2,1.4V18H1V2.4C1,1.627,1.9,1,3,1z"/>
<path fill="none" stroke="#ADADB3" d="M2,17.5h29"/>
<path fill="none" stroke="#ADADB3" stroke-width="2" d="M3,1h26c1.104,0,2,0.896,2,2v26c0,1.104-0.896,2-2,2H3c-1.104,0-2-0.896-2-2
	V3C1,1.896,1.896,1,3,1z"/>
<g opacity="0.7">
	<g>
		<g>
			<path fill="#040614" d="M11.14,3.967c3.051,0,5.533,2.482,5.533,5.533s-2.482,5.533-5.533,5.533
				c-3.051,0-5.533-2.482-5.533-5.533S8.089,3.967,11.14,3.967 M11.14,2.967c-3.602,0-6.533,2.931-6.533,6.533
				s2.93,6.533,6.533,6.533c3.602,0,6.533-2.931,6.533-6.533S14.742,2.967,11.14,2.967L11.14,2.967z"/>
		</g>
		<path fill="#040614" d="M12.721,12.831c-0.106,0-0.203-0.029-0.293-0.081l-4.75-2.742C7.496,9.905,7.384,9.714,7.384,9.501
			c0-0.209,0.111-0.405,0.293-0.51l4.753-2.743c0.087-0.051,0.19-0.08,0.292-0.08c0.101,0,0.203,0.029,0.292,0.08
			c0.181,0.105,0.293,0.298,0.293,0.509v5.488c0,0.209-0.112,0.401-0.293,0.507C12.927,12.802,12.824,12.831,12.721,12.831
			L12.721,12.831z"/>
	</g>
	<path fill="#040614" enable-background="new    " d="M21.557,6.171c0.107,0,0.205,0.027,0.295,0.079L26.6,8.991
		c0.183,0.105,0.295,0.294,0.295,0.509c0,0.208-0.108,0.403-0.295,0.509l-4.752,2.744c-0.089,0.051-0.189,0.078-0.291,0.078
		c-0.104,0-0.203-0.027-0.293-0.078c-0.181-0.104-0.293-0.3-0.293-0.508v-5.49c0-0.208,0.112-0.401,0.293-0.508
		C21.354,6.199,21.455,6.171,21.557,6.171L21.557,6.171z"/>
</g>
</svg>
