<?xml version="1.0" encoding="utf-8"?>
<!DOCTYPE svg PUBLIC "-//W3C//DTD SVG 1.1//EN" "http://www.w3.org/Graphics/SVG/1.1/DTD/svg11.dtd">
<svg version="1.1" id="Layer_1" xmlns="http://www.w3.org/2000/svg" xmlns:xlink="http://www.w3.org/1999/xlink" x="0px" y="0px"
	 width="20px" height="20px" viewBox="10 0 20 20" enable-background="new 10 0 20 20" xml:space="preserve" fill="context-fill">
<g>
	<g>
		<g>
			<path d="M28.25,10.5c0,4.55-3.7,8.25-8.25,8.25s-8.25-3.7-8.25-8.25c0-2.44,1.07-4.74,2.95-6.32c0.22-0.19,0.51-0.29,0.8-0.29
				c0.37,0,0.72,0.16,0.96,0.45c0.44,0.52,0.37,1.31-0.16,1.76c-1.3,1.1-2.05,2.7-2.05,4.4c0,3.17,2.58,5.75,5.75,5.75
				s5.75-2.58,5.75-5.75c0-1.7-0.75-3.3-2.05-4.4c-0.26-0.22-0.42-0.52-0.45-0.85c-0.02-0.33,0.08-0.66,0.29-0.91
				c0.24-0.29,0.59-0.45,0.96-0.45c0.29,0,0.58,0.11,0.8,0.29C27.18,5.76,28.25,8.06,28.25,10.5z"/>
		</g>
	</g>
	<g>
		<path d="M21.25,2.5v7c0,0.69-0.56,1.25-1.25,1.25c-0.69,0-1.25-0.56-1.25-1.25v-7c0-0.69,0.56-1.25,1.25-1.25
			C20.69,1.25,21.25,1.81,21.25,2.5z"/>
	</g>
</g>
</svg>
