<?xml version="1.0" encoding="utf-8"?>
<!DOCTYPE svg PUBLIC "-//W3C//DTD SVG 1.1//EN" "http://www.w3.org/Graphics/SVG/1.1/DTD/svg11.dtd">
<svg version="1.1" id="Layer_1" xmlns="http://www.w3.org/2000/svg" xmlns:xlink="http://www.w3.org/1999/xlink" x="0px" y="0px"
	 width="16px" height="16px" viewBox="0 0 16 16" enable-background="new 0 0 16 16" xml:space="preserve" fill="context-fill" fill-opacity="context-fill-opacity">
<g>
	<path d="M14.859,3.2C14.65,3.68,14.17,4,13.641,4c-0.011,0.01-0.021,0.01-0.029,0h-0.23H13v4.5c0,0.83-0.67,1.5-1.5,1.5
		S10,9.33,10,8.5V4H9.359C8.71,3.99,8.15,3.53,8.03,2.89L6.58,1.54C6.21,1.19,5.73,1,5.22,1H2C0.9,1,0,1.9,0,3v10c0,1.1,0.9,2,2,2
		h12c1.1,0,2-0.9,2-2V5C16,4.23,15.55,3.53,14.859,3.2z"/>
	<path fill-opacity=".75" d="M9.49,2.99c0.01,0,0.01,0,0.02,0c0.131,0,0.25-0.05,0.34-0.14L11,1.71V5v3.5C11,8.779,11.221,9,11.5,9S12,8.779,12,8.5V5
		V1.71l1.15,1.14c0.09,0.1,0.229,0.16,0.358,0.16c0.12,0,0.25-0.05,0.341-0.14c0.199-0.2,0.209-0.51,0.021-0.71
		c-0.011-0.01-0.011-0.01-0.021-0.01l-2-2C11.76,0.05,11.63,0,11.5,0s-0.26,0.05-0.35,0.15l-2,2c-0.2,0.19-0.19,0.51,0.01,0.7
		C9.26,2.94,9.37,2.99,9.49,2.99z"/>
</g>
</svg>
