<svg width="363.64000244140624px" height="89.68001708984374px" xmlns="http://www.w3.org/2000/svg" viewBox="68.17999877929688 30.159991455078128 363.64000244140624 89.68001708984374" style="background: rgba(0, 0, 0, 0) none repeat scroll 0% 0%;" preserveAspectRatio="xMidYMid"><defs><linearGradient id="editing-outline-gradient" x1="-0.41354545764260087" x2="1.4135454576426008" y1="0.09326335692419985" y2="0.9067366430758002"><stop offset="0" stop-color="#ee4208"></stop><stop offset="1" stop-color="#4139ff"></stop></linearGradient><filter id="editing-outline" x="-100%" y="-100%" width="300%" height="300%"><feMorphology in="SourceGraphic" operator="dilate" radius="1" result="outline"></feMorphology><feComposite operator="out" in="outline" in2="SourceAlpha"></feComposite></filter></defs><g filter="url(#editing-outline)"><g transform="translate(125.31999784708023, 93.57999801635742)"><path d="M10.44 0L6.48 0L0.92-26.24L4.36-26.24L7.12-11.96L7.12-11.96Q7.48-9.80 7.88-7.72L7.88-7.72L7.88-7.72Q8.28-5.64 8.64-3.48L8.64-3.48L8.80-3.48L8.80-3.48Q9.24-5.64 9.72-7.74L9.72-7.74L9.72-7.74Q10.20-9.84 10.64-11.96L10.64-11.96L14.28-26.24L17.32-26.24L20.96-11.96L20.96-11.96Q21.44-9.88 21.92-7.76L21.92-7.76L21.92-7.76Q22.40-5.64 22.88-3.48L22.88-3.48L23.04-3.48L23.04-3.48Q23.40-5.64 23.76-7.74L23.76-7.74L23.76-7.74Q24.12-9.84 24.52-11.96L24.52-11.96L27.28-26.24L30.48-26.24L25.04 0L21.04 0L17.08-15.80L17.08-15.80Q16.72-17.32 16.42-18.78L16.42-18.78L16.42-18.78Q16.12-20.24 15.80-21.76L15.80-21.76L15.64-21.76L15.64-21.76Q15.32-20.24 14.98-18.78L14.98-18.78L14.98-18.78Q14.64-17.32 14.32-15.80L14.32-15.80L10.44 0ZM38.56 0.48L38.56 0.48L38.56 0.48Q36.12 0.48 34.50-0.96L34.50-0.96L34.50-0.96Q32.88-2.40 32.88-5.04L32.88-5.04L32.88-5.04Q32.88-8.24 35.72-9.94L35.72-9.94L35.72-9.94Q38.56-11.64 44.80-12.32L44.80-12.32L44.80-12.32Q44.80-13.24 44.62-14.12L44.62-14.12L44.62-14.12Q44.44-15 44-15.68L44-15.68L44-15.68Q43.56-16.36 42.78-16.78L42.78-16.78L42.78-16.78Q42-17.20 40.80-17.20L40.80-17.20L40.80-17.20Q39.12-17.20 37.64-16.56L37.64-16.56L37.64-16.56Q36.16-15.92 35-15.12L35-15.12L33.72-17.40L33.72-17.40Q35.08-18.28 37.04-19.10L37.04-19.10L37.04-19.10Q39-19.92 41.36-19.92L41.36-19.92L41.36-19.92Q44.92-19.92 46.52-17.74L46.52-17.74L46.52-17.74Q48.12-15.56 48.12-11.92L48.12-11.92L48.12 0L45.40 0L45.12-2.32L45-2.32L45-2.32Q43.60-1.16 42-0.34L42-0.34L42-0.34Q40.40 0.48 38.56 0.48ZM39.52-2.16L39.52-2.16L39.52-2.16Q40.92-2.16 42.16-2.82L42.16-2.82L42.16-2.82Q43.40-3.48 44.80-4.76L44.80-4.76L44.80-10.16L44.80-10.16Q42.36-9.84 40.70-9.40L40.70-9.40L40.70-9.40Q39.04-8.96 38.02-8.36L38.02-8.36L38.02-8.36Q37-7.76 36.54-6.98L36.54-6.98L36.54-6.98Q36.08-6.20 36.08-5.28L36.08-5.28L36.08-5.28Q36.08-3.60 37.08-2.88L37.08-2.88L37.08-2.88Q38.08-2.16 39.52-2.16ZM59.80 0.48L59.80 0.48L59.80 0.48Q58.24 0.48 57.18 0L57.18 0L57.18 0Q56.12-0.48 55.46-1.32L55.46-1.32L55.46-1.32Q54.80-2.16 54.52-3.36L54.52-3.36L54.52-3.36Q54.24-4.56 54.24-6L54.24-6L54.24-16.76L51.36-16.76L51.36-19.24L54.40-19.44L54.80-24.88L57.56-24.88L57.56-19.44L62.80-19.44L62.80-16.76L57.56-16.76L57.56-5.96L57.56-5.96Q57.56-4.16 58.22-3.18L58.22-3.18L58.22-3.18Q58.88-2.20 60.56-2.20L60.56-2.20L60.56-2.20Q61.08-2.20 61.68-2.36L61.68-2.36L61.68-2.36Q62.28-2.52 62.76-2.72L62.76-2.72L63.40-0.24L63.40-0.24Q62.60 0.04 61.66 0.26L61.66 0.26L61.66 0.26Q60.72 0.48 59.80 0.48ZM74.52 0.48L74.52 0.48L74.52 0.48Q72.56 0.48 70.86-0.22L70.86-0.22L70.86-0.22Q69.16-0.92 67.90-2.22L67.90-2.22L67.90-2.22Q66.64-3.52 65.92-5.40L65.92-5.40L65.92-5.40Q65.20-7.28 65.20-9.68L65.20-9.68L65.20-9.68Q65.20-12.08 65.94-13.98L65.94-13.98L65.94-13.98Q66.68-15.88 67.90-17.20L67.90-17.20L67.90-17.20Q69.12-18.52 70.68-19.22L70.68-19.22L70.68-19.22Q72.24-19.92 73.92-19.92L73.92-19.92L73.92-19.92Q75.76-19.92 77.22-19.28L77.22-19.28L77.22-19.28Q78.68-18.64 79.66-17.44L79.66-17.44L79.66-17.44Q80.64-16.24 81.16-14.56L81.16-14.56L81.16-14.56Q81.68-12.88 81.68-10.80L81.68-10.80L81.68-10.80Q81.68-10.28 81.66-9.78L81.66-9.78L81.66-9.78Q81.64-9.28 81.56-8.92L81.56-8.92L68.44-8.92L68.44-8.92Q68.64-5.80 70.38-3.98L70.38-3.98L70.38-3.98Q72.12-2.16 74.92-2.16L74.92-2.16L74.92-2.16Q76.32-2.16 77.50-2.58L77.50-2.58L77.50-2.58Q78.68-3 79.76-3.68L79.76-3.68L80.92-1.52L80.92-1.52Q79.64-0.72 78.08-0.12L78.08-0.12L78.08-0.12Q76.52 0.48 74.52 0.48ZM68.40-11.28L68.40-11.28L78.80-11.28L78.80-11.28Q78.80-14.24 77.54-15.78L77.54-15.78L77.54-15.78Q76.28-17.32 74-17.32L74-17.32L74-17.32Q72.96-17.32 72.02-16.92L72.02-16.92L72.02-16.92Q71.08-16.52 70.32-15.74L70.32-15.74L70.32-15.74Q69.56-14.96 69.06-13.84L69.06-13.84L69.06-13.84Q68.56-12.72 68.40-11.28ZM89.76 0L86.48 0L86.48-19.44L89.20-19.44L89.48-15.92L89.60-15.92L89.60-15.92Q90.60-17.76 92.02-18.84L92.02-18.84L92.02-18.84Q93.44-19.92 95.12-19.92L95.12-19.92L95.12-19.92Q96.28-19.92 97.20-19.52L97.20-19.52L96.56-16.64L96.56-16.64Q96.08-16.80 95.68-16.88L95.68-16.88L95.68-16.88Q95.28-16.96 94.68-16.96L94.68-16.96L94.68-16.96Q93.44-16.96 92.10-15.96L92.10-15.96L92.10-15.96Q90.76-14.96 89.76-12.48L89.76-12.48L89.76 0ZM104.20 0L100.92 0L100.92-16.76L98.28-16.76L98.28-19.24L100.92-19.44L100.92-22.52L100.92-22.52Q100.92-25.52 102.30-27.24L102.30-27.24L102.30-27.24Q103.68-28.96 106.60-28.96L106.60-28.96L106.60-28.96Q107.52-28.96 108.34-28.78L108.34-28.78L108.34-28.78Q109.16-28.60 109.84-28.32L109.84-28.32L109.12-25.80L109.12-25.80Q108.04-26.28 106.92-26.28L106.92-26.28L106.92-26.28Q104.20-26.28 104.20-22.52L104.20-22.52L104.20-19.44L108.32-19.44L108.32-16.76L104.20-16.76L104.20 0ZM119.20 0.48L119.20 0.48L119.20 0.48Q117.40 0.48 115.78-0.20L115.78-0.20L115.78-0.20Q114.16-0.88 112.92-2.18L112.92-2.18L112.92-2.18Q111.68-3.48 110.94-5.38L110.94-5.38L110.94-5.38Q110.20-7.28 110.20-9.68L110.20-9.68L110.20-9.68Q110.20-12.12 110.94-14.02L110.94-14.02L110.94-14.02Q111.68-15.92 112.92-17.24L112.92-17.24L112.92-17.24Q114.16-18.56 115.78-19.24L115.78-19.24L115.78-19.24Q117.40-19.92 119.20-19.92L119.20-19.92L119.20-19.92Q121.00-19.92 122.62-19.24L122.62-19.24L122.62-19.24Q124.24-18.56 125.48-17.24L125.48-17.24L125.48-17.24Q126.72-15.92 127.46-14.02L127.46-14.02L127.46-14.02Q128.20-12.12 128.20-9.68L128.20-9.68L128.20-9.68Q128.20-7.28 127.46-5.38L127.46-5.38L127.46-5.38Q126.72-3.48 125.48-2.18L125.48-2.18L125.48-2.18Q124.24-0.88 122.62-0.20L122.62-0.20L122.62-0.20Q121.00 0.48 119.20 0.48ZM119.20-2.24L119.20-2.24L119.20-2.24Q120.44-2.24 121.48-2.78L121.48-2.78L121.48-2.78Q122.52-3.32 123.26-4.30L123.26-4.30L123.26-4.30Q124.00-5.28 124.40-6.64L124.40-6.64L124.40-6.64Q124.80-8 124.80-9.68L124.80-9.68L124.80-9.68Q124.80-11.36 124.40-12.74L124.40-12.74L124.40-12.74Q124.00-14.12 123.26-15.12L123.26-15.12L123.26-15.12Q122.52-16.12 121.48-16.66L121.48-16.66L121.48-16.66Q120.44-17.20 119.20-17.20L119.20-17.20L119.20-17.20Q117.96-17.20 116.92-16.66L116.92-16.66L116.92-16.66Q115.88-16.12 115.14-15.12L115.14-15.12L115.14-15.12Q114.40-14.12 114.00-12.74L114.00-12.74L114.00-12.74Q113.60-11.36 113.60-9.68L113.60-9.68L113.60-9.68Q113.60-8 114.00-6.64L114.00-6.64L114.00-6.64Q114.40-5.28 115.14-4.30L115.14-4.30L115.14-4.30Q115.88-3.32 116.92-2.78L116.92-2.78L116.92-2.78Q117.96-2.24 119.20-2.24ZM133.36 0L129.92 0L136.28-10.16L130.40-19.44L133.96-19.44L136.56-15.16L136.56-15.16Q137-14.36 137.48-13.54L137.48-13.54L137.48-13.54Q137.96-12.72 138.48-11.92L138.48-11.92L138.64-11.92L138.64-11.92Q139.08-12.72 139.52-13.54L139.52-13.54L139.52-13.54Q139.96-14.36 140.40-15.16L140.40-15.16L142.76-19.44L146.20-19.44L140.32-9.80L146.64 0L143.08 0L140.24-4.52L140.24-4.52Q139.72-5.40 139.20-6.28L139.20-6.28L139.20-6.28Q138.68-7.16 138.12-8L138.12-8L137.96-8L137.96-8Q137.44-7.16 136.96-6.30L136.96-6.30L136.96-6.30Q136.48-5.44 136-4.52L136-4.52L133.36 0ZM163.32-14.68L163.32-14.68L162.08-10.68L169.96-10.68L168.72-14.68L168.72-14.68Q168-16.88 167.36-19.06L167.36-19.06L167.36-19.06Q166.72-21.24 166.08-23.52L166.08-23.52L165.92-23.52L165.92-23.52Q165.32-21.24 164.68-19.06L164.68-19.06L164.68-19.06Q164.04-16.88 163.32-14.68ZM158.72 0L155.32 0L164.20-26.24L167.96-26.24L176.84 0L173.28 0L170.80-8L161.24-8L158.72 0ZM183.72 0.48L183.72 0.48L183.72 0.48Q181.84 0.48 181.04-0.64L181.04-0.64L181.04-0.64Q180.24-1.76 180.24-3.92L180.24-3.92L180.24-28.48L183.52-28.48L183.52-3.68L183.52-3.68Q183.52-2.88 183.80-2.56L183.80-2.56L183.80-2.56Q184.08-2.24 184.44-2.24L184.44-2.24L184.44-2.24Q184.60-2.24 184.74-2.24L184.74-2.24L184.74-2.24Q184.88-2.24 185.16-2.32L185.16-2.32L185.60 0.16L185.60 0.16Q185.28 0.32 184.84 0.40L184.84 0.40L184.84 0.40Q184.40 0.48 183.72 0.48ZM193.72 8.20L190.44 8.20L190.44-19.44L193.16-19.44L193.44-17.20L193.56-17.20L193.56-17.20Q194.88-18.32 196.46-19.12L196.46-19.12L196.46-19.12Q198.04-19.92 199.76-19.92L199.76-19.92L199.76-19.92Q201.64-19.92 203.08-19.22L203.08-19.22L203.08-19.22Q204.52-18.52 205.48-17.22L205.48-17.22L205.48-17.22Q206.44-15.92 206.94-14.10L206.94-14.10L206.94-14.10Q207.44-12.28 207.44-10L207.44-10L207.44-10Q207.44-7.52 206.76-5.58L206.76-5.58L206.76-5.58Q206.08-3.64 204.92-2.28L204.92-2.28L204.92-2.28Q203.76-0.92 202.24-0.22L202.24-0.22L202.24-0.22Q200.72 0.48 199.04 0.48L199.04 0.48L199.04 0.48Q197.68 0.48 196.34-0.12L196.34-0.12L196.34-0.12Q195.00-0.72 193.64-1.76L193.64-1.76L193.72 1.64L193.72 8.20ZM198.48-2.28L198.48-2.28L198.48-2.28Q199.68-2.28 200.70-2.82L200.70-2.82L200.70-2.82Q201.72-3.36 202.46-4.34L202.46-4.34L202.46-4.34Q203.20-5.32 203.62-6.76L203.62-6.76L203.62-6.76Q204.04-8.20 204.04-10L204.04-10L204.04-10Q204.04-11.60 203.76-12.92L203.76-12.92L203.76-12.92Q203.48-14.24 202.86-15.18L202.86-15.18L202.86-15.18Q202.24-16.12 201.26-16.64L201.26-16.64L201.26-16.64Q200.28-17.16 198.92-17.16L198.92-17.16L198.92-17.16Q197.68-17.16 196.42-16.48L196.42-16.48L196.42-16.48Q195.16-15.80 193.72-14.52L193.72-14.52L193.72-4.32L193.72-4.32Q195.04-3.20 196.28-2.74L196.28-2.74L196.28-2.74Q197.52-2.28 198.48-2.28ZM215.92 0L212.64 0L212.64-28.48L215.92-28.48L215.92-20.72L215.80-16.72L215.80-16.72Q217.20-18.04 218.72-18.98L218.72-18.98L218.72-18.98Q220.24-19.92 222.28-19.92L222.28-19.92L222.28-19.92Q225.36-19.92 226.78-18L226.78-18L226.78-18Q228.20-16.08 228.20-12.32L228.20-12.32L228.20 0L224.92 0L224.92-11.88L224.92-11.88Q224.92-14.64 224.04-15.86L224.04-15.86L224.04-15.86Q223.16-17.08 221.24-17.08L221.24-17.08L221.24-17.08Q219.72-17.08 218.56-16.32L218.56-16.32L218.56-16.32Q217.40-15.56 215.92-14.08L215.92-14.08L215.92 0ZM238.88 0.48L238.88 0.48L238.88 0.48Q236.44 0.48 234.82-0.96L234.82-0.96L234.82-0.96Q233.20-2.40 233.20-5.04L233.20-5.04L233.20-5.04Q233.20-8.24 236.04-9.94L236.04-9.94L236.04-9.94Q238.88-11.64 245.12-12.32L245.12-12.32L245.12-12.32Q245.12-13.24 244.94-14.12L244.94-14.12L244.94-14.12Q244.76-15 244.32-15.68L244.32-15.68L244.32-15.68Q243.88-16.36 243.10-16.78L243.10-16.78L243.10-16.78Q242.32-17.20 241.12-17.20L241.12-17.20L241.12-17.20Q239.44-17.20 237.96-16.56L237.96-16.56L237.96-16.56Q236.48-15.92 235.32-15.12L235.32-15.12L234.04-17.40L234.04-17.40Q235.40-18.28 237.36-19.10L237.36-19.10L237.36-19.10Q239.32-19.92 241.68-19.92L241.68-19.92L241.68-19.92Q245.24-19.92 246.84-17.74L246.84-17.74L246.84-17.74Q248.44-15.56 248.44-11.92L248.44-11.92L248.44 0L245.72 0L245.44-2.32L245.32-2.32L245.32-2.32Q243.92-1.16 242.32-0.34L242.32-0.34L242.32-0.34Q240.72 0.48 238.88 0.48ZM239.84-2.16L239.84-2.16L239.84-2.16Q241.24-2.16 242.48-2.82L242.48-2.82L242.48-2.82Q243.72-3.48 245.12-4.76L245.12-4.76L245.12-10.16L245.12-10.16Q242.68-9.84 241.02-9.40L241.02-9.40L241.02-9.40Q239.36-8.96 238.34-8.36L238.34-8.36L238.34-8.36Q237.32-7.76 236.86-6.98L236.86-6.98L236.86-6.98Q236.40-6.20 236.40-5.28L236.40-5.28L236.40-5.28Q236.40-3.60 237.40-2.88L237.40-2.88L237.40-2.88Q238.40-2.16 239.84-2.16Z" fill="url(#editing-outline-gradient)"></path></g></g><style>text {
  font-size: 64px;
  font-family: Arial Black;
  dominant-baseline: central;
  text-anchor: middle;
}</style></svg>