<?xml version="1.0" encoding="utf-8"?>
<!DOCTYPE svg PUBLIC "-//W3C//DTD SVG 1.1//EN" "http://www.w3.org/Graphics/SVG/1.1/DTD/svg11.dtd">
<svg version="1.1" id="Layer_1" xmlns="http://www.w3.org/2000/svg" xmlns:xlink="http://www.w3.org/1999/xlink" x="0px" y="0px"
	 width="32px" height="32px" viewBox="0 0 32 32" enable-background="new 0 0 32 32" xml:space="preserve">
<path fill="#FFFFFF" d="M3,1h26c1.104,0,2,0.896,2,2v26c0,1.104-0.896,2-2,2H3c-1.104,0-2-0.896-2-2V3C1,1.896,1.896,1,3,1z"/>
<path fill="#F9F9FA" d="M2.942,1.073l26-0.145c1.029-0.075,1.926,0.691,2.013,1.718l0.106,19.27l-30,0.168L0.951,2.813
	C1.026,1.786,1.914,1.009,2.942,1.073z"/>
<path fill="none" stroke="#ADADB3" d="M1,21.5h30"/>
<path fill="none" stroke="#ADADB3" stroke-width="2" d="M3,1h26c1.104,0,2,0.896,2,2v26c0,1.104-0.896,2-2,2H3c-1.104,0-2-0.896-2-2
	V3C1,1.896,1.896,1,3,1z"/>
<g opacity="0.7">
	<g>
		<path fill="#040614" d="M15.5,5c3.584,0,6.5,2.916,6.5,6.5S19.084,18,15.5,18S9,15.084,9,11.5S11.916,5,15.5,5 M15.5,4
			C11.364,4,8,7.364,8,11.5s3.364,7.5,7.5,7.5s7.5-3.364,7.5-7.5S19.636,4,15.5,4L15.5,4z"/>
	</g>
	<path fill="#040614" d="M17.557,15.834c-0.137,0-0.264-0.037-0.381-0.105l-6.18-3.566c-0.236-0.136-0.382-0.383-0.382-0.659
		c0-0.273,0.146-0.527,0.382-0.665l6.186-3.568c0.112-0.066,0.246-0.104,0.379-0.104c0.131,0,0.267,0.038,0.381,0.104
		c0.235,0.137,0.383,0.388,0.383,0.663v7.139c0,0.272-0.146,0.522-0.383,0.659C17.825,15.797,17.691,15.834,17.557,15.834
		L17.557,15.834z"/>
</g>
</svg>
