<?xml version="1.0" encoding="utf-8"?>
<!DOCTYPE svg PUBLIC "-//W3C//DTD SVG 1.1//EN" "http://www.w3.org/Graphics/SVG/1.1/DTD/svg11.dtd">
<svg version="1.1" id="Layer_1" xmlns="http://www.w3.org/2000/svg" xmlns:xlink="http://www.w3.org/1999/xlink" x="0px" y="0px"
	 width="32px" height="32px" viewBox="0 0 32 32" enable-background="new 0 0 32 32" xml:space="preserve">
<path fill="#FFFFFF" d="M3,1h26c1.104,0,2,0.896,2,2v26c0,1.104-0.896,2-2,2H3c-1.104,0-2-0.896-2-2V3C1,1.896,1.896,1,3,1z"/>
<path fill="#FFFFFF" d="M3,1h26c1.1,0,2,0.479,2,1.071V14H1V2.071C1,1.479,1.9,1,3,1z"/>
<path fill="none" stroke="#ADADB3" d="M1,13.5h30"/>
<path fill="none" stroke="#ADADB3" stroke-width="2" d="M3,1h26c1.104,0,2,0.896,2,2v26c0,1.104-0.896,2-2,2H3c-1.104,0-2-0.896-2-2
	V3C1,1.896,1.896,1,3,1z"/>
<g opacity="0.7">
	<g>
		<path fill="none" stroke="#040614" stroke-linecap="round" stroke-linejoin="round" d="M28.5,4.5v2h-2"/>
		<path fill="none" stroke="#040614" stroke-linecap="round" stroke-linejoin="round" d="M27.623,9.614
			c-1.18,1.188-3.098,1.195-4.285,0.016c-1.188-1.179-1.195-3.097-0.016-4.285c1.178-1.188,3.097-1.195,4.283-0.016
			c0.277,0.275,0.5,0.602,0.652,0.961"/>
	</g>
	<g>
		<path fill="none" stroke="#040614" stroke-linecap="round" stroke-linejoin="round" d="M7.499,12c-2.481,0-4.5-2.018-4.5-4.5
			c0-2.481,2.018-4.5,4.5-4.5c2.481,0,4.5,2.019,4.5,4.5C11.999,9.982,9.979,12,7.499,12z"/>
		<path fill="#040614" d="M8.708,10.049c-0.081,0-0.155-0.022-0.224-0.062L4.849,7.89C4.71,7.81,4.624,7.664,4.624,7.501
			c0-0.16,0.085-0.31,0.225-0.391l3.638-2.099c0.067-0.038,0.146-0.06,0.223-0.06c0.078,0,0.155,0.022,0.224,0.061
			c0.138,0.08,0.225,0.228,0.225,0.389v4.2c0,0.16-0.086,0.307-0.225,0.388C8.865,10.027,8.787,10.049,8.708,10.049L8.708,10.049z"
			/>
	</g>
	<path fill="#040614" enable-background="new    " d="M15.471,4.952c0.081,0,0.155,0.021,0.224,0.061L19.33,7.11
		c0.139,0.081,0.225,0.226,0.225,0.39c0,0.159-0.084,0.309-0.225,0.39l-3.637,2.1c-0.067,0.039-0.146,0.06-0.224,0.06
		c-0.078,0-0.154-0.021-0.224-0.06C15.107,9.91,15.02,9.761,15.02,9.6V5.4c0-0.159,0.086-0.307,0.225-0.389
		C15.315,4.974,15.393,4.952,15.471,4.952L15.471,4.952z"/>
</g>
</svg>
