<?xml version="1.0" encoding="utf-8"?>
<!DOCTYPE svg PUBLIC "-//W3C//DTD SVG 1.1//EN" "http://www.w3.org/Graphics/SVG/1.1/DTD/svg11.dtd">
<svg version="1.1" id="Layer_1" xmlns="http://www.w3.org/2000/svg" xmlns:xlink="http://www.w3.org/1999/xlink" x="0px" y="0px"
	 width="8px" height="20px" viewBox="0.5 -1 8 20" enable-background="new 0.5 -1 8 20" xml:space="preserve" fill="context-fill">
<path d="M4.5-1c-1.66,0-3,1.34-3,3c0,1.31,0.83,2.42,2,2.82V18c0,0.55,0.45,1,1,1s1-0.45,1-1V4.82c1.17-0.4,2-1.51,2-2.82
	C7.5,0.34,6.16-1,4.5-1z M4.5,3.5C3.67,3.5,3,2.83,3,2s0.67-1.5,1.5-1.5S6,1.17,6,2S5.33,3.5,4.5,3.5z"/>
</svg>
