<?xml version="1.0" encoding="utf-8"?>
<!DOCTYPE svg PUBLIC "-//W3C//DTD SVG 1.1//EN" "http://www.w3.org/Graphics/SVG/1.1/DTD/svg11.dtd">
<svg version="1.1" id="Layer_1" xmlns="http://www.w3.org/2000/svg" xmlns:xlink="http://www.w3.org/1999/xlink" x="0px" y="0px"
	 width="16px" height="16px" viewBox="0 0 16 16" enable-background="new 0 0 16 16" xml:space="preserve" fill="context-fill">
<g>
	<g>
		<path d="M13.314,14.041c-0.188,0-0.371-0.05-0.533-0.145l-8.62-4.975C3.833,8.732,3.628,8.381,3.628,8
			c0-0.378,0.204-0.732,0.531-0.923L12.783,2.1c0.16-0.093,0.344-0.142,0.531-0.142c0.186,0,0.369,0.049,0.525,0.142
			c0.328,0.191,0.531,0.544,0.531,0.923v9.956c0,0.379-0.203,0.729-0.531,0.92C13.686,13.99,13.498,14.041,13.314,14.041
			L13.314,14.041z"/>
	</g>
	<path d="M3.628,13.041c0,0.553-0.447,1-1,1l0,0c-0.553,0-1-0.447-1-1V2.958c0-0.552,0.447-1,1-1l0,0c0.553,0,1,0.448,1,1V13.041z"
		/>
</g>
</svg>
