<?xml version="1.0" encoding="utf-8"?>
<!DOCTYPE svg PUBLIC "-//W3C//DTD SVG 1.1//EN" "http://www.w3.org/Graphics/SVG/1.1/DTD/svg11.dtd">
<svg version="1.1" id="Layer_1" xmlns="http://www.w3.org/2000/svg" xmlns:xlink="http://www.w3.org/1999/xlink" x="0px" y="0px"
	 width="16px" height="16px" viewBox="0 0 16 16" enable-background="new 0 0 16 16" xml:space="preserve" fill="context-fill">
<g>
	<g>
		<path d="M2.686,14.041c-0.184,0-0.371-0.051-0.525-0.143c-0.328-0.19-0.531-0.541-0.531-0.92V3.023
			c0-0.379,0.203-0.732,0.531-0.923C2.316,2.007,2.5,1.958,2.686,1.958c0.188,0,0.371,0.049,0.531,0.142l8.623,4.977
			C12.168,7.268,12.371,7.622,12.371,8c0,0.381-0.205,0.732-0.533,0.922l-8.619,4.975C3.057,13.991,2.873,14.041,2.686,14.041
			L2.686,14.041z"/>
	</g>
	<path d="M12.371,13.041c0,0.553,0.447,1,1,1l0,0c0.553,0,1-0.447,1-1V2.958c0-0.552-0.447-1-1-1l0,0c-0.553,0-1,0.448-1,1V13.041z"
		/>
</g>
</svg>
