<?xml version="1.0" encoding="utf-8"?>
<!DOCTYPE svg PUBLIC "-//W3C//DTD SVG 1.1//EN" "http://www.w3.org/Graphics/SVG/1.1/DTD/svg11.dtd">
<svg version="1.1" id="Layer_1" xmlns="http://www.w3.org/2000/svg" xmlns:xlink="http://www.w3.org/1999/xlink" x="0px" y="0px"
	 width="16px" height="16px" viewBox="0 0 16 16" enable-background="new 0 0 16 16" xml:space="preserve" fill="context-fill" fill-opacity="context-fill-opacity">
<path d="M4.583,14.186c-0.188,0-0.38-0.052-0.539-0.146c-0.336-0.194-0.543-0.554-0.543-0.942V2.904c0-0.388,0.207-0.75,0.543-0.945
	c0.161-0.096,0.35-0.146,0.539-0.146c0.191,0,0.381,0.05,0.543,0.146l8.831,5.096C14.291,7.25,14.5,7.613,14.5,8
	c0,0.39-0.21,0.75-0.546,0.943l-8.825,5.095C4.964,14.135,4.776,14.186,4.583,14.186L4.583,14.186z"/>
</svg>
