<?xml version="1.0" encoding="utf-8"?>
<!DOCTYPE svg PUBLIC "-//W3C//DTD SVG 1.1//EN" "http://www.w3.org/Graphics/SVG/1.1/DTD/svg11.dtd">
<svg version="1.1" id="Layer_1" xmlns="http://www.w3.org/2000/svg" xmlns:xlink="http://www.w3.org/1999/xlink" x="0px" y="0px"
	 width="16px" height="16px" viewBox="0 0 16 16" enable-background="new 0 0 16 16" xml:space="preserve" fill="context-fill">
<path d="M14,1H9C8.45,1,8,1.45,8,2s0.45,1,1,1l2.99,0.01c0.55,0,1,0.45,1,1L13,7c0,0.55,0.45,1,1,1s1-0.45,1-1V2
	C15,1.45,14.55,1,14,1z M7,13l-2.99-0.01c-0.56,0-1-0.44-1-1L3,9c0-0.55-0.45-1-1-1S1,8.45,1,9v5c0,0.55,0.45,1,1,1h5
	c0.55,0,1-0.45,1-1S7.55,13,7,13z"/>
</svg>
