<?xml version="1.0" encoding="utf-8"?>
<!DOCTYPE svg PUBLIC "-//W3C//DTD SVG 1.1//EN" "http://www.w3.org/Graphics/SVG/1.1/DTD/svg11.dtd">
<svg version="1.1" id="Layer_1" xmlns="http://www.w3.org/2000/svg" xmlns:xlink="http://www.w3.org/1999/xlink" x="0px" y="0px"
	 width="24px" height="24px" viewBox="0 0 24 24" enable-background="new 0 0 24 24" xml:space="preserve" fill="context-fill">
<path opacity="0" fill="#8000D7" d="M12,24L12,24C5.4,24,0,18.6,0,12l0,0C0,5.4,5.4,0,12,0l0,0c6.6,0,12,5.4,12,12l0,0
	C24,18.6,18.6,24,12,24z"/>
<path d="M15.4,11c-1-0.1-1.9,0.5-2.101,1.5c0,0.3,1.2,0.7,2.3,0.7c1.101,0,2.101-0.7,2.101-0.9C17.7,12.1,17,11.1,15.4,11L15.4,11z
	 M8.6,11c-1.6,0.1-2.3,1-2.3,1.3c0,0.2,1.1,0.9,2.1,0.9s2.3-0.4,2.3-0.7C10.5,11.5,9.5,10.9,8.6,11L8.6,11z M16.4,16.5
	c-1.7,0-2.801-2-4.4-2c-1.6,0-2.8,2-4.4,2c-2.1,0-3.6-1.9-3.6-5.3c0-2.1,0.6-2.7,3.3-2.7c2.7,0,3.4,1.1,4.7,1.1s2.1-1.1,4.7-1.1
	c2.6,0,3.3,0.7,3.3,2.7C20,14.6,18.5,16.5,16.4,16.5L16.4,16.5z"/>
<g>
	<circle fill="#9C73BA" cx="-32.903" cy="24.43" r="5.464"/>
	<circle fill="#9C73BA" cx="76.182" cy="24.43" r="5.464"/>
</g>
</svg>
