<?xml version="1.0" encoding="utf-8"?>
<!DOCTYPE svg PUBLIC "-//W3C//DTD SVG 1.1//EN" "http://www.w3.org/Graphics/SVG/1.1/DTD/svg11.dtd">
<svg version="1.1" id="Layer_1" xmlns="http://www.w3.org/2000/svg" xmlns:xlink="http://www.w3.org/1999/xlink" x="0px" y="0px"
	 width="16px" height="16px" viewBox="0 0 16 16" enable-background="new 0 0 16 16" xml:space="preserve" fill="context-fill" fill-opacity="context-fill-opacity">
<g>
	<path d="M14,3h-2v2.08c0.16-0.06,0.33-0.09,0.51-0.09c0.4,0,0.79,0.17,1.08,0.46c0.57,0.6,0.551,1.55-0.029,2.11l-2,2
		C11.279,9.84,10.9,10,10.5,10S9.721,9.84,9.439,9.561l-2-2C7.16,7.28,7,6.9,7,6.5s0.16-0.78,0.44-1.06C7.72,5.15,8.1,5,8.5,5
		C8.67,5,8.84,5.03,9,5.08V3H8.15L6.58,1.54C6.21,1.19,5.73,1,5.22,1H2C0.9,1,0,1.9,0,3v10c0,1.1,0.9,2,2,2h12c1.1,0,2-0.9,2-2V5
		C16,3.9,15.1,3,14,3z"/>
	<path fill-opacity=".75" d="M8.5,6C8.37,6,8.24,6.05,8.15,6.15c-0.2,0.19-0.2,0.51,0,0.7l2,2C10.24,8.95,10.37,9,10.5,9s0.26-0.05,0.35-0.15l2-2
		c0.2-0.19,0.211-0.51,0.021-0.7c-0.102-0.11-0.23-0.16-0.36-0.16s-0.25,0.05-0.35,0.14C12.15,6.14,12.15,6.14,12.15,6.15L11,7.29
		v-2.7V0.5C11,0.22,10.779,0,10.5,0S10,0.22,10,0.5v4.09v2.7L8.85,6.15C8.76,6.05,8.63,6,8.5,6z"/>
</g>
</svg>
